<?xml version="1.0" encoding="UTF-8" standalone="no"?>
<!-- Created with Inkscape (http://www.inkscape.org/) -->

<svg
   xmlns:dc="http://purl.org/dc/elements/1.1/"
   xmlns:cc="http://creativecommons.org/ns#"
   xmlns:rdf="http://www.w3.org/1999/02/22-rdf-syntax-ns#"
   xmlns:svg="http://www.w3.org/2000/svg"
   xmlns="http://www.w3.org/2000/svg"
   xmlns:sodipodi="http://sodipodi.sourceforge.net/DTD/sodipodi-0.dtd"
   xmlns:inkscape="http://www.inkscape.org/namespaces/inkscape"
   version="1.1"
   width="377.5"
   height="306.25"
   id="svg4214"
   xml:space="preserve"
   inkscape:version="0.91 r13725"
   sodipodi:docname="2djamming.svg"><sodipodi:namedview
     pagecolor="#ffffff"
     bordercolor="#666666"
     borderopacity="1"
     objecttolerance="10"
     gridtolerance="10"
     guidetolerance="10"
     inkscape:pageopacity="0"
     inkscape:pageshadow="2"
     inkscape:window-width="1920"
     inkscape:window-height="1171"
     id="namedview168"
     showgrid="false"
     inkscape:zoom="1.42"
     inkscape:cx="223.46139"
     inkscape:cy="141.37206"
     inkscape:window-x="0"
     inkscape:window-y="0"
     inkscape:window-maximized="1"
     inkscape:current-layer="g4222" /><metadata
     id="metadata4220"><rdf:RDF><cc:Work
         rdf:about=""><dc:format>image/svg+xml</dc:format><dc:type
           rdf:resource="http://purl.org/dc/dcmitype/StillImage" /><dc:title /></cc:Work></rdf:RDF></metadata><defs
     id="defs4218"><clipPath
       id="clipPath4228"><path
         d="m 0,0.2 302.3,0 0,244.7 L 0,244.9 0,0.2 z"
         id="path4230" /></clipPath><clipPath
       id="clipPath4266"><path
         d="m 257.2,7.5 18.4,0 0,15 -18.4,0 0,-15 z"
         id="path4268" /></clipPath><clipPath
       id="clipPath4280"><path
         d="m 0,0.2 302.3,0 0,244.7 L 0,244.9 0,0.2 z"
         id="path4282" /></clipPath><clipPath
       id="clipPath4320"><path
         d="m 2.1,198 19,0 0,11.7 -19,0 0,-11.7 z"
         id="path4322" /></clipPath><clipPath
       id="clipPath4334"><path
         d="m 0,0.2 302.3,0 0,244.7 L 0,244.9 0,0.2 z"
         id="path4336" /></clipPath><clipPath
       id="clipPath4460"><path
         d="m 2.1,89.5 24.6,0 0,18 -24.6,0 0,-18 z"
         id="path4462" /></clipPath><clipPath
       id="clipPath4480"><path
         d="m 0,0.2 302.3,0 0,244.7 L 0,244.9 0,0.2 z"
         id="path4482" /></clipPath><clipPath
       id="clipPath4488"><path
         d="m 167.4,99.3 3.7,0 0,3.8 -3.7,0 0,-3.8 z"
         id="path4490" /></clipPath><clipPath
       id="clipPath4514"><path
         d="m 167.5,34.1 3.7,0 0,3.8 -3.7,0 0,-3.8 z"
         id="path4516" /></clipPath><clipPath
       id="clipPath4540"><path
         d="m 151,34 0,0 0,177.1 0,0 0,-177.1 z"
         id="path4542" /></clipPath></defs><g
     transform="matrix(1.25,0,0,-1.25,0,306.25)"
     id="g4222"><g
       id="g4224"><g
         clip-path="url(#clipPath4228)"
         id="g4226"><path
           d="m 0,245 302.4,0 0,-244.8 L 0,0.2 0,245 z"
           id="path4232"
           style="fill:#ffffff;fill-opacity:1;fill-rule:evenodd;stroke:none" /><g
           id="g4234"><path
             d="m 29.5,33.8 0,181.3"
             id="path4236"
             style="fill:none;stroke:#000000;stroke-width:2.15078998;stroke-linecap:butt;stroke-linejoin:round;stroke-miterlimit:10;stroke-opacity:1;stroke-dasharray:none" /></g><path
           d="m 29.5,231.8 -5.9,-17.5 11.7,0 -5.8,17.5 z"
           id="path4238"
           style="fill:#000000;fill-opacity:1;fill-rule:evenodd;stroke:none" /><g
           id="g4240"><path
             d="m 29.5,34.6 238.8,0"
             id="path4242"
             style="fill:none;stroke:#000000;stroke-width:2.15078998;stroke-linecap:butt;stroke-linejoin:round;stroke-miterlimit:10;stroke-opacity:1;stroke-dasharray:none" /></g><path
           d="m 285.1,34.6 -17.6,5.9 0,-11.8 17.6,5.9 z"
           id="path4244"
           style="fill:#000000;fill-opacity:1;fill-rule:evenodd;stroke:none" /><g
           id="g4246"><path
             d="m 122.5,33.8 c 54,44.9 82.8,176.4 82.8,176.4"
             id="path4248"
             style="fill:none;stroke:#ff0000;stroke-width:1.44330001;stroke-linecap:butt;stroke-linejoin:round;stroke-miterlimit:10;stroke-opacity:1;stroke-dasharray:none" /></g></g></g><g
       id="g4276"><g
         clip-path="url(#clipPath4280)"
         id="g4278"><g
           id="g4284"
           transform="matrix(1.2462103,0,0,1.2462103,-17.507018,-41.418534)"><text
             transform="matrix(1,0,0,-1,70,168.4)"
             id="text4286"><tspan
               x="0 9.1049995 13.29 22.395 26.58"
               y="0"
               id="tspan4288"
               style="font-variant:normal;font-weight:bold;font-size:15px;font-family:Arial;-inkscape-font-specification:Arial-BoldMT;writing-mode:lr-tb;fill:#000080;fill-opacity:1;fill-rule:nonzero;stroke:none">Fluid</tspan></text>
</g><g
           id="g4290"
           transform="matrix(1.2240299,0,0,1.2240299,-48.825519,-10.374728)"><text
             transform="matrix(1,0,0,-1,217.4,46.5)"
             id="text4292"><tspan
               x="0 9.8999996 19.08 23.264999 27.450001"
               y="0"
               id="tspan4294"
               style="font-variant:normal;font-weight:bold;font-size:15px;font-family:Arial;-inkscape-font-specification:Arial-BoldMT;writing-mode:lr-tb;fill:#008000;fill-opacity:1;fill-rule:nonzero;stroke:none">Solid</tspan></text>
</g><g
           id="g4296"><text
             transform="matrix(1,0,0,-1,113.3,8.9)"
             id="text4298"><tspan
               x="0"
               y="0"
               id="tspan4300"
               style="font-size:20px;font-variant:normal;font-weight:bold;writing-mode:lr-tb;fill:#0093d9;fill-opacity:1;fill-rule:nonzero;stroke:none;font-family:Arial;-inkscape-font-specification:Arial-BoldMT">J</tspan></text>
</g><path
           d="m 122.81888,39.078322 c 2.75268,0 4.71888,-1.9662 4.71888,-4.718881 0,-2.621601 -1.9662,-4.718881 -4.71888,-4.718881 -2.6216,0 -4.71888,2.09728 -4.71888,4.718881 0,2.752681 2.09728,4.718881 4.71888,4.718881 z"
           id="path4302"
           style="fill:#729fcf;fill-opacity:1;fill-rule:evenodd;stroke:none"
           inkscape:connector-curvature="0" /><g
           id="g4304"><path
             d="m 123.3,37.4 c 2.1,0 3.6,-1.5 3.6,-3.6 0,-2 -1.5,-3.6 -3.6,-3.6 -2,0 -3.6,1.6 -3.6,3.6 0,2.1 1.6,3.6 3.6,3.6 z"
             id="path4306"
             style="fill:none;stroke:none" /></g><g
           id="g4308"><path
             d="m 119.7,37.4 0,0 z"
             id="path4310"
             style="fill:none;stroke:none" /></g><g
           id="g4312"><path
             d="m 127,30.2 0,0 z"
             id="path4314"
             style="fill:none;stroke:none" /></g></g></g><g
       id="g4330"><g
         clip-path="url(#clipPath4334)"
         id="g4332"><g
           id="g4289"
           transform="matrix(1.1558442,0,0,1.1558442,-9.4181818,-0.161039)"><g
             id="g4338"><path
               style="fill:none;stroke:#008080;stroke-width:1.24869776;stroke-linecap:butt;stroke-linejoin:round;stroke-miterlimit:10;stroke-dasharray:none;stroke-opacity:1"
               id="path4340"
               d="m 39.9,47.5 1.5,0"
               inkscape:connector-curvature="0" /></g><g
             id="g4342"><path
               style="fill:none;stroke:#008080;stroke-width:1.24869776;stroke-linecap:butt;stroke-linejoin:round;stroke-miterlimit:10;stroke-dasharray:none;stroke-opacity:1"
               id="path4344"
               d="m 42.8,47.5 1.4,0"
               inkscape:connector-curvature="0" /></g><g
             id="g4346"><path
               style="fill:none;stroke:#008080;stroke-width:1.24869776;stroke-linecap:butt;stroke-linejoin:round;stroke-miterlimit:10;stroke-dasharray:none;stroke-opacity:1"
               id="path4348"
               d="m 45.7,47.5 1.4,0"
               inkscape:connector-curvature="0" /></g><g
             id="g4350"><path
               style="fill:none;stroke:#008080;stroke-width:1.24869776;stroke-linecap:butt;stroke-linejoin:round;stroke-miterlimit:10;stroke-dasharray:none;stroke-opacity:1"
               id="path4352"
               d="m 48.6,47.5 1.4,0"
               inkscape:connector-curvature="0" /></g><g
             id="g4354"><path
               style="fill:none;stroke:#008080;stroke-width:1.24869776;stroke-linecap:butt;stroke-linejoin:round;stroke-miterlimit:10;stroke-dasharray:none;stroke-opacity:1"
               id="path4356"
               d="m 51.5,47.5 1.4,0"
               inkscape:connector-curvature="0" /></g><g
             id="g4358"><path
               style="fill:none;stroke:#008080;stroke-width:1.24869776;stroke-linecap:butt;stroke-linejoin:round;stroke-miterlimit:10;stroke-dasharray:none;stroke-opacity:1"
               id="path4360"
               d="m 54.4,47.5 1.4,0"
               inkscape:connector-curvature="0" /></g><g
             id="g4362"><path
               style="fill:none;stroke:#008080;stroke-width:1.24869776;stroke-linecap:butt;stroke-linejoin:round;stroke-miterlimit:10;stroke-dasharray:none;stroke-opacity:1"
               id="path4364"
               d="m 57.3,47.5 1.4,0"
               inkscape:connector-curvature="0" /></g><g
             id="g4366"><path
               style="fill:none;stroke:#008080;stroke-width:1.24869776;stroke-linecap:butt;stroke-linejoin:round;stroke-miterlimit:10;stroke-dasharray:none;stroke-opacity:1"
               id="path4368"
               d="m 60.2,47.5 1.4,0"
               inkscape:connector-curvature="0" /></g><g
             id="g4370"><path
               style="fill:none;stroke:#008080;stroke-width:1.24869776;stroke-linecap:butt;stroke-linejoin:round;stroke-miterlimit:10;stroke-dasharray:none;stroke-opacity:1"
               id="path4372"
               d="m 63,47.5 1.5,0"
               inkscape:connector-curvature="0" /></g><g
             id="g4374"><path
               style="fill:none;stroke:#008080;stroke-width:1.24869776;stroke-linecap:butt;stroke-linejoin:round;stroke-miterlimit:10;stroke-dasharray:none;stroke-opacity:1"
               id="path4376"
               d="m 65.9,47.5 1.5,0"
               inkscape:connector-curvature="0" /></g><g
             id="g4378"><path
               style="fill:none;stroke:#008080;stroke-width:1.24869776;stroke-linecap:butt;stroke-linejoin:round;stroke-miterlimit:10;stroke-dasharray:none;stroke-opacity:1"
               id="path4380"
               d="m 68.8,47.5 1.5,0"
               inkscape:connector-curvature="0" /></g><g
             id="g4382"><path
               style="fill:none;stroke:#008080;stroke-width:1.24869776;stroke-linecap:butt;stroke-linejoin:round;stroke-miterlimit:10;stroke-dasharray:none;stroke-opacity:1"
               id="path4384"
               d="m 71.7,47.5 1.5,0"
               inkscape:connector-curvature="0" /></g><g
             id="g4386"><path
               style="fill:none;stroke:#008080;stroke-width:1.24869776;stroke-linecap:butt;stroke-linejoin:round;stroke-miterlimit:10;stroke-dasharray:none;stroke-opacity:1"
               id="path4388"
               d="m 74.6,47.5 1.5,0"
               inkscape:connector-curvature="0" /></g><g
             id="g4390"><path
               style="fill:none;stroke:#008080;stroke-width:1.24869776;stroke-linecap:butt;stroke-linejoin:round;stroke-miterlimit:10;stroke-dasharray:none;stroke-opacity:1"
               id="path4392"
               d="m 77.5,47.5 1.4,0"
               inkscape:connector-curvature="0" /></g><g
             id="g4394"><path
               style="fill:none;stroke:#008080;stroke-width:1.24869776;stroke-linecap:butt;stroke-linejoin:round;stroke-miterlimit:10;stroke-dasharray:none;stroke-opacity:1"
               id="path4396"
               d="m 80.4,47.5 1.4,0"
               inkscape:connector-curvature="0" /></g><g
             id="g4398"><path
               style="fill:none;stroke:#008080;stroke-width:1.24869776;stroke-linecap:butt;stroke-linejoin:round;stroke-miterlimit:10;stroke-dasharray:none;stroke-opacity:1"
               id="path4400"
               d="m 83.3,47.5 1.4,0"
               inkscape:connector-curvature="0" /></g><g
             id="g4402"><path
               style="fill:none;stroke:#008080;stroke-width:1.24869776;stroke-linecap:butt;stroke-linejoin:round;stroke-miterlimit:10;stroke-dasharray:none;stroke-opacity:1"
               id="path4404"
               d="m 86.2,47.5 1.4,0"
               inkscape:connector-curvature="0" /></g><g
             id="g4406"><path
               style="fill:none;stroke:#008080;stroke-width:1.24869776;stroke-linecap:butt;stroke-linejoin:round;stroke-miterlimit:10;stroke-dasharray:none;stroke-opacity:1"
               id="path4408"
               d="m 89.1,47.5 1.4,0"
               inkscape:connector-curvature="0" /></g><g
             id="g4410"><path
               style="fill:none;stroke:#008080;stroke-width:1.24869776;stroke-linecap:butt;stroke-linejoin:round;stroke-miterlimit:10;stroke-dasharray:none;stroke-opacity:1"
               id="path4412"
               d="m 92,47.5 1.4,0"
               inkscape:connector-curvature="0" /></g><g
             id="g4414"><path
               style="fill:none;stroke:#008080;stroke-width:1.24869776;stroke-linecap:butt;stroke-linejoin:round;stroke-miterlimit:10;stroke-dasharray:none;stroke-opacity:1"
               id="path4416"
               d="m 94.8,47.5 1.5,0"
               inkscape:connector-curvature="0" /></g><g
             id="g4418"><path
               style="fill:none;stroke:#008080;stroke-width:1.24869776;stroke-linecap:butt;stroke-linejoin:round;stroke-miterlimit:10;stroke-dasharray:none;stroke-opacity:1"
               id="path4420"
               d="m 97.7,47.5 1.5,0"
               inkscape:connector-curvature="0" /></g><g
             id="g4422"><path
               style="fill:none;stroke:#008080;stroke-width:1.24869776;stroke-linecap:butt;stroke-linejoin:round;stroke-miterlimit:10;stroke-dasharray:none;stroke-opacity:1"
               id="path4424"
               d="m 100.6,47.5 1.5,0"
               inkscape:connector-curvature="0" /></g><g
             id="g4426"><path
               style="fill:none;stroke:#008080;stroke-width:1.24869776;stroke-linecap:butt;stroke-linejoin:round;stroke-miterlimit:10;stroke-dasharray:none;stroke-opacity:1"
               id="path4428"
               d="m 103.5,47.5 0.3,0"
               inkscape:connector-curvature="0" /></g><path
             style="fill:#008080;fill-opacity:1;fill-rule:evenodd;stroke:none"
             id="path4430"
             d="m 119.1,47.5 -16,5.3 0,-10.7 16,5.4 z"
             inkscape:connector-curvature="0" /></g><path
           d="m 169.9,35.6 -0.4,0 -0.3,0 0,1.5 0.3,0 0.4,0 0,-1.5 z m 0,2.9 -0.4,0 -0.3,0 0,1.5 0.3,0 0.4,0 0,-1.5 z m 0,2.9 -0.4,0 -0.3,0 0,1.5 0.3,0 0.4,0 0,-1.5 z m 0,2.9 -0.4,0 -0.3,0 0,1.5 0.3,0 0.4,0 0,-1.5 z m 0,2.9 -0.4,0 -0.3,0 0,1.4 0.3,0 0.4,0 0,-1.4 z m 0,2.9 -0.4,0 -0.3,0 0,1.4 0.3,0 0.4,0 0,-1.4 z m 0,2.9 -0.4,0 -0.3,0 0,1.4 0.3,0 0.4,0 0,-1.4 z m 0,2.9 -0.4,0 -0.3,0 0,1.4 0.3,0 0.4,0 0,-1.4 z m 0,2.9 -0.4,0 -0.3,0 0,1.4 0.3,0 0.4,0 0,-1.4 z m 0,2.9 -0.4,0 -0.3,0 0,1.4 0.3,0 0.4,0 0,-1.4 z m 0,2.8 -0.4,0 -0.3,0 0,1.5 0.3,0 0.4,0 0,-1.5 z m 0,2.9 -0.4,0 -0.3,0 0,1.5 0.3,0 0.4,0 0,-1.5 z m 0,2.9 -0.4,0 -0.3,0 0,1.5 0.3,0 0.4,0 0,-1.5 z m 0,2.9 -0.4,0 -0.3,0 0,1.5 0.3,0 0.4,0 0,-1.5 z m 0,2.9 -0.4,0 -0.3,0 0,1.5 0.3,0 0.4,0 0,-1.5 z m 0,2.9 -0.4,0 -0.3,0 0,1.4 0.3,0 0.4,0 0,-1.4 z m 0,2.9 -0.4,0 -0.3,0 0,1.4 0.3,0 0.4,0 0,-1.4 z m 0,2.9 -0.4,0 -0.3,0 0,1.4 0.3,0 0.4,0 0,-1.4 z m 0,2.9 -0.4,0 -0.3,0 0,1.4 0.3,0 0.4,0 0,-1.4 z m 0,2.9 -0.4,0 -0.3,0 0,1.4 0.3,0 0.4,0 0,-1.4 z m 0,2.9 -0.4,0 -0.3,0 0,1.4 0.3,0 0.4,0 0,-1.4 z m 0,2.9 -0.4,0 -0.3,0 0,1.4 0.3,0 0.4,0 0,-1.4 z m 0,2.8 -0.4,0 -0.3,0 0,1.5 0.3,0 0.4,0 0,-1.5 z m 0,2.9 -0.4,0 -0.3,0 0,1.5 0.3,0 0.4,0 0,-1.5 z m 0,2.9 -0.4,0 -0.3,0 0,1.5 0.3,0 0.4,0 0,-1.5 z m 0,2.9 -0.4,0 -0.3,0 0,1.5 0.3,0 0.4,0 0,-1.5 z m 0,2.9 -0.4,0 -0.3,0 0,1.5 0.3,0 0.4,0 0,-1.5 z m 0,2.9 -0.4,0 -0.3,0 0,1.4 0.3,0 0.4,0 0,-1.4 z m 0,2.9 -0.4,0 -0.3,0 0,1.4 0.3,0 0.4,0 0,-1.4 z m 0,2.9 -0.4,0 -0.3,0 0,1.4 0.3,0 0.4,0 0,-1.4 z m 0,2.9 -0.4,0 -0.3,0 0,1.4 0.3,0 0.4,0 0,-1.4 z m 0,2.9 -0.4,0 -0.3,0 0,1.4 0.3,0 0.4,0 0,-1.4 z m 0,2.9 -0.4,0 -0.3,0 0,1.4 0.3,0 0.4,0 0,-1.4 z m 0,2.8 -0.4,0 -0.3,0 0,1.5 0.3,0 0.4,0 0,-1.5 z m 0,2.9 -0.4,0 -0.3,0 0,1.5 0.3,0 0.4,0 0,-1.5 z m 0,2.9 -0.4,0 -0.3,0 0,1.5 0.3,0 0.4,0 0,-1.5 z m 0,2.9 -0.4,0 -0.3,0 0,1.5 0.3,0 0.4,0 0,-1.5 z m 0,2.9 -0.4,0 -0.3,0 0,1.5 0.3,0 0.4,0 0,-1.5 z m 0,2.9 -0.4,0 -0.3,0 0,1.4 0.3,0 0.4,0 0,-1.4 z m -0.4,16.1 4.8,-14.3 -9.6,0 4.8,14.3 z"
           id="path4444"
           style="fill:#008080;fill-opacity:1;fill-rule:evenodd;stroke:none" /><g
           id="g4446" /><g
           id="g4452"><path
             d="m 168.7,101.5 -139.6,0"
             id="path4454"
             style="fill:none;stroke:none" /></g><text
           xml:space="preserve"
           style="font-style:normal;font-weight:normal;font-size:32px;line-height:125%;font-family:Sans;letter-spacing:0px;word-spacing:0px;fill:#000000;fill-opacity:1;stroke:none;stroke-width:1px;stroke-linecap:butt;stroke-linejoin:miter;stroke-opacity:1"
           x="39.542862"
           y="-84.571442"
           id="text4283"
           sodipodi:linespacing="125%"
           transform="scale(1,-1)"><tspan
             sodipodi:role="line"
             id="tspan4285"
             x="39.542862"
             y="-84.571442"
             style="font-style:normal;font-variant:normal;font-weight:normal;font-stretch:normal;font-size:14px;font-family:'Comic Sans MS';-inkscape-font-specification:'Comic Sans MS'">Increasing</tspan><tspan
             sodipodi:role="line"
             x="39.542862"
             y="-67.071442"
             id="tspan4287"
             style="font-style:normal;font-variant:normal;font-weight:normal;font-stretch:normal;font-size:14px;font-family:'Comic Sans MS';-inkscape-font-specification:'Comic Sans MS'">volume fraction</tspan></text>
<text
           xml:space="preserve"
           style="font-style:normal;font-weight:normal;font-size:32px;line-height:125%;font-family:Sans;letter-spacing:0px;word-spacing:0px;fill:#000000;fill-opacity:1;stroke:none;stroke-width:1px;stroke-linecap:butt;stroke-linejoin:miter;stroke-opacity:1"
           x="183.8053"
           y="-100.17676"
           id="text4283-8"
           sodipodi:linespacing="125%"
           transform="scale(1,-1)"><tspan
             sodipodi:role="line"
             x="183.8053"
             y="-100.17676"
             id="tspan4287-8"
             style="font-style:normal;font-variant:normal;font-weight:normal;font-stretch:normal;font-size:14px;font-family:'Comic Sans MS';-inkscape-font-specification:'Comic Sans MS'">Rupture</tspan></text>
<text
           xml:space="preserve"
           style="font-style:normal;font-weight:normal;font-size:32px;line-height:125%;font-family:Sans;letter-spacing:0px;word-spacing:0px;fill:#000000;fill-opacity:1;stroke:none;stroke-width:1px;stroke-linecap:butt;stroke-linejoin:miter;stroke-opacity:1"
           x="172.9209"
           y="-214.71478"
           id="text4283-8-9"
           sodipodi:linespacing="125%"
           transform="scale(1,-1)"><tspan
             sodipodi:role="line"
             x="172.9209"
             y="-214.71478"
             id="tspan4287-8-1"
             style="font-style:normal;font-variant:normal;font-weight:normal;font-stretch:normal;font-size:14px;font-family:'Comic Sans MS';-inkscape-font-specification:'Comic Sans MS'">Yield stress</tspan><tspan
             sodipodi:role="line"
             x="172.9209"
             y="-197.21478"
             style="font-style:normal;font-variant:normal;font-weight:normal;font-stretch:normal;font-size:14px;font-family:'Comic Sans MS';-inkscape-font-specification:'Comic Sans MS'"
             id="tspan4379">line</tspan></text>
</g></g><g
       id="g4476"><g
         clip-path="url(#clipPath4480)"
         id="g4478"><g
           id="g4498"><path
             d="m 169.2,103 c 1,0 1.8,-0.8 1.8,-1.8 0,-1 -0.8,-1.8 -1.8,-1.8 -1,0 -1.8,0.8 -1.8,1.8 0,1 0.8,1.8 1.8,1.8 z"
             id="path4500"
             style="fill:none;stroke:none" /></g><g
           id="g4502"><path
             d="m 167.4,103 0,0 z"
             id="path4504"
             style="fill:none;stroke:none" /></g><g
           id="g4506"><path
             d="m 171.1,99.4 0,0 z"
             id="path4508"
             style="fill:none;stroke:none" /></g><g
           id="g4524"><path
             d="m 169.3,37.8 c 1,0 1.8,-0.8 1.8,-1.8 0,-1 -0.8,-1.8 -1.8,-1.8 -1.1,0 -1.8,0.8 -1.8,1.8 0,1 0.7,1.8 1.8,1.8 z"
             id="path4526"
             style="fill:none;stroke:none" /></g><g
           id="g4528"><path
             d="m 167.5,37.8 0,0 z"
             id="path4530"
             style="fill:none;stroke:none" /></g><g
           id="g4532"><path
             d="m 171.1,34.1 0,0 z"
             id="path4534"
             style="fill:none;stroke:none" /></g></g></g><g
       id="g4536"><g
         id="g4538" /><g
         id="g4544"><g
           clip-path="url(#clipPath4540)"
           id="g4546"
           style="opacity:0.5" /></g></g><g
       transform="matrix(0.4323587,0,0,-0.43235869,122.16572,169.46681)"
       id="g3157"><g
         style="font-style:normal;font-variant:normal;font-weight:normal;font-stretch:normal;letter-spacing:normal;word-spacing:normal;text-anchor:start;fill:none;stroke:#000000;stroke-width:0.80000025;stroke-linecap:butt;stroke-linejoin:miter;stroke-miterlimit:10.43299961;stroke-dasharray:none;stroke-dashoffset:0;stroke-opacity:1"
         word-spacing="normal"
         letter-spacing="normal"
         font-size-adjust="none"
         font-stretch="normal"
         font-weight="normal"
         font-variant="normal"
         font-style="normal"
         stroke-miterlimit="10.433"
         xml:space="preserve"
         transform="matrix(1.0629921,0,0,-1.0629921,-186.02362,789.27165)"
         id="content"><path
           style="fill:#000000;stroke-width:0"
           inkscape:connector-curvature="0"
           id="path3160"
           d="m 477.29,439.57 0,0.01 0,0.01 0,0 0,0.01 0,0.01 0,0.01 0,0 0,0.01 0.01,0.02 0,0.03 0,0.02 0.01,0.02 0.01,0.03 0,0.03 0.01,0.02 0,0.03 0.01,0.03 0.01,0.03 0.01,0.06 0.02,0.06 0,0.03 0.01,0.02 0.01,0.03 0,0.03 0.01,0.02 0.01,0.02 0,0.02 0.01,0.02 0,0.01 0,0.01 0,0.01 0,0.01 0.01,0 0,0.01 0,0.01 0,0 0,0.01 0,0 0,0 0,0.01 c 0,0.04 0,0.5 -0.59,0.5 -0.5,0 -0.55,-0.16 -0.75,-1 l -2.89,-11.5 c -7.92,-0.25 -15.25,-6.88 -15.25,-13.66 0,-4.73 3.48,-8.67 9.56,-9.01 l 0.25,1.09 c -2.98,0.14 -6.58,1.89 -6.58,6.87 0,5.99 4.3,12.96 11.72,13.6 l -5.14,-20.47 -0.25,-1.09 c -0.39,-1.55 -0.73,-3.15 -1.14,-4.69 -0.59,-2.35 -1.09,-4.24 -1.09,-4.39 0,-0.49 0.34,-0.55 0.59,-0.55 0.25,0 0.36,0.06 0.5,0.2 0.09,0.1 0.41,1.3 0.55,2 l 1.89,7.43 0.25,1.09 5.14,20.47 c 3.78,-0.19 6.62,-2.49 6.62,-6.88 0,-5.87 -4.28,-13 -11.76,-13.59 l -0.25,-1.09 c 8.03,0.25 15.25,6.96 15.25,13.64 0,3.93 -2.64,8.53 -9.57,9.03 z" /></g></g><g
       id="g3200"
       transform="matrix(0.42825818,0,0,-0.42825819,-117.37113,339.64024)"><g
         word-spacing="normal"
         letter-spacing="normal"
         font-size-adjust="none"
         font-stretch="normal"
         font-weight="normal"
         font-variant="normal"
         font-style="normal"
         stroke-miterlimit="10.433"
         xml:space="preserve"
         transform="matrix(1.0629921,0,0,-1.0629921,-186.02362,789.27165)"
         id="g3202"
         style="font-style:normal;font-variant:normal;font-weight:normal;font-stretch:normal;letter-spacing:normal;word-spacing:normal;text-anchor:start;fill:none;stroke:#000000;stroke-width:0.80000025;stroke-linecap:butt;stroke-linejoin:miter;stroke-miterlimit:10.43299961;stroke-dasharray:none;stroke-dashoffset:0;stroke-opacity:1"><path
           id="path3204"
           d="m 481.33,424.78 0.07,0 0.07,0 0.07,0 0.08,0 0.09,0 0.09,0.01 0.09,0 0.09,0.01 0.1,0.01 0.1,0.02 0.1,0.02 0.11,0.02 0.1,0.02 0.1,0.03 0.1,0.03 0.1,0.04 0.1,0.04 0.1,0.05 0.09,0.05 0.09,0.06 0.08,0.07 0.08,0.07 0.04,0.04 0.04,0.04 0.03,0.04 0.04,0.05 0.03,0.04 0.03,0.05 0.03,0.05 0.03,0.05 0.03,0.05 0.02,0.06 0.02,0.06 0.02,0.06 0.02,0.06 0.02,0.06 0.01,0.07 0.01,0.07 0.01,0.07 0,0.08 0.01,0.07 0,0.08 c 0,1.19 -1.05,1.19 -1.94,1.19 l -11.36,0 c -7.53,0 -13.06,-8.22 -13.06,-14.14 0,-4.39 2.94,-7.88 7.47,-7.88 l 0.06,1.1 c -2.45,0 -4.44,1.79 -4.44,5.37 0,1.5 0.6,5.59 2.35,8.53 2.09,3.44 5.08,4.13 6.76,4.13 4.19,0 4.6,-3.28 4.6,-4.83 0,-2.34 -1,-6.42 -2.69,-8.97 -1.95,-2.94 -4.64,-4.23 -6.58,-4.23 l 0,0 -0.06,-1.1 c 5.89,0 12.51,6.03 12.51,13.71 0,0.84 0,3.23 -1.54,5.42 z"
           inkscape:connector-curvature="0"
           style="fill:#000000;stroke-width:0" /></g></g></g></svg>