<?xml version="1.0" encoding="UTF-8" standalone="no"?>
<!-- Created with Inkscape (http://www.inkscape.org/) -->

<svg
   xmlns:dc="http://purl.org/dc/elements/1.1/"
   xmlns:cc="http://creativecommons.org/ns#"
   xmlns:rdf="http://www.w3.org/1999/02/22-rdf-syntax-ns#"
   xmlns:svg="http://www.w3.org/2000/svg"
   xmlns="http://www.w3.org/2000/svg"
   xmlns:sodipodi="http://sodipodi.sourceforge.net/DTD/sodipodi-0.dtd"
   xmlns:inkscape="http://www.inkscape.org/namespaces/inkscape"
   version="1.1"
   width="360.27243"
   height="483.60745"
   id="svg3774"
   xml:space="preserve"
   inkscape:version="0.92.1 r"
   sodipodi:docname="dry-fc-new.svg"><sodipodi:namedview
     pagecolor="#ffffff"
     bordercolor="#666666"
     borderopacity="1"
     objecttolerance="10"
     gridtolerance="10"
     guidetolerance="10"
     inkscape:pageopacity="0"
     inkscape:pageshadow="2"
     inkscape:window-width="1920"
     inkscape:window-height="1171"
     id="namedview92"
     showgrid="false"
     inkscape:zoom="1.16"
     inkscape:cx="124.07226"
     inkscape:cy="79.126734"
     inkscape:window-x="0"
     inkscape:window-y="0"
     inkscape:window-maximized="1"
     inkscape:current-layer="g3784"
     fit-margin-top="10"
     fit-margin-right="10"
     fit-margin-left="0"
     fit-margin-bottom="0" /><metadata
     id="metadata3780"><rdf:RDF><cc:Work
         rdf:about=""><dc:format>image/svg+xml</dc:format><dc:type
           rdf:resource="http://purl.org/dc/dcmitype/StillImage" /><dc:title></dc:title></cc:Work></rdf:RDF></metadata><defs
     id="defs3778"><clipPath
       id="clipPath3788"><path
         d="M 0,0.21333333 H 276.37333 V 261.22667 H 0 Z"
         id="path3790"
         inkscape:connector-curvature="0"
         style="stroke-width:1.06666672" /></clipPath><clipPath
       id="clipPath3816"><path
         d="m 7.7,198 h 19 v 11.7 h -19 z"
         id="path3818"
         inkscape:connector-curvature="0" /></clipPath><clipPath
       id="clipPath3828"><path
         d="m 202.8,10 h 18.7 v 15.3 h -18.7 z"
         id="path3830"
         inkscape:connector-curvature="0" /></clipPath><clipPath
       id="clipPath3840"><path
         d="M 0,0.2 H 259.1 V 244.9 H 0 Z"
         id="path3842"
         inkscape:connector-curvature="0" /></clipPath><clipPath
       id="clipPath3862"><path
         d="m 155.1,68.3 h 44 v 15.2 h -44 z"
         id="path3864"
         inkscape:connector-curvature="0" /></clipPath><clipPath
       id="clipPath3894"><path
         d="M 0,0.21333333 H 276.37333 V 261.22667 H 0 Z"
         id="path3896"
         inkscape:connector-curvature="0"
         style="stroke-width:1.06666672" /></clipPath><clipPath
       id="clipPath3916"><path
         d="m 109.7,178.8 h 44 V 194 h -44 z"
         id="path3918"
         inkscape:connector-curvature="0" /></clipPath><clipPath
       id="clipPath3948"><path
         d="m 137.6,-16 v 0 293.44 0 z"
         id="path3950"
         inkscape:connector-curvature="0"
         style="stroke-width:1.06666672" /></clipPath><marker
       inkscape:stockid="Arrow1Mstart"
       orient="auto"
       refY="0"
       refX="0"
       id="Arrow1Mstart"
       style="overflow:visible"
       inkscape:isstock="true"><path
         id="path4149"
         d="M 0,0 5,-5 -12.5,0 5,5 Z"
         style="fill:#000000;fill-opacity:1;fill-rule:evenodd;stroke:#000000;stroke-width:1.00000003pt;stroke-opacity:1"
         transform="matrix(0.4,0,0,0.4,4,0)"
         inkscape:connector-curvature="0" /></marker><marker
       inkscape:stockid="StopL"
       orient="auto"
       refY="0"
       refX="0"
       id="StopL"
       style="overflow:visible"
       inkscape:isstock="true"
       inkscape:collect="always"><path
         id="path4312"
         d="M 0,5.65 V -5.65"
         style="fill:none;fill-opacity:0.75;fill-rule:evenodd;stroke:#000000;stroke-width:1.00000003pt;stroke-opacity:1"
         transform="scale(0.8)"
         inkscape:connector-curvature="0" /></marker><marker
       inkscape:isstock="true"
       style="overflow:visible"
       id="marker6699"
       refX="0"
       refY="0"
       orient="auto"
       inkscape:stockid="StopL"
       inkscape:collect="always"><path
         transform="scale(0.8)"
         style="fill:none;fill-opacity:0.75;fill-rule:evenodd;stroke:#000000;stroke-width:1.00000003pt;stroke-opacity:1"
         d="M 0,5.65 V -5.65"
         id="path6701"
         inkscape:connector-curvature="0" /></marker><marker
       inkscape:stockid="DotS"
       orient="auto"
       refY="0"
       refX="0"
       id="DotS"
       style="overflow:visible"
       inkscape:isstock="true"><path
         id="path4210"
         d="m -2.5,-1 c 0,2.76 -2.24,5 -5,5 -2.76,0 -5,-2.24 -5,-5 0,-2.76 2.24,-5 5,-5 2.76,0 5,2.24 5,5 z"
         style="fill:#2e36d6;fill-opacity:1;fill-rule:evenodd;stroke:#2e36d6;stroke-width:1.00000003pt;stroke-opacity:1"
         transform="matrix(0.2,0,0,0.2,1.48,0.2)"
         inkscape:connector-curvature="0" /></marker><marker
       inkscape:stockid="Arrow2Mend"
       orient="auto"
       refY="0"
       refX="0"
       id="Arrow2Mend"
       style="overflow:visible"
       inkscape:isstock="true"><path
         id="path4170"
         style="fill:#2e36d6;fill-opacity:1;fill-rule:evenodd;stroke:#2e36d6;stroke-width:0.625;stroke-linejoin:round;stroke-opacity:1"
         d="M 8.7185878,4.0337352 -2.2072895,0.01601326 8.7185884,-4.0017078 c -1.7454984,2.3720609 -1.7354408,5.6174519 -6e-7,8.035443 z"
         transform="scale(-0.6)"
         inkscape:connector-curvature="0" /></marker><marker
       inkscape:stockid="StopL"
       orient="auto"
       refY="0"
       refX="0"
       id="marker11414"
       style="overflow:visible"
       inkscape:isstock="true"><path
         id="path11416"
         d="M 0,5.65 V -5.65"
         style="fill:none;fill-opacity:0.75;fill-rule:evenodd;stroke:#000000;stroke-width:1.00000003pt;stroke-opacity:1"
         transform="scale(0.8)"
         inkscape:connector-curvature="0" /></marker><marker
       inkscape:stockid="StopL"
       orient="auto"
       refY="0"
       refX="0"
       id="marker10541"
       style="overflow:visible"
       inkscape:isstock="true"><path
         id="path10539"
         d="M 0,5.65 V -5.65"
         style="fill:none;fill-opacity:0.75;fill-rule:evenodd;stroke:#000000;stroke-width:1.00000003pt;stroke-opacity:1"
         transform="scale(0.8)"
         inkscape:connector-curvature="0" /></marker></defs><g
     transform="matrix(1.25,0,0,-1.25,-13.873344,501.02391)"
     id="g3782"><g
       id="g3784"><g
         id="g3794"><path
           inkscape:connector-curvature="0"
           style="fill:none;stroke:#000000;stroke-width:2.29417586;stroke-linecap:butt;stroke-linejoin:round;stroke-miterlimit:10;stroke-dasharray:none;stroke-opacity:1"
           id="path3796"
           d="M 31.466667,36.053333 V 229.44" /></g><path
         inkscape:connector-curvature="0"
         style="fill:#000000;fill-opacity:1;fill-rule:evenodd;stroke:none;stroke-width:1.06666672"
         id="path3798"
         d="m 31.466667,247.25333 -6.293334,-18.66666 h 12.48 z" /><g
         id="g3800"><path
           inkscape:connector-curvature="0"
           style="fill:none;stroke:#000000;stroke-width:2.29417586;stroke-linecap:butt;stroke-linejoin:round;stroke-miterlimit:10;stroke-dasharray:none;stroke-opacity:1"
           id="path3802"
           d="M 31.466667,36.906667 240.64,38.4" /></g><path
         inkscape:connector-curvature="0"
         style="fill:#000000;fill-opacity:1;fill-rule:evenodd;stroke:none;stroke-width:1.06666672"
         id="path3804"
         d="m 258.56,38.506667 -18.77333,6.08 0.10666,-12.48 z" /></g><g
       id="g3890"><g
         clip-path="url(#clipPath3894)"
         id="g3892"
         transform="translate(0.36860562)"><g
           transform="matrix(1.3115481,0,0,1.1899379,-9.8958817,-7.2892294)"
           id="g3898"><path
             d="m 32.409275,38.873459 c 24.8,42.613333 70.293325,80.133331 109.586655,107.000001 9.82333,6.71667 19.25917,12.7675 27.8873,18.06562 2.15702,1.32453 20.02543,12.17475 22.13538,13.44052"
             id="path3900"
             style="fill:none;stroke:#000080;stroke-width:1.53946626;stroke-linecap:round;stroke-linejoin:round;stroke-miterlimit:10;stroke-dasharray:none;stroke-opacity:1"
             inkscape:connector-curvature="0" /></g><g
           transform="matrix(1.3516517,0,0,1,-10.345933,18.773333)"
           id="g3902"><path
             d="m 31.785505,141.08796 c 64.42877,-2.42118 124.745185,32.61106 153.921725,53.35153"
             id="path3904"
             style="fill:none;stroke:#008000;stroke-width:1.58425295;stroke-linecap:butt;stroke-linejoin:round;stroke-miterlimit:10;stroke-dasharray:none;stroke-opacity:1"
             inkscape:connector-curvature="0" /></g><g
           id="g3906"
           transform="translate(-2.948845,-0.36860562)"><text
             transform="scale(1,-1)"
             id="text3908"
             style="font-size:12.80000019px;line-height:0%;font-family:'Abyssinica SIL';-inkscape-font-specification:'Abyssinica SIL';stroke-width:1.06666672"
             x="41.173332"
             y="-199.36"><tspan
               id="tspan3910"
               style="font-style:normal;font-variant:normal;font-weight:normal;font-stretch:normal;font-size:12.80000019px;font-family:'Comic Sans MS';-inkscape-font-specification:'Comic Sans MS';writing-mode:lr-tb;fill:#008000;fill-opacity:1;fill-rule:nonzero;stroke:none;stroke-width:1.06666672">Above Jamming</tspan></text>
</g></g></g><g
       id="g3944"><g
         id="g3946" /><g
         id="g3952"><g
           clip-path="url(#clipPath3948)"
           id="g3954"
           style="opacity:0.5" /></g></g><g
       id="g3200"
       transform="matrix(0.34260665,0,0,-0.34260665,-98.608422,339.63227)"><g
         word-spacing="normal"
         letter-spacing="normal"
         font-size-adjust="none"
         font-stretch="normal"
         font-weight="normal"
         font-variant="normal"
         font-style="normal"
         stroke-miterlimit="10.433"
         xml:space="preserve"
         transform="matrix(1.0629921,0,0,-1.0629921,-198.42519,841.88976)"
         id="g3202"
         style="font-style:normal;font-variant:normal;font-weight:normal;font-stretch:normal;letter-spacing:normal;word-spacing:normal;text-anchor:start;fill:none;stroke:#000000;stroke-linecap:butt;stroke-linejoin:miter;stroke-miterlimit:10.43299961;stroke-dasharray:none;stroke-dashoffset:0;stroke-opacity:1"><path
           id="path3204"
           d="m 513.41867,453.09867 h 0.0747 0.0747 0.0747 0.0853 0.096 l 0.096,0.0107 h 0.096 l 0.096,0.0107 0.10667,0.0107 0.10666,0.0213 0.10667,0.0213 0.11733,0.0213 0.10667,0.0213 0.10667,0.032 0.10666,0.032 0.10667,0.0427 0.10667,0.0427 0.10666,0.0533 0.096,0.0533 0.096,0.064 0.0853,0.0747 0.0853,0.0747 0.0427,0.0427 0.0427,0.0427 0.032,0.0427 0.0427,0.0533 0.032,0.0427 0.032,0.0533 0.032,0.0533 0.032,0.0533 0.032,0.0533 0.0213,0.064 0.0213,0.064 0.0213,0.064 0.0213,0.064 0.0213,0.064 0.0107,0.0747 0.0107,0.0747 0.0107,0.0747 v 0.0853 l 0.0107,0.0747 v 0.0853 c 0,1.26933 -1.12,1.26933 -2.06933,1.26933 h -12.11733 c -8.032,0 -13.93067,-8.768 -13.93067,-15.08266 0,-4.68267 3.136,-8.40534 7.968,-8.40534 l 0.064,1.17334 c -2.61333,0 -4.736,1.90933 -4.736,5.728 0,1.6 0.64,5.96266 2.50667,9.09866 2.22933,3.66934 5.41866,4.40534 7.21066,4.40534 4.46934,0 4.90667,-3.49867 4.90667,-5.152 0,-2.496 -1.06667,-6.848 -2.86933,-9.568 -2.08,-3.136 -4.94934,-4.512 -7.01867,-4.512 v 0 l -0.064,-1.17334 c 6.28267,0 13.344,6.432 13.344,14.624 0,0.896 0,3.44534 -1.64267,5.78134 z"
           inkscape:connector-curvature="0"
           style="fill:#000000;stroke-width:0" /></g></g><g
       id="g12036"
       transform="matrix(0.98429009,0,0,0.98429009,76.830015,50.759779)"
       style="stroke-width:1.01596057"><g
         transform="translate(-25.389479,-15.388368)"
         id="g3806"
         style="stroke-width:1.01596057"><text
           y="-78.720001"
           x="89.493332"
           style="font-size:12.80000019px;line-height:0%;stroke-width:1.08369136"
           id="text3808"
           transform="scale(1,-1)"><tspan
             style="font-variant:normal;font-weight:normal;font-size:12.80000019px;font-family:'Comic Sans MS';-inkscape-font-specification:'Comic Sans MS';writing-mode:lr-tb;fill:#000080;fill-opacity:1;fill-rule:nonzero;stroke:none;stroke-width:1.08369136"
             id="tspan3810">Below Jamming</tspan></text>
</g><g
         id="g3289"
         transform="matrix(0.29308639,0,0,-0.2930864,-8.757157,159.06668)"
         style="stroke-width:1.01596057"><g
           id="content"
           transform="matrix(1.0629921,0,0,-1.0629921,-198.42519,841.88976)"
           xml:space="preserve"
           stroke-miterlimit="10.433"
           font-style="normal"
           font-variant="normal"
           font-weight="normal"
           font-stretch="normal"
           font-size-adjust="none"
           letter-spacing="normal"
           word-spacing="normal"
           style="font-style:normal;font-variant:normal;font-weight:normal;font-stretch:normal;letter-spacing:normal;word-spacing:normal;text-anchor:start;fill:none;stroke:#000000;stroke-width:0.8866567;stroke-linecap:butt;stroke-linejoin:miter;stroke-miterlimit:10.43299961;stroke-dasharray:none;stroke-dashoffset:0;stroke-opacity:1"><path
             d="m 509.10933,468.87467 v 0.0107 0.0107 0 0.0107 0.0107 0.0107 0 0.0107 l 0.0107,0.0213 v 0.032 0.0213 l 0.0107,0.0213 0.0107,0.032 v 0.032 l 0.0107,0.0213 v 0.032 l 0.0107,0.032 0.0107,0.032 0.0107,0.064 0.0213,0.064 v 0.032 l 0.0107,0.0213 0.0107,0.032 v 0.032 l 0.0107,0.0213 0.0107,0.0213 v 0.0213 l 0.0107,0.0213 v 0.0107 0.0107 0.0107 0.0107 h 0.0107 v 0.0107 0.0107 0 0.0107 0 0 0.0107 c 0,0.0427 0,0.53333 -0.62933,0.53333 -0.53333,0 -0.58667,-0.17066 -0.8,-1.06666 L 504.75733,456.832 c -8.448,-0.26667 -16.26666,-7.33867 -16.26666,-14.57067 0,-5.04533 3.712,-9.248 10.19733,-9.61066 l 0.26667,1.16266 c -3.17867,0.14934 -7.01867,2.016 -7.01867,7.328 0,6.38934 4.58667,13.824 12.50133,14.50667 l -5.48266,-21.83467 -0.26667,-1.16266 c -0.416,-1.65334 -0.77867,-3.36 -1.216,-5.00267 -0.62933,-2.50667 -1.16267,-4.52267 -1.16267,-4.68267 0,-0.52266 0.36267,-0.58666 0.62934,-0.58666 0.26666,0 0.384,0.064 0.53333,0.21333 0.096,0.10667 0.43733,1.38667 0.58667,2.13333 l 2.016,7.92534 0.26666,1.16266 5.48267,21.83467 c 4.032,-0.20267 7.06133,-2.656 7.06133,-7.33867 0,-6.26133 -4.56533,-13.86666 -12.544,-14.496 l -0.26666,-1.16266 c 8.56533,0.26666 16.26666,7.424 16.26666,14.54933 0,4.192 -2.816,9.09867 -10.208,9.632 z"
             id="path3292"
             inkscape:connector-curvature="0"
             style="fill:#000000;stroke-width:0" /><path
             d="m 568.21333,459.744 0.064,0.032 0.0533,0.032 0.064,0.0213 0.0533,0.032 0.0533,0.032 0.0533,0.032 0.0427,0.0213 0.0533,0.032 0.0427,0.032 0.0427,0.032 0.0427,0.032 0.0427,0.0213 0.0427,0.032 0.032,0.032 0.0427,0.032 0.032,0.0427 0.032,0.032 0.032,0.032 0.0213,0.032 0.032,0.0427 0.0213,0.032 0.0213,0.0427 0.0213,0.0427 0.0107,0.0427 0.0213,0.0427 0.0107,0.0427 0.0107,0.0427 0.0107,0.0427 0.0107,0.0533 v 0.0533 l 0.0107,0.0427 v 0.064 c 0,0.576 -0.49066,1.06667 -1.06666,1.06667 -0.14934,0 -0.26667,0 -0.94934,-0.37333 L 537.77067,447.73333 C 537.184,447.46667 536.768,447.2 536.768,446.56 c 0,-0.62933 0.416,-0.896 1.00267,-1.16267 l 29.45066,-13.86666 c 0.68267,-0.384 0.8,-0.384 0.94934,-0.384 0.576,0 1.06666,0.48 1.06666,1.06666 0,0.58667 -0.37333,0.85334 -1.024,1.16267 L 540.32,446.56 Z"
             id="path3294"
             inkscape:connector-curvature="0"
             style="fill:#000000;stroke-width:0" /><path
             d="m 611.62667,468.87467 v 0.0107 0.0107 0 0.0107 0.0107 0.0107 0 0.0107 l 0.0107,0.0213 v 0.032 l 0.0107,0.0213 v 0.0213 l 0.0107,0.032 v 0.032 l 0.0107,0.0213 0.0107,0.032 v 0.032 l 0.0107,0.032 0.0213,0.064 0.0107,0.064 0.0107,0.032 0.0107,0.0213 v 0.032 l 0.0107,0.032 v 0.0213 l 0.0107,0.0213 0.0107,0.0213 v 0.0213 0.0107 0.0107 l 0.0107,0.0107 v 0.0107 0 0.0107 0.0107 0 0.0107 0 0 0.0107 c 0,0.0427 0,0.53333 -0.62934,0.53333 -0.53333,0 -0.58666,-0.17066 -0.8,-1.06666 L 607.27467,456.832 c -8.448,-0.26667 -16.26667,-7.33867 -16.26667,-14.57067 0,-5.04533 3.712,-9.248 10.19733,-9.61066 l 0.26667,1.16266 c -3.17867,0.14934 -7.01867,2.016 -7.01867,7.328 0,6.38934 4.58667,13.824 12.50134,14.50667 l -5.48267,-21.83467 -0.26667,-1.16266 c -0.416,-1.65334 -0.77866,-3.36 -1.216,-5.00267 -0.62933,-2.50667 -1.16266,-4.52267 -1.16266,-4.68267 0,-0.52266 0.36266,-0.58666 0.62933,-0.58666 0.26667,0 0.384,0.064 0.53333,0.21333 0.10667,0.10667 0.43734,1.38667 0.58667,2.13333 l 2.016,7.92534 0.26667,1.16266 5.48266,21.83467 c 4.032,-0.20267 7.072,-2.656 7.072,-7.33867 0,-6.26133 -4.576,-13.86666 -12.55466,-14.496 l -0.26667,-1.16266 c 8.56533,0.26666 16.26667,7.424 16.26667,14.54933 0,4.192 -2.816,9.09867 -10.19734,9.632 z"
             id="path3296"
             inkscape:connector-curvature="0"
             style="fill:#000000;stroke-width:0" /><path
             d="m 632.896,430.88 v -0.30933 l -0.0213,-0.29867 -0.0213,-0.288 -0.0427,-0.288 -0.0533,-0.27733 -0.0533,-0.256 -0.0747,-0.256 -0.0747,-0.256 -0.0853,-0.23467 -0.10666,-0.224 -0.096,-0.224 -0.11734,-0.21333 -0.11733,-0.192 -0.128,-0.192 -0.13867,-0.18134 -0.13866,-0.18133 -0.14934,-0.16 -0.14933,-0.14933 -0.16,-0.13867 -0.16,-0.13867 -0.17067,-0.11733 -0.17066,-0.11733 -0.18134,-0.096 -0.18133,-0.096 -0.18133,-0.0853 -0.192,-0.064 -0.18134,-0.064 -0.192,-0.0427 -0.20266,-0.0427 -0.192,-0.032 -0.20267,-0.0107 -0.192,-0.0107 c -1.152,0 -3.11467,0.448 -4.20267,1.856 1.38667,0.11733 2.048,1.01333 2.048,2.08 0,1.20533 -0.864,2.048 -2.048,2.048 -1.152,0 -2.08,-0.74667 -2.08,-2.112 0,-2.752 2.784,-4.91734 6.432,-4.91734 3.41334,0 6.61334,2.016 7.25334,5.06667 0.11733,0.512 0.11733,2.144 0.11733,3.232 v 13.74933 c 0,0.672 0,1.74934 0.064,1.96267 0.14933,0.78933 1.03467,0.78933 2.784,0.78933 v 1.33334 c -0.18133,0 -2.90133,-0.14934 -4.71467,-0.14934 -0.82133,0 -5.80266,0.11734 -6.50666,0.14934 v -1.33334 H 629.28 c 3.616,0 3.616,-0.48 3.616,-1.71733 z"
             id="path3298"
             inkscape:connector-curvature="0"
             style="fill:#000000;stroke-width:0" /></g></g></g><g
       transform="matrix(0.29308639,0,0,-0.29308639,-30.958282,293.65103)"
       id="g3374"><g
         style="font-style:normal;font-variant:normal;font-weight:normal;font-stretch:normal;letter-spacing:normal;word-spacing:normal;text-anchor:start;fill:none;stroke:#000000;stroke-width:0.87272733;stroke-linecap:butt;stroke-linejoin:miter;stroke-miterlimit:10.43299961;stroke-dasharray:none;stroke-dashoffset:0;stroke-opacity:1"
         word-spacing="normal"
         letter-spacing="normal"
         font-size-adjust="none"
         font-stretch="normal"
         font-weight="normal"
         font-variant="normal"
         font-style="normal"
         stroke-miterlimit="10.433"
         xml:space="preserve"
         transform="matrix(1.0629921,0,0,-1.0629921,-198.42519,841.88976)"
         id="content-7"><path
           style="fill:#000000;stroke-width:0"
           inkscape:connector-curvature="0"
           id="path3377"
           d="m 509.10933,468.87467 v 0.0107 0.0107 0 0.0107 0.0107 0.0107 0 0.0107 l 0.0107,0.0213 v 0.032 0.0213 l 0.0107,0.0213 0.0107,0.032 v 0.032 l 0.0107,0.0213 v 0.032 l 0.0107,0.032 0.0107,0.032 0.0107,0.064 0.0213,0.064 v 0.032 l 0.0107,0.0213 0.0107,0.032 v 0.032 l 0.0107,0.0213 0.0107,0.0213 v 0.0213 l 0.0107,0.0213 v 0.0107 0.0107 0.0107 0.0107 h 0.0107 v 0.0107 0.0107 0 0.0107 0 0 0.0107 c 0,0.0427 0,0.53333 -0.62933,0.53333 -0.53333,0 -0.58667,-0.17066 -0.8,-1.06666 L 504.75733,456.832 c -8.448,-0.26667 -16.26666,-7.33867 -16.26666,-14.57067 0,-5.04533 3.712,-9.248 10.19733,-9.61066 l 0.26667,1.16266 c -3.17867,0.14934 -7.01867,2.016 -7.01867,7.328 0,6.38934 4.58667,13.824 12.50133,14.50667 l -5.48266,-21.83467 -0.26667,-1.16266 c -0.416,-1.65334 -0.77867,-3.36 -1.216,-5.00267 -0.62933,-2.50667 -1.16267,-4.52267 -1.16267,-4.68267 0,-0.52266 0.36267,-0.58666 0.62934,-0.58666 0.26666,0 0.384,0.064 0.53333,0.21333 0.096,0.10667 0.43733,1.38667 0.58667,2.13333 l 2.016,7.92534 0.26666,1.16266 5.48267,21.83467 c 4.032,-0.20267 7.06133,-2.656 7.06133,-7.33867 0,-6.26133 -4.56533,-13.86666 -12.544,-14.496 l -0.26666,-1.16266 c 8.56533,0.26666 16.26666,7.424 16.26666,14.54933 0,4.192 -2.816,9.09867 -10.208,9.632 z" /><path
           style="fill:#000000;stroke-width:0"
           inkscape:connector-curvature="0"
           id="path3379"
           d="m 568.21333,445.39733 0.10667,0.0533 0.10667,0.0427 0.0533,0.032 0.0427,0.0213 0.0533,0.032 0.0427,0.0213 0.0533,0.032 0.0427,0.0213 0.0427,0.032 0.032,0.032 0.0427,0.032 0.0427,0.032 0.032,0.032 0.032,0.032 0.0427,0.032 0.032,0.032 0.0213,0.0427 0.032,0.032 0.0213,0.0427 0.032,0.0427 0.0213,0.0427 0.0107,0.0427 0.0213,0.0427 0.0107,0.0427 0.0213,0.0533 0.0107,0.0533 0.0107,0.0427 v 0.0533 0.064 l 0.0107,0.0533 c 0,0.64 -0.43733,0.90667 -1.024,1.17333 L 538.784,461.61067 c -0.704,0.37333 -0.8,0.37333 -0.97067,0.37333 -0.576,0 -1.04533,-0.49067 -1.04533,-1.06667 0,-0.49066 0.26667,-0.8 1.00267,-1.17333 L 565.664,446.56 537.77067,433.376 c -0.736,-0.36267 -1.00267,-0.68267 -1.00267,-1.16267 0,-0.58666 0.46933,-1.06666 1.04533,-1.06666 0.17067,0 0.26667,0 0.97067,0.384 z" /><path
           style="fill:#000000;stroke-width:0"
           inkscape:connector-curvature="0"
           id="path3381"
           d="m 611.62667,468.87467 v 0.0107 0.0107 0 0.0107 0.0107 0.0107 0 0.0107 l 0.0107,0.0213 v 0.032 l 0.0107,0.0213 v 0.0213 l 0.0107,0.032 v 0.032 l 0.0107,0.0213 0.0107,0.032 v 0.032 l 0.0107,0.032 0.0213,0.064 0.0107,0.064 0.0107,0.032 0.0107,0.0213 v 0.032 l 0.0107,0.032 v 0.0213 l 0.0107,0.0213 0.0107,0.0213 v 0.0213 0.0107 0.0107 l 0.0107,0.0107 v 0.0107 0 0.0107 0.0107 0 0.0107 0 0 0.0107 c 0,0.0427 0,0.53333 -0.62934,0.53333 -0.53333,0 -0.58666,-0.17066 -0.8,-1.06666 L 607.27467,456.832 c -8.448,-0.26667 -16.26667,-7.33867 -16.26667,-14.57067 0,-5.04533 3.712,-9.248 10.19733,-9.61066 l 0.26667,1.16266 c -3.17867,0.14934 -7.01867,2.016 -7.01867,7.328 0,6.38934 4.58667,13.824 12.50134,14.50667 l -5.48267,-21.83467 -0.26667,-1.16266 c -0.416,-1.65334 -0.77866,-3.36 -1.216,-5.00267 -0.62933,-2.50667 -1.16266,-4.52267 -1.16266,-4.68267 0,-0.52266 0.36266,-0.58666 0.62933,-0.58666 0.26667,0 0.384,0.064 0.53333,0.21333 0.10667,0.10667 0.43734,1.38667 0.58667,2.13333 l 2.016,7.92534 0.26667,1.16266 5.48266,21.83467 c 4.032,-0.20267 7.072,-2.656 7.072,-7.33867 0,-6.26133 -4.576,-13.86666 -12.55466,-14.496 l -0.26667,-1.16266 c 8.56533,0.26666 16.26667,7.424 16.26667,14.54933 0,4.192 -2.816,9.09867 -10.19734,9.632 z" /><path
           style="fill:#000000;stroke-width:0"
           inkscape:connector-curvature="0"
           id="path3383"
           d="m 632.896,430.88 v -0.30933 l -0.0213,-0.29867 -0.0213,-0.288 -0.0427,-0.288 -0.0533,-0.27733 -0.0533,-0.256 -0.0747,-0.256 -0.0747,-0.256 -0.0853,-0.23467 -0.10666,-0.224 -0.096,-0.224 -0.11734,-0.21333 -0.11733,-0.192 -0.128,-0.192 -0.13867,-0.18134 -0.13866,-0.18133 -0.14934,-0.16 -0.14933,-0.14933 -0.16,-0.13867 -0.16,-0.13867 -0.17067,-0.11733 -0.17066,-0.11733 -0.18134,-0.096 -0.18133,-0.096 -0.18133,-0.0853 -0.192,-0.064 -0.18134,-0.064 -0.192,-0.0427 -0.20266,-0.0427 -0.192,-0.032 -0.20267,-0.0107 -0.192,-0.0107 c -1.152,0 -3.11467,0.448 -4.20267,1.856 1.38667,0.11733 2.048,1.01333 2.048,2.08 0,1.20533 -0.864,2.048 -2.048,2.048 -1.152,0 -2.08,-0.74667 -2.08,-2.112 0,-2.752 2.784,-4.91734 6.432,-4.91734 3.41334,0 6.61334,2.016 7.25334,5.06667 0.11733,0.512 0.11733,2.144 0.11733,3.232 v 13.74933 c 0,0.672 0,1.74934 0.064,1.96267 0.14933,0.78933 1.03467,0.78933 2.784,0.78933 v 1.33334 c -0.18133,0 -2.90133,-0.14934 -4.71467,-0.14934 -0.82133,0 -5.80266,0.11734 -6.50666,0.14934 v -1.33334 H 629.28 c 3.616,0 3.616,-0.48 3.616,-1.71733 z" /></g></g><g
       transform="matrix(0.34535799,0,0,-0.34535799,109.79629,149.82167)"
       id="g3433"><g
         style="font-style:normal;font-variant:normal;font-weight:normal;font-stretch:normal;letter-spacing:normal;word-spacing:normal;text-anchor:start;fill:none;stroke:#000000;stroke-linecap:butt;stroke-linejoin:miter;stroke-miterlimit:10.43299961;stroke-dasharray:none;stroke-dashoffset:0;stroke-opacity:1"
         word-spacing="normal"
         letter-spacing="normal"
         font-size-adjust="none"
         font-stretch="normal"
         font-weight="normal"
         font-variant="normal"
         font-style="normal"
         stroke-miterlimit="10.433"
         xml:space="preserve"
         transform="matrix(1.0629921,0,0,-1.0629921,-198.42519,841.88976)"
         id="g3435"><path
           style="fill:#000000;stroke-width:0"
           inkscape:connector-curvature="0"
           id="path3437"
           d="m 504.02133,466.016 v 0.128 l -0.0107,0.13867 -0.0213,0.128 -0.0213,0.13866 -0.032,0.128 -0.032,0.128 -0.0427,0.128 -0.0533,0.128 -0.0533,0.11734 -0.064,0.11733 -0.064,0.11733 -0.0747,0.11734 -0.0747,0.11733 -0.0853,0.10667 -0.0853,0.10666 -0.0853,0.096 -0.10666,0.096 -0.096,0.096 -0.10667,0.0853 -0.10667,0.0853 -0.11733,0.0747 -0.11733,0.0747 -0.11734,0.064 -0.128,0.0533 -0.128,0.0533 -0.13866,0.0533 -0.128,0.0427 -0.13867,0.032 -0.14933,0.0213 -0.13867,0.0213 -0.14933,0.0107 -0.14934,0.0107 c -1.792,0 -2.85866,-1.48267 -2.85866,-2.816 0,-1.44 1.216,-2.816 2.816,-2.816 1.792,0 2.85866,1.48267 2.85866,2.816 z" /><path
           style="fill:#000000;stroke-width:0"
           inkscape:connector-curvature="0"
           id="path3439"
           d="m 488.064,446.784 0.10667,0.27733 0.096,0.27734 0.11733,0.256 0.11733,0.26666 0.11734,0.24534 0.11733,0.23466 0.128,0.23467 0.13867,0.224 0.128,0.21333 0.14933,0.21334 0.13867,0.20266 0.14933,0.192 0.29867,0.36267 0.30933,0.34133 0.32,0.30934 0.33067,0.288 0.33066,0.256 0.34134,0.23466 0.33066,0.224 0.34134,0.192 0.34133,0.17067 0.34133,0.16 0.33067,0.13867 0.32,0.11733 0.32,0.10667 0.30933,0.0853 0.29867,0.0747 0.288,0.064 0.26667,0.0533 0.256,0.0427 0.23466,0.032 0.224,0.0213 0.192,0.0213 0.18134,0.0107 0.14933,0.0107 0.128,0.0107 h 0.096 0.064 c 8.02133,0 8.608,-9.30133 8.608,-13.504 0,-3.25333 -0.26667,-4.14933 -0.64,-5.216 -1.16267,-3.872 -2.76267,-10.03733 -2.76267,-11.41333 0,-0.58667 0.26667,-0.97067 0.704,-0.97067 0.68267,0 1.10934,1.184 1.696,3.2 1.216,4.46934 1.74934,7.488 1.96267,9.13067 0.10667,0.704 0.20267,1.38667 0.416,2.09067 1.70667,5.248 5.09867,13.16266 7.232,17.36533 0.37333,0.62933 1.00267,1.81333 1.00267,2.016 0,0.53333 -0.512,0.53333 -0.62934,0.53333 -0.14933,0 -0.48,0 -0.62933,-0.37333 -2.77333,-5.04533 -4.88533,-10.35733 -7.01867,-15.73333 -0.0533,1.65333 -0.10666,5.68533 -2.18666,10.85866 -1.26934,3.232 -3.40267,5.824 -7.072,5.824 -6.624,0 -10.35734,-8.064 -10.35734,-9.70666 0,-0.53334 0.48,-0.53334 1.01334,-0.53334 z" /></g></g><g
       id="g12706"
       transform="matrix(1.2732623,0,0,1.2731616,-15.063873,69.677313)"
       style="stroke-width:0.78541517"><rect
         transform="scale(1,-1)"
         y="-253.65344"
         x="121.30846"
         height="134.44023"
         width="119.16084"
         id="rect12662"
         style="color:#000000;clip-rule:nonzero;display:inline;overflow:visible;visibility:visible;opacity:1;isolation:auto;mix-blend-mode:normal;color-interpolation:sRGB;color-interpolation-filters:linearRGB;solid-color:#000000;solid-opacity:1;fill:#fffec2;fill-opacity:0.74897114;fill-rule:evenodd;stroke:#000000;stroke-width:0.31416607;stroke-linecap:round;stroke-linejoin:round;stroke-miterlimit:4;stroke-dasharray:none;stroke-dashoffset:0;stroke-opacity:1;color-rendering:auto;image-rendering:auto;shape-rendering:auto;text-rendering:auto;enable-background:accumulate" /><g
         id="g10435"
         transform="matrix(0.26038312,0,0,-0.26038297,107.32063,369.15957)"
         style="stroke-width:2.57398081"><g
           transform="matrix(0.68467288,0,0,0.68467288,237.50363,337.26421)"
           id="g11907"
           style="fill:#2e36d6;fill-opacity:1;stroke-width:2.57398081"><g
             style="font-style:normal;font-variant:normal;font-weight:normal;font-stretch:normal;letter-spacing:normal;word-spacing:normal;text-anchor:start;fill:#2e36d6;fill-opacity:1;fill-rule:evenodd;stroke:#000000;stroke-width:2.57398081;stroke-linecap:butt;stroke-linejoin:miter;stroke-miterlimit:10.43299961;stroke-dasharray:none;stroke-dashoffset:0;stroke-opacity:1"
             word-spacing="normal"
             letter-spacing="normal"
             font-size-adjust="none"
             font-stretch="normal"
             font-weight="normal"
             font-variant="normal"
             font-style="normal"
             stroke-miterlimit="10.433"
             xml:space="preserve"
             transform="matrix(1.0629921,0,0,-1.0629921,-186.02362,789.27165)"
             id="g11909"><path
               style="fill:#2e36d6;fill-opacity:1;stroke-width:0"
               inkscape:connector-curvature="0"
               id="path11911"
               d="m 471.09,422.19 h 4.84 c 3.73,0 4.13,-0.8 4.13,-2.24 0,-0.35 0,-0.95 -0.35,-2.44 -0.1,-0.25 -0.15,-0.45 -0.15,-0.55 0,-0.4 0.3,-0.6 0.6,-0.6 0.5,0 0.5,0.15 0.75,1.05 l 2.73,10.8 c 0.16,0.56 0.16,0.65 0.16,0.8 0,0.1 -0.1,0.55 -0.6,0.55 -0.5,0 -0.55,-0.25 -0.75,-1.04 -1.04,-3.89 -2.19,-4.79 -6.43,-4.79 h -4.53 l 3.19,12.66 c 0.45,1.74 0.5,1.94 2.69,1.94 h 6.58 c 6.12,0 7.27,-1.65 7.27,-5.48 0,-1.15 0,-1.35 -0.15,-2.69 -0.1,-0.65 -0.1,-0.75 -0.1,-0.9 0,-0.25 0.15,-0.6 0.6,-0.6 0.54,0 0.59,0.3 0.7,1.25 l 0.99,8.62 c 0.15,1.34 -0.1,1.34 -1.35,1.34 h -24.4 c -1,0 -1.5,0 -1.5,-0.99 0,-0.55 0.45,-0.55 1.4,-0.55 1.84,0 3.23,0 3.23,-0.9 0,-0.2 0,-0.3 -0.25,-1.19 l -6.57,-26.35 c -0.5,-1.95 -0.6,-2.35 -4.53,-2.35 -0.85,0 -1.4,0 -1.4,-0.94 0,-0.6 0.6,-0.6 0.75,-0.6 h 14 c 0.45,0 1.04,0 1.04,0.95 0,0.39 -0.29,0.5 -0.29,0.55 -0.16,0.04 -0.25,0.04 -1.4,0.04 -1.1,0 -1.35,0 -2.59,0.1 -1.44,0.15 -1.6,0.35 -1.6,1 0,0.1 0,0.4 0.2,1.15 z" /><path
               style="fill:#2e36d6;fill-opacity:1;stroke-width:0"
               inkscape:connector-curvature="0"
               id="path11913"
               d="m 496.68,402.7 -0.03,-0.12 -0.04,-0.11 -0.05,-0.12 -0.04,-0.13 -0.06,-0.12 -0.06,-0.13 -0.06,-0.12 -0.07,-0.13 -0.07,-0.13 -0.07,-0.13 -0.08,-0.13 -0.09,-0.12 -0.09,-0.13 -0.09,-0.12 -0.1,-0.12 -0.1,-0.12 -0.11,-0.12 -0.11,-0.11 -0.11,-0.1 -0.12,-0.1 -0.12,-0.1 -0.13,-0.09 -0.13,-0.08 -0.13,-0.08 -0.14,-0.07 -0.14,-0.06 -0.15,-0.05 -0.15,-0.05 -0.15,-0.03 -0.16,-0.03 -0.16,-0.02 h -0.16 c -0.11,0 -1.16,0 -1.89,0.49 1.43,0.45 1.53,1.7 1.53,1.92 0,0.76 -0.59,1.28 -1.39,1.28 -0.98,0 -1.99,-0.83 -1.99,-2.12 0,-1.75 1.95,-2.55 3.67,-2.55 1.6,0 3.03,1.01 3.9,2.48 0.84,-1.85 2.76,-2.48 4.15,-2.48 4.01,0 6.14,4.36 6.14,5.33 0,0.46 -0.46,0.46 -0.56,0.46 -0.49,0 -0.52,-0.17 -0.67,-0.59 -0.73,-2.41 -2.82,-4.22 -4.77,-4.22 -1.4,0 -2.13,0.94 -2.13,2.26 0,0.91 0.84,4.08 1.81,7.95 0.7,2.69 2.27,3.56 3.42,3.56 0.07,0 1.16,0 1.89,-0.49 -1.12,-0.31 -1.54,-1.29 -1.54,-1.91 0,-0.77 0.59,-1.3 1.4,-1.3 0.8,0 1.95,0.67 1.95,2.13 0,1.96 -2.23,2.55 -3.63,2.55 -1.74,0 -3.14,-1.15 -3.9,-2.48 -0.63,1.43 -2.23,2.48 -4.19,2.48 -3.9,0 -6.13,-4.29 -6.13,-5.34 0,-0.45 0.48,-0.45 0.59,-0.45 0.45,0 0.49,0.14 0.66,0.59 0.87,2.72 3.07,4.22 4.78,4.22 1.15,0 2.09,-0.63 2.09,-2.3 0,-0.7 -0.42,-2.44 -0.73,-3.63 z" /></g></g><g
           style="stroke-width:2.57398081"
           id="g11987"
           transform="translate(-162.07707,472.95089)"><g
             id="g11989"
             transform="matrix(1.0629921,0,0,-1.0629921,-186.02362,789.27165)"
             xml:space="preserve"
             stroke-miterlimit="10.433"
             font-style="normal"
             font-variant="normal"
             font-weight="normal"
             font-stretch="normal"
             font-size-adjust="none"
             letter-spacing="normal"
             word-spacing="normal"
             style="font-style:normal;font-variant:normal;font-weight:normal;font-stretch:normal;letter-spacing:normal;word-spacing:normal;text-anchor:start;fill:none;fill-opacity:1;fill-rule:evenodd;stroke:#000000;stroke-width:2.57398081;stroke-linecap:butt;stroke-linejoin:miter;stroke-miterlimit:10.43299961;stroke-dasharray:none;stroke-dashoffset:0;stroke-opacity:1"><path
               d="m 526.8512,424.58 h 0.07 0.07 0.07 l 0.08,0.01 h 0.09 0.09 l 0.09,0.01 0.1,0.01 0.1,0.01 0.1,0.01 0.1,0.02 0.1,0.02 0.1,0.03 0.1,0.02 0.11,0.04 0.1,0.03 0.09,0.05 0.1,0.04 0.09,0.06 0.09,0.05 0.09,0.07 0.08,0.07 0.03,0.04 0.04,0.04 0.04,0.04 0.03,0.05 0.03,0.04 0.04,0.05 0.02,0.05 0.03,0.05 0.03,0.05 0.02,0.06 0.02,0.06 0.02,0.05 0.02,0.07 0.02,0.06 0.01,0.07 0.01,0.07 0.01,0.07 0.01,0.07 v 0.07 0.08 c 0,1.2 -1.04,1.2 -1.94,1.2 h -11.35 c -7.53,0 -13.06,-8.22 -13.06,-14.15 0,-4.38 2.94,-7.87 7.47,-7.87 l 0.05,1.1 c -2.44,0 -4.43,1.79 -4.43,5.38 0,1.49 0.6,5.58 2.34,8.52 2.09,3.43 5.08,4.13 6.78,4.13 4.18,0 4.58,-3.29 4.58,-4.83 0,-2.34 -1,-6.43 -2.69,-8.97 -1.94,-2.94 -4.63,-4.23 -6.58,-4.23 v 0 l -0.05,-1.1 c 5.88,0 12.51,6.03 12.51,13.7 0,0.85 0,3.24 -1.55,5.43 z"
               id="path11991"
               inkscape:connector-curvature="0"
               style="fill:#000000;stroke-width:0" /><path
               d="m 578.22,422.29 h 0.14 0.15 l 0.15,0.01 h 0.07 0.07 l 0.07,0.01 0.08,0.01 0.07,0.01 0.07,0.01 0.06,0.02 0.07,0.01 0.07,0.02 0.06,0.02 0.06,0.03 0.06,0.03 0.05,0.03 0.06,0.03 0.05,0.04 0.04,0.04 0.05,0.05 0.03,0.05 0.02,0.03 0.02,0.02 0.02,0.03 0.01,0.03 0.02,0.03 0.01,0.04 0.01,0.03 0.01,0.04 0.01,0.03 0.01,0.04 0.01,0.04 v 0.04 l 0.01,0.04 v 0.04 0.05 0.05 c 0,0.99 -0.94,0.99 -1.64,0.99 h -29.84 c -0.7,0 -1.64,0 -1.64,-0.99 0,-1 0.94,-1 1.69,-1 z"
               id="path11997"
               inkscape:connector-curvature="0"
               style="fill:#000000;stroke-width:0" /><path
               d="m 578.27,412.62 0.13,0.01 h 0.14 0.14 l 0.07,0.01 h 0.07 l 0.07,0.01 0.07,0.01 0.07,0.01 0.07,0.01 0.06,0.01 0.07,0.02 0.06,0.02 0.06,0.02 0.06,0.02 0.06,0.03 0.06,0.03 0.05,0.04 0.05,0.04 0.04,0.04 0.05,0.04 0.02,0.03 0.02,0.03 0.01,0.02 0.02,0.03 0.02,0.03 0.01,0.03 0.02,0.03 0.01,0.03 0.01,0.04 0.01,0.03 0.01,0.04 0.01,0.04 0.01,0.04 v 0.04 l 0.01,0.04 v 0.04 0.05 0.04 c 0,1 -0.94,1 -1.69,1 h -29.74 c -0.75,0 -1.69,0 -1.69,-1 0,-1 0.94,-1 1.64,-1 z"
               id="path11999"
               inkscape:connector-curvature="0"
               style="fill:#000000;stroke-width:0" /><path
               d="m 614.93,438.23 h 3.73 c 2.64,0 3.1,-0.42 3.1,-1.57 0,-0.52 0,-0.59 -0.24,-1.57 -0.07,-0.21 -0.11,-0.31 -0.11,-0.42 0,-0.35 0.25,-0.52 0.59,-0.52 0.46,0 0.49,0.17 0.67,0.8 l 1.88,7.39 c 0.04,0.11 0.14,0.63 0.14,0.7 0,0.35 -0.24,0.52 -0.59,0.52 -0.49,0 -0.53,-0.2 -0.7,-0.83 -0.7,-2.72 -1.71,-3.25 -4.67,-3.25 h -3.49 l 2.2,8.75 c 0.28,1.09 0.31,1.19 1.78,1.19 h 5.33 c 4.64,0 5.51,-1.12 5.51,-4.01 0,-1.15 -0.14,-1.88 -0.14,-2.16 0,-0.28 0.1,-0.59 0.59,-0.59 0.52,0 0.56,0.31 0.63,0.9 l 0.63,6.07 c 0.1,1.05 -0.14,1.05 -1.01,1.05 h -18.62 c -0.67,0 -1.12,0 -1.12,-0.77 0,-0.49 0.42,-0.49 1.12,-0.49 0.03,0 0.69,0 1.32,-0.07 0.73,-0.07 0.8,-0.14 0.8,-0.49 0,-0.24 -0.1,-0.59 -0.14,-0.76 l -4.57,-18.24 c -0.34,-1.36 -0.38,-1.61 -3.1,-1.61 -0.59,0 -1.04,0 -1.04,-0.73 0,-0.34 0.24,-0.52 0.56,-0.52 h 10.04 c 0.24,0 0.76,0 0.76,0.77 0,0.48 -0.42,0.48 -1.22,0.48 -0.07,0 -0.94,0 -1.81,0.07 -0.73,0.07 -1.08,0.11 -1.08,0.6 0,0.14 0,0.24 0.1,0.63 z"
               id="path12001"
               inkscape:connector-curvature="0"
               style="fill:#000000;stroke-width:0" /><path
               d="m 643.47,431.76 -0.05,-0.01 -0.06,-0.02 -0.05,-0.02 -0.04,-0.02 -0.05,-0.02 -0.04,-0.02 -0.05,-0.03 -0.04,-0.02 -0.04,-0.02 -0.04,-0.03 -0.04,-0.02 -0.03,-0.03 -0.04,-0.03 -0.03,-0.02 -0.03,-0.03 -0.04,-0.03 -0.05,-0.06 -0.06,-0.06 -0.05,-0.06 -0.04,-0.06 -0.04,-0.06 -0.04,-0.06 -0.03,-0.06 -0.03,-0.06 -0.02,-0.06 -0.02,-0.06 -0.02,-0.06 -0.02,-0.05 -0.01,-0.05 -0.01,-0.05 -0.01,-0.05 -0.01,-0.05 -0.01,-0.04 v -0.03 l -0.01,-0.03 v -0.03 -0.02 -0.01 -0.01 -0.01 0 0 -0.01 c 0,-0.42 0.3,-1.02 1.12,-1.02 0.7,0 1.54,0.6 1.54,1.69 0,1.48 -1.64,2.05 -2.96,2.05 -1.62,0 -2.67,-1.05 -3.16,-1.69 -0.82,1.41 -2.42,1.69 -3.31,1.69 -3.12,0 -4.89,-2.94 -4.89,-3.86 0,-0.35 0.4,-0.35 0.53,-0.35 0.22,0 0.42,0.02 0.52,0.3 0.75,2.44 2.79,3.06 3.74,3.06 0.82,0 1.77,-0.35 1.77,-1.67 0,-0.62 -0.45,-2.34 -1.3,-5.65 -0.37,-1.42 -1.52,-2.27 -2.59,-2.27 -0.17,0 -0.9,0 -1.49,0.4 1.12,0.4 1.12,1.35 1.12,1.44 0,0.73 -0.55,1.05 -1.1,1.05 -0.62,0 -1.54,-0.5 -1.54,-1.69 0,-1.52 1.69,-2.04 2.96,-2.04 1.37,0 2.49,0.79 3.09,1.69 0.99,-1.49 2.59,-1.69 3.36,-1.69 3.14,0 4.91,2.96 4.91,3.86 0,0.34 -0.42,0.34 -0.53,0.34 -0.42,0 -0.47,-0.14 -0.54,-0.37 -0.73,-2.24 -2.64,-2.99 -3.74,-2.99 -0.75,0 -1.77,0.28 -1.77,1.67 0,0.3 0,0.47 0.2,1.32 0.42,1.74 1.09,4.51 1.3,4.96 0.32,0.64 1.14,1.64 2.41,1.64 0.08,0 0.93,0 1.5,-0.4 z"
               id="path12003"
               inkscape:connector-curvature="0"
               style="fill:#000000;stroke-width:0" /><polyline
               points="603,418 650.52,418 650.52,420.04 603,420.04 "
               id="polyline12005"
               style="fill:#000000;fill-rule:nonzero;stroke-width:0" /><path
               d="m 619.18,393.18 -0.11,-0.17 -0.11,-0.17 -0.12,-0.16 -0.11,-0.16 -0.12,-0.15 -0.11,-0.14 -0.11,-0.14 -0.12,-0.14 -0.12,-0.13 -0.11,-0.12 -0.12,-0.12 -0.12,-0.11 -0.12,-0.11 -0.13,-0.1 -0.12,-0.1 -0.13,-0.09 -0.13,-0.09 -0.13,-0.08 -0.14,-0.08 -0.14,-0.07 -0.14,-0.07 -0.15,-0.06 -0.14,-0.06 -0.16,-0.05 -0.15,-0.05 -0.17,-0.04 -0.16,-0.04 -0.17,-0.04 -0.18,-0.03 -0.18,-0.02 -0.18,-0.02 -0.19,-0.02 c -0.35,-0.03 -0.8,-0.03 -0.8,-0.73 0,-0.38 0.31,-0.52 0.49,-0.52 h 6.59 c 0.17,0 0.69,0 0.69,0.77 0,0.45 -0.45,0.48 -0.59,0.48 -0.28,0.04 -1.53,0.11 -1.53,1.05 0,0.42 0.34,1.01 0.52,1.32 l 2.79,4.33 h 9.97 l -0.17,1.26 h -8.97 l 7.33,11.4 1.64,-11.4 0.17,-1.26 0.84,-5.79 c -0.14,-0.35 -0.35,-0.91 -2.41,-0.91 -0.42,0 -0.9,0 -0.9,-0.76 0,-0.14 0.1,-0.49 0.55,-0.49 1.02,0 3.49,0.14 4.5,0.14 0.63,0 1.43,-0.03 2.06,-0.03 0.63,-0.04 1.36,-0.11 1.99,-0.11 0.45,0 0.69,0.28 0.69,0.73 0,0.52 -0.42,0.52 -0.97,0.52 -2.02,0 -2.09,0.29 -2.2,1.12 L 634,412.89 c -0.1,0.73 -0.17,0.97 -0.84,0.97 -0.66,0 -0.87,-0.31 -1.18,-0.8 z"
               id="path12007"
               inkscape:connector-curvature="0"
               style="fill:#000000;stroke-width:0" /></g></g><g
           style="stroke-width:2.57398081"
           id="g12067"
           transform="translate(-113.13731,558.72754)"><g
             word-spacing="normal"
             letter-spacing="normal"
             font-size-adjust="none"
             font-stretch="normal"
             font-weight="normal"
             font-variant="normal"
             font-style="normal"
             stroke-miterlimit="10.433"
             xml:space="preserve"
             transform="matrix(1.0629921,0,0,-1.0629921,-186.02362,789.27165)"
             id="g12069"
             style="font-style:normal;font-variant:normal;font-weight:normal;font-stretch:normal;letter-spacing:normal;word-spacing:normal;text-anchor:start;fill:none;fill-opacity:1;fill-rule:evenodd;stroke:#000000;stroke-width:2.57398081;stroke-linecap:butt;stroke-linejoin:miter;stroke-miterlimit:10.43299961;stroke-dasharray:none;stroke-dashoffset:0;stroke-opacity:1"><path
               id="path12071"
               d="m 458.04,418.65 0.1,0.27 0.09,0.25 0.11,0.25 0.11,0.24 0.11,0.23 0.11,0.23 0.12,0.22 0.13,0.21 0.13,0.2 0.13,0.19 0.13,0.19 0.14,0.18 0.28,0.35 0.29,0.31 0.3,0.29 0.31,0.27 0.31,0.25 0.32,0.22 0.31,0.2 0.32,0.18 0.32,0.17 0.31,0.14 0.32,0.13 0.3,0.11 0.3,0.1 0.29,0.08 0.28,0.07 0.26,0.06 0.26,0.05 0.24,0.04 0.22,0.03 0.2,0.03 0.19,0.02 0.16,0.01 h 0.15 l 0.11,0.01 h 0.1 0.06 c 7.52,0 8.07,-8.72 8.07,-12.65 0,-3.04 -0.24,-3.89 -0.6,-4.88 -1.09,-3.64 -2.59,-9.42 -2.59,-10.71 0,-0.55 0.25,-0.9 0.65,-0.9 0.65,0 1.05,1.1 1.6,2.99 1.14,4.18 1.64,7.02 1.84,8.57 0.1,0.65 0.2,1.29 0.4,1.94 1.59,4.93 4.78,12.35 6.77,16.29 0.35,0.6 0.95,1.69 0.95,1.89 0,0.5 -0.5,0.5 -0.6,0.5 -0.15,0 -0.45,0 -0.6,-0.35 -2.59,-4.73 -4.58,-9.71 -6.57,-14.74 -0.05,1.54 -0.1,5.33 -2.05,10.16 -1.19,3.04 -3.18,5.48 -6.62,5.48 -6.23,0 -9.71,-7.57 -9.71,-9.12 0,-0.5 0.44,-0.5 0.94,-0.5 z"
               inkscape:connector-curvature="0"
               style="fill:#000000;stroke-width:0" /><path
               id="path12073"
               d="m 532.22,422.29 h 0.14 0.15 l 0.15,0.01 h 0.07 0.07 l 0.07,0.01 0.08,0.01 0.07,0.01 0.07,0.01 0.06,0.02 0.07,0.01 0.07,0.02 0.06,0.02 0.06,0.03 0.06,0.03 0.05,0.03 0.06,0.03 0.05,0.04 0.04,0.04 0.05,0.05 0.03,0.05 0.02,0.03 0.02,0.02 0.02,0.03 0.01,0.03 0.02,0.03 0.01,0.04 0.01,0.03 0.01,0.04 0.01,0.03 0.01,0.04 0.01,0.04 v 0.04 l 0.01,0.04 v 0.04 0.05 0.05 c 0,0.99 -0.94,0.99 -1.64,0.99 h -29.84 c -0.7,0 -1.64,0 -1.64,-0.99 0,-1 0.94,-1 1.69,-1 z"
               inkscape:connector-curvature="0"
               style="fill:#000000;stroke-width:0" /><path
               id="path12075"
               d="m 532.27,412.62 0.13,0.01 h 0.14 0.14 l 0.07,0.01 h 0.07 l 0.07,0.01 0.07,0.01 0.07,0.01 0.07,0.01 0.06,0.01 0.07,0.02 0.06,0.02 0.06,0.02 0.06,0.02 0.06,0.03 0.06,0.03 0.05,0.04 0.05,0.04 0.04,0.04 0.05,0.04 0.02,0.03 0.02,0.03 0.01,0.02 0.02,0.03 0.02,0.03 0.01,0.03 0.02,0.03 0.01,0.03 0.01,0.04 0.01,0.03 0.01,0.04 0.01,0.04 0.01,0.04 v 0.04 l 0.01,0.04 v 0.04 0.05 0.04 c 0,1 -0.94,1 -1.69,1 h -29.74 c -0.75,0 -1.69,0 -1.69,-1 0,-1 0.94,-1 1.64,-1 z"
               inkscape:connector-curvature="0"
               style="fill:#000000;stroke-width:0" /><path
               id="path12077"
               d="m 574.47,450.06 -0.03,0.06 -0.03,0.05 -0.03,0.05 -0.03,0.05 -0.03,0.05 -0.03,0.05 -0.02,0.04 -0.03,0.04 -0.03,0.04 -0.02,0.03 -0.03,0.04 -0.02,0.03 -0.03,0.03 -0.03,0.03 -0.03,0.02 -0.03,0.03 -0.02,0.02 -0.04,0.02 -0.03,0.02 -0.03,0.01 -0.04,0.02 -0.04,0.01 -0.03,0.02 -0.05,0.01 h -0.04 l -0.05,0.01 -0.04,0.01 h -0.06 l -0.05,0.01 h -0.06 -0.06 -0.06 c -0.42,0 -0.77,-0.1 -1.08,-0.66 l -0.07,-2.75 10.25,-18.59 h -20.5 l 10.25,18.59 0.07,2.75 -12.87,-23.36 c -0.24,-0.39 -0.24,-0.46 -0.24,-0.49 0,-0.35 0.28,-0.35 0.84,-0.35 h 26.74 c 0.56,0 0.84,0 0.84,0.35 0,0.03 0,0.1 -0.25,0.49 z"
               inkscape:connector-curvature="0"
               style="fill:#000000;stroke-width:0" /><path
               id="path12079"
               d="m 597.68,429.7 -0.03,-0.12 -0.04,-0.11 -0.05,-0.12 -0.04,-0.13 -0.06,-0.12 -0.06,-0.13 -0.06,-0.12 -0.07,-0.13 -0.07,-0.13 -0.07,-0.13 -0.08,-0.13 -0.09,-0.12 -0.09,-0.13 -0.09,-0.12 -0.1,-0.12 -0.1,-0.12 -0.11,-0.12 -0.11,-0.11 -0.11,-0.1 -0.12,-0.1 -0.12,-0.1 -0.13,-0.09 -0.13,-0.08 -0.13,-0.08 -0.14,-0.07 -0.14,-0.06 -0.15,-0.05 -0.15,-0.05 -0.15,-0.03 -0.16,-0.03 -0.16,-0.02 h -0.16 c -0.11,0 -1.16,0 -1.89,0.49 1.43,0.45 1.53,1.7 1.53,1.92 0,0.76 -0.58,1.28 -1.39,1.28 -0.98,0 -1.99,-0.83 -1.99,-2.12 0,-1.75 1.95,-2.55 3.67,-2.55 1.6,0 3.03,1.01 3.9,2.48 0.84,-1.85 2.76,-2.48 4.15,-2.48 4.01,0 6.14,4.36 6.14,5.33 0,0.46 -0.46,0.46 -0.56,0.46 -0.49,0 -0.52,-0.17 -0.67,-0.59 -0.73,-2.41 -2.82,-4.22 -4.77,-4.22 -1.4,0 -2.13,0.94 -2.13,2.26 0,0.91 0.84,4.08 1.82,7.95 0.69,2.69 2.26,3.56 3.41,3.56 0.07,0 1.15,0 1.89,-0.49 -1.12,-0.31 -1.54,-1.29 -1.54,-1.91 0,-0.77 0.59,-1.3 1.4,-1.3 0.8,0 1.95,0.67 1.95,2.13 0,1.96 -2.23,2.55 -3.63,2.55 -1.74,0 -3.14,-1.15 -3.9,-2.48 -0.63,1.43 -2.23,2.48 -4.19,2.48 -3.9,0 -6.13,-4.29 -6.13,-5.34 0,-0.45 0.49,-0.45 0.59,-0.45 0.45,0 0.49,0.14 0.66,0.59 0.87,2.72 3.07,4.22 4.78,4.22 1.15,0 2.09,-0.63 2.09,-2.3 0,-0.7 -0.42,-2.44 -0.73,-3.63 z"
               inkscape:connector-curvature="0"
               style="fill:#000000;stroke-width:0" /><polyline
               id="polyline12081"
               points="557,418 612.32,418 612.32,420.04 557,420.04 "
               style="fill:#000000;fill-rule:nonzero;stroke-width:0" /><path
               id="path12083"
               d="m 584.37,409.96 0.03,0.11 0.02,0.11 0.03,0.11 0.03,0.1 0.03,0.09 0.03,0.09 0.04,0.09 0.03,0.08 0.05,0.07 0.04,0.07 0.05,0.07 0.06,0.06 0.06,0.06 0.07,0.06 0.07,0.05 0.08,0.05 0.1,0.04 0.1,0.04 0.11,0.04 0.12,0.03 0.06,0.02 0.07,0.01 0.07,0.02 0.07,0.01 0.08,0.01 0.08,0.01 0.08,0.01 0.09,0.02 h 0.09 l 0.09,0.01 0.09,0.01 0.1,0.01 0.11,0.01 h 0.1 l 0.11,0.01 h 0.12 l 0.12,0.01 h 0.12 0.13 0.13 l 0.13,0.01 h 0.14 0.14 0.15 c 1.08,0 1.43,0 1.43,0.77 0,0.03 -0.03,0.49 -0.59,0.49 h -10.05 c -0.2,0 -0.73,0 -0.73,-0.77 0,-0.49 0.42,-0.49 1.12,-0.49 0.04,0 0.7,0 1.33,-0.07 0.73,-0.07 0.8,-0.14 0.8,-0.49 0,-0.07 0,-0.24 -0.14,-0.77 l -4.64,-18.51 c -0.31,-1.18 -0.38,-1.47 -3.07,-1.47 -0.59,0 -1.04,0 -1.04,-0.73 0,-0.52 0.41,-0.52 1.04,-0.52 h 17.54 c 0.87,0 0.91,0.04 1.19,0.7 0.35,0.94 2.96,7.7 2.96,7.98 0,0.11 -0.07,0.49 -0.59,0.49 -0.42,0 -0.49,-0.17 -0.7,-0.73 -1.32,-3.32 -2.86,-7.19 -9.24,-7.19 h -3.94 c -1.08,0 -1.12,0.04 -1.12,0.36 0,0.03 0,0.2 0.15,0.73 z"
               inkscape:connector-curvature="0"
               style="fill:#000000;stroke-width:0" /></g></g><path
           inkscape:connector-curvature="0"
           id="path5418"
           d="m 129.46935,526.64055 h 73.27587"
           style="fill:none;fill-rule:evenodd;stroke:#000000;stroke-width:2.41310692;stroke-linecap:butt;stroke-linejoin:miter;stroke-miterlimit:4;stroke-dasharray:9.65242759, 9.65242759;stroke-dashoffset:0;stroke-opacity:1;marker-start:url(#StopL);marker-end:url(#StopL)" /><g
           id="g6564"
           transform="matrix(0.64932393,0,0,0.64932393,-51.56427,281.09533)"
           style="stroke-width:2.57398081"><g
             id="content-3"
             transform="matrix(1.0629921,0,0,-1.0629921,-186.02362,789.27165)"
             xml:space="preserve"
             stroke-miterlimit="10.433"
             font-style="normal"
             font-variant="normal"
             font-weight="normal"
             font-stretch="normal"
             font-size-adjust="none"
             letter-spacing="normal"
             word-spacing="normal"
             style="font-style:normal;font-variant:normal;font-weight:normal;font-stretch:normal;letter-spacing:normal;word-spacing:normal;text-anchor:start;fill:none;fill-opacity:1;fill-rule:evenodd;stroke:#000000;stroke-width:2.57398081;stroke-linecap:butt;stroke-linejoin:miter;stroke-miterlimit:10.43299961;stroke-dasharray:none;stroke-dashoffset:0;stroke-opacity:1"><path
               d="m 478.02,440.77 -0.04,0.06 -0.03,0.06 -0.03,0.05 -0.02,0.05 -0.03,0.06 -0.03,0.04 -0.03,0.05 -0.02,0.04 -0.03,0.05 -0.03,0.04 -0.02,0.03 -0.03,0.04 -0.03,0.03 -0.03,0.03 -0.03,0.03 -0.03,0.03 -0.04,0.03 -0.03,0.02 -0.04,0.02 -0.04,0.02 -0.04,0.02 -0.04,0.02 -0.05,0.02 -0.05,0.01 -0.05,0.01 -0.05,0.01 -0.06,0.01 -0.06,0.01 h -0.07 l -0.07,0.01 h -0.07 -0.08 c -0.84,0 -0.94,-0.25 -1.29,-0.9 l -0.3,-4.09 13.4,-26.89 h -26.85 l 13.45,26.89 0.3,4.09 L 458.59,407 c -0.25,-0.45 -0.25,-0.55 -0.25,-0.6 0,-0.4 0.3,-0.4 1.1,-0.4 h 34.57 c 0.79,0 1.09,0 1.09,0.4 0,0.05 0,0.15 -0.24,0.6 z"
               id="path6567"
               inkscape:connector-curvature="0"
               style="fill:#000000;stroke-width:0" /><path
               d="m 513.64,421.04 0.03,0.13 0.03,0.15 0.05,0.17 0.04,0.18 0.06,0.19 0.06,0.21 0.06,0.21 0.07,0.23 0.08,0.23 0.09,0.24 0.1,0.25 0.1,0.24 0.11,0.25 0.12,0.25 0.13,0.25 0.14,0.25 0.15,0.24 0.15,0.24 0.17,0.23 0.18,0.22 0.18,0.22 0.2,0.2 0.21,0.19 0.22,0.18 0.23,0.16 0.25,0.14 0.12,0.07 0.13,0.06 0.13,0.05 0.14,0.05 0.14,0.05 0.14,0.04 0.14,0.03 0.15,0.03 0.15,0.02 0.16,0.02 0.16,0.01 h 0.16 c 0.25,0 1.45,0 2.49,-0.65 -1.4,-0.25 -2.39,-1.49 -2.39,-2.68 0,-0.8 0.55,-1.75 1.89,-1.75 1.1,0 2.69,0.9 2.69,2.89 0,2.59 -2.94,3.29 -4.63,3.29 -2.89,0 -4.64,-2.64 -5.23,-3.79 -1.24,3.29 -3.94,3.79 -5.38,3.79 -5.18,0 -8.02,-6.43 -8.02,-7.67 0,-0.5 0.5,-0.5 0.6,-0.5 0.39,0 0.54,0.1 0.64,0.54 1.7,5.29 4.98,6.53 6.68,6.53 0.95,0 2.69,-0.45 2.69,-3.33 0,-1.55 -0.85,-4.89 -2.69,-11.86 -0.8,-3.09 -2.54,-5.18 -4.73,-5.18 -0.3,0 -1.45,0 -2.49,0.65 1.24,0.25 2.34,1.29 2.34,2.69 0,1.34 -1.1,1.74 -1.85,1.74 -1.49,0 -2.73,-1.3 -2.73,-2.89 0,-2.29 2.48,-3.29 4.68,-3.29 3.28,0 5.08,3.49 5.23,3.79 0.6,-1.85 2.39,-3.79 5.38,-3.79 5.13,0 7.97,6.43 7.97,7.67 0,0.5 -0.45,0.5 -0.6,0.5 -0.45,0 -0.55,-0.2 -0.65,-0.55 -1.64,-5.33 -5.03,-6.52 -6.62,-6.52 -1.95,0 -2.74,1.59 -2.74,3.29 0,1.09 0.29,2.19 0.85,4.38 z"
               id="path6569"
               inkscape:connector-curvature="0"
               style="fill:#000000;stroke-width:0" /></g></g><rect
           transform="matrix(0.99999994,-3.5010847e-4,-0.00371544,0.9999931,0,0)"
           y="538.18982"
           x="131.05133"
           height="227.29198"
           width="231.2305"
           id="rect5416-2"
           style="opacity:1;fill:#eb1f15;fill-opacity:0.27564105;fill-rule:evenodd;stroke:none;stroke-width:1.98454738;stroke-linecap:round;stroke-linejoin:round;stroke-miterlimit:4;stroke-dasharray:1.98454738, 11.90728431;stroke-dashoffset:0.23130099;stroke-opacity:1" /><rect
           transform="matrix(0.99999994,-3.5006771e-4,-0.31872834,0.94784611,0,0)"
           y="567.89276"
           x="385.8345"
           height="239.79674"
           width="231.25742"
           id="rect5416"
           style="opacity:1;fill:#4ab46a;fill-opacity:0.59615383;fill-rule:evenodd;stroke:#000000;stroke-width:3.36052847;stroke-linecap:round;stroke-linejoin:round;stroke-miterlimit:4;stroke-dasharray:none;stroke-dashoffset:0;stroke-opacity:1" /><path
           inkscape:connector-curvature="0"
           id="path6697"
           d="M 99.34641,538.10217 V 765.05704"
           style="fill:none;fill-rule:evenodd;stroke:#000000;stroke-width:2.41310692;stroke-linecap:butt;stroke-linejoin:miter;stroke-miterlimit:4;stroke-dasharray:7.23932071, 7.23932071;stroke-dashoffset:0;stroke-opacity:1;marker-start:url(#marker6699);marker-end:url(#marker6699)" /><g
           transform="matrix(0.69131429,0,0,0.69131429,-139.95513,412.99047)"
           id="g7342"
           style="stroke-width:2.57398081"><g
             style="font-style:normal;font-variant:normal;font-weight:normal;font-stretch:normal;letter-spacing:normal;word-spacing:normal;text-anchor:start;fill:none;fill-opacity:1;fill-rule:evenodd;stroke:#000000;stroke-width:2.57398081;stroke-linecap:butt;stroke-linejoin:miter;stroke-miterlimit:10.43299961;stroke-dasharray:none;stroke-dashoffset:0;stroke-opacity:1"
             id="g7344"
             transform="matrix(1.0629921,0,0,-1.0629921,-186.02362,789.27165)"
             xml:space="preserve"
             stroke-miterlimit="10.433"
             font-style="normal"
             font-variant="normal"
             font-weight="normal"
             font-stretch="normal"
             font-size-adjust="none"
             letter-spacing="normal"
             word-spacing="normal"><path
               style="fill:#000000;stroke-width:0"
               inkscape:connector-curvature="0"
               d="m 474.63,436.14 0.04,0.16 0.04,0.16 0.04,0.15 0.04,0.14 0.05,0.14 0.04,0.13 0.05,0.12 0.06,0.12 0.05,0.11 0.07,0.1 0.07,0.1 0.08,0.1 0.09,0.08 0.1,0.08 0.11,0.08 0.12,0.07 0.14,0.06 0.14,0.06 0.16,0.06 0.18,0.05 0.09,0.02 0.1,0.02 0.1,0.03 0.11,0.02 0.11,0.01 0.12,0.02 0.12,0.02 0.12,0.01 0.13,0.02 0.14,0.01 0.14,0.01 0.14,0.01 0.15,0.01 0.16,0.01 0.16,0.01 0.17,0.01 0.17,0.01 h 0.18 l 0.18,0.01 h 0.19 0.2 l 0.2,0.01 h 0.21 0.22 c 1.5,0 1.89,0 1.89,0.95 0,0.59 -0.55,0.59 -0.79,0.59 h -14 c -0.35,0 -0.95,0 -0.95,-0.99 0,-0.55 0.45,-0.55 1.4,-0.55 0.1,0 1.04,0 1.89,-0.1 0.9,-0.1 1.35,-0.15 1.35,-0.8 0,-0.2 -0.06,-0.35 -0.2,-0.94 l -6.68,-26.75 c -0.5,-1.95 -0.6,-2.35 -4.53,-2.35 -0.85,0 -1.35,0 -1.35,-0.99 0,-0.55 0.45,-0.55 1.35,-0.55 h 23.06 c 1.2,0 1.25,0 1.54,0.85 l 3.94,10.76 c 0.2,0.55 0.2,0.64 0.2,0.69 0,0.2 -0.15,0.55 -0.6,0.55 -0.45,0 -0.5,-0.25 -0.84,-1.05 -1.7,-4.58 -3.89,-10.26 -12.51,-10.26 h -4.68 c -0.7,0 -0.8,0 -1.1,0.05 -0.5,0.05 -0.64,0.11 -0.64,0.5 0,0.15 0,0.25 0.25,1.15 z"
               id="path7346" /></g></g><path
           inkscape:connector-curvature="0"
           id="path7379"
           d="M 320.78983,538.50103 H 485.48278"
           style="fill:none;fill-rule:evenodd;stroke:#2e36d6;stroke-width:3.6196599;stroke-linecap:butt;stroke-linejoin:miter;stroke-miterlimit:4;stroke-dasharray:none;stroke-opacity:1;marker-start:url(#DotS);marker-end:url(#Arrow2Mend)" /><g
           transform="matrix(0.65933593,0,0,0.65933593,109.28239,244.71461)"
           id="g9071"
           style="stroke-width:2.57398081"><g
             style="font-style:normal;font-variant:normal;font-weight:normal;font-stretch:normal;letter-spacing:normal;word-spacing:normal;text-anchor:start;fill:none;fill-opacity:1;fill-rule:evenodd;stroke:#000000;stroke-width:2.57398081;stroke-linecap:butt;stroke-linejoin:miter;stroke-miterlimit:10.43299961;stroke-dasharray:none;stroke-dashoffset:0;stroke-opacity:1"
             id="g9073"
             transform="matrix(1.0629921,0,0,-1.0629921,-186.02362,789.27165)"
             xml:space="preserve"
             stroke-miterlimit="10.433"
             font-style="normal"
             font-variant="normal"
             font-weight="normal"
             font-stretch="normal"
             font-size-adjust="none"
             letter-spacing="normal"
             word-spacing="normal"><path
               style="fill:#000000;stroke-width:0"
               inkscape:connector-curvature="0"
               d="m 464.92,411.73 -0.19,-0.31 -0.19,-0.29 -0.18,-0.27 -0.19,-0.26 -0.18,-0.25 -0.19,-0.23 -0.19,-0.23 -0.18,-0.2 -0.19,-0.2 -0.18,-0.18 -0.19,-0.17 -0.19,-0.16 -0.19,-0.15 -0.18,-0.14 -0.19,-0.13 -0.19,-0.12 -0.19,-0.11 -0.19,-0.1 -0.19,-0.09 -0.19,-0.09 -0.2,-0.07 -0.19,-0.07 -0.19,-0.06 -0.2,-0.06 -0.2,-0.05 -0.19,-0.04 -0.2,-0.04 -0.2,-0.03 -0.4,-0.05 -0.41,-0.04 c -0.6,-0.04 -1.05,-0.04 -1.05,-0.99 0,-0.3 0.25,-0.55 0.65,-0.55 h 9.27 c 0.3,0 0.94,0 0.94,0.95 0,0.55 -0.44,0.59 -0.8,0.59 -1.14,0.1 -2.34,0.5 -2.34,1.75 0,0.6 0.3,1.14 0.7,1.84 l 3.79,6.38 h 12.5 l -0.15,1.54 h -11.41 l 9.82,16.44 1.59,-16.44 0.15,-1.54 c 0.1,-1.05 0.8,-7.82 0.8,-8.32 0,-1.49 -2.59,-1.65 -3.59,-1.65 -0.7,0 -1.2,0 -1.2,-0.99 0,-0.55 0.6,-0.55 0.7,-0.55 h 11.86 c 0.3,0 0.89,0 0.89,1 0,0.54 -0.49,0.54 -1.14,0.54 -3.09,0 -3.09,0.35 -3.24,1.8 l -3.04,31.13 c -0.1,1 -0.1,1.2 -0.94,1.2 -0.8,0 -1,-0.35 -1.3,-0.85 z"
               id="path9075" /></g></g><path
           inkscape:connector-curvature="0"
           id="path11412"
           d="M 202.92873,489.73011 H 437.12794"
           style="fill:none;fill-rule:evenodd;stroke:#000000;stroke-width:2.41310692;stroke-linecap:butt;stroke-linejoin:miter;stroke-miterlimit:4;stroke-dasharray:9.65242759, 9.65242759;stroke-dashoffset:0;stroke-opacity:1;marker-start:url(#marker11414);marker-end:url(#marker11414)" /></g></g></g></svg>