<?xml version="1.0" encoding="UTF-8" standalone="no"?>
<!-- Created with Inkscape (http://www.inkscape.org/) -->

<svg
   xmlns:dc="http://purl.org/dc/elements/1.1/"
   xmlns:cc="http://creativecommons.org/ns#"
   xmlns:rdf="http://www.w3.org/1999/02/22-rdf-syntax-ns#"
   xmlns:svg="http://www.w3.org/2000/svg"
   xmlns="http://www.w3.org/2000/svg"
   xmlns:sodipodi="http://sodipodi.sourceforge.net/DTD/sodipodi-0.dtd"
   xmlns:inkscape="http://www.inkscape.org/namespaces/inkscape"
   version="1.1"
   width="323.75"
   height="306.25"
   id="svg3774"
   xml:space="preserve"
   inkscape:version="0.91 r13725"
   sodipodi:docname="dry-fc-new.svg"><sodipodi:namedview
     pagecolor="#ffffff"
     bordercolor="#666666"
     borderopacity="1"
     objecttolerance="10"
     gridtolerance="10"
     guidetolerance="10"
     inkscape:pageopacity="0"
     inkscape:pageshadow="2"
     inkscape:window-width="1920"
     inkscape:window-height="1171"
     id="namedview92"
     showgrid="false"
     inkscape:zoom="2.3150307"
     inkscape:cx="93.605805"
     inkscape:cy="152.24258"
     inkscape:window-x="0"
     inkscape:window-y="0"
     inkscape:window-maximized="1"
     inkscape:current-layer="g3782" /><metadata
     id="metadata3780"><rdf:RDF><cc:Work
         rdf:about=""><dc:format>image/svg+xml</dc:format><dc:type
           rdf:resource="http://purl.org/dc/dcmitype/StillImage" /><dc:title /></cc:Work></rdf:RDF></metadata><defs
     id="defs3778"><clipPath
       id="clipPath3788"><path
         d="m 0,0.2 259.1,0 0,244.7 L 0,244.9 0,0.2 z"
         id="path3790" /></clipPath><clipPath
       id="clipPath3816"><path
         d="m 7.7,198 19,0 0,11.7 -19,0 0,-11.7 z"
         id="path3818" /></clipPath><clipPath
       id="clipPath3828"><path
         d="m 202.8,10 18.7,0 0,15.3 -18.7,0 0,-15.3 z"
         id="path3830" /></clipPath><clipPath
       id="clipPath3840"><path
         d="m 0,0.2 259.1,0 0,244.7 L 0,244.9 0,0.2 z"
         id="path3842" /></clipPath><clipPath
       id="clipPath3862"><path
         d="m 155.1,68.3 44,0 0,15.2 -44,0 0,-15.2 z"
         id="path3864" /></clipPath><clipPath
       id="clipPath3894"><path
         d="m 0,0.2 259.1,0 0,244.7 L 0,244.9 0,0.2 z"
         id="path3896" /></clipPath><clipPath
       id="clipPath3916"><path
         d="m 109.7,178.8 44,0 0,15.2 -44,0 0,-15.2 z"
         id="path3918" /></clipPath><clipPath
       id="clipPath3948"><path
         d="m 129,-15 0,0 0,275.1 0,0 0,-275.1 z"
         id="path3950" /></clipPath></defs><g
     transform="matrix(1.25,0,0,-1.25,0,306.25)"
     id="g3782"><g
       id="g3784"><g
         clip-path="url(#clipPath3788)"
         id="g3786"><path
           d="m 0,245 259.2,0 0,-244.8 L 0,0.2 0,245 z"
           id="path3792"
           style="fill:#ffffff;fill-opacity:1;fill-rule:evenodd;stroke:none" /><g
           id="g3794"><path
             d="m 29.5,33.8 0,181.3"
             id="path3796"
             style="fill:none;stroke:#000000;stroke-width:2.15078998;stroke-linecap:butt;stroke-linejoin:round;stroke-miterlimit:10;stroke-opacity:1;stroke-dasharray:none" /></g><path
           d="m 29.5,231.8 -5.9,-17.5 11.7,0 -5.8,17.5 z"
           id="path3798"
           style="fill:#000000;fill-opacity:1;fill-rule:evenodd;stroke:none" /><g
           id="g3800"><path
             d="M 29.5,34.6 225.6,36"
             id="path3802"
             style="fill:none;stroke:#000000;stroke-width:2.15078998;stroke-linecap:butt;stroke-linejoin:round;stroke-miterlimit:10;stroke-opacity:1;stroke-dasharray:none" /></g><path
           d="m 242.4,36.1 -17.6,5.7 0.1,-11.7 17.5,6 z"
           id="path3804"
           style="fill:#000000;fill-opacity:1;fill-rule:evenodd;stroke:none" /><g
           id="g3806"
           transform="translate(19.697363,2.0734066)"><text
             transform="matrix(1,0,0,-1,83.9,73.8)"
             id="text3808"><tspan
               id="tspan3810"
               style="font-variant:normal;font-weight:normal;font-size:12px;font-family:'Comic Sans MS';-inkscape-font-specification:'Comic Sans MS';writing-mode:lr-tb;fill:#000080;fill-opacity:1;fill-rule:nonzero;stroke:none">Below Jamming</tspan></text>
</g></g></g><g
       id="g3890"><g
         clip-path="url(#clipPath3894)"
         id="g3892"
         transform="translate(0.34556777,0)"><g
           transform="matrix(1.3115481,0,0,1.1899379,-9.2773891,-6.8336526)"
           id="g3898"><path
             d="m 30.5,36.7 c 23.25,39.95 65.9,75.125 102.7375,100.3125 9.20937,6.29688 18.05547,11.96953 26.14434,16.93652 2.02221,1.24175 18.77384,11.41383 20.75192,12.60049"
             id="path3900"
             style="fill:none;stroke:#000080;stroke-width:1.44330001;stroke-linecap:butt;stroke-linejoin:round;stroke-miterlimit:10;stroke-opacity:1;stroke-dasharray:none"
             inkscape:connector-curvature="0" /></g><g
           transform="matrix(1.3516517,0,0,1,-9.6993124,17.6)"
           id="g3902"><path
             d="m 29.798911,132.26996 c 60.401972,-2.26985 116.948609,30.57287 144.301619,50.01706"
             id="path3904"
             style="fill:none;stroke:#008000;stroke-width:1.48523712;stroke-linecap:butt;stroke-linejoin:round;stroke-miterlimit:10;stroke-opacity:1;stroke-dasharray:none"
             inkscape:connector-curvature="0" /></g><g
           id="g3906"
           transform="translate(-2.7645422,-0.34556777)"><text
             transform="matrix(1,0,0,-1,38.6,186.9)"
             id="text3908"
             style="font-family:'Abyssinica SIL';-inkscape-font-specification:'Abyssinica SIL'"><tspan
               id="tspan3910"
               style="font-style:normal;font-variant:normal;font-weight:normal;font-stretch:normal;font-size:12px;font-family:'Comic Sans MS';-inkscape-font-specification:'Comic Sans MS';writing-mode:lr-tb;fill:#008000;fill-opacity:1;fill-rule:nonzero;stroke:none">Above Jamming</tspan></text>
</g></g></g><g
       id="g3944"><g
         id="g3946" /><g
         id="g3952"><g
           clip-path="url(#clipPath3948)"
           id="g3954"
           style="opacity:0.5" /></g></g><g
       id="g3200"
       transform="matrix(0.34260665,0,0,-0.34260665,-92.445396,318.40525)"><g
         word-spacing="normal"
         letter-spacing="normal"
         font-size-adjust="none"
         font-stretch="normal"
         font-weight="normal"
         font-variant="normal"
         font-style="normal"
         stroke-miterlimit="10.433"
         xml:space="preserve"
         transform="matrix(1.0629921,0,0,-1.0629921,-186.02362,789.27165)"
         id="g3202"
         style="font-style:normal;font-variant:normal;font-weight:normal;font-stretch:normal;letter-spacing:normal;word-spacing:normal;text-anchor:start;fill:none;stroke:#000000;stroke-linecap:butt;stroke-linejoin:miter;stroke-miterlimit:10.43299961;stroke-opacity:1;stroke-dasharray:none;stroke-dashoffset:0"><path
           id="path3204"
           d="m 481.33,424.78 0.07,0 0.07,0 0.07,0 0.08,0 0.09,0 0.09,0.01 0.09,0 0.09,0.01 0.1,0.01 0.1,0.02 0.1,0.02 0.11,0.02 0.1,0.02 0.1,0.03 0.1,0.03 0.1,0.04 0.1,0.04 0.1,0.05 0.09,0.05 0.09,0.06 0.08,0.07 0.08,0.07 0.04,0.04 0.04,0.04 0.03,0.04 0.04,0.05 0.03,0.04 0.03,0.05 0.03,0.05 0.03,0.05 0.03,0.05 0.02,0.06 0.02,0.06 0.02,0.06 0.02,0.06 0.02,0.06 0.01,0.07 0.01,0.07 0.01,0.07 0,0.08 0.01,0.07 0,0.08 c 0,1.19 -1.05,1.19 -1.94,1.19 h -11.36 c -7.53,0 -13.06,-8.22 -13.06,-14.14 0,-4.39 2.94,-7.88 7.47,-7.88 l 0.06,1.1 c -2.45,0 -4.44,1.79 -4.44,5.37 0,1.5 0.6,5.59 2.35,8.53 2.09,3.44 5.08,4.13 6.76,4.13 4.19,0 4.6,-3.28 4.6,-4.83 0,-2.34 -1,-6.42 -2.69,-8.97 -1.95,-2.94 -4.64,-4.23 -6.58,-4.23 h 0 l -0.06,-1.1 c 5.89,0 12.51,6.03 12.51,13.71 0,0.84 0,3.23 -1.54,5.42 z"
           inkscape:connector-curvature="0"
           style="fill:#000000;stroke-width:0" /></g></g><g
       transform="matrix(0.29308639,0,0,-0.2930864,35.290165,165.62501)"
       id="g3289"><g
         style="font-style:normal;font-variant:normal;font-weight:normal;font-stretch:normal;letter-spacing:normal;word-spacing:normal;text-anchor:start;fill:none;stroke:#000000;stroke-width:0.87272733;stroke-linecap:butt;stroke-linejoin:miter;stroke-miterlimit:10.43299961;stroke-dasharray:none;stroke-dashoffset:0;stroke-opacity:1"
         word-spacing="normal"
         letter-spacing="normal"
         font-size-adjust="none"
         font-stretch="normal"
         font-weight="normal"
         font-variant="normal"
         font-style="normal"
         stroke-miterlimit="10.433"
         xml:space="preserve"
         transform="matrix(1.0629921,0,0,-1.0629921,-186.02362,789.27165)"
         id="content"><path
           style="fill:#000000;stroke-width:0"
           inkscape:connector-curvature="0"
           id="path3292"
           d="m 477.29,439.57 0,0.01 0,0.01 0,0 0,0.01 0,0.01 0,0.01 0,0 0,0.01 0.01,0.02 0,0.03 0,0.02 0.01,0.02 0.01,0.03 0,0.03 0.01,0.02 0,0.03 0.01,0.03 0.01,0.03 0.01,0.06 0.02,0.06 0,0.03 0.01,0.02 0.01,0.03 0,0.03 0.01,0.02 0.01,0.02 0,0.02 0.01,0.02 0,0.01 0,0.01 0,0.01 0,0.01 0.01,0 0,0.01 0,0.01 0,0 0,0.01 0,0 0,0 0,0.01 c 0,0.04 0,0.5 -0.59,0.5 -0.5,0 -0.55,-0.16 -0.75,-1 l -2.89,-11.5 c -7.92,-0.25 -15.25,-6.88 -15.25,-13.66 0,-4.73 3.48,-8.67 9.56,-9.01 l 0.25,1.09 c -2.98,0.14 -6.58,1.89 -6.58,6.87 0,5.99 4.3,12.96 11.72,13.6 l -5.14,-20.47 -0.25,-1.09 c -0.39,-1.55 -0.73,-3.15 -1.14,-4.69 -0.59,-2.35 -1.09,-4.24 -1.09,-4.39 0,-0.49 0.34,-0.55 0.59,-0.55 0.25,0 0.36,0.06 0.5,0.2 0.09,0.1 0.41,1.3 0.55,2 l 1.89,7.43 0.25,1.09 5.14,20.47 c 3.78,-0.19 6.62,-2.49 6.62,-6.88 0,-5.87 -4.28,-13 -11.76,-13.59 l -0.25,-1.09 c 8.03,0.25 15.25,6.96 15.25,13.64 0,3.93 -2.64,8.53 -9.57,9.03 z" /><path
           style="fill:#000000;stroke-width:0"
           inkscape:connector-curvature="0"
           id="path3294"
           d="m 532.7,431.01 0.06,0.03 0.05,0.03 0.06,0.02 0.05,0.03 0.05,0.03 0.05,0.03 0.04,0.02 0.05,0.03 0.04,0.03 0.04,0.03 0.04,0.03 0.04,0.02 0.04,0.03 0.03,0.03 0.04,0.03 0.03,0.04 0.03,0.03 0.03,0.03 0.02,0.03 0.03,0.04 0.02,0.03 0.02,0.04 0.02,0.04 0.01,0.04 0.02,0.04 0.01,0.04 0.01,0.04 0.01,0.04 0.01,0.05 0,0.05 0.01,0.04 0,0.06 c 0,0.54 -0.46,1 -1,1 -0.14,0 -0.25,0 -0.89,-0.35 l -27.61,-13.01 c -0.55,-0.25 -0.94,-0.5 -0.94,-1.1 0,-0.59 0.39,-0.84 0.94,-1.09 l 27.61,-13 c 0.64,-0.36 0.75,-0.36 0.89,-0.36 0.54,0 1,0.45 1,1 0,0.55 -0.35,0.8 -0.96,1.09 l -26.15,12.36 z" /><path
           style="fill:#000000;stroke-width:0"
           inkscape:connector-curvature="0"
           id="path3296"
           d="m 573.4,439.57 0,0.01 0,0.01 0,0 0,0.01 0,0.01 0,0.01 0,0 0,0.01 0.01,0.02 0,0.03 0.01,0.02 0,0.02 0.01,0.03 0,0.03 0.01,0.02 0.01,0.03 0,0.03 0.01,0.03 0.02,0.06 0.01,0.06 0.01,0.03 0.01,0.02 0,0.03 0.01,0.03 0,0.02 0.01,0.02 0.01,0.02 0,0.02 0,0.01 0,0.01 0.01,0.01 0,0.01 0,0 0,0.01 0,0.01 0,0 0,0.01 0,0 0,0 0,0.01 c 0,0.04 0,0.5 -0.59,0.5 -0.5,0 -0.55,-0.16 -0.75,-1 l -2.89,-11.5 c -7.92,-0.25 -15.25,-6.88 -15.25,-13.66 0,-4.73 3.48,-8.67 9.56,-9.01 l 0.25,1.09 c -2.98,0.14 -6.58,1.89 -6.58,6.87 0,5.99 4.3,12.96 11.72,13.6 l -5.14,-20.47 -0.25,-1.09 c -0.39,-1.55 -0.73,-3.15 -1.14,-4.69 -0.59,-2.35 -1.09,-4.24 -1.09,-4.39 0,-0.49 0.34,-0.55 0.59,-0.55 0.25,0 0.36,0.06 0.5,0.2 0.1,0.1 0.41,1.3 0.55,2 l 1.89,7.43 0.25,1.09 5.14,20.47 c 3.78,-0.19 6.63,-2.49 6.63,-6.88 0,-5.87 -4.29,-13 -11.77,-13.59 l -0.25,-1.09 c 8.03,0.25 15.25,6.96 15.25,13.64 0,3.93 -2.64,8.53 -9.56,9.03 z" /><path
           style="fill:#000000;stroke-width:0"
           inkscape:connector-curvature="0"
           id="path3298"
           d="m 593.34,403.95 0,-0.29 -0.02,-0.28 -0.02,-0.27 -0.04,-0.27 -0.05,-0.26 -0.05,-0.24 -0.07,-0.24 -0.07,-0.24 -0.08,-0.22 -0.1,-0.21 -0.09,-0.21 -0.11,-0.2 -0.11,-0.18 -0.12,-0.18 -0.13,-0.17 -0.13,-0.17 -0.14,-0.15 -0.14,-0.14 -0.15,-0.13 -0.15,-0.13 -0.16,-0.11 -0.16,-0.11 -0.17,-0.09 -0.17,-0.09 -0.17,-0.08 -0.18,-0.06 -0.17,-0.06 -0.18,-0.04 -0.19,-0.04 -0.18,-0.03 -0.19,-0.01 -0.18,-0.01 c -1.08,0 -2.92,0.42 -3.94,1.74 1.3,0.11 1.92,0.95 1.92,1.95 0,1.13 -0.81,1.92 -1.92,1.92 -1.08,0 -1.95,-0.7 -1.95,-1.98 0,-2.58 2.61,-4.61 6.03,-4.61 3.2,0 6.2,1.89 6.8,4.75 0.11,0.48 0.11,2.01 0.11,3.03 l 0,12.89 c 0,0.63 0,1.64 0.06,1.84 0.14,0.74 0.97,0.74 2.61,0.74 l 0,1.25 c -0.17,0 -2.72,-0.14 -4.42,-0.14 -0.77,0 -5.44,0.11 -6.1,0.14 l 0,-1.25 1.28,0 c 3.39,0 3.39,-0.45 3.39,-1.61 z" /></g></g><g
       transform="matrix(0.29308639,0,0,-0.29308639,-29.023389,275.29784)"
       id="g3374"><g
         style="font-style:normal;font-variant:normal;font-weight:normal;font-stretch:normal;letter-spacing:normal;word-spacing:normal;text-anchor:start;fill:none;stroke:#000000;stroke-width:0.87272733;stroke-linecap:butt;stroke-linejoin:miter;stroke-miterlimit:10.43299961;stroke-dasharray:none;stroke-dashoffset:0;stroke-opacity:1"
         word-spacing="normal"
         letter-spacing="normal"
         font-size-adjust="none"
         font-stretch="normal"
         font-weight="normal"
         font-variant="normal"
         font-style="normal"
         stroke-miterlimit="10.433"
         xml:space="preserve"
         transform="matrix(1.0629921,0,0,-1.0629921,-186.02362,789.27165)"
         id="content-7"><path
           style="fill:#000000;stroke-width:0"
           inkscape:connector-curvature="0"
           id="path3377"
           d="m 477.29,439.57 0,0.01 0,0.01 0,0 0,0.01 0,0.01 0,0.01 0,0 0,0.01 0.01,0.02 0,0.03 0,0.02 0.01,0.02 0.01,0.03 0,0.03 0.01,0.02 0,0.03 0.01,0.03 0.01,0.03 0.01,0.06 0.02,0.06 0,0.03 0.01,0.02 0.01,0.03 0,0.03 0.01,0.02 0.01,0.02 0,0.02 0.01,0.02 0,0.01 0,0.01 0,0.01 0,0.01 0.01,0 0,0.01 0,0.01 0,0 0,0.01 0,0 0,0 0,0.01 c 0,0.04 0,0.5 -0.59,0.5 -0.5,0 -0.55,-0.16 -0.75,-1 l -2.89,-11.5 c -7.92,-0.25 -15.25,-6.88 -15.25,-13.66 0,-4.73 3.48,-8.67 9.56,-9.01 l 0.25,1.09 c -2.98,0.14 -6.58,1.89 -6.58,6.87 0,5.99 4.3,12.96 11.72,13.6 l -5.14,-20.47 -0.25,-1.09 c -0.39,-1.55 -0.73,-3.15 -1.14,-4.69 -0.59,-2.35 -1.09,-4.24 -1.09,-4.39 0,-0.49 0.34,-0.55 0.59,-0.55 0.25,0 0.36,0.06 0.5,0.2 0.09,0.1 0.41,1.3 0.55,2 l 1.89,7.43 0.25,1.09 5.14,20.47 c 3.78,-0.19 6.62,-2.49 6.62,-6.88 0,-5.87 -4.28,-13 -11.76,-13.59 l -0.25,-1.09 c 8.03,0.25 15.25,6.96 15.25,13.64 0,3.93 -2.64,8.53 -9.57,9.03 z" /><path
           style="fill:#000000;stroke-width:0"
           inkscape:connector-curvature="0"
           id="path3379"
           d="m 532.7,417.56 0.1,0.05 0.1,0.04 0.05,0.03 0.04,0.02 0.05,0.03 0.04,0.02 0.05,0.03 0.04,0.02 0.04,0.03 0.03,0.03 0.04,0.03 0.04,0.03 0.03,0.03 0.03,0.03 0.04,0.03 0.03,0.03 0.02,0.04 0.03,0.03 0.02,0.04 0.03,0.04 0.02,0.04 0.01,0.04 0.02,0.04 0.01,0.04 0.02,0.05 0.01,0.05 0.01,0.04 0,0.05 0,0.06 0.01,0.05 c 0,0.6 -0.41,0.85 -0.96,1.1 l -27.59,13.01 c -0.66,0.35 -0.75,0.35 -0.91,0.35 -0.54,0 -0.98,-0.46 -0.98,-1 0,-0.46 0.25,-0.75 0.94,-1.1 l 26.15,-12.36 -26.15,-12.36 c -0.69,-0.34 -0.94,-0.64 -0.94,-1.09 0,-0.55 0.44,-1 0.98,-1 0.16,0 0.25,0 0.91,0.36 z" /><path
           style="fill:#000000;stroke-width:0"
           inkscape:connector-curvature="0"
           id="path3381"
           d="m 573.4,439.57 0,0.01 0,0.01 0,0 0,0.01 0,0.01 0,0.01 0,0 0,0.01 0.01,0.02 0,0.03 0.01,0.02 0,0.02 0.01,0.03 0,0.03 0.01,0.02 0.01,0.03 0,0.03 0.01,0.03 0.02,0.06 0.01,0.06 0.01,0.03 0.01,0.02 0,0.03 0.01,0.03 0,0.02 0.01,0.02 0.01,0.02 0,0.02 0,0.01 0,0.01 0.01,0.01 0,0.01 0,0 0,0.01 0,0.01 0,0 0,0.01 0,0 0,0 0,0.01 c 0,0.04 0,0.5 -0.59,0.5 -0.5,0 -0.55,-0.16 -0.75,-1 l -2.89,-11.5 c -7.92,-0.25 -15.25,-6.88 -15.25,-13.66 0,-4.73 3.48,-8.67 9.56,-9.01 l 0.25,1.09 c -2.98,0.14 -6.58,1.89 -6.58,6.87 0,5.99 4.3,12.96 11.72,13.6 l -5.14,-20.47 -0.25,-1.09 c -0.39,-1.55 -0.73,-3.15 -1.14,-4.69 -0.59,-2.35 -1.09,-4.24 -1.09,-4.39 0,-0.49 0.34,-0.55 0.59,-0.55 0.25,0 0.36,0.06 0.5,0.2 0.1,0.1 0.41,1.3 0.55,2 l 1.89,7.43 0.25,1.09 5.14,20.47 c 3.78,-0.19 6.63,-2.49 6.63,-6.88 0,-5.87 -4.29,-13 -11.77,-13.59 l -0.25,-1.09 c 8.03,0.25 15.25,6.96 15.25,13.64 0,3.93 -2.64,8.53 -9.56,9.03 z" /><path
           style="fill:#000000;stroke-width:0"
           inkscape:connector-curvature="0"
           id="path3383"
           d="m 593.34,403.95 0,-0.29 -0.02,-0.28 -0.02,-0.27 -0.04,-0.27 -0.05,-0.26 -0.05,-0.24 -0.07,-0.24 -0.07,-0.24 -0.08,-0.22 -0.1,-0.21 -0.09,-0.21 -0.11,-0.2 -0.11,-0.18 -0.12,-0.18 -0.13,-0.17 -0.13,-0.17 -0.14,-0.15 -0.14,-0.14 -0.15,-0.13 -0.15,-0.13 -0.16,-0.11 -0.16,-0.11 -0.17,-0.09 -0.17,-0.09 -0.17,-0.08 -0.18,-0.06 -0.17,-0.06 -0.18,-0.04 -0.19,-0.04 -0.18,-0.03 -0.19,-0.01 -0.18,-0.01 c -1.08,0 -2.92,0.42 -3.94,1.74 1.3,0.11 1.92,0.95 1.92,1.95 0,1.13 -0.81,1.92 -1.92,1.92 -1.08,0 -1.95,-0.7 -1.95,-1.98 0,-2.58 2.61,-4.61 6.03,-4.61 3.2,0 6.2,1.89 6.8,4.75 0.11,0.48 0.11,2.01 0.11,3.03 l 0,12.89 c 0,0.63 0,1.64 0.06,1.84 0.14,0.74 0.97,0.74 2.61,0.74 l 0,1.25 c -0.17,0 -2.72,-0.14 -4.42,-0.14 -0.77,0 -5.44,0.11 -6.1,0.14 l 0,-1.25 1.28,0 c 3.39,0 3.39,-0.45 3.39,-1.61 z" /></g></g><g
       transform="matrix(0.34535799,0,0,-0.34535799,102.93402,140.45782)"
       id="g3433"><g
         style="font-style:normal;font-variant:normal;font-weight:normal;font-stretch:normal;letter-spacing:normal;word-spacing:normal;text-anchor:start;fill:none;stroke:#000000;stroke-linecap:butt;stroke-linejoin:miter;stroke-miterlimit:10.43299961;stroke-opacity:1;stroke-dasharray:none;stroke-dashoffset:0"
         word-spacing="normal"
         letter-spacing="normal"
         font-size-adjust="none"
         font-stretch="normal"
         font-weight="normal"
         font-variant="normal"
         font-style="normal"
         stroke-miterlimit="10.433"
         xml:space="preserve"
         transform="matrix(1.0629921,0,0,-1.0629921,-186.02362,789.27165)"
         id="g3435"><path
           style="fill:#000000;stroke-width:0"
           inkscape:connector-curvature="0"
           id="path3437"
           d="m 472.52,436.89 0,0.12 -0.01,0.13 -0.02,0.12 -0.02,0.13 -0.03,0.12 -0.03,0.12 -0.04,0.12 -0.05,0.12 -0.05,0.11 -0.06,0.11 -0.06,0.11 -0.07,0.11 -0.07,0.11 -0.08,0.1 -0.08,0.1 -0.08,0.09 -0.1,0.09 -0.09,0.09 -0.1,0.08 -0.1,0.08 -0.11,0.07 -0.11,0.07 -0.11,0.06 -0.12,0.05 -0.12,0.05 -0.13,0.05 -0.12,0.04 -0.13,0.03 -0.14,0.02 -0.13,0.02 -0.14,0.01 -0.14,0.01 c -1.68,0 -2.68,-1.39 -2.68,-2.64 0,-1.35 1.14,-2.64 2.64,-2.64 1.68,0 2.68,1.39 2.68,2.64 z" /><path
           style="fill:#000000;stroke-width:0"
           inkscape:connector-curvature="0"
           id="path3439"
           d="m 457.56,418.86 0.1,0.26 0.09,0.26 0.11,0.24 0.11,0.25 0.11,0.23 0.11,0.22 0.12,0.22 0.13,0.21 0.12,0.2 0.14,0.2 0.13,0.19 0.14,0.18 0.28,0.34 0.29,0.32 0.3,0.29 0.31,0.27 0.31,0.24 0.32,0.22 0.31,0.21 0.32,0.18 0.32,0.16 0.32,0.15 0.31,0.13 0.3,0.11 0.3,0.1 0.29,0.08 0.28,0.07 0.27,0.06 0.25,0.05 0.24,0.04 0.22,0.03 0.21,0.02 0.18,0.02 0.17,0.01 0.14,0.01 0.12,0.01 0.09,0 0.06,0 c 7.52,0 8.07,-8.72 8.07,-12.66 0,-3.05 -0.25,-3.89 -0.6,-4.89 -1.09,-3.63 -2.59,-9.41 -2.59,-10.7 0,-0.55 0.25,-0.91 0.66,-0.91 0.64,0 1.04,1.11 1.59,3 1.14,4.19 1.64,7.02 1.84,8.56 0.1,0.66 0.19,1.3 0.39,1.96 1.6,4.92 4.78,12.34 6.78,16.28 0.35,0.59 0.94,1.7 0.94,1.89 0,0.5 -0.48,0.5 -0.59,0.5 -0.14,0 -0.45,0 -0.59,-0.35 -2.6,-4.73 -4.58,-9.71 -6.58,-14.75 -0.05,1.55 -0.1,5.33 -2.05,10.18 -1.19,3.03 -3.19,5.46 -6.63,5.46 -6.21,0 -9.71,-7.56 -9.71,-9.1 0,-0.5 0.45,-0.5 0.95,-0.5 z" /></g></g></g></svg>