<?xml version="1.0" encoding="UTF-8" standalone="no"?>
<!-- Created with Inkscape (http://www.inkscape.org/) -->

<svg
   xmlns:dc="http://purl.org/dc/elements/1.1/"
   xmlns:cc="http://creativecommons.org/ns#"
   xmlns:rdf="http://www.w3.org/1999/02/22-rdf-syntax-ns#"
   xmlns:svg="http://www.w3.org/2000/svg"
   xmlns="http://www.w3.org/2000/svg"
   xmlns:sodipodi="http://sodipodi.sourceforge.net/DTD/sodipodi-0.dtd"
   xmlns:inkscape="http://www.inkscape.org/namespaces/inkscape"
   inkscape:version="0.91 r13725"
   version="1.1"
   id="svg4430"
   viewBox="0 0 313.83049 223.00565"
   height="62.937149mm"
   width="88.569939mm"
   sodipodi:docname="rd-particles.svg">
  <defs
     id="defs4432">
    <marker
       inkscape:stockid="marker4483B"
       orient="auto"
       refY="0"
       refX="0"
       id="marker4483B"
       style="overflow:visible">
      <path
         id="path5511"
         d="M 0,0 5,-5 -12.5,0 5,5 0,0 Z"
         style="fill:#cd001e;fill-rule:evenodd;stroke:#cd001e;stroke-width:1pt"
         transform="matrix(-0.4,0,0,-0.4,-4,0)"
         inkscape:connector-curvature="0" />
    </marker>
    <marker
       inkscape:stockid="Arrow1Mend"
       orient="auto"
       refY="0"
       refX="0"
       id="marker4483"
       style="overflow:visible">
      <path
         id="path4485"
         d="M 0,0 5,-5 -12.5,0 5,5 0,0 Z"
         style="fill-rule:evenodd;stroke:#000000;stroke-width:1pt"
         transform="matrix(-0.4,0,0,-0.4,-4,0)"
         inkscape:connector-curvature="0" />
    </marker>
    <marker
       inkscape:stockid="Arrow1Mend"
       orient="auto"
       refY="0"
       refX="0"
       id="marker4483-3"
       style="overflow:visible">
      <path
         id="path4485-6"
         d="M 0,0 5,-5 -12.5,0 5,5 0,0 Z"
         style="fill-rule:evenodd;stroke:#000000;stroke-width:1pt"
         transform="matrix(-0.4,0,0,-0.4,-4,0)"
         inkscape:connector-curvature="0" />
    </marker>
    <marker
       inkscape:stockid="Arrow1Mend"
       orient="auto"
       refY="0"
       refX="0"
       id="marker4483-5"
       style="overflow:visible">
      <path
         id="path4485-3"
         d="M 0,0 5,-5 -12.5,0 5,5 0,0 Z"
         style="fill-rule:evenodd;stroke:#000000;stroke-width:1pt"
         transform="matrix(-0.4,0,0,-0.4,-4,0)"
         inkscape:connector-curvature="0" />
    </marker>
    <filter
       inkscape:collect="always"
       style="color-interpolation-filters:sRGB"
       id="filter5889"
       x="-0.095550001"
       width="1.1911"
       y="-0.15288"
       height="1.30576">
      <feGaussianBlur
         inkscape:collect="always"
         stdDeviation="11.071077"
         id="feGaussianBlur5891" />
    </filter>
  </defs>
  <sodipodi:namedview
     inkscape:window-maximized="1"
     inkscape:window-y="24"
     inkscape:window-x="0"
     inkscape:window-height="1176"
     inkscape:window-width="1920"
     fit-margin-bottom="0"
     fit-margin-right="0"
     fit-margin-left="0"
     fit-margin-top="0"
     showgrid="false"
     inkscape:current-layer="layer1"
     inkscape:document-units="px"
     inkscape:cy="119.34612"
     inkscape:cx="71.300473"
     inkscape:zoom="3.2796268"
     inkscape:pageshadow="2"
     inkscape:pageopacity="0.0"
     borderopacity="1.0"
     bordercolor="#666666"
     pagecolor="#ffffff"
     id="base" />
  <metadata
     id="metadata4435">
    <rdf:RDF>
      <cc:Work
         rdf:about="">
        <dc:format>image/svg+xml</dc:format>
        <dc:type
           rdf:resource="http://purl.org/dc/dcmitype/StillImage" />
        <dc:title></dc:title>
      </cc:Work>
    </rdf:RDF>
  </metadata>
  <g
     inkscape:label="Layer 1"
     inkscape:groupmode="layer"
     id="layer1"
     transform="translate(-135.86657,-309.89984)">
    <rect
       style="opacity:0.41700003;fill:#21c6a9;fill-opacity:1;fill-rule:evenodd;stroke:#1f15d5;stroke-width:1.10000002;stroke-linecap:round;stroke-linejoin:round;stroke-miterlimit:4;stroke-dasharray:3.3, 3.3;stroke-dashoffset:0.76999998;stroke-opacity:1;filter:url(#filter5889)"
       id="rect5841"
       width="278.08041"
       height="173.80026"
       x="145.50897"
       y="332.06323"
       transform="matrix(0.94749412,0,0,0.98265725,23.17315,9.7052768)" />
    <ellipse
       style="opacity:0.5;fill:#003d96;fill-opacity:1;stroke-width:1.43599999;stroke-miterlimit:4;stroke-dasharray:2.87199998, 1.43599999;stroke-dashoffset:0"
       id="path2985"
       cx="243.26764"
       cy="418.07648"
       rx="52.631577"
       ry="55.639095" />
    <path
       style="fill:none;fill-rule:evenodd;stroke:#000000;stroke-width:2;stroke-linecap:butt;stroke-linejoin:miter;stroke-miterlimit:4;stroke-dasharray:6,6;stroke-dashoffset:0;stroke-opacity:1;marker-end:url(#marker4483)"
       d="m 243.32037,417.83879 108.85385,0"
       id="path5068"
       inkscape:connector-curvature="0" />
    <path
       style="fill:none;fill-rule:evenodd;stroke:#000000;stroke-width:2;stroke-linecap:butt;stroke-linejoin:miter;stroke-opacity:1;marker-end:url(#marker4483);stroke-miterlimit:4;stroke-dasharray:none"
       d="M 243.62528,417.83879 217.7077,354.72185"
       id="path5125"
       inkscape:connector-curvature="0" />
    <path
       style="fill:none;fill-rule:evenodd;stroke:#ff0000;stroke-width:2;stroke-linecap:butt;stroke-linejoin:miter;stroke-opacity:1;marker-end:url(#marker4483B);stroke-miterlimit:4;stroke-dasharray:none"
       d="m 244.2351,417.83878 134.77143,64.03168"
       id="path5127"
       inkscape:connector-curvature="0" />
    <g
       transform="translate(-119.69073,39.05534)"
       id="g6473">
      <g
         style="font-style:normal;font-variant:normal;font-weight:normal;font-stretch:normal;letter-spacing:normal;word-spacing:normal;text-anchor:start;fill:none;stroke:#000000;stroke-linecap:butt;stroke-linejoin:miter;stroke-miterlimit:10.43299961;stroke-dasharray:none;stroke-dashoffset:0;stroke-opacity:1"
         id="content"
         transform="matrix(1.0629921,0,0,-1.0629921,-186.02362,789.27165)"
         xml:space="preserve"
         stroke-miterlimit="10.433"
         font-style="normal"
         font-variant="normal"
         font-weight="normal"
         font-stretch="normal"
         font-size-adjust="none"
         letter-spacing="normal"
         word-spacing="normal"><path
           style="fill:#000000;stroke-width:0"
           inkscape:connector-curvature="0"
           d="m 480.35,435.84 -0.07,-0.06 -0.07,-0.07 -0.07,-0.07 -0.09,-0.07 -0.08,-0.08 -0.09,-0.08 -0.09,-0.09 -0.09,-0.08 -0.1,-0.09 -0.1,-0.1 -0.19,-0.19 -0.2,-0.19 -0.19,-0.21 -0.09,-0.1 -0.09,-0.1 -0.09,-0.1 -0.08,-0.11 -0.08,-0.1 -0.08,-0.1 -0.07,-0.1 -0.06,-0.1 -0.06,-0.1 -0.05,-0.1 -0.05,-0.1 -0.04,-0.09 -0.03,-0.09 -0.02,-0.1 -0.02,-0.08 0,-0.09 c 0,-0.5 0.5,-1 1,-1 0.45,0 0.7,0.36 0.95,0.66 0.59,0.75 1.74,2.14 3.94,3.23 0.34,0.21 0.84,0.46 0.84,1.05 0,0.5 -0.34,0.75 -0.7,1 -1.09,0.75 -1.64,1.64 -2.05,2.83 -0.09,0.45 -0.29,1.11 -0.98,1.11 -0.71,0 -1,-0.66 -1,-1.05 0,-0.25 0.39,-1.84 1.19,-2.89 l -16.79,0 c -0.84,0 -1.75,0 -1.75,-1 0,-1 0.91,-1 1.75,-1 z"
           id="path6476" /><path
           style="fill:#000000;stroke-width:0"
           inkscape:connector-curvature="0"
           d="m 478.83,424.73 0,0.12 -0.01,0.13 0,0.12 -0.01,0.11 0,0.12 -0.01,0.11 -0.02,0.11 -0.01,0.1 -0.03,0.21 -0.04,0.19 -0.04,0.18 -0.05,0.18 -0.05,0.16 -0.06,0.16 -0.06,0.15 -0.07,0.13 -0.07,0.13 -0.07,0.12 -0.08,0.12 -0.08,0.1 -0.08,0.1 -0.09,0.09 -0.09,0.08 -0.09,0.07 -0.09,0.07 -0.09,0.06 -0.09,0.05 -0.09,0.05 -0.09,0.04 -0.1,0.03 -0.09,0.03 -0.09,0.03 -0.09,0.01 -0.09,0.02 -0.08,0 -0.09,0 c -1.25,0 -2.44,-1.29 -2.44,-2.39 0,-0.64 0.25,-0.93 0.8,-1.48 1.05,-1 1.69,-2.3 1.69,-4.09 0,-2.1 -3.03,-13.5 -8.86,-13.5 -2.55,0 -3.69,1.75 -3.69,4.32 0,2.8 1.34,6.44 2.89,10.57 0.35,0.86 0.59,1.54 0.59,2.5 0,2.23 -1.59,4.07 -4.09,4.07 -4.67,0 -6.58,-7.21 -6.58,-7.67 0,-0.5 0.5,-0.5 0.61,-0.5 0.5,0 0.55,0.11 0.8,0.91 1.44,5.03 3.58,6.17 5.03,6.17 0.39,0 1.25,0 1.25,-1.59 0,-1.25 -0.5,-2.6 -0.86,-3.49 -2.19,-5.78 -2.83,-8.08 -2.83,-10.22 0,-5.37 4.38,-6.17 6.67,-6.17 8.38,0 11.21,16.49 11.21,19.08 z"
           id="path6478" /><path
           style="fill:#000000;stroke-width:0"
           inkscape:connector-curvature="0"
           d="m 490.94,420.54 0,0.05 -0.01,0.06 0,0.05 -0.01,0.06 -0.01,0.05 -0.02,0.06 -0.01,0.05 -0.02,0.06 -0.03,0.06 -0.02,0.05 -0.03,0.06 -0.03,0.05 -0.03,0.06 -0.04,0.05 -0.03,0.05 -0.05,0.05 -0.04,0.05 -0.05,0.05 -0.05,0.04 -0.05,0.05 -0.06,0.04 -0.06,0.03 -0.06,0.04 -0.06,0.03 -0.07,0.03 -0.07,0.03 -0.08,0.02 -0.08,0.02 -0.08,0.01 -0.08,0.01 -0.09,0.01 -0.09,0 c -0.94,0 -1.95,-0.91 -1.95,-1.92 0,-0.59 0.45,-1.33 1.4,-1.33 1,0 1.96,0.99 1.96,1.92 z"
           id="path6480" /><path
           style="fill:#000000;stroke-width:0"
           inkscape:connector-curvature="0"
           d="m 483.83,402.84 -0.06,-0.17 -0.05,-0.17 -0.03,-0.08 -0.02,-0.09 -0.03,-0.08 -0.02,-0.09 -0.02,-0.09 -0.02,-0.09 -0.02,-0.1 -0.01,-0.09 -0.02,-0.1 0,-0.05 -0.01,-0.05 0,-0.06 0,-0.05 0,-0.05 0,-0.06 c 0,-1.64 1.39,-2.95 3.29,-2.95 3.49,0 5.03,4.79 5.03,5.33 0,0.45 -0.45,0.45 -0.56,0.45 -0.48,0 -0.53,-0.2 -0.67,-0.59 -0.8,-2.79 -2.33,-4.22 -3.69,-4.22 -0.7,0 -0.87,0.45 -0.87,1.22 0,0.79 0.25,1.46 0.56,2.23 0.34,0.94 0.73,1.87 1.11,2.78 0.31,0.84 1.58,4.02 1.72,4.44 0.09,0.34 0.2,0.76 0.2,1.11 0,1.64 -1.39,2.95 -3.31,2.95 -3.45,0 -5.05,-4.73 -5.05,-5.33 0,-0.45 0.49,-0.45 0.6,-0.45 0.48,0 0.51,0.17 0.62,0.56 0.91,3 2.44,4.25 3.72,4.25 0.56,0 0.87,-0.28 0.87,-1.22 0,-0.79 -0.2,-1.32 -1.07,-3.48 z"
           id="path6482" /></g>    </g>
  </g>
  <g
     transform="translate(-133.3962,-266.26017)"
     id="g5785">
    <g
       style="font-style:normal;font-variant:normal;font-weight:normal;font-stretch:normal;letter-spacing:normal;word-spacing:normal;text-anchor:start;fill:none;fill-opacity:1;fill-rule:evenodd;stroke:#000000;stroke-linecap:butt;stroke-linejoin:miter;stroke-miterlimit:10.43299961;stroke-dasharray:none;stroke-dashoffset:0;stroke-opacity:1"
       word-spacing="normal"
       letter-spacing="normal"
       font-size-adjust="none"
       font-stretch="normal"
       font-weight="normal"
       font-variant="normal"
       font-style="normal"
       stroke-miterlimit="10.433"
       xml:space="preserve"
       transform="matrix(1.0629921,0,0,-1.0629921,-186.02362,789.27165)"
       id="content-6"><path
         style="fill:#000000;stroke-width:0"
         inkscape:connector-curvature="0"
         id="path5788"
         d="m 480.75,435.64 -0.07,-0.06 -0.07,-0.07 -0.08,-0.07 -0.08,-0.07 -0.09,-0.08 -0.09,-0.08 -0.09,-0.09 -0.09,-0.09 -0.1,-0.09 -0.09,-0.09 -0.2,-0.19 -0.19,-0.19 -0.19,-0.21 -0.09,-0.1 -0.09,-0.1 -0.09,-0.1 -0.08,-0.11 -0.08,-0.1 -0.08,-0.1 -0.07,-0.1 -0.06,-0.1 -0.06,-0.1 -0.05,-0.1 -0.05,-0.1 -0.04,-0.09 -0.03,-0.1 -0.02,-0.09 -0.02,-0.09 0,-0.08 c 0,-0.5 0.5,-1 1,-1 0.44,0 0.69,0.35 0.94,0.65 0.6,0.75 1.74,2.14 3.94,3.24 0.35,0.2 0.84,0.45 0.84,1.05 0,0.49 -0.34,0.74 -0.69,0.99 -1.1,0.75 -1.65,1.64 -2.05,2.84 -0.1,0.45 -0.3,1.1 -0.99,1.1 -0.7,0 -1,-0.65 -1,-1.05 0,-0.25 0.4,-1.84 1.2,-2.89 l -16.79,0 c -0.85,0 -1.74,0 -1.74,-0.99 0,-1 0.89,-1 1.74,-1 z" /><path
         style="fill:#000000;stroke-width:0"
         inkscape:connector-curvature="0"
         id="path5790"
         d="m 479.31,424.53 0,0.13 0,0.12 -0.01,0.12 0,0.11 -0.01,0.12 -0.01,0.11 -0.01,0.11 -0.01,0.1 -0.04,0.21 -0.03,0.19 -0.05,0.18 -0.04,0.18 -0.06,0.16 -0.06,0.16 -0.06,0.15 -0.06,0.13 -0.08,0.13 -0.07,0.12 -0.08,0.12 -0.08,0.1 -0.08,0.1 -0.09,0.09 -0.08,0.08 -0.09,0.07 -0.09,0.07 -0.09,0.06 -0.1,0.05 -0.09,0.05 -0.09,0.04 -0.09,0.03 -0.1,0.03 -0.09,0.03 -0.09,0.01 -0.09,0.02 -0.08,0 -0.09,0.01 c -1.24,0 -2.44,-1.3 -2.44,-2.4 0,-0.64 0.25,-0.94 0.8,-1.49 1.04,-0.99 1.69,-2.29 1.69,-4.08 0,-2.09 -3.04,-13.5 -8.87,-13.5 -2.54,0 -3.68,1.74 -3.68,4.33 0,2.79 1.34,6.43 2.89,10.56 0.35,0.85 0.6,1.54 0.6,2.49 0,2.25 -1.6,4.09 -4.09,4.09 -4.68,0 -6.57,-7.23 -6.57,-7.67 0,-0.5 0.49,-0.5 0.59,-0.5 0.5,0 0.55,0.1 0.8,0.9 1.45,5.03 3.59,6.17 5.03,6.17 0.4,0 1.25,0 1.25,-1.59 0,-1.25 -0.5,-2.59 -0.85,-3.49 -2.19,-5.78 -2.84,-8.07 -2.84,-10.21 0,-5.38 4.38,-6.18 6.68,-6.18 8.36,0 11.2,16.49 11.2,19.08 z" /><path
         style="fill:#000000;stroke-width:0"
         inkscape:connector-curvature="0"
         id="path5792"
         d="m 498.2,423.2 -0.01,0 -0.02,0 -0.03,-0.01 -0.03,0 -0.04,-0.01 -0.05,-0.01 -0.04,0 -0.05,-0.01 -0.05,-0.01 -0.06,-0.01 -0.05,-0.01 -0.06,0 -0.06,-0.01 -0.11,-0.02 -0.12,-0.02 -0.06,-0.01 -0.05,-0.01 -0.06,-0.01 -0.05,0 -0.06,-0.01 -0.05,-0.01 -0.04,-0.01 -0.05,0 -0.04,-0.01 -0.04,-0.01 -0.04,0 -0.01,0 -0.02,0 -0.01,-0.01 -0.01,0 -0.02,0 -0.01,0 -0.01,0 0,0 -0.01,0 -0.01,0 c -0.07,0 -0.14,0 -0.31,0.1 -1.26,0.46 -2.76,0.46 -3.42,0.46 l -0.03,-0.98 c 0.87,0 1.56,-0.03 2.44,-0.24 -0.42,-0.28 -0.66,-0.8 -0.66,-1.33 0,-0.21 0.07,-0.97 0.8,-1.39 l 0,-5.58 -8.79,0 0,3.8 c 0,3.07 2.86,4.74 6.21,4.74 l 0.03,0.98 c -4.25,0 -8.72,-1.89 -8.72,-5.69 l 0,-3.83 -3,0 0,-1.26 3,0 0,-11.02 c 0,-1.5 -0.34,-1.5 -2.61,-1.5 l 0,-1.25 7.84,0 0,1.25 c -2.26,0 -2.61,0 -2.61,1.5 l 0,11.02 8.65,0 0,-11.02 c 0,-1.5 -0.35,-1.5 -2.62,-1.5 l 0,-1.25 7.85,0 0,1.25 c -2.27,0 -2.62,0 -2.62,1.5 z" /><path
         style="fill:#000000;stroke-width:0"
         inkscape:connector-curvature="0"
         id="path5794"
         d="m 520.45,406.43 -0.02,0.4 -0.03,0.41 -0.05,0.39 -0.07,0.4 -0.1,0.38 -0.11,0.38 -0.13,0.38 -0.15,0.36 -0.17,0.36 -0.19,0.35 -0.2,0.34 -0.22,0.33 -0.23,0.32 -0.26,0.31 -0.26,0.3 -0.28,0.28 -0.3,0.28 -0.3,0.25 -0.33,0.25 -0.33,0.23 -0.35,0.21 -0.35,0.2 -0.37,0.19 -0.38,0.16 -0.39,0.15 -0.4,0.13 -0.41,0.12 -0.42,0.09 -0.43,0.07 -0.43,0.06 -0.44,0.03 -0.45,0.01 0,-0.98 c 2.06,0 3.53,-0.97 4.29,-2.05 0.98,-1.36 1.08,-3.11 1.08,-4.78 0,-1.67 -0.1,-3.52 -1.11,-4.95 -0.94,-1.33 -2.55,-2.02 -4.26,-2.02 l 0,0 c -1.29,0 -3.17,0.42 -4.32,2.12 -0.94,1.43 -1.05,3.25 -1.05,4.85 0,1.5 0.04,3.56 1.26,5.06 0.87,1.01 2.33,1.77 4.11,1.77 l 0,0.98 c -4.81,0 -8.54,-3.76 -8.54,-8.12 0,-4.33 3.84,-7.78 8.54,-7.78 4.71,0 8.55,3.45 8.55,7.78 z" /><path
         style="fill:#000000;stroke-width:0"
         inkscape:connector-curvature="0"
         id="path5796"
         d="m 545.41,410.64 0.07,0.16 0.07,0.16 0.07,0.14 0.07,0.14 0.08,0.13 0.08,0.12 0.08,0.11 0.08,0.11 0.08,0.1 0.09,0.1 0.09,0.08 0.09,0.09 0.09,0.07 0.09,0.07 0.09,0.07 0.1,0.06 0.1,0.06 0.09,0.05 0.1,0.04 0.1,0.04 0.1,0.04 0.1,0.04 0.1,0.03 0.1,0.02 0.1,0.02 0.11,0.02 0.1,0.02 0.1,0.01 0.2,0.02 0.21,0.01 0,1.26 -5.93,0 0,-1.26 c 1.22,-0.03 1.81,-0.7 1.81,-1.53 0,-0.28 0,-0.35 -0.21,-0.84 l -3.38,-8.68 -3.76,9.52 c -0.07,0.17 -0.18,0.45 -0.18,0.66 0,0.77 0.91,0.87 1.88,0.87 l 0,1.26 -6.83,0 0,-1.26 c 0.8,0 1.53,0 1.99,-0.27 0.49,-0.36 0.8,-1.5 0.8,-1.54 0,-0.07 -0.07,-0.28 -0.14,-0.42 l -3.28,-8.3 -3.52,9 c -0.21,0.49 -0.21,0.52 -0.21,0.66 0,0.87 1.26,0.87 1.89,0.87 l 0,1.26 -7.22,0 0,-1.26 c 1.36,0 2.12,0 2.51,-1.01 l 4.84,-12.31 c 0.21,-0.52 0.32,-0.8 0.94,-0.8 0.63,0 0.74,0.28 0.91,0.73 l 3.94,9.98 3.87,-9.87 c 0.21,-0.53 0.35,-0.84 0.98,-0.84 0.63,0 0.73,0.24 0.94,0.8 z" /></g>  </g>
</svg>
