<?xml version="1.0" encoding="UTF-8" standalone="no"?>
<!-- Created with Inkscape (http://www.inkscape.org/) -->

<svg
   xmlns:dc="http://purl.org/dc/elements/1.1/"
   xmlns:cc="http://creativecommons.org/ns#"
   xmlns:rdf="http://www.w3.org/1999/02/22-rdf-syntax-ns#"
   xmlns:svg="http://www.w3.org/2000/svg"
   xmlns="http://www.w3.org/2000/svg"
   xmlns:sodipodi="http://sodipodi.sourceforge.net/DTD/sodipodi-0.dtd"
   xmlns:inkscape="http://www.inkscape.org/namespaces/inkscape"
   id="svg2"
   version="1.1"
   inkscape:version="0.91 r13725"
   xml:space="preserve"
   width="530"
   height="345"
   viewBox="0 0 530 345"
   sodipodi:docname="sb-size-lin.svg"><metadata
     id="metadata8"><rdf:RDF><cc:Work
         rdf:about=""><dc:format>image/svg+xml</dc:format><dc:type
           rdf:resource="http://purl.org/dc/dcmitype/StillImage" /><dc:title></dc:title></cc:Work></rdf:RDF></metadata><defs
     id="defs6"><clipPath
       clipPathUnits="userSpaceOnUse"
       id="clipPath22"><path
         d="m 59.516,261.543 347.367,0 0,-209.793 -347.367,0 0,209.793 z"
         id="path24"
         inkscape:connector-curvature="0" /></clipPath><clipPath
       clipPathUnits="userSpaceOnUse"
       id="clipPath32"><path
         d="m 66,63 322,0 0,152 -322,0 0,-152 z"
         id="path34"
         inkscape:connector-curvature="0" /></clipPath><clipPath
       clipPathUnits="userSpaceOnUse"
       id="clipPath54"><path
         d="m 71,58 312,0 0,29 -312,0 0,-29 z"
         id="path56"
         inkscape:connector-curvature="0" /></clipPath><clipPath
       clipPathUnits="userSpaceOnUse"
       id="clipPath68"><path
         d="m 66,54 322,0 0,38 -322,0 0,-38 z"
         id="path70"
         inkscape:connector-curvature="0" /></clipPath><clipPath
       clipPathUnits="userSpaceOnUse"
       id="clipPath90"><path
         d="m 66,98 322,0 0,152 -322,0 0,-152 z"
         id="path92"
         inkscape:connector-curvature="0" /></clipPath><clipPath
       clipPathUnits="userSpaceOnUse"
       id="clipPath112"><path
         d="m 71,69 311,0 0,144 -311,0 0,-144 z"
         id="path114"
         inkscape:connector-curvature="0" /></clipPath><clipPath
       clipPathUnits="userSpaceOnUse"
       id="clipPath126"><path
         d="m 71,101 309,0 0,143 -309,0 0,-143 z"
         id="path128"
         inkscape:connector-curvature="0" /></clipPath></defs><sodipodi:namedview
     pagecolor="#ffffff"
     bordercolor="#666666"
     borderopacity="1"
     objecttolerance="10"
     gridtolerance="10"
     guidetolerance="10"
     inkscape:pageopacity="0"
     inkscape:pageshadow="2"
     inkscape:window-width="1920"
     inkscape:window-height="1176"
     id="namedview4"
     showgrid="false"
     inkscape:zoom="1.66"
     inkscape:cx="356.04884"
     inkscape:cy="172.5"
     inkscape:window-x="0"
     inkscape:window-y="24"
     inkscape:window-maximized="1"
     inkscape:current-layer="g134" /><g
     id="g10"
     inkscape:groupmode="layer"
     inkscape:label="sb-size-lin"
     transform="matrix(1.25,0,0,-1.25,0,345)"><g
       id="g12"><path
         d="M 0,0 424,0 424,276 0,276 0,0 Z"
         style="fill:#ffffff;fill-opacity:1;fill-rule:nonzero;stroke:none"
         id="path14"
         inkscape:connector-curvature="0" /><path
         d="m 59.516,261.543 347.367,0 0,-209.793 -347.367,0 0,209.793 z"
         style="fill:#ffffff;fill-opacity:1;fill-rule:nonzero;stroke:none"
         id="path16"
         inkscape:connector-curvature="0" /></g><g
       id="g18"><g
         id="g20"
         clip-path="url(#clipPath22)"><g
           id="g26"><g
             id="g28"><g
               id="g30"
               clip-path="url(#clipPath32)"><g
                 id="g36"><path
                   d="m 76.922,68.797 -10,5 0,-10 10,5 z"
                   style="fill:#0000ff;fill-opacity:1;fill-rule:nonzero;stroke:#000000;stroke-width:0.5;stroke-linecap:butt;stroke-linejoin:miter;stroke-miterlimit:4;stroke-dasharray:none;stroke-opacity:1"
                   id="path38"
                   inkscape:connector-curvature="0" /><path
                   d="m 138.953,98.953 -10,5 0,-10 10,5 z"
                   style="fill:#0000ff;fill-opacity:1;fill-rule:nonzero;stroke:#000000;stroke-width:0.5;stroke-linecap:butt;stroke-linejoin:miter;stroke-miterlimit:4;stroke-dasharray:none;stroke-opacity:1"
                   id="path40"
                   inkscape:connector-curvature="0" /><path
                   d="m 200.98,127.801 -10,5 0,-10 10,5 z"
                   style="fill:#0000ff;fill-opacity:1;fill-rule:nonzero;stroke:#000000;stroke-width:0.5;stroke-linecap:butt;stroke-linejoin:miter;stroke-miterlimit:4;stroke-dasharray:none;stroke-opacity:1"
                   id="path42"
                   inkscape:connector-curvature="0" /><path
                   d="m 263.012,160.578 -10,5 0,-10 10,5 z"
                   style="fill:#0000ff;fill-opacity:1;fill-rule:nonzero;stroke:#000000;stroke-width:0.5;stroke-linecap:butt;stroke-linejoin:miter;stroke-miterlimit:4;stroke-dasharray:none;stroke-opacity:1"
                   id="path44"
                   inkscape:connector-curvature="0" /><path
                   d="m 387.07,209.094 -10,5 0,-10 10,5 z"
                   style="fill:#0000ff;fill-opacity:1;fill-rule:nonzero;stroke:#000000;stroke-width:0.5;stroke-linecap:butt;stroke-linejoin:miter;stroke-miterlimit:4;stroke-dasharray:none;stroke-opacity:1"
                   id="path46"
                   inkscape:connector-curvature="0" /></g></g></g></g><g
           id="g48"><g
             id="g50"><g
               id="g52"
               clip-path="url(#clipPath54)"><g
                 id="g58"><path
                   d="m 71.922,60.93 62.027,-1.313 62.031,2.621 62.032,-1.308 124.058,24.914"
                   style="fill:none;stroke:#008000;stroke-width:1.29999995;stroke-linecap:square;stroke-linejoin:round;stroke-miterlimit:4;stroke-dasharray:none;stroke-opacity:1"
                   id="path60"
                   inkscape:connector-curvature="0" /></g></g></g></g><g
           id="g62"><g
             id="g64"><g
               id="g66"
               clip-path="url(#clipPath68)"><g
                 id="g72"><path
                   d="m 71.922,55.93 5,10 -10,0 5,-10 z"
                   style="fill:#008000;fill-opacity:1;fill-rule:nonzero;stroke:#000000;stroke-width:0.5;stroke-linecap:butt;stroke-linejoin:miter;stroke-miterlimit:4;stroke-dasharray:none;stroke-opacity:1"
                   id="path74"
                   inkscape:connector-curvature="0" /><path
                   d="m 133.953,54.617 5,10 -10,0 5,-10 z"
                   style="fill:#008000;fill-opacity:1;fill-rule:nonzero;stroke:#000000;stroke-width:0.5;stroke-linecap:butt;stroke-linejoin:miter;stroke-miterlimit:4;stroke-dasharray:none;stroke-opacity:1"
                   id="path76"
                   inkscape:connector-curvature="0" /><path
                   d="m 195.98,57.242 5,10 -10,0 5,-10 z"
                   style="fill:#008000;fill-opacity:1;fill-rule:nonzero;stroke:#000000;stroke-width:0.5;stroke-linecap:butt;stroke-linejoin:miter;stroke-miterlimit:4;stroke-dasharray:none;stroke-opacity:1"
                   id="path78"
                   inkscape:connector-curvature="0" /><path
                   d="m 258.012,55.93 5,10 -10,0 5,-10 z"
                   style="fill:#008000;fill-opacity:1;fill-rule:nonzero;stroke:#000000;stroke-width:0.5;stroke-linecap:butt;stroke-linejoin:miter;stroke-miterlimit:4;stroke-dasharray:none;stroke-opacity:1"
                   id="path80"
                   inkscape:connector-curvature="0" /><path
                   d="m 382.07,80.84 5,10 -10,0 5,-10 z"
                   style="fill:#008000;fill-opacity:1;fill-rule:nonzero;stroke:#000000;stroke-width:0.5;stroke-linecap:butt;stroke-linejoin:miter;stroke-miterlimit:4;stroke-dasharray:none;stroke-opacity:1"
                   id="path82"
                   inkscape:connector-curvature="0" /></g></g></g></g><g
           id="g84"><g
             id="g86"><g
               id="g88"
               clip-path="url(#clipPath90)"><g
                 id="g94"><path
                   d="m 66.922,244.496 10,-5 0,10 -10,-5 z"
                   style="fill:#ff0000;fill-opacity:1;fill-rule:nonzero;stroke:#000000;stroke-width:0.5;stroke-linecap:butt;stroke-linejoin:miter;stroke-miterlimit:4;stroke-dasharray:none;stroke-opacity:1"
                   id="path96"
                   inkscape:connector-curvature="0" /><path
                   d="m 128.953,214.34 10,-5 0,10 -10,-5 z"
                   style="fill:#ff0000;fill-opacity:1;fill-rule:nonzero;stroke:#000000;stroke-width:0.5;stroke-linecap:butt;stroke-linejoin:miter;stroke-miterlimit:4;stroke-dasharray:none;stroke-opacity:1"
                   id="path98"
                   inkscape:connector-curvature="0" /><path
                   d="m 190.98,185.492 10,-5 0,10 -10,-5 z"
                   style="fill:#ff0000;fill-opacity:1;fill-rule:nonzero;stroke:#000000;stroke-width:0.5;stroke-linecap:butt;stroke-linejoin:miter;stroke-miterlimit:4;stroke-dasharray:none;stroke-opacity:1"
                   id="path100"
                   inkscape:connector-curvature="0" /><path
                   d="m 253.012,152.711 10,-5 0,10 -10,-5 z"
                   style="fill:#ff0000;fill-opacity:1;fill-rule:nonzero;stroke:#000000;stroke-width:0.5;stroke-linecap:butt;stroke-linejoin:miter;stroke-miterlimit:4;stroke-dasharray:none;stroke-opacity:1"
                   id="path102"
                   inkscape:connector-curvature="0" /><path
                   d="m 377.07,104.199 10,-5 0,10 -10,-5 z"
                   style="fill:#ff0000;fill-opacity:1;fill-rule:nonzero;stroke:#000000;stroke-width:0.5;stroke-linecap:butt;stroke-linejoin:miter;stroke-miterlimit:4;stroke-dasharray:none;stroke-opacity:1"
                   id="path104"
                   inkscape:connector-curvature="0" /></g></g></g></g><g
           id="g106"><g
             id="g108"><g
               id="g110"
               clip-path="url(#clipPath112)"><g
                 id="g116"><path
                   d="M 71.988,70.898 381.285,211.82"
                   style="fill:none;stroke:#000000;stroke-width:2.29999995;stroke-linecap:butt;stroke-linejoin:round;stroke-miterlimit:4;stroke-dasharray:6, 6;stroke-dashoffset:0;stroke-opacity:1"
                   id="path118"
                   inkscape:connector-curvature="0" /></g></g></g></g><g
           id="g120"><g
             id="g122"><g
               id="g124"
               clip-path="url(#clipPath126)"><g
                 id="g130"><path
                   d="M 71.988,242.395 381.285,101.473"
                   style="fill:none;stroke:#000000;stroke-width:2.29999995;stroke-linecap:butt;stroke-linejoin:round;stroke-miterlimit:4;stroke-dasharray:1, 3;stroke-dashoffset:0;stroke-opacity:1"
                   id="path132"
                   inkscape:connector-curvature="0" /></g></g></g></g></g></g><g
       id="g134"><path
         d="m 59.516,261.543 347.367,0"
         style="fill:none;stroke:#000000;stroke-width:1;stroke-linecap:square;stroke-linejoin:miter;stroke-miterlimit:4;stroke-dasharray:none;stroke-opacity:1"
         id="path136"
         inkscape:connector-curvature="0" /><path
         d="m 406.883,51.75 0,209.793"
         style="fill:none;stroke:#000000;stroke-width:1;stroke-linecap:square;stroke-linejoin:miter;stroke-miterlimit:4;stroke-dasharray:none;stroke-opacity:1"
         id="path138"
         inkscape:connector-curvature="0" /><path
         d="m 59.516,51.75 347.367,0"
         style="fill:none;stroke:#000000;stroke-width:1;stroke-linecap:square;stroke-linejoin:miter;stroke-miterlimit:4;stroke-dasharray:none;stroke-opacity:1"
         id="path140"
         inkscape:connector-curvature="0" /><path
         d="m 59.516,51.75 0,209.793"
         style="fill:none;stroke:#000000;stroke-width:1;stroke-linecap:square;stroke-linejoin:miter;stroke-miterlimit:4;stroke-dasharray:none;stroke-opacity:1"
         id="path142"
         inkscape:connector-curvature="0" /><path
         d="m 59.516,51.75 0,4"
         style="fill:none;stroke:#000000;stroke-width:0.5;stroke-linecap:butt;stroke-linejoin:round;stroke-miterlimit:4;stroke-dasharray:none;stroke-opacity:1"
         id="path144"
         inkscape:connector-curvature="0" /><path
         d="m 59.516,261.543 0,-4"
         style="fill:none;stroke:#000000;stroke-width:0.5;stroke-linecap:butt;stroke-linejoin:round;stroke-miterlimit:4;stroke-dasharray:none;stroke-opacity:1"
         id="path146"
         inkscape:connector-curvature="0" /><path
         d="m 53.602,46.312 c -0.762,0 -1.332,-0.374 -1.719,-1.124 -0.383,-0.747 -0.574,-1.876 -0.574,-3.379 0,-1.497 0.191,-2.621 0.574,-3.371 0.387,-0.75 0.957,-1.126 1.719,-1.126 0.765,0 1.343,0.376 1.726,1.126 0.383,0.75 0.574,1.874 0.574,3.371 0,1.503 -0.191,2.632 -0.574,3.379 -0.383,0.75 -0.961,1.124 -1.726,1.124 m 0,1.172 c 1.226,0 2.164,-0.484 2.808,-1.453 0.649,-0.969 0.973,-2.375 0.973,-4.222 0,-1.84 -0.324,-3.247 -0.973,-4.215 -0.644,-0.969 -1.582,-1.453 -2.808,-1.453 -1.227,0 -2.161,0.484 -2.809,1.453 -0.645,0.968 -0.969,2.375 -0.969,4.215 0,1.847 0.324,3.253 0.969,4.222 0.648,0.969 1.582,1.453 2.809,1.453"
         style="fill:#000000;fill-opacity:1;fill-rule:nonzero;stroke:none"
         id="path148"
         inkscape:connector-curvature="0" /><path
         d="m 59.98,38.215 1.547,0 0,-1.863 -1.547,0 0,1.863 z"
         style="fill:#000000;fill-opacity:1;fill-rule:nonzero;stroke:none"
         id="path150"
         inkscape:connector-curvature="0" /><path
         d="m 66.023,37.598 5.165,0 0,-1.246 -6.942,0 0,1.246 c 0.559,0.582 1.324,1.359 2.293,2.34 0.973,0.98 1.582,1.609 1.828,1.894 0.473,0.531 0.805,0.98 0.992,1.352 0.188,0.367 0.286,0.73 0.286,1.086 0,0.582 -0.207,1.054 -0.614,1.421 -0.406,0.368 -0.937,0.551 -1.593,0.551 -0.465,0 -0.954,-0.082 -1.469,-0.242 -0.516,-0.16 -1.067,-0.406 -1.653,-0.734 l 0,1.496 c 0.598,0.238 1.153,0.418 1.672,0.543 0.516,0.121 0.992,0.179 1.422,0.179 1.133,0 2.035,-0.281 2.707,-0.847 0.676,-0.567 1.012,-1.325 1.012,-2.27 0,-0.449 -0.086,-0.879 -0.254,-1.281 -0.168,-0.402 -0.473,-0.875 -0.918,-1.422 -0.121,-0.141 -0.512,-0.551 -1.164,-1.226 -0.652,-0.68 -1.578,-1.626 -2.77,-2.84"
         style="fill:#000000;fill-opacity:1;fill-rule:nonzero;stroke:none"
         id="path152"
         inkscape:connector-curvature="0" /><path
         d="m 109.141,51.75 0,4"
         style="fill:none;stroke:#000000;stroke-width:0.5;stroke-linecap:butt;stroke-linejoin:round;stroke-miterlimit:4;stroke-dasharray:none;stroke-opacity:1"
         id="path154"
         inkscape:connector-curvature="0" /><path
         d="m 109.141,261.543 0,-4"
         style="fill:none;stroke:#000000;stroke-width:0.5;stroke-linecap:butt;stroke-linejoin:round;stroke-miterlimit:4;stroke-dasharray:none;stroke-opacity:1"
         id="path156"
         inkscape:connector-curvature="0" /><path
         d="m 102.895,46.312 c -0.762,0 -1.333,-0.374 -1.719,-1.124 -0.383,-0.747 -0.574,-1.876 -0.574,-3.379 0,-1.497 0.191,-2.621 0.574,-3.371 0.386,-0.75 0.957,-1.126 1.719,-1.126 0.765,0 1.343,0.376 1.726,1.126 0.383,0.75 0.574,1.874 0.574,3.371 0,1.503 -0.191,2.632 -0.574,3.379 -0.383,0.75 -0.961,1.124 -1.726,1.124 m 0,1.172 c 1.226,0 2.164,-0.484 2.808,-1.453 0.649,-0.969 0.973,-2.375 0.973,-4.222 0,-1.84 -0.324,-3.247 -0.973,-4.215 -0.644,-0.969 -1.582,-1.453 -2.808,-1.453 -1.227,0 -2.161,0.484 -2.809,1.453 -0.645,0.968 -0.969,2.375 -0.969,4.215 0,1.847 0.324,3.253 0.969,4.222 0.648,0.969 1.582,1.453 2.809,1.453"
         style="fill:#000000;fill-opacity:1;fill-rule:nonzero;stroke:none"
         id="path158"
         inkscape:connector-curvature="0" /><path
         d="m 109.273,38.215 1.547,0 0,-1.863 -1.547,0 0,1.863 z"
         style="fill:#000000;fill-opacity:1;fill-rule:nonzero;stroke:none"
         id="path160"
         inkscape:connector-curvature="0" /><path
         d="m 118.109,46 -3.738,-5.84 3.738,0 0,5.84 z m -0.39,1.289 1.863,0 0,-7.129 1.559,0 0,-1.23 -1.559,0 0,-2.578 -1.473,0 0,2.578 -4.937,0 0,1.429 4.547,6.93 z"
         style="fill:#000000;fill-opacity:1;fill-rule:nonzero;stroke:none"
         id="path162"
         inkscape:connector-curvature="0" /><path
         d="m 158.762,51.75 0,4"
         style="fill:none;stroke:#000000;stroke-width:0.5;stroke-linecap:butt;stroke-linejoin:round;stroke-miterlimit:4;stroke-dasharray:none;stroke-opacity:1"
         id="path164"
         inkscape:connector-curvature="0" /><path
         d="m 158.762,261.543 0,-4"
         style="fill:none;stroke:#000000;stroke-width:0.5;stroke-linecap:butt;stroke-linejoin:round;stroke-miterlimit:4;stroke-dasharray:none;stroke-opacity:1"
         id="path166"
         inkscape:connector-curvature="0" /><path
         d="m 152.57,46.312 c -0.761,0 -1.336,-0.374 -1.718,-1.124 -0.383,-0.747 -0.575,-1.876 -0.575,-3.379 0,-1.497 0.192,-2.621 0.575,-3.371 0.382,-0.75 0.957,-1.126 1.718,-1.126 0.766,0 1.34,0.376 1.723,1.126 0.387,0.75 0.578,1.874 0.578,3.371 0,1.503 -0.191,2.632 -0.578,3.379 -0.383,0.75 -0.957,1.124 -1.723,1.124 m 0,1.172 c 1.227,0 2.164,-0.484 2.809,-1.453 0.648,-0.969 0.973,-2.375 0.973,-4.222 0,-1.84 -0.325,-3.247 -0.973,-4.215 -0.645,-0.969 -1.582,-1.453 -2.809,-1.453 -1.226,0 -2.16,0.484 -2.808,1.453 -0.649,0.968 -0.969,2.375 -0.969,4.215 0,1.847 0.32,3.253 0.969,4.222 0.648,0.969 1.582,1.453 2.808,1.453"
         style="fill:#000000;fill-opacity:1;fill-rule:nonzero;stroke:none"
         id="path168"
         inkscape:connector-curvature="0" /><path
         d="m 158.949,38.215 1.547,0 0,-1.863 -1.547,0 0,1.863 z"
         style="fill:#000000;fill-opacity:1;fill-rule:nonzero;stroke:none"
         id="path170"
         inkscape:connector-curvature="0" /><path
         d="m 167.066,42.41 c -0.664,0 -1.191,-0.226 -1.578,-0.683 -0.39,-0.454 -0.582,-1.075 -0.582,-1.864 0,-0.789 0.192,-1.41 0.582,-1.867 0.387,-0.457 0.914,-0.684 1.578,-0.684 0.664,0 1.192,0.227 1.579,0.684 0.386,0.457 0.582,1.078 0.582,1.867 0,0.789 -0.196,1.41 -0.582,1.864 -0.387,0.457 -0.915,0.683 -1.579,0.683 m 2.938,4.637 0,-1.348 c -0.371,0.176 -0.746,0.309 -1.125,0.403 -0.379,0.093 -0.754,0.14 -1.125,0.14 -0.977,0 -1.723,-0.332 -2.238,-0.988 -0.516,-0.66 -0.809,-1.656 -0.883,-2.988 0.289,0.422 0.648,0.75 1.082,0.976 0.437,0.227 0.918,0.34 1.437,0.34 1.098,0 1.969,-0.336 2.606,-1 0.637,-0.668 0.957,-1.574 0.957,-2.719 0,-1.125 -0.332,-2.027 -0.996,-2.707 -0.664,-0.676 -1.551,-1.015 -2.653,-1.015 -1.265,0 -2.234,0.484 -2.902,1.453 -0.668,0.968 -1.004,2.375 -1.004,4.215 0,1.73 0.41,3.105 1.231,4.136 0.82,1.028 1.921,1.539 3.304,1.539 0.371,0 0.746,-0.035 1.125,-0.109 0.379,-0.074 0.774,-0.184 1.184,-0.328"
         style="fill:#000000;fill-opacity:1;fill-rule:nonzero;stroke:none"
         id="path172"
         inkscape:connector-curvature="0" /><path
         d="m 208.387,51.75 0,4"
         style="fill:none;stroke:#000000;stroke-width:0.5;stroke-linecap:butt;stroke-linejoin:round;stroke-miterlimit:4;stroke-dasharray:none;stroke-opacity:1"
         id="path174"
         inkscape:connector-curvature="0" /><path
         d="m 208.387,261.543 0,-4"
         style="fill:none;stroke:#000000;stroke-width:0.5;stroke-linecap:butt;stroke-linejoin:round;stroke-miterlimit:4;stroke-dasharray:none;stroke-opacity:1"
         id="path176"
         inkscape:connector-curvature="0" /><path
         d="m 202.234,46.312 c -0.761,0 -1.332,-0.374 -1.718,-1.124 -0.383,-0.747 -0.575,-1.876 -0.575,-3.379 0,-1.497 0.192,-2.621 0.575,-3.371 0.386,-0.75 0.957,-1.126 1.718,-1.126 0.766,0 1.344,0.376 1.727,1.126 0.383,0.75 0.574,1.874 0.574,3.371 0,1.503 -0.191,2.632 -0.574,3.379 -0.383,0.75 -0.961,1.124 -1.727,1.124 m 0,1.172 c 1.227,0 2.164,-0.484 2.809,-1.453 0.648,-0.969 0.973,-2.375 0.973,-4.222 0,-1.84 -0.325,-3.247 -0.973,-4.215 -0.645,-0.969 -1.582,-1.453 -2.809,-1.453 -1.226,0 -2.16,0.484 -2.808,1.453 -0.645,0.968 -0.969,2.375 -0.969,4.215 0,1.847 0.324,3.253 0.969,4.222 0.648,0.969 1.582,1.453 2.808,1.453"
         style="fill:#000000;fill-opacity:1;fill-rule:nonzero;stroke:none"
         id="path178"
         inkscape:connector-curvature="0" /><path
         d="m 208.613,38.215 1.547,0 0,-1.863 -1.547,0 0,1.863 z"
         style="fill:#000000;fill-opacity:1;fill-rule:nonzero;stroke:none"
         id="path180"
         inkscape:connector-curvature="0" /><path
         d="m 216.547,41.547 c -0.703,0 -1.258,-0.188 -1.66,-0.567 -0.403,-0.375 -0.602,-0.89 -0.602,-1.55 0,-0.66 0.199,-1.176 0.602,-1.555 0.402,-0.375 0.957,-0.563 1.66,-0.563 0.703,0 1.258,0.188 1.66,0.567 0.406,0.379 0.609,0.898 0.609,1.551 0,0.66 -0.199,1.175 -0.605,1.55 -0.399,0.379 -0.957,0.567 -1.664,0.567 m -1.481,0.629 c -0.632,0.156 -1.128,0.449 -1.484,0.886 -0.352,0.434 -0.527,0.965 -0.527,1.59 0,0.875 0.308,1.563 0.933,2.071 0.621,0.507 1.477,0.761 2.559,0.761 1.09,0 1.941,-0.254 2.562,-0.761 0.621,-0.508 0.93,-1.196 0.93,-2.071 0,-0.625 -0.176,-1.156 -0.531,-1.59 -0.352,-0.437 -0.844,-0.73 -1.473,-0.886 0.711,-0.168 1.266,-0.492 1.664,-0.977 0.399,-0.48 0.598,-1.07 0.598,-1.769 0,-1.059 -0.324,-1.875 -0.973,-2.442 -0.644,-0.566 -1.57,-0.847 -2.777,-0.847 -1.207,0 -2.133,0.281 -2.781,0.847 -0.645,0.567 -0.969,1.383 -0.969,2.442 0,0.699 0.199,1.289 0.598,1.769 0.402,0.485 0.96,0.809 1.671,0.977 m -0.539,2.336 c 0,-0.567 0.176,-1.008 0.528,-1.324 0.355,-0.317 0.851,-0.477 1.492,-0.477 0.637,0 1.133,0.16 1.488,0.477 0.36,0.316 0.539,0.757 0.539,1.324 0,0.566 -0.179,1.008 -0.539,1.328 -0.355,0.316 -0.851,0.472 -1.488,0.472 -0.641,0 -1.137,-0.156 -1.492,-0.472 -0.352,-0.32 -0.528,-0.762 -0.528,-1.328"
         style="fill:#000000;fill-opacity:1;fill-rule:nonzero;stroke:none"
         id="path182"
         inkscape:connector-curvature="0" /><path
         d="m 258.012,51.75 0,4"
         style="fill:none;stroke:#000000;stroke-width:0.5;stroke-linecap:butt;stroke-linejoin:round;stroke-miterlimit:4;stroke-dasharray:none;stroke-opacity:1"
         id="path184"
         inkscape:connector-curvature="0" /><path
         d="m 258.012,261.543 0,-4"
         style="fill:none;stroke:#000000;stroke-width:0.5;stroke-linecap:butt;stroke-linejoin:round;stroke-miterlimit:4;stroke-dasharray:none;stroke-opacity:1"
         id="path186"
         inkscape:connector-curvature="0" /><path
         d="m 249.266,37.598 2.418,0 0,8.343 -2.633,-0.527 0,1.348 2.617,0.527 1.48,0 0,-9.691 2.414,0 0,-1.246 -6.296,0 0,1.246 z"
         style="fill:#000000;fill-opacity:1;fill-rule:nonzero;stroke:none"
         id="path188"
         inkscape:connector-curvature="0" /><path
         d="m 258.551,38.215 1.547,0 0,-1.863 -1.547,0 0,1.863 z"
         style="fill:#000000;fill-opacity:1;fill-rule:nonzero;stroke:none"
         id="path190"
         inkscape:connector-curvature="0" /><path
         d="m 266.484,46.312 c -0.761,0 -1.336,-0.374 -1.718,-1.124 -0.383,-0.747 -0.575,-1.876 -0.575,-3.379 0,-1.497 0.192,-2.621 0.575,-3.371 0.382,-0.75 0.957,-1.126 1.718,-1.126 0.766,0 1.34,0.376 1.723,1.126 0.387,0.75 0.578,1.874 0.578,3.371 0,1.503 -0.191,2.632 -0.578,3.379 -0.383,0.75 -0.957,1.124 -1.723,1.124 m 0,1.172 c 1.227,0 2.164,-0.484 2.809,-1.453 0.648,-0.969 0.973,-2.375 0.973,-4.222 0,-1.84 -0.325,-3.247 -0.973,-4.215 -0.645,-0.969 -1.582,-1.453 -2.809,-1.453 -1.226,0 -2.16,0.484 -2.808,1.453 -0.649,0.968 -0.969,2.375 -0.969,4.215 0,1.847 0.32,3.253 0.969,4.222 0.648,0.969 1.582,1.453 2.808,1.453"
         style="fill:#000000;fill-opacity:1;fill-rule:nonzero;stroke:none"
         id="path192"
         inkscape:connector-curvature="0" /><path
         d="m 307.633,51.75 0,4"
         style="fill:none;stroke:#000000;stroke-width:0.5;stroke-linecap:butt;stroke-linejoin:round;stroke-miterlimit:4;stroke-dasharray:none;stroke-opacity:1"
         id="path194"
         inkscape:connector-curvature="0" /><path
         d="m 307.633,261.543 0,-4"
         style="fill:none;stroke:#000000;stroke-width:0.5;stroke-linecap:butt;stroke-linejoin:round;stroke-miterlimit:4;stroke-dasharray:none;stroke-opacity:1"
         id="path196"
         inkscape:connector-curvature="0" /><path
         d="m 299.141,37.598 2.418,0 0,8.343 -2.629,-0.527 0,1.348 2.613,0.527 1.48,0 0,-9.691 2.418,0 0,-1.246 -6.3,0 0,1.246 z"
         style="fill:#000000;fill-opacity:1;fill-rule:nonzero;stroke:none"
         id="path198"
         inkscape:connector-curvature="0" /><path
         d="m 308.43,38.215 1.547,0 0,-1.863 -1.547,0 0,1.863 z"
         style="fill:#000000;fill-opacity:1;fill-rule:nonzero;stroke:none"
         id="path200"
         inkscape:connector-curvature="0" /><path
         d="m 314.473,37.598 5.16,0 0,-1.246 -6.942,0 0,1.246 c 0.563,0.582 1.329,1.359 2.297,2.34 0.969,0.98 1.578,1.609 1.828,1.894 0.473,0.531 0.801,0.98 0.989,1.352 0.191,0.367 0.285,0.73 0.285,1.086 0,0.582 -0.203,1.054 -0.613,1.421 -0.407,0.368 -0.938,0.551 -1.594,0.551 -0.461,0 -0.953,-0.082 -1.469,-0.242 -0.512,-0.16 -1.062,-0.406 -1.648,-0.734 l 0,1.496 c 0.593,0.238 1.152,0.418 1.668,0.543 0.519,0.121 0.992,0.179 1.421,0.179 1.133,0 2.036,-0.281 2.711,-0.847 0.672,-0.567 1.008,-1.325 1.008,-2.27 0,-0.449 -0.082,-0.879 -0.25,-1.281 -0.168,-0.402 -0.476,-0.875 -0.922,-1.422 -0.121,-0.141 -0.507,-0.551 -1.164,-1.226 -0.652,-0.68 -1.574,-1.626 -2.765,-2.84"
         style="fill:#000000;fill-opacity:1;fill-rule:nonzero;stroke:none"
         id="path202"
         inkscape:connector-curvature="0" /><path
         d="m 357.258,51.75 0,4"
         style="fill:none;stroke:#000000;stroke-width:0.5;stroke-linecap:butt;stroke-linejoin:round;stroke-miterlimit:4;stroke-dasharray:none;stroke-opacity:1"
         id="path204"
         inkscape:connector-curvature="0" /><path
         d="m 357.258,261.543 0,-4"
         style="fill:none;stroke:#000000;stroke-width:0.5;stroke-linecap:butt;stroke-linejoin:round;stroke-miterlimit:4;stroke-dasharray:none;stroke-opacity:1"
         id="path206"
         inkscape:connector-curvature="0" /><path
         d="m 348.434,37.598 2.418,0 0,8.343 -2.629,-0.527 0,1.348 2.613,0.527 1.48,0 0,-9.691 2.418,0 0,-1.246 -6.3,0 0,1.246 z"
         style="fill:#000000;fill-opacity:1;fill-rule:nonzero;stroke:none"
         id="path208"
         inkscape:connector-curvature="0" /><path
         d="m 357.723,38.215 1.547,0 0,-1.863 -1.547,0 0,1.863 z"
         style="fill:#000000;fill-opacity:1;fill-rule:nonzero;stroke:none"
         id="path210"
         inkscape:connector-curvature="0" /><path
         d="m 366.555,46 -3.735,-5.84 3.735,0 0,5.84 z m -0.387,1.289 1.859,0 0,-7.129 1.563,0 0,-1.23 -1.563,0 0,-2.578 -1.472,0 0,2.578 -4.934,0 0,1.429 4.547,6.93 z"
         style="fill:#000000;fill-opacity:1;fill-rule:nonzero;stroke:none"
         id="path212"
         inkscape:connector-curvature="0" /><path
         d="m 406.883,51.75 0,4"
         style="fill:none;stroke:#000000;stroke-width:0.5;stroke-linecap:butt;stroke-linejoin:round;stroke-miterlimit:4;stroke-dasharray:none;stroke-opacity:1"
         id="path214"
         inkscape:connector-curvature="0" /><path
         d="m 406.883,261.543 0,-4"
         style="fill:none;stroke:#000000;stroke-width:0.5;stroke-linecap:butt;stroke-linejoin:round;stroke-miterlimit:4;stroke-dasharray:none;stroke-opacity:1"
         id="path216"
         inkscape:connector-curvature="0" /><path
         d="m 398.109,37.598 2.418,0 0,8.343 -2.629,-0.527 0,1.348 2.614,0.527 1.48,0 0,-9.691 2.418,0 0,-1.246 -6.301,0 0,1.246 z"
         style="fill:#000000;fill-opacity:1;fill-rule:nonzero;stroke:none"
         id="path218"
         inkscape:connector-curvature="0" /><path
         d="m 407.395,38.215 1.547,0 0,-1.863 -1.547,0 0,1.863 z"
         style="fill:#000000;fill-opacity:1;fill-rule:nonzero;stroke:none"
         id="path220"
         inkscape:connector-curvature="0" /><path
         d="m 415.512,42.41 c -0.664,0 -1.188,-0.226 -1.578,-0.683 -0.387,-0.454 -0.582,-1.075 -0.582,-1.864 0,-0.789 0.195,-1.41 0.582,-1.867 0.39,-0.457 0.914,-0.684 1.578,-0.684 0.664,0 1.191,0.227 1.578,0.684 0.387,0.457 0.582,1.078 0.582,1.867 0,0.789 -0.195,1.41 -0.582,1.864 -0.387,0.457 -0.914,0.683 -1.578,0.683 m 2.937,4.637 0,-1.348 c -0.371,0.176 -0.746,0.309 -1.125,0.403 -0.379,0.093 -0.754,0.14 -1.125,0.14 -0.976,0 -1.722,-0.332 -2.238,-0.988 -0.512,-0.66 -0.809,-1.656 -0.879,-2.988 0.285,0.422 0.648,0.75 1.082,0.976 0.434,0.227 0.914,0.34 1.438,0.34 1.097,0 1.964,-0.336 2.601,-1 0.637,-0.668 0.957,-1.574 0.957,-2.719 0,-1.125 -0.332,-2.027 -0.996,-2.707 -0.664,-0.676 -1.547,-1.015 -2.652,-1.015 -1.266,0 -2.231,0.484 -2.899,1.453 -0.672,0.968 -1.004,2.375 -1.004,4.215 0,1.73 0.411,3.105 1.231,4.136 0.82,1.028 1.922,1.539 3.301,1.539 0.371,0 0.746,-0.035 1.125,-0.109 0.379,-0.074 0.773,-0.184 1.183,-0.328"
         style="fill:#000000;fill-opacity:1;fill-rule:nonzero;stroke:none"
         id="path222"
         inkscape:connector-curvature="0" /><path
         d="m 231.988,25.527 c 0,0.325 0.121,0.606 0.364,0.852 0.246,0.242 0.527,0.363 0.851,0.363 0.199,0 0.395,-0.054 0.586,-0.16 0.195,-0.105 0.348,-0.258 0.453,-0.453 0.11,-0.191 0.164,-0.391 0.164,-0.602 0,-0.312 -0.121,-0.593 -0.359,-0.836 -0.235,-0.246 -0.516,-0.367 -0.844,-0.367 -0.324,0 -0.605,0.121 -0.851,0.367 -0.243,0.243 -0.364,0.524 -0.364,0.836"
         style="fill:#000000;fill-opacity:1;fill-rule:nonzero;stroke:none"
         id="path224"
         inkscape:connector-curvature="0" /><path
         d="m 233.859,7.547 c 0,0.328 0.075,0.808 0.219,1.441 0.149,0.629 0.324,1.301 0.535,2.012 0.211,0.715 0.395,1.301 0.543,1.758 0.059,0.73 0.086,1.281 0.086,1.652 0,0.945 -0.094,1.824 -0.281,2.637 -0.184,0.816 -0.535,1.496 -1.051,2.043 -0.515,0.547 -1.234,0.82 -2.16,0.82 -0.484,0 -0.969,-0.101 -1.453,-0.312 -0.485,-0.207 -0.899,-0.496 -1.246,-0.868 -0.348,-0.371 -0.586,-0.796 -0.715,-1.269 -0.027,-0.086 -0.086,-0.129 -0.172,-0.129 l -0.269,0 c -0.114,0 -0.172,0.066 -0.172,0.195 l 0,0.075 c 0.164,0.656 0.457,1.293 0.875,1.902 0.422,0.617 0.933,1.113 1.539,1.496 0.605,0.383 1.242,0.574 1.918,0.574 0.687,0 1.281,-0.23 1.781,-0.695 0.5,-0.465 0.902,-1.059 1.203,-1.774 0.301,-0.718 0.52,-1.441 0.649,-2.171 0.132,-0.731 0.199,-1.418 0.199,-2.063 0.738,2.008 1.566,3.902 2.48,5.695 l 0.336,0.711 c 0.043,0.039 0.094,0.063 0.149,0.063 l 0.269,0 c 0.113,0 0.172,-0.07 0.172,-0.203 0,-0.028 -0.016,-0.071 -0.043,-0.129 l -0.336,-0.688 c -0.637,-1.269 -1.223,-2.554 -1.754,-3.859 -0.535,-1.301 -0.988,-2.559 -1.371,-3.77 -0.055,-0.492 -0.164,-1.171 -0.328,-2.031 -0.16,-0.859 -0.356,-1.66 -0.586,-2.398 -0.227,-0.742 -0.457,-1.129 -0.687,-1.157 -0.219,0 -0.329,0.149 -0.329,0.442"
         style="fill:#000000;fill-opacity:1;fill-rule:nonzero;stroke:none"
         id="path226"
         inkscape:connector-curvature="0" /><path
         d="m 376.066,21.727 2.043,0 0,7.058 -2.222,-0.445 0,1.14 2.211,0.446 1.254,0 0,-8.199 2.043,0 0,-1.055 -5.329,0 0,1.055 z"
         style="fill:#000000;fill-opacity:1;fill-rule:nonzero;stroke:none"
         id="path228"
         inkscape:connector-curvature="0" /><path
         d="m 389.699,24.43 0,-0.559 -5.242,0 c 0.051,-0.785 0.285,-1.383 0.711,-1.797 0.422,-0.41 1.012,-0.613 1.766,-0.613 0.437,0 0.863,0.051 1.273,0.16 0.414,0.106 0.82,0.266 1.227,0.484 l 0,-1.082 c -0.411,-0.171 -0.829,-0.304 -1.258,-0.394 -0.43,-0.094 -0.867,-0.137 -1.309,-0.137 -1.105,0 -1.984,0.32 -2.633,0.965 -0.644,0.645 -0.968,1.52 -0.968,2.617 0,1.137 0.308,2.039 0.922,2.703 0.613,0.668 1.441,1.004 2.48,1.004 0.934,0 1.672,-0.301 2.219,-0.902 0.543,-0.602 0.812,-1.418 0.812,-2.449 m -1.14,0.332 c -0.008,0.625 -0.18,1.121 -0.524,1.492 -0.34,0.375 -0.793,0.558 -1.355,0.558 -0.633,0 -1.145,-0.179 -1.524,-0.539 -0.383,-0.359 -0.605,-0.863 -0.664,-1.519 l 4.067,0.008 z"
         style="fill:#000000;fill-opacity:1;fill-rule:nonzero;stroke:none"
         id="path230"
         inkscape:connector-curvature="0" /><path
         d="m 391.719,25.18 7.945,0 0,-1.055 -7.945,0 0,1.055 z"
         style="fill:#000000;fill-opacity:1;fill-rule:nonzero;stroke:none"
         id="path232"
         inkscape:connector-curvature="0" /><path
         d="m 402.383,29.926 4.914,0 0,-1.055 -3.77,0 0,-2.266 c 0.18,0.059 0.364,0.106 0.543,0.137 0.184,0.031 0.364,0.047 0.547,0.047 1.035,0 1.852,-0.285 2.453,-0.848 0.606,-0.566 0.907,-1.336 0.907,-2.3 0,-0.996 -0.309,-1.77 -0.93,-2.321 -0.621,-0.554 -1.492,-0.828 -2.621,-0.828 -0.391,0 -0.785,0.031 -1.188,0.098 -0.402,0.066 -0.82,0.168 -1.25,0.297 l 0,1.261 c 0.375,-0.203 0.758,-0.355 1.153,-0.453 0.398,-0.097 0.816,-0.148 1.257,-0.148 0.715,0 1.282,0.187 1.7,0.562 0.418,0.375 0.625,0.887 0.625,1.532 0,0.644 -0.207,1.152 -0.625,1.531 -0.418,0.375 -0.985,0.562 -1.7,0.562 -0.332,0 -0.668,-0.035 -1,-0.109 -0.332,-0.074 -0.671,-0.191 -1.015,-0.348 l 0,4.649 z"
         style="fill:#000000;fill-opacity:1;fill-rule:nonzero;stroke:none"
         id="path234"
         inkscape:connector-curvature="0" /><path
         d="m 59.516,51.75 4,0"
         style="fill:none;stroke:#000000;stroke-width:0.5;stroke-linecap:butt;stroke-linejoin:round;stroke-miterlimit:4;stroke-dasharray:none;stroke-opacity:1"
         id="path236"
         inkscape:connector-curvature="0" /><path
         d="m 406.883,51.75 -4,0"
         style="fill:none;stroke:#000000;stroke-width:0.5;stroke-linecap:butt;stroke-linejoin:round;stroke-miterlimit:4;stroke-dasharray:none;stroke-opacity:1"
         id="path238"
         inkscape:connector-curvature="0" /><path
         d="m 38.805,57.574 c -0.762,0 -1.336,-0.375 -1.719,-1.125 -0.383,-0.75 -0.574,-1.875 -0.574,-3.383 0,-1.496 0.191,-2.621 0.574,-3.371 0.383,-0.75 0.957,-1.125 1.719,-1.125 0.765,0 1.34,0.375 1.722,1.125 0.387,0.75 0.578,1.875 0.578,3.371 0,1.508 -0.191,2.633 -0.578,3.383 -0.382,0.75 -0.957,1.125 -1.722,1.125 m 0,1.172 c 1.226,0 2.16,-0.488 2.808,-1.457 0.649,-0.969 0.969,-2.375 0.969,-4.223 0,-1.839 -0.32,-3.246 -0.969,-4.214 -0.648,-0.969 -1.582,-1.454 -2.808,-1.454 -1.227,0 -2.164,0.485 -2.809,1.454 -0.648,0.968 -0.973,2.375 -0.973,4.214 0,1.848 0.325,3.254 0.973,4.223 0.645,0.969 1.582,1.457 2.809,1.457"
         style="fill:#000000;fill-opacity:1;fill-rule:nonzero;stroke:none"
         id="path240"
         inkscape:connector-curvature="0" /><path
         d="m 45.184,49.473 1.547,0 0,-1.859 -1.547,0 0,1.859 z"
         style="fill:#000000;fill-opacity:1;fill-rule:nonzero;stroke:none"
         id="path242"
         inkscape:connector-curvature="0" /><path
         d="m 50.207,48.855 2.418,0 0,8.344 -2.629,-0.527 0,1.348 2.613,0.527 1.481,0 0,-9.692 2.414,0 0,-1.242 -6.297,0 0,1.242 z"
         style="fill:#000000;fill-opacity:1;fill-rule:nonzero;stroke:none"
         id="path244"
         inkscape:connector-curvature="0" /><path
         d="m 59.516,77.977 4,0"
         style="fill:none;stroke:#000000;stroke-width:0.5;stroke-linecap:butt;stroke-linejoin:round;stroke-miterlimit:4;stroke-dasharray:none;stroke-opacity:1"
         id="path246"
         inkscape:connector-curvature="0" /><path
         d="m 406.883,77.977 -4,0"
         style="fill:none;stroke:#000000;stroke-width:0.5;stroke-linecap:butt;stroke-linejoin:round;stroke-miterlimit:4;stroke-dasharray:none;stroke-opacity:1"
         id="path248"
         inkscape:connector-curvature="0" /><path
         d="m 38.922,83.797 c -0.762,0 -1.336,-0.375 -1.719,-1.125 -0.383,-0.75 -0.574,-1.875 -0.574,-3.379 0,-1.5 0.191,-2.625 0.574,-3.375 0.383,-0.75 0.957,-1.125 1.719,-1.125 0.766,0 1.34,0.375 1.723,1.125 0.386,0.75 0.578,1.875 0.578,3.375 0,1.504 -0.192,2.629 -0.578,3.379 -0.383,0.75 -0.957,1.125 -1.723,1.125 m 0,1.172 c 1.226,0 2.16,-0.485 2.808,-1.457 0.649,-0.969 0.969,-2.375 0.969,-4.219 0,-1.84 -0.32,-3.246 -0.969,-4.219 -0.648,-0.969 -1.582,-1.453 -2.808,-1.453 -1.227,0 -2.164,0.484 -2.809,1.453 -0.648,0.973 -0.972,2.379 -0.972,4.219 0,1.844 0.324,3.25 0.972,4.219 0.645,0.972 1.582,1.457 2.809,1.457"
         style="fill:#000000;fill-opacity:1;fill-rule:nonzero;stroke:none"
         id="path250"
         inkscape:connector-curvature="0" /><path
         d="m 45.301,75.695 1.547,0 0,-1.859 -1.547,0 0,1.859 z"
         style="fill:#000000;fill-opacity:1;fill-rule:nonzero;stroke:none"
         id="path252"
         inkscape:connector-curvature="0" /><path
         d="m 51.344,75.082 5.16,0 0,-1.246 -6.942,0 0,1.246 c 0.563,0.578 1.329,1.359 2.297,2.336 0.969,0.98 1.579,1.613 1.829,1.898 0.472,0.532 0.8,0.981 0.988,1.348 0.191,0.371 0.285,0.734 0.285,1.09 0,0.582 -0.203,1.055 -0.613,1.418 -0.407,0.367 -0.938,0.551 -1.594,0.551 -0.461,0 -0.953,-0.078 -1.469,-0.239 -0.512,-0.164 -1.062,-0.406 -1.648,-0.734 l 0,1.492 c 0.593,0.242 1.152,0.422 1.668,0.543 0.519,0.121 0.992,0.184 1.422,0.184 1.132,0 2.035,-0.285 2.711,-0.852 0.671,-0.566 1.007,-1.32 1.007,-2.269 0,-0.45 -0.082,-0.875 -0.25,-1.278 -0.168,-0.402 -0.476,-0.879 -0.922,-1.425 -0.121,-0.141 -0.507,-0.551 -1.164,-1.227 -0.652,-0.676 -1.574,-1.621 -2.765,-2.836"
         style="fill:#000000;fill-opacity:1;fill-rule:nonzero;stroke:none"
         id="path254"
         inkscape:connector-curvature="0" /><path
         d="m 59.516,104.199 4,0"
         style="fill:none;stroke:#000000;stroke-width:0.5;stroke-linecap:butt;stroke-linejoin:round;stroke-miterlimit:4;stroke-dasharray:none;stroke-opacity:1"
         id="path256"
         inkscape:connector-curvature="0" /><path
         d="m 406.883,104.199 -4,0"
         style="fill:none;stroke:#000000;stroke-width:0.5;stroke-linecap:butt;stroke-linejoin:round;stroke-miterlimit:4;stroke-dasharray:none;stroke-opacity:1"
         id="path258"
         inkscape:connector-curvature="0" /><path
         d="m 38.621,110.02 c -0.762,0 -1.336,-0.375 -1.719,-1.125 -0.382,-0.747 -0.574,-1.875 -0.574,-3.379 0,-1.5 0.192,-2.621 0.574,-3.371 0.383,-0.75 0.957,-1.125 1.719,-1.125 0.766,0 1.34,0.375 1.723,1.125 0.386,0.75 0.578,1.871 0.578,3.371 0,1.504 -0.192,2.632 -0.578,3.379 -0.383,0.75 -0.957,1.125 -1.723,1.125 m 0,1.171 c 1.227,0 2.164,-0.484 2.809,-1.453 0.648,-0.968 0.972,-2.379 0.972,-4.222 0,-1.84 -0.324,-3.246 -0.972,-4.215 -0.645,-0.969 -1.582,-1.453 -2.809,-1.453 -1.226,0 -2.16,0.484 -2.809,1.453 -0.648,0.969 -0.968,2.375 -0.968,4.215 0,1.843 0.32,3.254 0.968,4.222 0.649,0.969 1.583,1.453 2.809,1.453"
         style="fill:#000000;fill-opacity:1;fill-rule:nonzero;stroke:none"
         id="path260"
         inkscape:connector-curvature="0" /><path
         d="m 45,101.922 1.547,0 0,-1.863 -1.547,0 0,1.863 z"
         style="fill:#000000;fill-opacity:1;fill-rule:nonzero;stroke:none"
         id="path262"
         inkscape:connector-curvature="0" /><path
         d="m 54.25,105.957 c 0.707,-0.152 1.262,-0.469 1.656,-0.949 0.399,-0.477 0.598,-1.067 0.598,-1.77 0,-1.078 -0.371,-1.914 -1.113,-2.508 -0.743,-0.589 -1.797,-0.882 -3.164,-0.882 -0.457,0 -0.93,0.043 -1.415,0.132 -0.484,0.094 -0.988,0.227 -1.503,0.411 l 0,1.425 c 0.41,-0.238 0.855,-0.418 1.343,-0.539 0.489,-0.125 1,-0.183 1.536,-0.183 0.925,0 1.632,0.183 2.117,0.547 0.484,0.367 0.73,0.898 0.73,1.597 0,0.645 -0.226,1.149 -0.68,1.512 -0.449,0.363 -1.078,0.547 -1.882,0.547 l -1.278,0 0,1.215 1.336,0 c 0.727,0 1.281,0.144 1.668,0.437 0.387,0.289 0.578,0.707 0.578,1.254 0,0.563 -0.199,0.992 -0.597,1.293 -0.395,0.301 -0.965,0.453 -1.707,0.453 -0.407,0 -0.844,-0.047 -1.305,-0.137 -0.465,-0.085 -0.977,-0.222 -1.531,-0.406 l 0,1.317 c 0.562,0.156 1.09,0.273 1.578,0.351 0.492,0.078 0.953,0.117 1.387,0.117 1.125,0 2.011,-0.253 2.668,-0.765 0.652,-0.508 0.98,-1.199 0.98,-2.067 0,-0.605 -0.172,-1.117 -0.52,-1.535 -0.347,-0.418 -0.839,-0.707 -1.48,-0.867"
         style="fill:#000000;fill-opacity:1;fill-rule:nonzero;stroke:none"
         id="path264"
         inkscape:connector-curvature="0" /><path
         d="m 59.516,130.422 4,0"
         style="fill:none;stroke:#000000;stroke-width:0.5;stroke-linecap:butt;stroke-linejoin:round;stroke-miterlimit:4;stroke-dasharray:none;stroke-opacity:1"
         id="path266"
         inkscape:connector-curvature="0" /><path
         d="m 406.883,130.422 -4,0"
         style="fill:none;stroke:#000000;stroke-width:0.5;stroke-linecap:butt;stroke-linejoin:round;stroke-miterlimit:4;stroke-dasharray:none;stroke-opacity:1"
         id="path268"
         inkscape:connector-curvature="0" /><path
         d="m 38.258,136.242 c -0.758,0 -1.332,-0.375 -1.715,-1.125 -0.383,-0.746 -0.574,-1.871 -0.574,-3.379 0,-1.496 0.191,-2.621 0.574,-3.371 0.383,-0.75 0.957,-1.125 1.715,-1.125 0.769,0 1.344,0.375 1.726,1.125 0.383,0.75 0.578,1.875 0.578,3.371 0,1.508 -0.195,2.633 -0.578,3.379 -0.382,0.75 -0.957,1.125 -1.726,1.125 m 0,1.176 c 1.226,0 2.164,-0.488 2.812,-1.457 0.645,-0.969 0.969,-2.375 0.969,-4.223 0,-1.84 -0.324,-3.246 -0.969,-4.215 -0.648,-0.968 -1.586,-1.453 -2.812,-1.453 -1.223,0 -2.16,0.485 -2.805,1.453 -0.648,0.969 -0.973,2.375 -0.973,4.215 0,1.848 0.325,3.254 0.973,4.223 0.645,0.969 1.582,1.457 2.805,1.457"
         style="fill:#000000;fill-opacity:1;fill-rule:nonzero;stroke:none"
         id="path270"
         inkscape:connector-curvature="0" /><path
         d="m 44.637,128.145 1.547,0 0,-1.863 -1.547,0 0,1.863 z"
         style="fill:#000000;fill-opacity:1;fill-rule:nonzero;stroke:none"
         id="path272"
         inkscape:connector-curvature="0" /><path
         d="m 53.473,135.93 -3.735,-5.84 3.735,0 0,5.84 z m -0.391,1.289 1.863,0 0,-7.129 1.559,0 0,-1.231 -1.559,0 0,-2.578 -1.472,0 0,2.578 -4.938,0 0,1.43 4.547,6.93 z"
         style="fill:#000000;fill-opacity:1;fill-rule:nonzero;stroke:none"
         id="path274"
         inkscape:connector-curvature="0" /><path
         d="m 59.516,156.645 4,0"
         style="fill:none;stroke:#000000;stroke-width:0.5;stroke-linecap:butt;stroke-linejoin:round;stroke-miterlimit:4;stroke-dasharray:none;stroke-opacity:1"
         id="path276"
         inkscape:connector-curvature="0" /><path
         d="m 406.883,156.645 -4,0"
         style="fill:none;stroke:#000000;stroke-width:0.5;stroke-linecap:butt;stroke-linejoin:round;stroke-miterlimit:4;stroke-dasharray:none;stroke-opacity:1"
         id="path278"
         inkscape:connector-curvature="0" /><path
         d="m 38.727,162.469 c -0.758,0 -1.332,-0.375 -1.715,-1.125 -0.383,-0.75 -0.574,-1.875 -0.574,-3.379 0,-1.5 0.191,-2.625 0.574,-3.375 0.383,-0.75 0.957,-1.125 1.715,-1.125 0.769,0 1.343,0.375 1.726,1.125 0.383,0.75 0.578,1.875 0.578,3.375 0,1.504 -0.195,2.629 -0.578,3.379 -0.383,0.75 -0.957,1.125 -1.726,1.125 m 0,1.172 c 1.226,0 2.164,-0.485 2.812,-1.457 0.645,-0.969 0.969,-2.375 0.969,-4.219 0,-1.844 -0.324,-3.246 -0.969,-4.219 -0.648,-0.969 -1.586,-1.453 -2.812,-1.453 -1.223,0 -2.161,0.484 -2.805,1.453 -0.649,0.973 -0.973,2.375 -0.973,4.219 0,1.844 0.324,3.25 0.973,4.219 0.644,0.972 1.582,1.457 2.805,1.457"
         style="fill:#000000;fill-opacity:1;fill-rule:nonzero;stroke:none"
         id="path280"
         inkscape:connector-curvature="0" /><path
         d="m 45.105,154.367 1.547,0 0,-1.859 -1.547,0 0,1.859 z"
         style="fill:#000000;fill-opacity:1;fill-rule:nonzero;stroke:none"
         id="path282"
         inkscape:connector-curvature="0" /><path
         d="m 49.891,163.441 5.808,0 0,-1.246 -4.453,0 0,-2.679 c 0.215,0.074 0.43,0.129 0.641,0.164 0.218,0.039 0.433,0.054 0.648,0.054 1.219,0 2.188,-0.332 2.899,-1.004 0.714,-0.668 1.07,-1.574 1.07,-2.714 0,-1.176 -0.363,-2.09 -1.098,-2.746 -0.734,-0.649 -1.765,-0.977 -3.097,-0.977 -0.461,0 -0.93,0.039 -1.407,0.117 -0.472,0.078 -0.964,0.195 -1.472,0.352 l 0,1.488 c 0.437,-0.238 0.894,-0.418 1.363,-0.535 0.469,-0.117 0.961,-0.176 1.484,-0.176 0.844,0 1.516,0.223 2.008,0.668 0.492,0.441 0.738,1.047 0.738,1.809 0,0.761 -0.246,1.363 -0.738,1.808 -0.492,0.446 -1.164,0.668 -2.008,0.668 -0.394,0 -0.789,-0.047 -1.183,-0.133 -0.391,-0.086 -0.793,-0.222 -1.203,-0.41 l 0,5.492 z"
         style="fill:#000000;fill-opacity:1;fill-rule:nonzero;stroke:none"
         id="path284"
         inkscape:connector-curvature="0" /><path
         d="m 59.516,182.871 4,0"
         style="fill:none;stroke:#000000;stroke-width:0.5;stroke-linecap:butt;stroke-linejoin:round;stroke-miterlimit:4;stroke-dasharray:none;stroke-opacity:1"
         id="path286"
         inkscape:connector-curvature="0" /><path
         d="m 406.883,182.871 -4,0"
         style="fill:none;stroke:#000000;stroke-width:0.5;stroke-linecap:butt;stroke-linejoin:round;stroke-miterlimit:4;stroke-dasharray:none;stroke-opacity:1"
         id="path288"
         inkscape:connector-curvature="0" /><path
         d="m 38.363,188.691 c -0.761,0 -1.336,-0.375 -1.718,-1.125 -0.383,-0.746 -0.575,-1.875 -0.575,-3.378 0,-1.5 0.192,-2.626 0.575,-3.376 0.382,-0.75 0.957,-1.124 1.718,-1.124 0.766,0 1.34,0.374 1.723,1.124 0.387,0.75 0.578,1.876 0.578,3.376 0,1.503 -0.191,2.632 -0.578,3.378 -0.383,0.75 -0.957,1.125 -1.723,1.125 m 0,1.172 c 1.227,0 2.164,-0.484 2.809,-1.457 0.648,-0.968 0.973,-2.375 0.973,-4.218 0,-1.84 -0.325,-3.247 -0.973,-4.219 -0.645,-0.969 -1.582,-1.453 -2.809,-1.453 -1.226,0 -2.16,0.484 -2.808,1.453 -0.649,0.972 -0.969,2.379 -0.969,4.219 0,1.843 0.32,3.25 0.969,4.218 0.648,0.973 1.582,1.457 2.808,1.457"
         style="fill:#000000;fill-opacity:1;fill-rule:nonzero;stroke:none"
         id="path290"
         inkscape:connector-curvature="0" /><path
         d="m 44.742,180.59 1.547,0 0,-1.859 -1.547,0 0,1.859 z"
         style="fill:#000000;fill-opacity:1;fill-rule:nonzero;stroke:none"
         id="path292"
         inkscape:connector-curvature="0" /><path
         d="m 52.859,184.789 c -0.664,0 -1.191,-0.23 -1.582,-0.684 -0.386,-0.453 -0.578,-1.074 -0.578,-1.867 0,-0.785 0.192,-1.406 0.578,-1.863 0.391,-0.457 0.918,-0.687 1.582,-0.687 0.664,0 1.188,0.23 1.579,0.687 0.386,0.457 0.578,1.078 0.578,1.863 0,0.793 -0.192,1.414 -0.578,1.867 -0.391,0.454 -0.915,0.684 -1.579,0.684 m 2.938,4.637 0,-1.348 c -0.375,0.176 -0.75,0.309 -1.125,0.402 -0.379,0.094 -0.754,0.141 -1.125,0.141 -0.977,0 -1.723,-0.332 -2.238,-0.992 -0.516,-0.656 -0.809,-1.652 -0.883,-2.988 0.289,0.425 0.648,0.75 1.082,0.98 0.437,0.227 0.914,0.34 1.437,0.34 1.098,0 1.965,-0.336 2.606,-1.004 0.637,-0.664 0.953,-1.57 0.953,-2.719 0,-1.121 -0.332,-2.023 -0.996,-2.703 -0.664,-0.68 -1.547,-1.019 -2.649,-1.019 -1.265,0 -2.234,0.484 -2.902,1.453 -0.668,0.972 -1.004,2.379 -1.004,4.219 0,1.726 0.41,3.105 1.231,4.132 0.82,1.032 1.921,1.543 3.304,1.543 0.371,0 0.746,-0.035 1.125,-0.109 0.375,-0.074 0.77,-0.184 1.184,-0.328"
         style="fill:#000000;fill-opacity:1;fill-rule:nonzero;stroke:none"
         id="path294"
         inkscape:connector-curvature="0" /><path
         d="m 59.516,209.094 4,0"
         style="fill:none;stroke:#000000;stroke-width:0.5;stroke-linecap:butt;stroke-linejoin:round;stroke-miterlimit:4;stroke-dasharray:none;stroke-opacity:1"
         id="path296"
         inkscape:connector-curvature="0" /><path
         d="m 406.883,209.094 -4,0"
         style="fill:none;stroke:#000000;stroke-width:0.5;stroke-linecap:butt;stroke-linejoin:round;stroke-miterlimit:4;stroke-dasharray:none;stroke-opacity:1"
         id="path298"
         inkscape:connector-curvature="0" /><path
         d="m 38.699,214.914 c -0.761,0 -1.332,-0.375 -1.719,-1.125 -0.382,-0.746 -0.574,-1.875 -0.574,-3.379 0,-1.496 0.192,-2.621 0.574,-3.371 0.387,-0.75 0.958,-1.125 1.719,-1.125 0.77,0 1.344,0.375 1.727,1.125 0.383,0.75 0.574,1.875 0.574,3.371 0,1.504 -0.191,2.633 -0.574,3.379 -0.383,0.75 -0.957,1.125 -1.727,1.125 m 0,1.172 c 1.227,0 2.164,-0.484 2.813,-1.453 0.644,-0.969 0.968,-2.375 0.968,-4.223 0,-1.84 -0.324,-3.246 -0.968,-4.215 -0.649,-0.968 -1.586,-1.453 -2.813,-1.453 -1.222,0 -2.16,0.485 -2.808,1.453 -0.645,0.969 -0.969,2.375 -0.969,4.215 0,1.848 0.324,3.254 0.969,4.223 0.648,0.969 1.586,1.453 2.808,1.453"
         style="fill:#000000;fill-opacity:1;fill-rule:nonzero;stroke:none"
         id="path300"
         inkscape:connector-curvature="0" /><path
         d="m 45.078,206.816 1.547,0 0,-1.863 -1.547,0 0,1.863 z"
         style="fill:#000000;fill-opacity:1;fill-rule:nonzero;stroke:none"
         id="path302"
         inkscape:connector-curvature="0" /><path
         d="m 49.473,215.891 7.031,0 0,-0.629 -3.969,-10.309 -1.543,0 3.735,9.692 -5.254,0 0,1.246 z"
         style="fill:#000000;fill-opacity:1;fill-rule:nonzero;stroke:none"
         id="path304"
         inkscape:connector-curvature="0" /><path
         d="m 59.516,235.316 4,0"
         style="fill:none;stroke:#000000;stroke-width:0.5;stroke-linecap:butt;stroke-linejoin:round;stroke-miterlimit:4;stroke-dasharray:none;stroke-opacity:1"
         id="path306"
         inkscape:connector-curvature="0" /><path
         d="m 406.883,235.316 -4,0"
         style="fill:none;stroke:#000000;stroke-width:0.5;stroke-linecap:butt;stroke-linejoin:round;stroke-miterlimit:4;stroke-dasharray:none;stroke-opacity:1"
         id="path308"
         inkscape:connector-curvature="0" /><path
         d="m 38.445,241.141 c -0.761,0 -1.336,-0.375 -1.718,-1.125 -0.383,-0.75 -0.575,-1.875 -0.575,-3.383 0,-1.496 0.192,-2.621 0.575,-3.371 0.382,-0.75 0.957,-1.125 1.718,-1.125 0.766,0 1.34,0.375 1.723,1.125 0.387,0.75 0.578,1.875 0.578,3.371 0,1.508 -0.191,2.633 -0.578,3.383 -0.383,0.75 -0.957,1.125 -1.723,1.125 m 0,1.171 c 1.227,0 2.164,-0.484 2.809,-1.457 0.648,-0.968 0.973,-2.375 0.973,-4.222 0,-1.84 -0.325,-3.242 -0.973,-4.215 -0.645,-0.969 -1.582,-1.453 -2.809,-1.453 -1.226,0 -2.16,0.484 -2.808,1.453 -0.649,0.973 -0.969,2.375 -0.969,4.215 0,1.847 0.32,3.254 0.969,4.222 0.648,0.973 1.582,1.457 2.808,1.457"
         style="fill:#000000;fill-opacity:1;fill-rule:nonzero;stroke:none"
         id="path310"
         inkscape:connector-curvature="0" /><path
         d="m 44.824,233.039 1.547,0 0,-1.859 -1.547,0 0,1.859 z"
         style="fill:#000000;fill-opacity:1;fill-rule:nonzero;stroke:none"
         id="path312"
         inkscape:connector-curvature="0" /><path
         d="m 52.754,236.371 c -0.703,0 -1.254,-0.187 -1.656,-0.562 -0.403,-0.379 -0.606,-0.895 -0.606,-1.555 0,-0.656 0.203,-1.176 0.606,-1.551 0.402,-0.379 0.953,-0.566 1.656,-0.566 0.703,0 1.258,0.191 1.664,0.566 0.406,0.383 0.609,0.899 0.609,1.551 0,0.66 -0.203,1.176 -0.605,1.555 -0.402,0.375 -0.957,0.562 -1.668,0.562 M 51.277,237 c -0.636,0.156 -1.129,0.453 -1.484,0.887 -0.352,0.433 -0.531,0.965 -0.531,1.59 0,0.875 0.312,1.566 0.933,2.074 0.625,0.508 1.477,0.761 2.559,0.761 1.09,0 1.945,-0.253 2.566,-0.761 0.621,-0.508 0.93,-1.199 0.93,-2.074 0,-0.625 -0.176,-1.157 -0.531,-1.59 -0.356,-0.434 -0.844,-0.731 -1.477,-0.887 0.715,-0.164 1.27,-0.492 1.664,-0.977 0.399,-0.48 0.598,-1.07 0.598,-1.769 0,-1.059 -0.32,-1.871 -0.969,-2.442 -0.648,-0.566 -1.574,-0.847 -2.781,-0.847 -1.203,0 -2.129,0.281 -2.777,0.847 -0.649,0.571 -0.973,1.383 -0.973,2.442 0,0.699 0.203,1.289 0.601,1.769 0.403,0.485 0.957,0.813 1.672,0.977 m -0.543,2.336 c 0,-0.563 0.176,-1.004 0.532,-1.324 0.355,-0.317 0.851,-0.477 1.488,-0.477 0.637,0 1.133,0.16 1.492,0.477 0.359,0.32 0.539,0.761 0.539,1.324 0,0.566 -0.18,1.012 -0.539,1.328 -0.359,0.316 -0.855,0.477 -1.492,0.477 -0.637,0 -1.133,-0.161 -1.488,-0.477 -0.356,-0.316 -0.532,-0.762 -0.532,-1.328"
         style="fill:#000000;fill-opacity:1;fill-rule:nonzero;stroke:none"
         id="path314"
         inkscape:connector-curvature="0" /><path
         d="m 59.516,261.543 4,0"
         style="fill:none;stroke:#000000;stroke-width:0.5;stroke-linecap:butt;stroke-linejoin:round;stroke-miterlimit:4;stroke-dasharray:none;stroke-opacity:1"
         id="path316"
         inkscape:connector-curvature="0" /><path
         d="m 406.883,261.543 -4,0"
         style="fill:none;stroke:#000000;stroke-width:0.5;stroke-linecap:butt;stroke-linejoin:round;stroke-miterlimit:4;stroke-dasharray:none;stroke-opacity:1"
         id="path318"
         inkscape:connector-curvature="0" /><path
         d="m 38.473,267.363 c -0.762,0 -1.332,-0.375 -1.719,-1.125 -0.383,-0.75 -0.574,-1.875 -0.574,-3.379 0,-1.5 0.191,-2.625 0.574,-3.375 0.387,-0.75 0.957,-1.125 1.719,-1.125 0.765,0 1.343,0.375 1.726,1.125 0.383,0.75 0.574,1.875 0.574,3.375 0,1.504 -0.191,2.629 -0.574,3.379 -0.383,0.75 -0.961,1.125 -1.726,1.125 m 0,1.172 c 1.226,0 2.164,-0.484 2.808,-1.457 0.649,-0.969 0.973,-2.375 0.973,-4.219 0,-1.839 -0.324,-3.246 -0.973,-4.218 -0.644,-0.969 -1.582,-1.453 -2.808,-1.453 -1.227,0 -2.161,0.484 -2.809,1.453 -0.644,0.972 -0.969,2.379 -0.969,4.218 0,1.844 0.325,3.25 0.969,4.219 0.648,0.973 1.582,1.457 2.809,1.457"
         style="fill:#000000;fill-opacity:1;fill-rule:nonzero;stroke:none"
         id="path320"
         inkscape:connector-curvature="0" /><path
         d="m 44.852,259.262 1.547,0 0,-1.859 -1.547,0 0,1.859 z"
         style="fill:#000000;fill-opacity:1;fill-rule:nonzero;stroke:none"
         id="path322"
         inkscape:connector-curvature="0" /><path
         d="m 49.664,257.629 0,1.348 c 0.371,-0.176 0.746,-0.309 1.129,-0.403 0.379,-0.094 0.754,-0.136 1.121,-0.136 0.977,0 1.723,0.328 2.234,0.984 0.516,0.656 0.813,1.652 0.887,2.992 -0.285,-0.422 -0.644,-0.742 -1.078,-0.969 -0.437,-0.226 -0.918,-0.336 -1.441,-0.336 -1.094,0 -1.961,0.329 -2.598,0.989 -0.637,0.664 -0.957,1.57 -0.957,2.718 0,1.122 0.332,2.02 0.996,2.7 0.664,0.679 1.547,1.019 2.652,1.019 1.266,0 2.231,-0.484 2.895,-1.457 0.668,-0.969 1,-2.375 1,-4.219 0,-1.722 -0.406,-3.101 -1.227,-4.129 -0.816,-1.027 -1.918,-1.542 -3.297,-1.542 -0.371,0 -0.75,0.039 -1.128,0.113 -0.383,0.07 -0.778,0.183 -1.188,0.328 m 2.945,4.637 c 0.664,0 1.188,0.226 1.575,0.679 0.39,0.453 0.586,1.078 0.586,1.871 0,0.786 -0.196,1.407 -0.586,1.864 -0.387,0.457 -0.911,0.683 -1.575,0.683 -0.664,0 -1.191,-0.226 -1.578,-0.683 -0.386,-0.457 -0.582,-1.078 -0.582,-1.864 0,-0.793 0.196,-1.418 0.582,-1.871 0.387,-0.453 0.914,-0.679 1.578,-0.679"
         style="fill:#000000;fill-opacity:1;fill-rule:nonzero;stroke:none"
         id="path324"
         inkscape:connector-curvature="0" /><path
         d="m 244.715,248.633 -10,5 0,-10 10,5 z"
         style="fill:#0000ff;fill-opacity:1;fill-rule:nonzero;stroke:#000000;stroke-width:0.5;stroke-linecap:butt;stroke-linejoin:miter;stroke-miterlimit:4;stroke-dasharray:none;stroke-opacity:1"
         id="path338"
         inkscape:connector-curvature="0" /><path
         d="m 266.289,253.938 5.867,0 0,-1.161 -4.484,0 0,-3.007 4.047,0 0,-1.165 -4.047,0 0,-4.875 -1.383,0 0,10.208 z"
         style="fill:#000000;fill-opacity:1;fill-rule:nonzero;stroke:none"
         id="path340"
         inkscape:connector-curvature="0" /><path
         d="m 274.289,254.371 1.258,0 0,-10.641 -1.258,0 0,10.641 z"
         style="fill:#000000;fill-opacity:1;fill-rule:nonzero;stroke:none"
         id="path342"
         inkscape:connector-curvature="0" /><path
         d="m 278.047,246.754 0,4.633 1.258,0 0,-4.586 c 0,-0.723 0.14,-1.27 0.422,-1.633 0.285,-0.359 0.711,-0.539 1.273,-0.539 0.68,0 1.215,0.215 1.609,0.648 0.395,0.434 0.594,1.024 0.594,1.77 l 0,4.34 1.258,0 0,-7.657 -1.258,0 0,1.18 c -0.305,-0.465 -0.66,-0.812 -1.062,-1.039 -0.403,-0.226 -0.871,-0.336 -1.407,-0.336 -0.879,0 -1.546,0.274 -2.004,0.82 -0.453,0.547 -0.683,1.344 -0.683,2.399"
         style="fill:#000000;fill-opacity:1;fill-rule:nonzero;stroke:none"
         id="path344"
         inkscape:connector-curvature="0" /><path
         d="m 287.051,251.387 1.258,0 0,-7.657 -1.258,0 0,7.657 z m 0,2.984 1.258,0 0,-1.594 -1.258,0 0,1.594 z"
         style="fill:#000000;fill-opacity:1;fill-rule:nonzero;stroke:none"
         id="path346"
         inkscape:connector-curvature="0" /><path
         d="m 295.977,250.227 0,4.144 1.257,0 0,-10.641 -1.257,0 0,1.149 c -0.262,-0.453 -0.598,-0.793 -1,-1.012 -0.403,-0.222 -0.887,-0.332 -1.454,-0.332 -0.925,0 -1.675,0.367 -2.257,1.106 -0.582,0.738 -0.871,1.711 -0.871,2.914 0,1.203 0.289,2.172 0.871,2.91 0.582,0.738 1.332,1.109 2.257,1.109 0.567,0 1.051,-0.113 1.454,-0.336 0.402,-0.218 0.738,-0.554 1,-1.011 m -4.286,-2.672 c 0,-0.926 0.192,-1.653 0.571,-2.176 0.383,-0.527 0.906,-0.793 1.57,-0.793 0.664,0 1.188,0.266 1.57,0.793 0.383,0.523 0.575,1.25 0.575,2.176 0,0.922 -0.192,1.648 -0.575,2.175 -0.382,0.528 -0.906,0.79 -1.57,0.79 -0.664,0 -1.187,-0.262 -1.57,-0.79 -0.379,-0.527 -0.571,-1.253 -0.571,-2.175"
         style="fill:#000000;fill-opacity:1;fill-rule:nonzero;stroke:none"
         id="path348"
         inkscape:connector-curvature="0" /><path
         d="m 314.223,247.555 c 0,0.922 -0.188,1.648 -0.571,2.175 -0.379,0.528 -0.902,0.79 -1.566,0.79 -0.668,0 -1.191,-0.262 -1.57,-0.79 -0.383,-0.527 -0.571,-1.253 -0.571,-2.175 0,-0.926 0.188,-1.653 0.571,-2.176 0.379,-0.527 0.902,-0.793 1.57,-0.793 0.664,0 1.187,0.266 1.566,0.793 0.383,0.523 0.571,1.25 0.571,2.176 m -4.278,2.672 c 0.266,0.457 0.598,0.793 1,1.011 0.403,0.223 0.887,0.336 1.446,0.336 0.929,0 1.687,-0.371 2.265,-1.109 0.582,-0.738 0.875,-1.707 0.875,-2.91 0,-1.203 -0.293,-2.176 -0.875,-2.914 -0.578,-0.739 -1.336,-1.106 -2.265,-1.106 -0.559,0 -1.043,0.11 -1.446,0.332 -0.402,0.219 -0.734,0.559 -1,1.012 l 0,-1.149 -1.265,0 0,10.641 1.265,0 0,-4.144 z"
         style="fill:#000000;fill-opacity:1;fill-rule:nonzero;stroke:none"
         id="path350"
         inkscape:connector-curvature="0" /><path
         d="m 321.094,247.582 c -1.016,0 -1.719,-0.117 -2.114,-0.352 -0.39,-0.23 -0.585,-0.625 -0.585,-1.187 0,-0.445 0.144,-0.801 0.441,-1.063 0.293,-0.261 0.691,-0.394 1.199,-0.394 0.695,0 1.258,0.25 1.68,0.742 0.422,0.496 0.629,1.152 0.629,1.973 l 0,0.281 -1.25,0 z m 2.508,0.52 0,-4.372 -1.258,0 0,1.165 c -0.285,-0.465 -0.645,-0.809 -1.071,-1.028 -0.429,-0.222 -0.953,-0.332 -1.574,-0.332 -0.785,0 -1.406,0.219 -1.871,0.66 -0.461,0.438 -0.691,1.028 -0.691,1.766 0,0.859 0.285,1.512 0.863,1.949 0.578,0.438 1.438,0.656 2.582,0.656 l 1.762,0 0,0.122 c 0,0.582 -0.188,1.027 -0.571,1.343 -0.378,0.317 -0.914,0.477 -1.601,0.477 -0.438,0 -0.863,-0.055 -1.281,-0.16 -0.414,-0.102 -0.813,-0.262 -1.196,-0.469 l 0,1.16 c 0.461,0.18 0.907,0.313 1.34,0.399 0.434,0.089 0.856,0.136 1.266,0.136 1.109,0 1.933,-0.289 2.48,-0.863 0.547,-0.574 0.821,-1.445 0.821,-2.609"
         style="fill:#000000;fill-opacity:1;fill-rule:nonzero;stroke:none"
         id="path352"
         inkscape:connector-curvature="0" /><path
         d="m 332.559,248.355 0,-4.625 -1.258,0 0,4.582 c 0,0.727 -0.141,1.266 -0.426,1.626 -0.281,0.359 -0.703,0.542 -1.27,0.542 -0.679,0 -1.214,-0.218 -1.609,-0.652 -0.391,-0.43 -0.586,-1.019 -0.586,-1.769 l 0,-4.329 -1.265,0 0,7.657 1.265,0 0,-1.188 c 0.301,0.461 0.656,0.805 1.063,1.031 0.41,0.227 0.879,0.344 1.414,0.344 0.879,0 1.543,-0.273 1.992,-0.816 0.453,-0.547 0.68,-1.348 0.68,-2.403"
         style="fill:#000000;fill-opacity:1;fill-rule:nonzero;stroke:none"
         id="path354"
         inkscape:connector-curvature="0" /><path
         d="m 340.105,250.227 0,4.144 1.258,0 0,-10.641 -1.258,0 0,1.149 c -0.265,-0.453 -0.597,-0.793 -1.003,-1.012 -0.403,-0.222 -0.887,-0.332 -1.454,-0.332 -0.921,0 -1.675,0.367 -2.257,1.106 -0.582,0.738 -0.871,1.711 -0.871,2.914 0,1.203 0.289,2.172 0.871,2.91 0.582,0.738 1.336,1.109 2.257,1.109 0.567,0 1.051,-0.113 1.454,-0.336 0.406,-0.218 0.738,-0.554 1.003,-1.011 m -4.285,-2.672 c 0,-0.926 0.188,-1.653 0.571,-2.176 0.379,-0.527 0.902,-0.793 1.566,-0.793 0.668,0 1.191,0.266 1.57,0.793 0.387,0.523 0.578,1.25 0.578,2.176 0,0.922 -0.191,1.648 -0.578,2.175 -0.379,0.528 -0.902,0.79 -1.57,0.79 -0.664,0 -1.187,-0.262 -1.566,-0.79 -0.383,-0.527 -0.571,-1.253 -0.571,-2.175"
         style="fill:#000000;fill-opacity:1;fill-rule:nonzero;stroke:none"
         id="path356"
         inkscape:connector-curvature="0" /><path
         d="m 225.715,228.082 28,0"
         style="fill:none;stroke:#008000;stroke-width:1.29999995;stroke-linecap:square;stroke-linejoin:round;stroke-miterlimit:4;stroke-dasharray:none;stroke-opacity:1"
         id="path358"
         inkscape:connector-curvature="0" /><path
         d="m 239.715,223.082 5,10 -10,0 5,-10 z"
         style="fill:#008000;fill-opacity:1;fill-rule:nonzero;stroke:#000000;stroke-width:0.5;stroke-linecap:butt;stroke-linejoin:miter;stroke-miterlimit:4;stroke-dasharray:none;stroke-opacity:1"
         id="path360"
         inkscape:connector-curvature="0" /><path
         d="m 266.289,233.391 1.383,0 0,-10.207 -1.383,0 0,10.207 z"
         style="fill:#000000;fill-opacity:1;fill-rule:nonzero;stroke:none"
         id="path362"
         inkscape:connector-curvature="0" /><path
         d="m 276.73,227.805 0,-4.621 -1.257,0 0,4.578 c 0,0.726 -0.141,1.269 -0.426,1.629 -0.281,0.359 -0.707,0.539 -1.27,0.539 -0.679,0 -1.215,-0.219 -1.609,-0.649 -0.391,-0.433 -0.586,-1.023 -0.586,-1.769 l 0,-4.328 -1.266,0 0,7.656 1.266,0 0,-1.192 c 0.301,0.461 0.656,0.805 1.063,1.036 0.406,0.226 0.878,0.339 1.41,0.339 0.883,0 1.547,-0.273 1.996,-0.816 0.453,-0.543 0.679,-1.344 0.679,-2.402"
         style="fill:#000000;fill-opacity:1;fill-rule:nonzero;stroke:none"
         id="path364"
         inkscape:connector-curvature="0" /><path
         d="m 280.48,233.012 0,-2.172 2.59,0 0,-0.977 -2.59,0 0,-4.156 c 0,-0.625 0.086,-1.027 0.258,-1.203 0.172,-0.18 0.52,-0.27 1.043,-0.27 l 1.289,0 0,-1.05 -1.289,0 c -0.972,0 -1.64,0.179 -2.011,0.543 -0.368,0.363 -0.551,1.023 -0.551,1.98 l 0,4.156 -0.926,0 0,0.977 0.926,0 0,2.172 1.261,0 z"
         style="fill:#000000;fill-opacity:1;fill-rule:nonzero;stroke:none"
         id="path366"
         inkscape:connector-curvature="0" /><path
         d="m 291.277,227.324 0,-0.613 -5.785,0 c 0.055,-0.867 0.317,-1.527 0.781,-1.981 0.469,-0.453 1.118,-0.679 1.954,-0.679 0.484,0 0.949,0.058 1.402,0.179 0.457,0.118 0.906,0.293 1.355,0.532 l 0,-1.188 c -0.453,-0.191 -0.918,-0.34 -1.39,-0.437 -0.473,-0.102 -0.953,-0.153 -1.442,-0.153 -1.222,0 -2.191,0.356 -2.902,1.067 -0.715,0.711 -1.07,1.672 -1.07,2.887 0,1.25 0.34,2.246 1.015,2.98 0.676,0.738 1.59,1.105 2.739,1.105 1.027,0 1.843,-0.332 2.441,-0.996 0.602,-0.66 0.902,-1.562 0.902,-2.703 m -1.257,0.371 c -0.012,0.688 -0.204,1.235 -0.579,1.645 -0.379,0.414 -0.875,0.617 -1.496,0.617 -0.699,0 -1.261,-0.199 -1.683,-0.594 -0.422,-0.398 -0.664,-0.957 -0.727,-1.675 l 4.485,0.007 z"
         style="fill:#000000;fill-opacity:1;fill-rule:nonzero;stroke:none"
         id="path368"
         inkscape:connector-curvature="0" /><path
         d="m 297.777,229.664 c -0.144,0.082 -0.297,0.141 -0.465,0.18 -0.164,0.039 -0.347,0.058 -0.546,0.058 -0.711,0 -1.258,-0.23 -1.641,-0.691 -0.379,-0.465 -0.57,-1.129 -0.57,-1.996 l 0,-4.031 -1.262,0 0,7.656 1.262,0 0,-1.192 c 0.265,0.465 0.609,0.813 1.035,1.036 0.422,0.226 0.937,0.339 1.547,0.339 0.086,0 0.179,-0.007 0.285,-0.019 0.105,-0.008 0.219,-0.027 0.348,-0.047 l 0.007,-1.293 z"
         style="fill:#000000;fill-opacity:1;fill-rule:nonzero;stroke:none"
         id="path370"
         inkscape:connector-curvature="0" /><path
         d="m 302.973,233.82 0,-1.047 -1.203,0 c -0.454,0 -0.766,-0.089 -0.942,-0.273 -0.176,-0.184 -0.262,-0.512 -0.262,-0.984 l 0,-0.676 2.071,0 0,-0.977 -2.071,0 0,-6.679 -1.265,0 0,6.679 -1.203,0 0,0.977 1.203,0 0,0.531 c 0,0.856 0.199,1.473 0.594,1.863 0.398,0.391 1.027,0.586 1.886,0.586 l 1.192,0 z"
         style="fill:#000000;fill-opacity:1;fill-rule:nonzero;stroke:none"
         id="path372"
         inkscape:connector-curvature="0" /><path
         d="m 307.504,227.031 c -1.016,0 -1.719,-0.117 -2.113,-0.347 -0.391,-0.235 -0.586,-0.629 -0.586,-1.192 0,-0.445 0.144,-0.801 0.441,-1.062 0.293,-0.262 0.692,-0.391 1.199,-0.391 0.696,0 1.258,0.246 1.68,0.742 0.422,0.492 0.629,1.149 0.629,1.969 l 0,0.281 -1.25,0 z m 2.508,0.52 0,-4.367 -1.258,0 0,1.16 c -0.285,-0.465 -0.645,-0.805 -1.07,-1.028 -0.43,-0.222 -0.954,-0.332 -1.575,-0.332 -0.785,0 -1.406,0.219 -1.871,0.661 -0.461,0.441 -0.691,1.031 -0.691,1.765 0,0.863 0.285,1.512 0.863,1.949 0.578,0.438 1.438,0.657 2.582,0.657 l 1.762,0 0,0.125 c 0,0.578 -0.188,1.027 -0.57,1.343 -0.379,0.317 -0.914,0.473 -1.602,0.473 -0.437,0 -0.863,-0.051 -1.281,-0.156 -0.414,-0.106 -0.813,-0.262 -1.196,-0.473 l 0,1.164 c 0.461,0.176 0.907,0.309 1.34,0.399 0.434,0.086 0.856,0.132 1.266,0.132 1.109,0 1.934,-0.289 2.48,-0.863 0.547,-0.57 0.821,-1.441 0.821,-2.609"
         style="fill:#000000;fill-opacity:1;fill-rule:nonzero;stroke:none"
         id="path374"
         inkscape:connector-curvature="0" /><path
         d="m 318.113,230.547 0,-1.176 c -0.355,0.195 -0.711,0.344 -1.07,0.441 -0.355,0.098 -0.719,0.145 -1.082,0.145 -0.816,0 -1.449,-0.258 -1.902,-0.777 -0.454,-0.516 -0.676,-1.242 -0.676,-2.176 0,-0.934 0.222,-1.66 0.676,-2.18 0.453,-0.515 1.086,-0.773 1.902,-0.773 0.363,0 0.727,0.051 1.082,0.148 0.359,0.098 0.715,0.242 1.07,0.442 l 0,-1.164 c -0.351,-0.165 -0.715,-0.286 -1.09,-0.368 -0.375,-0.082 -0.777,-0.125 -1.199,-0.125 -1.156,0 -2.07,0.364 -2.75,1.086 -0.679,0.727 -1.019,1.703 -1.019,2.934 0,1.25 0.343,2.23 1.031,2.945 0.684,0.715 1.625,1.074 2.82,1.074 0.387,0 0.766,-0.039 1.133,-0.121 0.371,-0.078 0.727,-0.199 1.074,-0.355"
         style="fill:#000000;fill-opacity:1;fill-rule:nonzero;stroke:none"
         id="path376"
         inkscape:connector-curvature="0" /><path
         d="m 326.852,227.324 0,-0.613 -5.786,0 c 0.055,-0.867 0.317,-1.527 0.782,-1.981 0.468,-0.453 1.117,-0.679 1.953,-0.679 0.484,0 0.949,0.058 1.402,0.179 0.457,0.118 0.906,0.293 1.356,0.532 l 0,-1.188 c -0.454,-0.191 -0.918,-0.34 -1.391,-0.437 -0.473,-0.102 -0.953,-0.153 -1.441,-0.153 -1.223,0 -2.192,0.356 -2.903,1.067 -0.715,0.711 -1.07,1.672 -1.07,2.887 0,1.25 0.34,2.246 1.016,2.98 0.675,0.738 1.589,1.105 2.738,1.105 1.027,0 1.844,-0.332 2.441,-0.996 0.602,-0.66 0.903,-1.562 0.903,-2.703 m -1.258,0.371 c -0.012,0.688 -0.203,1.235 -0.578,1.645 -0.379,0.414 -0.875,0.617 -1.496,0.617 -0.7,0 -1.262,-0.199 -1.684,-0.594 -0.422,-0.398 -0.664,-0.957 -0.727,-1.675 l 4.485,0.007 z"
         style="fill:#000000;fill-opacity:1;fill-rule:nonzero;stroke:none"
         id="path378"
         inkscape:connector-curvature="0" /><path
         d="m 234.715,207.535 10,-5 0,10 -10,-5 z"
         style="fill:#ff0000;fill-opacity:1;fill-rule:nonzero;stroke:#000000;stroke-width:0.5;stroke-linecap:butt;stroke-linejoin:miter;stroke-miterlimit:4;stroke-dasharray:none;stroke-opacity:1"
         id="path380"
         inkscape:connector-curvature="0" /><path
         d="m 272.41,212.504 0,-1.344 c -0.527,0.25 -1.019,0.438 -1.484,0.559 -0.465,0.125 -0.914,0.183 -1.348,0.183 -0.75,0 -1.332,-0.144 -1.738,-0.437 -0.41,-0.289 -0.613,-0.703 -0.613,-1.242 0,-0.453 0.136,-0.793 0.406,-1.024 0.269,-0.23 0.785,-0.414 1.543,-0.554 l 0.832,-0.172 c 1.031,-0.2 1.789,-0.543 2.281,-1.039 0.488,-0.493 0.734,-1.153 0.734,-1.985 0,-0.988 -0.332,-1.738 -0.996,-2.25 -0.66,-0.508 -1.632,-0.765 -2.914,-0.765 -0.48,0 -0.996,0.054 -1.543,0.164 -0.543,0.109 -1.105,0.273 -1.691,0.488 l 0,1.422 c 0.562,-0.317 1.109,-0.551 1.648,-0.711 0.539,-0.16 1.067,-0.238 1.586,-0.238 0.789,0 1.395,0.152 1.825,0.461 0.429,0.312 0.644,0.753 0.644,1.328 0,0.5 -0.156,0.89 -0.461,1.175 -0.309,0.282 -0.812,0.497 -1.516,0.637 l -0.839,0.164 c -1.032,0.203 -1.778,0.524 -2.239,0.961 -0.457,0.438 -0.687,1.047 -0.687,1.828 0,0.903 0.316,1.614 0.953,2.133 0.637,0.52 1.512,0.777 2.629,0.777 0.476,0 0.965,-0.043 1.461,-0.128 0.5,-0.086 1.008,-0.215 1.527,-0.391"
         style="fill:#000000;fill-opacity:1;fill-rule:nonzero;stroke:none"
         id="path382"
         inkscape:connector-curvature="0" /><path
         d="m 278.09,209.41 c -0.676,0 -1.207,-0.265 -1.602,-0.793 -0.39,-0.523 -0.586,-1.246 -0.586,-2.16 0,-0.918 0.192,-1.641 0.582,-2.164 0.391,-0.527 0.926,-0.789 1.606,-0.789 0.668,0 1.199,0.262 1.59,0.789 0.394,0.531 0.59,1.25 0.59,2.164 0,0.906 -0.196,1.625 -0.59,2.156 -0.391,0.532 -0.922,0.797 -1.59,0.797 m 0,1.063 c 1.094,0 1.949,-0.356 2.574,-1.067 0.625,-0.711 0.938,-1.695 0.938,-2.949 0,-1.254 -0.313,-2.238 -0.938,-2.953 -0.625,-0.711 -1.48,-1.07 -2.574,-1.07 -1.102,0 -1.961,0.359 -2.582,1.07 -0.621,0.715 -0.934,1.699 -0.934,2.953 0,1.254 0.313,2.238 0.934,2.949 0.621,0.711 1.48,1.067 2.582,1.067"
         style="fill:#000000;fill-opacity:1;fill-rule:nonzero;stroke:none"
         id="path384"
         inkscape:connector-curvature="0" /><path
         d="m 283.688,213.27 1.258,0 0,-10.637 -1.258,0 0,10.637 z"
         style="fill:#000000;fill-opacity:1;fill-rule:nonzero;stroke:none"
         id="path386"
         inkscape:connector-curvature="0" /><path
         d="m 287.578,210.289 1.258,0 0,-7.656 -1.258,0 0,7.656 z m 0,2.981 1.258,0 0,-1.594 -1.258,0 0,1.594 z"
         style="fill:#000000;fill-opacity:1;fill-rule:nonzero;stroke:none"
         id="path388"
         inkscape:connector-curvature="0" /><path
         d="m 296.504,209.129 0,4.141 1.258,0 0,-10.637 -1.258,0 0,1.148 c -0.262,-0.453 -0.598,-0.793 -1,-1.015 -0.402,-0.219 -0.887,-0.332 -1.453,-0.332 -0.926,0 -1.68,0.371 -2.262,1.109 -0.578,0.738 -0.871,1.711 -0.871,2.914 0,1.203 0.293,2.172 0.871,2.91 0.582,0.738 1.336,1.106 2.262,1.106 0.566,0 1.051,-0.11 1.453,-0.332 0.402,-0.219 0.738,-0.559 1,-1.012 m -4.285,-2.672 c 0,-0.926 0.191,-1.652 0.57,-2.18 0.383,-0.523 0.906,-0.789 1.57,-0.789 0.664,0 1.188,0.266 1.571,0.789 0.382,0.528 0.574,1.254 0.574,2.18 0,0.922 -0.192,1.648 -0.574,2.176 -0.383,0.523 -0.907,0.789 -1.571,0.789 -0.664,0 -1.187,-0.266 -1.57,-0.789 -0.379,-0.528 -0.57,-1.254 -0.57,-2.176"
         style="fill:#000000;fill-opacity:1;fill-rule:nonzero;stroke:none"
         id="path390"
         inkscape:connector-curvature="0" /><path
         d="m 310.301,206.457 c 0,0.922 -0.192,1.648 -0.571,2.176 -0.382,0.523 -0.902,0.789 -1.57,0.789 -0.664,0 -1.187,-0.266 -1.57,-0.789 -0.379,-0.528 -0.57,-1.254 -0.57,-2.176 0,-0.926 0.191,-1.652 0.57,-2.18 0.383,-0.523 0.906,-0.789 1.57,-0.789 0.668,0 1.188,0.266 1.57,0.789 0.379,0.528 0.571,1.254 0.571,2.18 m -4.281,2.672 c 0.265,0.453 0.597,0.793 1.003,1.012 0.403,0.222 0.883,0.332 1.446,0.332 0.929,0 1.683,-0.368 2.265,-1.106 0.582,-0.738 0.871,-1.707 0.871,-2.91 0,-1.203 -0.289,-2.176 -0.871,-2.914 -0.582,-0.738 -1.336,-1.109 -2.265,-1.109 -0.563,0 -1.043,0.113 -1.446,0.332 -0.406,0.222 -0.738,0.562 -1.003,1.015 l 0,-1.148 -1.266,0 0,10.637 1.266,0 0,-4.141 z"
         style="fill:#000000;fill-opacity:1;fill-rule:nonzero;stroke:none"
         id="path392"
         inkscape:connector-curvature="0" /><path
         d="m 317.172,206.48 c -1.02,0 -1.723,-0.113 -2.113,-0.347 -0.395,-0.231 -0.59,-0.629 -0.59,-1.188 0,-0.449 0.148,-0.8 0.441,-1.066 0.297,-0.258 0.695,-0.391 1.199,-0.391 0.7,0 1.258,0.246 1.68,0.742 0.422,0.497 0.633,1.153 0.633,1.973 l 0,0.277 -1.25,0 z m 2.508,0.524 0,-4.371 -1.258,0 0,1.164 c -0.289,-0.465 -0.645,-0.809 -1.074,-1.031 -0.43,-0.219 -0.953,-0.332 -1.575,-0.332 -0.781,0 -1.406,0.222 -1.867,0.66 -0.465,0.441 -0.695,1.031 -0.695,1.769 0,0.86 0.289,1.508 0.863,1.946 0.578,0.437 1.438,0.656 2.582,0.656 l 1.766,0 0,0.125 c 0,0.578 -0.192,1.027 -0.57,1.344 -0.383,0.316 -0.914,0.476 -1.606,0.476 -0.437,0 -0.863,-0.055 -1.277,-0.16 -0.414,-0.105 -0.813,-0.262 -1.196,-0.473 l 0,1.164 c 0.461,0.18 0.907,0.313 1.34,0.399 0.434,0.09 0.852,0.133 1.262,0.133 1.109,0 1.937,-0.285 2.484,-0.86 0.547,-0.574 0.821,-1.445 0.821,-2.609"
         style="fill:#000000;fill-opacity:1;fill-rule:nonzero;stroke:none"
         id="path394"
         inkscape:connector-curvature="0" /><path
         d="m 328.637,207.254 0,-4.621 -1.258,0 0,4.582 c 0,0.723 -0.145,1.265 -0.426,1.625 -0.285,0.359 -0.707,0.539 -1.269,0.539 -0.68,0 -1.219,-0.215 -1.61,-0.649 -0.39,-0.433 -0.59,-1.023 -0.59,-1.769 l 0,-4.328 -1.261,0 0,7.656 1.261,0 0,-1.187 c 0.305,0.46 0.657,0.804 1.063,1.031 0.41,0.226 0.883,0.34 1.414,0.34 0.879,0 1.547,-0.27 1.996,-0.817 0.453,-0.543 0.68,-1.344 0.68,-2.402"
         style="fill:#000000;fill-opacity:1;fill-rule:nonzero;stroke:none"
         id="path396"
         inkscape:connector-curvature="0" /><path
         d="m 336.18,209.129 0,4.141 1.258,0 0,-10.637 -1.258,0 0,1.148 c -0.262,-0.453 -0.598,-0.793 -1,-1.015 -0.403,-0.219 -0.887,-0.332 -1.453,-0.332 -0.926,0 -1.68,0.371 -2.262,1.109 -0.578,0.738 -0.871,1.711 -0.871,2.914 0,1.203 0.293,2.172 0.871,2.91 0.582,0.738 1.336,1.106 2.262,1.106 0.566,0 1.05,-0.11 1.453,-0.332 0.402,-0.219 0.738,-0.559 1,-1.012 m -4.285,-2.672 c 0,-0.926 0.191,-1.652 0.57,-2.18 0.383,-0.523 0.906,-0.789 1.57,-0.789 0.664,0 1.188,0.266 1.57,0.789 0.383,0.528 0.575,1.254 0.575,2.18 0,0.922 -0.192,1.648 -0.575,2.176 -0.382,0.523 -0.906,0.789 -1.57,0.789 -0.664,0 -1.187,-0.266 -1.57,-0.789 -0.379,-0.528 -0.57,-1.254 -0.57,-2.176"
         style="fill:#000000;fill-opacity:1;fill-rule:nonzero;stroke:none"
         id="path398"
         inkscape:connector-curvature="0" /></g><g
       transform="matrix(0,0.35426692,0.35426692,0,-105.45182,19.594331)"
       id="g9232"><g
         style="font-style:normal;font-variant:normal;font-weight:normal;font-stretch:normal;letter-spacing:normal;word-spacing:normal;text-anchor:start;fill:none;fill-opacity:1;fill-rule:evenodd;stroke:#000000;stroke-linecap:butt;stroke-linejoin:miter;stroke-miterlimit:10.43299961;stroke-dasharray:none;stroke-dashoffset:0;stroke-opacity:1"
         word-spacing="normal"
         letter-spacing="normal"
         font-size-adjust="none"
         font-stretch="normal"
         font-weight="normal"
         font-variant="normal"
         font-style="normal"
         stroke-miterlimit="10.433"
         xml:space="preserve"
         transform="matrix(1.0629921,0,0,-1.0629921,-186.02362,789.27165)"
         id="g9234"><path
           style="fill:#000000;stroke-width:0"
           inkscape:connector-curvature="0"
           id="path9236"
           d="m 473.39,425.33 -6.38,1.54 c -3.09,0.75 -5.03,3.44 -5.03,6.33 0,3.48 2.69,6.52 6.57,6.52 8.32,0 9.42,-8.17 9.72,-10.41 0.05,-0.3 0.05,-0.6 0.59,-0.6 0.65,0 0.65,0.25 0.65,1.2 l 0,10.01 c 0,0.85 0,1.2 -0.55,1.2 -0.35,0 -0.39,-0.05 -0.75,-0.65 l -1.74,-2.84 c -1.49,1.44 -3.53,3.49 -7.97,3.49 -5.53,0 -9.71,-4.39 -9.71,-9.67 0,-4.13 2.64,-7.77 6.53,-9.11 0.54,-0.2 3.08,-0.8 6.57,-1.64 1.34,-0.35 2.84,-0.7 4.23,-2.54 1.05,-1.3 1.55,-2.95 1.55,-4.59 0,-3.53 -2.49,-7.12 -6.68,-7.12 -1.44,0 -5.23,0.25 -7.87,2.69 -2.89,2.69 -3.03,5.88 -3.08,7.67 -0.06,0.5 -0.45,0.5 -0.6,0.5 -0.65,0 -0.65,-0.35 -0.65,-1.25 l 0,-9.96 c 0,-0.85 0,-1.2 0.55,-1.2 0.35,0 0.39,0.1 0.75,0.65 0,0.05 0.14,0.2 1.79,2.84 1.54,-1.69 4.73,-3.49 9.16,-3.49 5.83,0 9.82,4.89 9.82,10.37 0,4.98 -3.29,9.06 -7.47,10.06 z" /><path
           style="fill:#000000;stroke-width:0"
           inkscape:connector-curvature="0"
           id="path9238"
           d="m 491.82,428.02 -6.98,-0.55 0,-1.54 c 3.24,0 3.69,-0.31 3.69,-2.75 l 0,-13.39 c 0,-2.25 -0.55,-2.25 -3.89,-2.25 l 0,-1.54 10.66,0 0,1.54 c -3.28,0 -3.48,0.25 -3.48,2.19 z" /><path
           style="fill:#000000;stroke-width:0"
           inkscape:connector-curvature="0"
           id="path9240"
           d="m 492.02,436.68 -0.01,0.15 -0.01,0.15 -0.02,0.14 -0.02,0.13 -0.03,0.14 -0.04,0.13 -0.04,0.13 -0.05,0.12 -0.06,0.12 -0.06,0.11 -0.06,0.11 -0.07,0.11 -0.08,0.1 -0.08,0.1 -0.08,0.09 -0.09,0.09 -0.09,0.09 -0.1,0.07 -0.1,0.08 -0.11,0.07 -0.1,0.06 -0.11,0.06 -0.12,0.06 -0.11,0.05 -0.12,0.04 -0.12,0.04 -0.13,0.03 -0.12,0.03 -0.13,0.02 -0.13,0.01 -0.12,0.01 -0.13,0 c -1.55,0 -2.65,-1.34 -2.65,-2.64 0,-1.34 1.1,-2.64 2.65,-2.64 1.39,0 2.64,1.05 2.64,2.64 z" /><path
           style="fill:#000000;stroke-width:0"
           inkscape:connector-curvature="0"
           id="path9242"
           d="m 516.43,425.98 0.02,0.02 0.02,0.03 0.02,0.02 0.02,0.02 0.01,0.03 0.02,0.02 0.02,0.02 0.01,0.02 0.02,0.02 0.02,0.02 0.01,0.02 0.01,0.02 0.02,0.02 0.01,0.02 0.03,0.03 0.02,0.03 0.02,0.03 0.02,0.03 0.02,0.03 0.01,0.03 0.02,0.02 0.01,0.03 0.01,0.02 0.01,0.02 0.01,0.02 0,0.02 0.01,0.02 0.01,0.02 0,0.02 0.01,0.01 0,0.02 0,0.04 0,0.03 0,0.03 0.01,0.04 c 0,0.65 -0.4,0.65 -1.3,0.65 l -15.94,0 -0.55,-8.02 1.25,0 c 0.3,5.08 1.24,6.93 6.72,6.93 l 5.68,0 -13.9,-18.79 c -0.45,-0.54 -0.45,-0.64 -0.45,-0.89 0,-0.7 0.35,-0.7 1.3,-0.7 l 16.44,0 0.85,9.32 -1.25,0 c -0.45,-5.88 -1.5,-8.07 -7.27,-8.07 l -5.88,0 z" /><path
           style="fill:#000000;stroke-width:0"
           inkscape:connector-curvature="0"
           id="path9244"
           d="m 524.53,417.51 0.05,1.04 c 0.3,7.43 4.48,8.67 6.18,8.67 5.13,0 5.63,-6.72 5.63,-8.67 l -11.81,0 -0.05,-1.04 13.9,0 c 1.09,0 1.24,0 1.24,1.04 0,4.93 -2.69,9.77 -8.91,9.77 -5.78,0 -10.36,-5.14 -10.36,-11.36 0,-6.67 5.22,-11.51 10.95,-11.51 6.08,0 8.32,5.53 8.32,6.48 0,0.5 -0.4,0.6 -0.65,0.6 -0.44,0 -0.54,-0.3 -0.64,-0.7 -1.75,-5.13 -6.23,-5.13 -6.73,-5.13 -2.49,0 -4.48,1.49 -5.63,3.34 -1.49,2.39 -1.49,5.67 -1.49,7.47 z" /><path
           style="fill:#000000;stroke-width:0"
           inkscape:connector-curvature="0"
           id="path9246"
           d="m 562.87,441.47 0.01,0.03 0.01,0.03 0.01,0.03 0.01,0.02 0.01,0.03 0.01,0.03 0.02,0.05 0.02,0.05 0.01,0.05 0.02,0.04 0.01,0.04 0.01,0.04 0.02,0.04 0.01,0.04 0.01,0.03 0,0.03 0.01,0.03 0.01,0.03 0.01,0.03 0,0.02 0.01,0.03 0,0.02 0,0.02 0.01,0.02 0,0.01 0,0.02 0,0.01 0,0.02 0.01,0.01 0,0.01 0,0.01 0,0 0,0.01 0,0.01 0,0 c 0,0.55 -0.45,1 -1,1 -0.35,0 -0.7,-0.15 -0.85,-0.45 l -17.28,-47.47 c -0.25,-0.65 -0.25,-0.85 -0.25,-0.9 0,-0.54 0.45,-0.99 0.99,-0.99 0.65,0 0.8,0.34 1.1,1.19 z" /><path
           style="fill:#000000;stroke-width:0"
           inkscape:connector-curvature="0"
           id="path9248"
           d="m 584.63,436.14 0.04,0.16 0.04,0.16 0.04,0.15 0.04,0.14 0.05,0.14 0.04,0.13 0.05,0.12 0.06,0.12 0.05,0.11 0.07,0.1 0.07,0.1 0.08,0.1 0.09,0.08 0.1,0.08 0.11,0.08 0.12,0.07 0.14,0.06 0.14,0.06 0.16,0.06 0.18,0.05 0.09,0.02 0.1,0.02 0.1,0.03 0.11,0.02 0.11,0.01 0.12,0.02 0.12,0.02 0.12,0.01 0.13,0.02 0.14,0.01 0.14,0.01 0.14,0.01 0.15,0.01 0.16,0.01 0.16,0.01 0.17,0.01 0.17,0.01 0.18,0 0.18,0.01 0.19,0 0.2,0 0.2,0.01 0.21,0 0.22,0 c 1.5,0 1.89,0 1.89,0.95 0,0.59 -0.55,0.59 -0.79,0.59 l -14,0 c -0.35,0 -0.95,0 -0.95,-0.99 0,-0.55 0.45,-0.55 1.4,-0.55 0.1,0 1.04,0 1.89,-0.1 0.9,-0.1 1.35,-0.15 1.35,-0.8 0,-0.2 -0.05,-0.35 -0.2,-0.94 l -6.68,-26.75 c -0.5,-1.95 -0.6,-2.35 -4.53,-2.35 -0.85,0 -1.35,0 -1.35,-0.99 0,-0.55 0.45,-0.55 1.35,-0.55 l 23.06,0 c 1.2,0 1.25,0 1.55,0.85 l 3.93,10.76 c 0.2,0.55 0.2,0.64 0.2,0.69 0,0.2 -0.15,0.55 -0.6,0.55 -0.45,0 -0.5,-0.25 -0.84,-1.05 -1.7,-4.58 -3.89,-10.26 -12.51,-10.26 l -4.68,0 c -0.7,0 -0.8,0 -1.1,0.05 -0.5,0.05 -0.64,0.11 -0.64,0.5 0,0.15 0,0.25 0.25,1.15 z" /></g></g></g></svg>