<?xml version="1.0" encoding="UTF-8" standalone="no"?>
<!-- Created with Inkscape (http://www.inkscape.org/) -->

<svg
   xmlns:dc="http://purl.org/dc/elements/1.1/"
   xmlns:cc="http://creativecommons.org/ns#"
   xmlns:rdf="http://www.w3.org/1999/02/22-rdf-syntax-ns#"
   xmlns:svg="http://www.w3.org/2000/svg"
   xmlns="http://www.w3.org/2000/svg"
   xmlns:sodipodi="http://sodipodi.sourceforge.net/DTD/sodipodi-0.dtd"
   xmlns:inkscape="http://www.inkscape.org/namespaces/inkscape"
   id="svg2"
   version="1.1"
   inkscape:version="0.91 r13725"
   xml:space="preserve"
   width="731.25"
   height="551.25"
   viewBox="0 0 731.25 551.25"
   sodipodi:docname="sb-shearrate-profiles-rampup.svg"><sodipodi:namedview
     pagecolor="#ffffff"
     bordercolor="#666666"
     borderopacity="1"
     objecttolerance="10"
     gridtolerance="10"
     guidetolerance="10"
     inkscape:pageopacity="0"
     inkscape:pageshadow="2"
     inkscape:window-width="1920"
     inkscape:window-height="1176"
     id="namedview4"
     showgrid="false"
     inkscape:zoom="1.13"
     inkscape:cx="417.31482"
     inkscape:cy="275.625"
     inkscape:window-x="0"
     inkscape:window-y="24"
     inkscape:window-maximized="1"
     inkscape:current-layer="g86" /><metadata
     id="metadata8"><rdf:RDF><cc:Work
         rdf:about=""><dc:format>image/svg+xml</dc:format><dc:type
           rdf:resource="http://purl.org/dc/dcmitype/StillImage" /><dc:title></dc:title></cc:Work></rdf:RDF></metadata><defs
     id="defs6"><clipPath
       id="clipPath20"
       clipPathUnits="userSpaceOnUse"><path
         inkscape:connector-curvature="0"
         id="path22"
         d="m 67.652156,64.26 493.833934,0 0,355.68 -493.833934,0 0,-355.68 z" /></clipPath><clipPath
       id="clipPath30"
       clipPathUnits="userSpaceOnUse"><path
         inkscape:connector-curvature="0"
         id="path32"
         d="m 67.652156,64.26 493.833934,0 0,355.68 -493.833934,0 0,-355.68 z" /></clipPath><clipPath
       id="clipPath40"
       clipPathUnits="userSpaceOnUse"><path
         inkscape:connector-curvature="0"
         id="path42"
         d="m 67.652156,64.26 493.833934,0 0,355.68 -493.833934,0 0,-355.68 z" /></clipPath><clipPath
       id="clipPath50"
       clipPathUnits="userSpaceOnUse"><path
         inkscape:connector-curvature="0"
         id="path52"
         d="m 67.652156,64.26 493.833934,0 0,355.68 -493.833934,0 0,-355.68 z" /></clipPath><clipPath
       id="clipPath60"
       clipPathUnits="userSpaceOnUse"><path
         inkscape:connector-curvature="0"
         id="path62"
         d="m 67.652156,64.26 493.833934,0 0,355.68 -493.833934,0 0,-355.68 z" /></clipPath><clipPath
       id="clipPath70"
       clipPathUnits="userSpaceOnUse"><path
         inkscape:connector-curvature="0"
         id="path72"
         d="m 67.652156,64.26 493.833934,0 0,355.68 -493.833934,0 0,-355.68 z" /></clipPath><clipPath
       id="clipPath80"
       clipPathUnits="userSpaceOnUse"><path
         inkscape:connector-curvature="0"
         id="path82"
         d="m 67.652156,64.26 493.833934,0 0,355.68 -493.833934,0 0,-355.68 z" /></clipPath><clipPath
       id="clipPath158"
       clipPathUnits="userSpaceOnUse"><path
         inkscape:connector-curvature="0"
         id="path160"
         d="m -184,-236 1472,0 0,1165 -1472,0 0,-1165 z" /></clipPath></defs><g
     transform="matrix(1.25,0,0,-1.25,0,551.25)"
     inkscape:label="sb-shearrate-profiles-rampup"
     inkscape:groupmode="layer"
     id="g10"><path
       inkscape:connector-curvature="0"
       id="path12"
       style="fill:#ffffff;fill-opacity:1;fill-rule:nonzero;stroke:none"
       d="M 0,0 585,0 585,441 0,441 0,0 Z" /><path
       inkscape:connector-curvature="0"
       id="path14"
       style="fill:#ffffff;fill-opacity:1;fill-rule:nonzero;stroke:none"
       d="m 67.652156,64.26 493.833934,0 0,355.68 -493.833934,0 0,-355.68 z" /><g
       id="g16"><g
         clip-path="url(#clipPath20)"
         id="g18"><path
           inkscape:connector-curvature="0"
           id="path24"
           style="fill:none;stroke:#0000ff;stroke-width:1.79999995;stroke-linecap:square;stroke-linejoin:round;stroke-miterlimit:10;stroke-dasharray:none;stroke-opacity:1"
           d="m 70.121326,108.81411 4.938339,0.007 4.93834,0.12639 4.938339,-0.0858 4.938339,-0.39029 4.93834,0.0801 4.938339,0.12852 4.938338,0.0827 4.93834,0.19244 4.93834,-0.0681 4.93834,2.4e-4 4.93834,-0.009 4.93834,-0.1244 4.93834,0.0448 4.93834,-0.0504 4.93834,0.009 4.93834,0.16093 4.93834,0.006 4.93833,0.18292 4.93834,0.21317 4.93834,-0.18258 4.93834,-0.27417 4.93834,0.12471 4.93834,0.24719 4.93834,0.13361 4.93834,0.21338 4.93834,0.40952 4.93834,0.70874 4.93834,0.53486 4.93834,0.26361 4.93834,0.54465 4.93834,1.19868 4.93834,1.8754 4.93834,2.43273 4.93833,2.9069 4.93834,4.37837 4.93834,5.02202 4.93834,7.13543 4.93834,11.71519 4.93834,15.71181 4.93834,19.59526 4.93834,21.91562 4.93834,25.98569 4.93834,27.09803 4.93834,27.64083 4.93834,29.6352 4.93834,26.76209 4.93834,19.40015 4.93834,10.332 4.93834,10.21271 4.93833,5.57773 4.93834,-9.34189 4.93834,-10.8208 4.93834,-9.05973 4.93834,-17.60026 4.93834,-24.95926 4.93834,-24.84659 4.93834,-25.30808 4.93834,-27.97377 4.93834,-27.41025 4.93834,-23.20164 4.93834,-18.07743 4.93834,-16.34211 4.93834,-14.44125 4.93834,-8.58871 4.93834,-4.35168 4.93833,-4.63857 4.93834,-3.96266 4.93834,-2.52903 4.93834,-2.05494 4.93834,-1.47917 4.93834,-0.16001 4.93834,-0.23536 4.93834,-0.4985 4.93834,-0.73737 4.93834,-0.9223 4.93834,-0.11646 4.93834,0.0857 4.93834,-0.21521 4.93834,0.14551 4.93834,0.49211 4.93834,-0.2554 4.93833,-0.45272 4.93834,-0.0218 4.93834,-0.19982 4.93834,0.17197 4.93834,0.54166 4.93834,-0.0309 4.93834,-0.33836 4.93834,-0.0661 4.93834,0.0644 4.93834,-0.20986 4.93834,0.21085 4.93834,0.26272 4.93834,-0.40139 4.93834,-0.39311 4.93834,0.42378 4.93834,0.2194 4.93833,-0.13422 4.93834,0.16745" /></g></g><g
       id="g26"><g
         clip-path="url(#clipPath30)"
         id="g28"><path
           inkscape:connector-curvature="0"
           id="path34"
           style="fill:none;stroke:#008000;stroke-width:1.79999995;stroke-linecap:square;stroke-linejoin:round;stroke-miterlimit:10;stroke-dasharray:none;stroke-opacity:1"
           d="m 70.121326,109.25428 4.938339,0.0943 4.93834,-0.45274 4.938339,-0.16559 4.938339,0.44389 4.93834,-0.098 4.938339,-0.22788 4.938338,-0.0872 4.93834,0.0386 4.93834,0.0722 4.93834,0.0645 4.93834,0.0821 4.93834,-0.50983 4.93834,-0.47887 4.93834,0.35506 4.93834,0.79905 4.93834,0.34695 4.93834,-0.37283 4.93833,0.12364 4.93834,0.5887 4.93834,0.0624 4.93834,-0.25263 4.93834,-0.16722 4.93834,0.23745 4.93834,0.57409 4.93834,0.73643 4.93834,1.01494 4.93834,1.17845 4.93834,1.38408 4.93834,1.90701 4.93834,2.86143 4.93834,3.26367 4.93834,3.91242 4.93834,6.6663 4.93833,9.66102 4.93834,13.23531 4.93834,16.47325 4.93834,15.52344 4.93834,14.57069 4.93834,15.30745 4.93834,13.30365 4.93834,11.02691 4.93834,8.977 4.93834,6.88162 4.93834,4.95278 4.93834,4.18684 4.93834,2.60799 4.93834,2.61069 4.93834,4.11417 4.93834,3.96821 4.93833,2.51954 4.93834,-2.42342 4.93834,-2.05557 4.93834,-0.36267 4.93834,-3.40203 4.93834,-1.60782 4.93834,0.0115 4.93834,-5.09149 4.93834,-8.42425 4.93834,-5.4007 4.93834,-4.4433 4.93834,-12.69649 4.93834,-16.84408 4.93834,-17.87957 4.93834,-17.37232 4.93834,-16.16787 4.93833,-17.59731 4.93834,-14.24205 4.93834,-8.72374 4.93834,-5.53902 4.93834,-4.35974 4.93834,-3.01568 4.93834,-2.15845 4.93834,-2.63418 4.93834,-1.76233 4.93834,0.6431 4.93834,0.22446 4.93834,0.10624 4.93834,-0.58134 4.93834,0.55903 4.93834,1.41446 4.93834,-1.21625 4.93833,-0.48781 4.93834,-0.41797 4.93834,-0.0146 4.93834,0.48339 4.93834,-0.64092 4.93834,-0.15264 4.93834,-0.0447 4.93834,-0.0265 4.93834,0.0619 4.93834,-0.12043 4.93834,-0.86308 4.93834,-0.99574 4.93834,0.27861 4.93834,1.30577 4.93834,0.2726 4.93834,-0.32376 4.93833,0.75966 4.93834,0.5576" /></g></g><g
       id="g36"><g
         clip-path="url(#clipPath40)"
         id="g38"><path
           inkscape:connector-curvature="0"
           id="path44"
           style="fill:none;stroke:#ff0000;stroke-width:1.79999995;stroke-linecap:square;stroke-linejoin:round;stroke-miterlimit:10;stroke-dasharray:none;stroke-opacity:1"
           d="m 70.121326,108.84155 4.938339,0.004 4.93834,-0.001 4.938339,-0.0735 4.938339,-0.0314 4.93834,0.30439 4.938339,0.54084 4.938338,0.28892 4.93834,-1.0607 4.93834,-1.02566 4.93834,0.43801 4.93834,0.40496 4.93834,0.13702 4.93834,0.28824 4.93834,0.17645 4.93834,-0.005 4.93834,0.11176 4.93834,0.14376 4.93833,0.35101 4.93834,0.58549 4.93834,0.56628 4.93834,0.60677 4.93834,0.66223 4.93834,1.15139 4.93834,2.27197 4.93834,4.21112 4.93834,7.2713 4.93834,4.49344 4.93834,1.05544 4.93834,6.04562 4.93834,11.38981 4.93834,13.43695 4.93834,12.56516 4.93834,10.58034 4.93833,7.60428 4.93834,4.58015 4.93834,7.39269 4.93834,7.50082 4.93834,3.039 4.93834,1.80702 4.93834,2.76264 4.93834,1.93383 4.93834,2.04098 4.93834,2.43137 4.93834,-0.8109 4.93834,1.28375 4.93834,2.83835 4.93834,0.60149 4.93834,-0.0326 4.93834,-2.45789 4.93833,-2.99221 4.93834,-0.1671 4.93834,-0.76168 4.93834,0.17528 4.93834,0.87681 4.93834,-1.70634 4.93834,-1.36883 4.93834,-0.1764 4.93834,0.40731 4.93834,-0.97468 4.93834,-2.66649 4.93834,-3.27085 4.93834,-0.61267 4.93834,2.25983 4.93834,-3.76373 4.93834,-7.83809 4.93833,-8.47059 4.93834,-13.3957 4.93834,-9.7213 4.93834,-3.78826 4.93834,-9.31848 4.93834,-13.75821 4.93834,-10.73918 4.93834,-8.47484 4.93834,-6.07834 4.93834,-3.98903 4.93834,-3.36944 4.93834,-2.20645 4.93834,-1.46678 4.93834,-0.98602 4.93834,-0.56392 4.93834,-0.29298 4.93833,-0.30392 4.93834,-0.21842 4.93834,-0.17248 4.93834,-0.64264 4.93834,-1.25893 4.93834,-1.14667 4.93834,1.53154 4.93834,2.62412 4.93834,0.53728 4.93834,-0.93632 4.93834,-0.80422 4.93834,-0.22291 4.93834,-0.19514 4.93834,0.0314 4.93834,-0.0396 4.93834,-0.0504 4.93833,0.006 4.93834,-4.7e-4" /></g></g><g
       id="g46"><g
         clip-path="url(#clipPath50)"
         id="g48"><path
           inkscape:connector-curvature="0"
           id="path54"
           style="fill:none;stroke:#00bfbf;stroke-width:1.79999995;stroke-linecap:square;stroke-linejoin:round;stroke-miterlimit:10;stroke-dasharray:none;stroke-opacity:1"
           d="m 70.121326,109.29542 4.938339,-0.0771 4.93834,-0.0814 4.938339,0.0275 4.938339,0.17982 4.93834,0.18833 4.938339,0.36657 4.938338,0.18259 4.93834,-0.87441 4.93834,-0.43052 4.93834,0.62173 4.93834,0.31346 4.93834,0.13064 4.93834,0.45146 4.93834,0.44382 4.93834,0.42736 4.93834,0.73631 4.93834,0.6247 4.93833,1.32854 4.93834,1.89612 4.93834,2.31077 4.93834,3.5452 4.93834,3.73607 4.93834,4.51488 4.93834,6.82283 4.93834,8.17143 4.93834,10.75913 4.93834,10.08008 4.93834,3.76012 4.93834,3.46782 4.93834,8.48785 4.93834,7.57996 4.93834,4.84938 4.93834,1.52426 4.93833,-0.0491 4.93834,1.52194 4.93834,0.43811 4.93834,-0.0241 4.93834,0.99886 4.93834,1.35631 4.93834,-0.75834 4.93834,-2.65877 4.93834,-1.59147 4.93834,1.10937 4.93834,0.83876 4.93834,0.28076 4.93834,1.19594 4.93834,0.006 4.93834,-0.0993 4.93834,-0.16945 4.93833,-2.25392 4.93834,0.33846 4.93834,1.62821 4.93834,0.0133 4.93834,0.60481 4.93834,1.56276 4.93834,1.24741 4.93834,-1.05618 4.93834,0.009 4.93834,0.66315 4.93834,0.18154 4.93834,-0.47854 4.93834,-0.6887 4.93834,0.22816 4.93834,0.29957 4.93834,-1.35939 4.93833,-1.59997 4.93834,-2.32687 4.93834,-1.29553 4.93834,2.44255 4.93834,-2.76503 4.93834,-6.52872 4.93834,-7.53383 4.93834,-9.5005 4.93834,-10.14724 4.93834,-9.59055 4.93834,-8.42523 4.93834,-7.49694 4.93834,-5.54944 4.93834,-4.99782 4.93834,-3.99474 4.93834,-2.72069 4.93833,-1.77008 4.93834,-1.18193 4.93834,-1.35005 4.93834,-1.23427 4.93834,-1.17958 4.93834,-1.23844 4.93834,0.72072 4.93834,2.40041 4.93834,0.29041 4.93834,-1.481 4.93834,-0.9657 4.93834,-0.38208 4.93834,-0.16189 4.93834,-0.0692 4.93834,0.15888 4.93834,-0.1245 4.93833,-0.0507 4.93834,0.16916" /></g></g><g
       id="g56"><g
         clip-path="url(#clipPath60)"
         id="g58"><path
           inkscape:connector-curvature="0"
           id="path64"
           style="fill:none;stroke:#bf00bf;stroke-width:1.79999995;stroke-linecap:square;stroke-linejoin:round;stroke-miterlimit:10;stroke-dasharray:none;stroke-opacity:1"
           d="m 70.121326,111.28087 4.938339,0.0758 4.93834,0.0703 4.938339,0.0613 4.938339,0.20074 4.93834,0.41278 4.938339,0.76269 4.938338,0.73025 4.93834,0.51582 4.93834,1.43329 4.93834,2.19132 4.93834,2.14787 4.93834,2.32749 4.93834,3.18894 4.93834,4.51721 4.93834,3.8311 4.93834,2.7806 4.93834,3.83065 4.93833,4.70445 4.93834,4.24529 4.93834,3.09198 4.93834,2.94212 4.93834,3.57507 4.93834,3.17167 4.93834,1.64675 4.93834,0.82206 4.93834,0.57994 4.93834,0.23499 4.93834,0.25008 4.93834,0.67166 4.93834,1.3216 4.93834,1.52103 4.93834,2.06459 4.93834,0.0407 4.93833,0.31655 4.93834,1.26698 4.93834,0.52859 4.93834,0.95395 4.93834,-1.06804 4.93834,-0.58339 4.93834,0.6248 4.93834,1.2148 4.93834,1.58033 4.93834,0.40577 4.93834,0.49531 4.93834,0.27415 4.93834,0.74529 4.93834,0.82091 4.93834,-0.006 4.93834,-0.0653 4.93833,-0.3101 4.93834,0.42324 4.93834,0.43851 4.93834,-0.63176 4.93834,-0.73861 4.93834,-1.1458 4.93834,-0.0415 4.93834,0.39311 4.93834,0.70894 4.93834,1.8522 4.93834,0.48574 4.93834,1.0625 4.93834,-0.1 4.93834,-1.48698 4.93834,-2.12916 4.93834,-0.22687 4.93833,2.07954 4.93834,0.83616 4.93834,-0.002 4.93834,-1.98314 4.93834,-2.28588 4.93834,-0.60842 4.93834,-0.61423 4.93834,-0.78489 4.93834,-1.16874 4.93834,-2.05957 4.93834,-1.77357 4.93834,-1.49511 4.93834,-2.0341 4.93834,-3.66188 4.93834,-5.74526 4.93834,-6.03511 4.93833,-5.86875 4.93834,-5.59554 4.93834,-4.43474 4.93834,-3.46806 4.93834,-2.7339 4.93834,-2.84898 4.93834,-2.79944 4.93834,-2.17576 4.93834,-2.58553 4.93834,-1.86414 4.93834,-0.54627 4.93834,-0.70698 4.93834,-0.55819 4.93834,-0.97529 4.93834,-0.81662 4.93834,-0.47664 4.93833,-0.36167 4.93834,-0.10296" /></g></g><g
       id="g66"><g
         clip-path="url(#clipPath70)"
         id="g68"><path
           inkscape:connector-curvature="0"
           id="path74"
           style="fill:none;stroke:#bfbf00;stroke-width:1.79999995;stroke-linecap:square;stroke-linejoin:round;stroke-miterlimit:10;stroke-dasharray:none;stroke-opacity:1"
           d="m 70.121326,125.4995 4.938339,0.35722 4.93834,-0.14325 4.938339,-0.61164 4.938339,-0.078 4.93834,0.19707 4.938339,0.19718 4.938338,0.83421 4.93834,0.97977 4.93834,0.93242 4.93834,1.68339 4.93834,1.59431 4.93834,1.32614 4.93834,1.9373 4.93834,1.81011 4.93834,0.9719 4.93834,1.26556 4.93834,1.54437 4.93833,1.34361 4.93834,1.45706 4.93834,1.42349 4.93834,1.63195 4.93834,2.16385 4.93834,3.18929 4.93834,4.15225 4.93834,2.75875 4.93834,0.92965 4.93834,0.48406 4.93834,-0.19548 4.93834,0.31087 4.93834,1.18861 4.93834,1.25374 4.93834,1.22296 4.93834,0.29643 4.93833,0.16912 4.93834,1.29261 4.93834,1.90613 4.93834,1.913 4.93834,1.1304 4.93834,1.54301 4.93834,1.21264 4.93834,-0.69962 4.93834,0.15089 4.93834,1.57222 4.93834,1.67705 4.93834,0.216 4.93834,-0.32542 4.93834,0.19793 4.93834,0.12587 4.93834,1.36512 4.93833,1.11195 4.93834,-1.73567 4.93834,-1.37189 4.93834,-0.39114 4.93834,0.36435 4.93834,0.25204 4.93834,-1.53583 4.93834,-1.45048 4.93834,0.8703 4.93834,1.91099 4.93834,-0.0341 4.93834,-1.23273 4.93834,-1.91163 4.93834,-0.75637 4.93834,-0.34458 4.93834,-1.28421 4.93833,-0.94543 4.93834,-1.61344 4.93834,-2.4473 4.93834,-1.25319 4.93834,-1.57125 4.93834,-1.83153 4.93834,-0.20064 4.93834,0.18674 4.93834,-1.26399 4.93834,-1.65681 4.93834,-1.54092 4.93834,-2.51942 4.93834,-2.53926 4.93834,-2.00171 4.93834,-1.09447 4.93834,-0.61069 4.93833,-1.33419 4.93834,-1.42203 4.93834,-1.16022 4.93834,-1.36174 4.93834,-1.2784 4.93834,-0.86826 4.93834,-0.64124 4.93834,-0.80256 4.93834,-2.66153 4.93834,-2.53158 4.93834,-0.46542 4.93834,-1.1095 4.93834,-1.17599 4.93834,-0.96969 4.93834,-0.88536 4.93834,-1.00943 4.93833,-0.99334 4.93834,-0.21096" /></g></g><g
       id="g76"><g
         clip-path="url(#clipPath80)"
         id="g78"><path
           inkscape:connector-curvature="0"
           id="path84"
           style="fill:none;stroke:#000000;stroke-width:1.79999995;stroke-linecap:square;stroke-linejoin:round;stroke-miterlimit:10;stroke-dasharray:none;stroke-opacity:1"
           d="m 70.121326,145.75611 4.938339,-0.81908 4.93834,-0.0582 4.938339,0.0382 4.938339,-0.11332 4.93834,0.83294 4.938339,-0.15385 4.938338,0.23496 4.93834,0.64398 4.93834,-0.14554 4.93834,-0.50141 4.93834,0.37725 4.93834,0.35081 4.93834,0.2773 4.93834,0.68191 4.93834,0.91419 4.93834,0.83828 4.93834,0.51301 4.93833,0.83694 4.93834,-0.56631 4.93834,-0.34476 4.93834,0.70063 4.93834,-0.52398 4.93834,0.69197 4.93834,1.77323 4.93834,1.31367 4.93834,0.96866 4.93834,-0.61049 4.93834,0.0855 4.93834,1.99767 4.93834,0.99457 4.93834,-0.71268 4.93834,0.39087 4.93834,0.98251 4.93833,0.33657 4.93834,0.54418 4.93834,0.93885 4.93834,-0.095 4.93834,-0.1957 4.93834,0.21425 4.93834,-0.22295 4.93834,0.84975 4.93834,0.65964 4.93834,-0.24001 4.93834,0.0687 4.93834,0.56136 4.93834,0.0506 4.93834,0.0382 4.93834,0.88308 4.93834,0.40836 4.93833,-0.24719 4.93834,-0.59493 4.93834,-0.21402 4.93834,0.20237 4.93834,-0.44708 4.93834,0.0214 4.93834,0.76295 4.93834,-0.6921 4.93834,-1.54324 4.93834,-0.40718 4.93834,0.67812 4.93834,-0.0917 4.93834,-0.94673 4.93834,-0.71107 4.93834,-0.79537 4.93834,-0.13529 4.93833,-0.31119 4.93834,-1.091 4.93834,-0.39835 4.93834,0.41798 4.93834,-0.12806 4.93834,-0.71096 4.93834,-0.83963 4.93834,-0.76941 4.93834,-0.34408 4.93834,0.40596 4.93834,-0.22621 4.93834,-1.10686 4.93834,-0.35894 4.93834,-0.31634 4.93834,-0.58801 4.93834,-0.44482 4.93833,0.1145 4.93834,-0.26113 4.93834,-0.39023 4.93834,-1.01711 4.93834,-0.64834 4.93834,0.21763 4.93834,-0.23905 4.93834,-0.22304 4.93834,-0.64411 4.93834,-0.89649 4.93834,-0.49445 4.93834,-0.0582 4.93834,-0.59736 4.93834,-0.65608 4.93834,-0.20589 4.93834,0.0347 4.93833,-0.0682 4.93834,-0.1497" /></g></g><g
       id="g86"><path
         inkscape:connector-curvature="0"
         id="path88"
         style="fill:#000000;fill-opacity:1;fill-rule:nonzero;stroke:#000000;stroke-width:0.5;stroke-linecap:butt;stroke-linejoin:round;stroke-miterlimit:10;stroke-dasharray:none;stroke-opacity:1"
         d="m 67.652156,64.26 0,4" /><path
         inkscape:connector-curvature="0"
         id="path90"
         style="fill:#000000;fill-opacity:1;fill-rule:nonzero;stroke:#000000;stroke-width:0.5;stroke-linecap:butt;stroke-linejoin:round;stroke-miterlimit:10;stroke-dasharray:none;stroke-opacity:1"
         d="m 67.652156,419.94 0,-4" /><text
         id="text92"
         style="font-variant:normal;font-weight:normal;font-size:15px;font-family:'Bitstream Vera Sans';-inkscape-font-specification:BitstreamVeraSans-Roman;writing-mode:lr-tb;fill:#000000;fill-opacity:1;fill-rule:nonzero;stroke:none"
         transform="matrix(1,0,0,-1,56.714656,48.869375)"><tspan
           id="tspan94"
           sodipodi:role="line"
           y="0"
           x="0 9.54 14.31">0.0</tspan></text>
<path
         inkscape:connector-curvature="0"
         id="path96"
         style="fill:#000000;fill-opacity:1;fill-rule:nonzero;stroke:#000000;stroke-width:0.5;stroke-linecap:butt;stroke-linejoin:round;stroke-miterlimit:10;stroke-dasharray:none;stroke-opacity:1"
         d="m 166.41894,64.26 0,4" /><path
         inkscape:connector-curvature="0"
         id="path98"
         style="fill:#000000;fill-opacity:1;fill-rule:nonzero;stroke:#000000;stroke-width:0.5;stroke-linecap:butt;stroke-linejoin:round;stroke-miterlimit:10;stroke-dasharray:none;stroke-opacity:1"
         d="m 166.41894,419.94 0,-4" /><text
         id="text100"
         style="font-variant:normal;font-weight:normal;font-size:15px;font-family:'Bitstream Vera Sans';-inkscape-font-specification:BitstreamVeraSans-Roman;writing-mode:lr-tb;fill:#000000;fill-opacity:1;fill-rule:nonzero;stroke:none"
         transform="matrix(1,0,0,-1,155.73144,48.869375)"><tspan
           id="tspan102"
           sodipodi:role="line"
           y="0"
           x="0 9.54 14.31">0.2</tspan></text>
<path
         inkscape:connector-curvature="0"
         id="path104"
         style="fill:#000000;fill-opacity:1;fill-rule:nonzero;stroke:#000000;stroke-width:0.5;stroke-linecap:butt;stroke-linejoin:round;stroke-miterlimit:10;stroke-dasharray:none;stroke-opacity:1"
         d="m 265.18573,64.26 0,4" /><path
         inkscape:connector-curvature="0"
         id="path106"
         style="fill:#000000;fill-opacity:1;fill-rule:nonzero;stroke:#000000;stroke-width:0.5;stroke-linecap:butt;stroke-linejoin:round;stroke-miterlimit:10;stroke-dasharray:none;stroke-opacity:1"
         d="m 265.18573,419.94 0,-4" /><text
         id="text108"
         style="font-variant:normal;font-weight:normal;font-size:15px;font-family:'Bitstream Vera Sans';-inkscape-font-specification:BitstreamVeraSans-Roman;writing-mode:lr-tb;fill:#000000;fill-opacity:1;fill-rule:nonzero;stroke:none"
         transform="matrix(1,0,0,-1,254.17011,48.869375)"><tspan
           id="tspan110"
           sodipodi:role="line"
           y="0"
           x="0 9.54 14.31">0.4</tspan></text>
<path
         inkscape:connector-curvature="0"
         id="path112"
         style="fill:#000000;fill-opacity:1;fill-rule:nonzero;stroke:#000000;stroke-width:0.5;stroke-linecap:butt;stroke-linejoin:round;stroke-miterlimit:10;stroke-dasharray:none;stroke-opacity:1"
         d="m 363.95252,64.26 0,4" /><path
         inkscape:connector-curvature="0"
         id="path114"
         style="fill:#000000;fill-opacity:1;fill-rule:nonzero;stroke:#000000;stroke-width:0.5;stroke-linecap:butt;stroke-linejoin:round;stroke-miterlimit:10;stroke-dasharray:none;stroke-opacity:1"
         d="m 363.95252,419.94 0,-4" /><text
         id="text116"
         style="font-variant:normal;font-weight:normal;font-size:15px;font-family:'Bitstream Vera Sans';-inkscape-font-specification:BitstreamVeraSans-Roman;writing-mode:lr-tb;fill:#000000;fill-opacity:1;fill-rule:nonzero;stroke:none"
         transform="matrix(1,0,0,-1,352.99158,48.869375)"><tspan
           id="tspan118"
           sodipodi:role="line"
           y="0"
           x="0 9.54 14.31">0.6</tspan></text>
<path
         inkscape:connector-curvature="0"
         id="path120"
         style="fill:#000000;fill-opacity:1;fill-rule:nonzero;stroke:#000000;stroke-width:0.5;stroke-linecap:butt;stroke-linejoin:round;stroke-miterlimit:10;stroke-dasharray:none;stroke-opacity:1"
         d="m 462.71931,64.26 0,4" /><path
         inkscape:connector-curvature="0"
         id="path122"
         style="fill:#000000;fill-opacity:1;fill-rule:nonzero;stroke:#000000;stroke-width:0.5;stroke-linecap:butt;stroke-linejoin:round;stroke-miterlimit:10;stroke-dasharray:none;stroke-opacity:1"
         d="m 462.71931,419.94 0,-4" /><text
         id="text124"
         style="font-variant:normal;font-weight:normal;font-size:15px;font-family:'Bitstream Vera Sans';-inkscape-font-specification:BitstreamVeraSans-Roman;writing-mode:lr-tb;fill:#000000;fill-opacity:1;fill-rule:nonzero;stroke:none"
         transform="matrix(1,0,0,-1,451.79743,48.869375)"><tspan
           id="tspan126"
           sodipodi:role="line"
           y="0"
           x="0 9.54 14.31">0.8</tspan></text>
<path
         inkscape:connector-curvature="0"
         id="path128"
         style="fill:#000000;fill-opacity:1;fill-rule:nonzero;stroke:#000000;stroke-width:0.5;stroke-linecap:butt;stroke-linejoin:round;stroke-miterlimit:10;stroke-dasharray:none;stroke-opacity:1"
         d="m 561.48609,64.26 0,4" /><path
         inkscape:connector-curvature="0"
         id="path130"
         style="fill:#000000;fill-opacity:1;fill-rule:nonzero;stroke:#000000;stroke-width:0.5;stroke-linecap:butt;stroke-linejoin:round;stroke-miterlimit:10;stroke-dasharray:none;stroke-opacity:1"
         d="m 561.48609,419.94 0,-4" /><text
         id="text132"
         style="font-variant:normal;font-weight:normal;font-size:15px;font-family:'Bitstream Vera Sans';-inkscape-font-specification:BitstreamVeraSans-Roman;writing-mode:lr-tb;fill:#000000;fill-opacity:1;fill-rule:nonzero;stroke:none"
         transform="matrix(1,0,0,-1,550.88453,48.869375)"><tspan
           id="tspan134"
           sodipodi:role="line"
           y="0"
           x="0 9.54 14.31">1.0</tspan></text>
<path
         inkscape:connector-curvature="0"
         id="path142"
         style="fill:#000000;fill-opacity:1;fill-rule:nonzero;stroke:#000000;stroke-width:0.5;stroke-linecap:butt;stroke-linejoin:round;stroke-miterlimit:10;stroke-dasharray:none;stroke-opacity:1"
         d="m 67.652156,64.26 4,0" /><path
         inkscape:connector-curvature="0"
         id="path144"
         style="fill:#000000;fill-opacity:1;fill-rule:nonzero;stroke:#000000;stroke-width:0.5;stroke-linecap:butt;stroke-linejoin:round;stroke-miterlimit:10;stroke-dasharray:none;stroke-opacity:1"
         d="m 561.48609,64.26 -4,0" /><g
         transform="translate(44.527156,60.127187)"
         id="g146"><text
           id="text148"
           style="font-variant:normal;font-weight:normal;font-size:15px;font-family:'Bitstream Vera Sans';-inkscape-font-specification:BitstreamVeraSans-Roman;writing-mode:lr-tb;fill:#000000;fill-opacity:1;fill-rule:nonzero;stroke:none"
           transform="matrix(1,0,0,-1,12.568359,0)"><tspan
             id="tspan150"
             y="0"
             x="0">1</tspan></text>
<g
           transform="scale(0.015,0.015)"
           id="g152"><g
             id="g154"><g
               clip-path="url(#clipPath158)"
               id="g156"><path
                 inkscape:connector-curvature="0"
                 id="path162"
                 style="fill:#000000;fill-opacity:1;fill-rule:nonzero;stroke:none"
                 d="m 106,355 626,0 0,-83 -626,0 0,83" /></g></g></g></g><path
         inkscape:connector-curvature="0"
         id="path164"
         style="fill:#000000;fill-opacity:1;fill-rule:nonzero;stroke:#000000;stroke-width:0.5;stroke-linecap:butt;stroke-linejoin:round;stroke-miterlimit:10;stroke-dasharray:none;stroke-opacity:1"
         d="m 67.652156,108.72 4,0" /><path
         inkscape:connector-curvature="0"
         id="path166"
         style="fill:#000000;fill-opacity:1;fill-rule:nonzero;stroke:#000000;stroke-width:0.5;stroke-linecap:butt;stroke-linejoin:round;stroke-miterlimit:10;stroke-dasharray:none;stroke-opacity:1"
         d="m 561.48609,108.72 -4,0" /><text
         id="text168"
         style="font-variant:normal;font-weight:normal;font-size:15px;font-family:'Bitstream Vera Sans';-inkscape-font-specification:BitstreamVeraSans-Roman;writing-mode:lr-tb;fill:#000000;fill-opacity:1;fill-rule:nonzero;stroke:none"
         transform="matrix(1,0,0,-1,56.089656,104.58719)"><tspan
           id="tspan170"
           y="0"
           x="0">0</tspan></text>
<path
         inkscape:connector-curvature="0"
         id="path172"
         style="fill:#000000;fill-opacity:1;fill-rule:nonzero;stroke:#000000;stroke-width:0.5;stroke-linecap:butt;stroke-linejoin:round;stroke-miterlimit:10;stroke-dasharray:none;stroke-opacity:1"
         d="m 67.652156,153.18 4,0" /><path
         inkscape:connector-curvature="0"
         id="path174"
         style="fill:#000000;fill-opacity:1;fill-rule:nonzero;stroke:#000000;stroke-width:0.5;stroke-linecap:butt;stroke-linejoin:round;stroke-miterlimit:10;stroke-dasharray:none;stroke-opacity:1"
         d="m 561.48609,153.18 -4,0" /><text
         id="text176"
         style="font-variant:normal;font-weight:normal;font-size:15px;font-family:'Bitstream Vera Sans';-inkscape-font-specification:BitstreamVeraSans-Roman;writing-mode:lr-tb;fill:#000000;fill-opacity:1;fill-rule:nonzero;stroke:none"
         transform="matrix(1,0,0,-1,57.152156,149.04719)"><tspan
           id="tspan178"
           y="0"
           x="0">1</tspan></text>
<path
         inkscape:connector-curvature="0"
         id="path180"
         style="fill:#000000;fill-opacity:1;fill-rule:nonzero;stroke:#000000;stroke-width:0.5;stroke-linecap:butt;stroke-linejoin:round;stroke-miterlimit:10;stroke-dasharray:none;stroke-opacity:1"
         d="m 67.652156,197.64 4,0" /><path
         inkscape:connector-curvature="0"
         id="path182"
         style="fill:#000000;fill-opacity:1;fill-rule:nonzero;stroke:#000000;stroke-width:0.5;stroke-linecap:butt;stroke-linejoin:round;stroke-miterlimit:10;stroke-dasharray:none;stroke-opacity:1"
         d="m 561.48609,197.64 -4,0" /><text
         id="text184"
         style="font-variant:normal;font-weight:normal;font-size:15px;font-family:'Bitstream Vera Sans';-inkscape-font-specification:BitstreamVeraSans-Roman;writing-mode:lr-tb;fill:#000000;fill-opacity:1;fill-rule:nonzero;stroke:none"
         transform="matrix(1,0,0,-1,56.699031,193.50719)"><tspan
           id="tspan186"
           y="0"
           x="0">2</tspan></text>
<path
         inkscape:connector-curvature="0"
         id="path188"
         style="fill:#000000;fill-opacity:1;fill-rule:nonzero;stroke:#000000;stroke-width:0.5;stroke-linecap:butt;stroke-linejoin:round;stroke-miterlimit:10;stroke-dasharray:none;stroke-opacity:1"
         d="m 67.652156,242.1 4,0" /><path
         inkscape:connector-curvature="0"
         id="path190"
         style="fill:#000000;fill-opacity:1;fill-rule:nonzero;stroke:#000000;stroke-width:0.5;stroke-linecap:butt;stroke-linejoin:round;stroke-miterlimit:10;stroke-dasharray:none;stroke-opacity:1"
         d="m 561.48609,242.1 -4,0" /><text
         id="text192"
         style="font-variant:normal;font-weight:normal;font-size:15px;font-family:'Bitstream Vera Sans';-inkscape-font-specification:BitstreamVeraSans-Roman;writing-mode:lr-tb;fill:#000000;fill-opacity:1;fill-rule:nonzero;stroke:none"
         transform="matrix(1,0,0,-1,56.449031,237.96719)"><tspan
           id="tspan194"
           y="0"
           x="0">3</tspan></text>
<path
         inkscape:connector-curvature="0"
         id="path196"
         style="fill:#000000;fill-opacity:1;fill-rule:nonzero;stroke:#000000;stroke-width:0.5;stroke-linecap:butt;stroke-linejoin:round;stroke-miterlimit:10;stroke-dasharray:none;stroke-opacity:1"
         d="m 67.652156,286.56 4,0" /><path
         inkscape:connector-curvature="0"
         id="path198"
         style="fill:#000000;fill-opacity:1;fill-rule:nonzero;stroke:#000000;stroke-width:0.5;stroke-linecap:butt;stroke-linejoin:round;stroke-miterlimit:10;stroke-dasharray:none;stroke-opacity:1"
         d="m 561.48609,286.56 -4,0" /><text
         id="text200"
         style="font-variant:normal;font-weight:normal;font-size:15px;font-family:'Bitstream Vera Sans';-inkscape-font-specification:BitstreamVeraSans-Roman;writing-mode:lr-tb;fill:#000000;fill-opacity:1;fill-rule:nonzero;stroke:none"
         transform="matrix(1,0,0,-1,55.683406,282.42719)"><tspan
           id="tspan202"
           y="0"
           x="0">4</tspan></text>
<path
         inkscape:connector-curvature="0"
         id="path204"
         style="fill:#000000;fill-opacity:1;fill-rule:nonzero;stroke:#000000;stroke-width:0.5;stroke-linecap:butt;stroke-linejoin:round;stroke-miterlimit:10;stroke-dasharray:none;stroke-opacity:1"
         d="m 67.652156,331.02 4,0" /><path
         inkscape:connector-curvature="0"
         id="path206"
         style="fill:#000000;fill-opacity:1;fill-rule:nonzero;stroke:#000000;stroke-width:0.5;stroke-linecap:butt;stroke-linejoin:round;stroke-miterlimit:10;stroke-dasharray:none;stroke-opacity:1"
         d="m 561.48609,331.02 -4,0" /><text
         id="text208"
         style="font-variant:normal;font-weight:normal;font-size:15px;font-family:'Bitstream Vera Sans';-inkscape-font-specification:BitstreamVeraSans-Roman;writing-mode:lr-tb;fill:#000000;fill-opacity:1;fill-rule:nonzero;stroke:none"
         transform="matrix(1,0,0,-1,56.574031,326.88719)"><tspan
           id="tspan210"
           y="0"
           x="0">5</tspan></text>
<path
         inkscape:connector-curvature="0"
         id="path212"
         style="fill:#000000;fill-opacity:1;fill-rule:nonzero;stroke:#000000;stroke-width:0.5;stroke-linecap:butt;stroke-linejoin:round;stroke-miterlimit:10;stroke-dasharray:none;stroke-opacity:1"
         d="m 67.652156,375.48 4,0" /><path
         inkscape:connector-curvature="0"
         id="path214"
         style="fill:#000000;fill-opacity:1;fill-rule:nonzero;stroke:#000000;stroke-width:0.5;stroke-linecap:butt;stroke-linejoin:round;stroke-miterlimit:10;stroke-dasharray:none;stroke-opacity:1"
         d="m 561.48609,375.48 -4,0" /><text
         id="text216"
         style="font-variant:normal;font-weight:normal;font-size:15px;font-family:'Bitstream Vera Sans';-inkscape-font-specification:BitstreamVeraSans-Roman;writing-mode:lr-tb;fill:#000000;fill-opacity:1;fill-rule:nonzero;stroke:none"
         transform="matrix(1,0,0,-1,56.105281,371.34719)"><tspan
           id="tspan218"
           y="0"
           x="0">6</tspan></text>
<path
         inkscape:connector-curvature="0"
         id="path220"
         style="fill:#000000;fill-opacity:1;fill-rule:nonzero;stroke:#000000;stroke-width:0.5;stroke-linecap:butt;stroke-linejoin:round;stroke-miterlimit:10;stroke-dasharray:none;stroke-opacity:1"
         d="m 67.652156,419.94 4,0" /><path
         inkscape:connector-curvature="0"
         id="path222"
         style="fill:#000000;fill-opacity:1;fill-rule:nonzero;stroke:#000000;stroke-width:0.5;stroke-linecap:butt;stroke-linejoin:round;stroke-miterlimit:10;stroke-dasharray:none;stroke-opacity:1"
         d="m 561.48609,419.94 -4,0" /><text
         id="text224"
         style="font-variant:normal;font-weight:normal;font-size:15px;font-family:'Bitstream Vera Sans';-inkscape-font-specification:BitstreamVeraSans-Roman;writing-mode:lr-tb;fill:#000000;fill-opacity:1;fill-rule:nonzero;stroke:none"
         transform="matrix(1,0,0,-1,56.620906,415.80719)"><tspan
           id="tspan226"
           y="0"
           x="0">7</tspan></text>
<path
         inkscape:connector-curvature="0"
         id="path254"
         style="fill:none;stroke:#000000;stroke-width:1;stroke-linecap:butt;stroke-linejoin:round;stroke-miterlimit:10;stroke-dasharray:none;stroke-opacity:1"
         d="m 67.652156,419.94 493.833934,0" /><path
         inkscape:connector-curvature="0"
         id="path256"
         style="fill:none;stroke:#000000;stroke-width:1;stroke-linecap:butt;stroke-linejoin:round;stroke-miterlimit:10;stroke-dasharray:none;stroke-opacity:1"
         d="m 561.48609,64.26 0,355.68" /><path
         inkscape:connector-curvature="0"
         id="path258"
         style="fill:none;stroke:#000000;stroke-width:1;stroke-linecap:butt;stroke-linejoin:round;stroke-miterlimit:10;stroke-dasharray:none;stroke-opacity:1"
         d="m 67.652156,64.26 493.833934,0" /><path
         inkscape:connector-curvature="0"
         id="path260"
         style="fill:none;stroke:#000000;stroke-width:1;stroke-linecap:butt;stroke-linejoin:round;stroke-miterlimit:10;stroke-dasharray:none;stroke-opacity:1"
         d="m 67.652156,64.26 0,355.68" /><g
         id="g5723"
         transform="matrix(0,0.47909966,0.47909966,0,-259.6595,64.89341)"><g
           word-spacing="normal"
           letter-spacing="normal"
           font-size-adjust="none"
           font-stretch="normal"
           font-weight="normal"
           font-variant="normal"
           font-style="normal"
           stroke-miterlimit="10.433"
           xml:space="preserve"
           transform="matrix(1.0629921,0,0,-1.0629921,-186.02362,1042.8492)"
           id="g5725"
           style="font-style:normal;font-variant:normal;font-weight:normal;font-stretch:normal;letter-spacing:normal;word-spacing:normal;text-anchor:start;fill:none;fill-opacity:1;fill-rule:evenodd;stroke:#000000;stroke-linecap:butt;stroke-linejoin:miter;stroke-miterlimit:10.43299961;stroke-dasharray:none;stroke-dashoffset:0;stroke-opacity:1"><path
             id="path5727"
             d="m 472.56,436.68 0,0.13 -0.01,0.13 -0.02,0.12 -0.02,0.12 -0.03,0.13 -0.03,0.12 -0.04,0.12 -0.05,0.11 -0.05,0.12 -0.06,0.11 -0.06,0.11 -0.07,0.11 -0.07,0.11 -0.08,0.1 -0.08,0.1 -0.09,0.09 -0.09,0.09 -0.09,0.09 -0.1,0.08 -0.1,0.07 -0.11,0.08 -0.11,0.06 -0.12,0.06 -0.11,0.06 -0.12,0.05 -0.13,0.05 -0.12,0.03 -0.13,0.04 -0.13,0.02 -0.14,0.02 -0.14,0.01 -0.13,0 c -1.7,0 -2.7,-1.39 -2.7,-2.64 0,-1.34 1.15,-2.64 2.65,-2.64 1.69,0 2.68,1.4 2.68,2.64 z"
             inkscape:connector-curvature="0"
             style="fill:#000000;stroke-width:0" /><path
             id="path5729"
             d="m 458.04,418.65 0.1,0.27 0.09,0.25 0.11,0.25 0.11,0.24 0.11,0.23 0.11,0.23 0.12,0.22 0.13,0.21 0.13,0.2 0.13,0.19 0.13,0.19 0.14,0.18 0.28,0.35 0.29,0.31 0.3,0.29 0.31,0.27 0.31,0.25 0.32,0.22 0.31,0.2 0.32,0.18 0.32,0.17 0.31,0.14 0.32,0.13 0.3,0.11 0.3,0.1 0.29,0.08 0.28,0.07 0.26,0.06 0.26,0.05 0.24,0.04 0.22,0.03 0.2,0.03 0.19,0.02 0.16,0.01 0.15,0 0.11,0.01 0.1,0 0.06,0 c 7.52,0 8.07,-8.72 8.07,-12.65 0,-3.04 -0.24,-3.89 -0.6,-4.88 -1.09,-3.64 -2.59,-9.42 -2.59,-10.71 0,-0.55 0.25,-0.9 0.65,-0.9 0.65,0 1.05,1.1 1.6,2.99 1.14,4.18 1.64,7.02 1.84,8.57 0.1,0.65 0.2,1.29 0.4,1.94 1.59,4.93 4.78,12.35 6.77,16.29 0.35,0.6 0.95,1.69 0.95,1.89 0,0.5 -0.5,0.5 -0.6,0.5 -0.15,0 -0.45,0 -0.6,-0.35 -2.59,-4.73 -4.58,-9.71 -6.57,-14.74 -0.05,1.54 -0.1,5.33 -2.05,10.16 -1.19,3.04 -3.18,5.48 -6.62,5.48 -6.23,0 -9.71,-7.57 -9.71,-9.12 0,-0.5 0.44,-0.5 0.94,-0.5 z"
             inkscape:connector-curvature="0"
             style="fill:#000000;stroke-width:0" /><path
             id="path5731"
             d="m 505.87,441.47 0.01,0.03 0.01,0.03 0.01,0.03 0.01,0.02 0.01,0.03 0.01,0.03 0.02,0.05 0.02,0.05 0.01,0.05 0.02,0.04 0.01,0.04 0.01,0.04 0.02,0.04 0.01,0.04 0.01,0.03 0,0.03 0.01,0.03 0.01,0.03 0.01,0.03 0,0.02 0.01,0.03 0,0.02 0,0.02 0.01,0.02 0,0.01 0,0.02 0,0.01 0,0.02 0.01,0.01 0,0.01 0,0.01 0,0 0,0.01 0,0.01 0,0 c 0,0.55 -0.45,1 -1,1 -0.35,0 -0.7,-0.15 -0.85,-0.45 l -17.28,-47.47 c -0.25,-0.65 -0.25,-0.85 -0.25,-0.9 0,-0.54 0.45,-0.99 0.99,-0.99 0.65,0 0.8,0.34 1.1,1.19 z"
             inkscape:connector-curvature="0"
             style="fill:#000000;stroke-width:0" /><path
             id="path5733"
             d="m 525.56,436.68 0,0.13 -0.01,0.13 -0.02,0.12 -0.02,0.12 -0.03,0.13 -0.03,0.12 -0.04,0.12 -0.05,0.11 -0.05,0.12 -0.06,0.11 -0.06,0.11 -0.07,0.11 -0.07,0.11 -0.08,0.1 -0.08,0.1 -0.09,0.09 -0.09,0.09 -0.09,0.09 -0.1,0.08 -0.1,0.07 -0.11,0.08 -0.11,0.06 -0.12,0.06 -0.11,0.06 -0.12,0.05 -0.13,0.05 -0.12,0.03 -0.13,0.04 -0.13,0.02 -0.14,0.02 -0.14,0.01 -0.13,0 c -1.7,0 -2.7,-1.39 -2.7,-2.64 0,-1.34 1.15,-2.64 2.65,-2.64 1.69,0 2.68,1.4 2.68,2.64 z"
             inkscape:connector-curvature="0"
             style="fill:#000000;stroke-width:0" /><path
             id="path5735"
             d="m 511.04,418.65 0.1,0.27 0.09,0.25 0.11,0.25 0.11,0.24 0.11,0.23 0.11,0.23 0.12,0.22 0.13,0.21 0.13,0.2 0.13,0.19 0.13,0.19 0.14,0.18 0.28,0.35 0.29,0.31 0.3,0.29 0.31,0.27 0.31,0.25 0.32,0.22 0.31,0.2 0.32,0.18 0.32,0.17 0.31,0.14 0.32,0.13 0.3,0.11 0.3,0.1 0.29,0.08 0.28,0.07 0.26,0.06 0.26,0.05 0.24,0.04 0.22,0.03 0.2,0.03 0.19,0.02 0.16,0.01 0.15,0 0.11,0.01 0.1,0 0.06,0 c 7.52,0 8.07,-8.72 8.07,-12.65 0,-3.04 -0.25,-3.89 -0.6,-4.88 -1.09,-3.64 -2.59,-9.42 -2.59,-10.71 0,-0.55 0.25,-0.9 0.65,-0.9 0.65,0 1.05,1.1 1.6,2.99 1.14,4.18 1.64,7.02 1.84,8.57 0.1,0.65 0.2,1.29 0.4,1.94 1.59,4.93 4.78,12.35 6.77,16.29 0.35,0.6 0.95,1.69 0.95,1.89 0,0.5 -0.5,0.5 -0.6,0.5 -0.15,0 -0.45,0 -0.6,-0.35 -2.59,-4.73 -4.58,-9.71 -6.57,-14.74 -0.05,1.54 -0.1,5.33 -2.05,10.16 -1.19,3.04 -3.18,5.48 -6.62,5.48 -6.23,0 -9.71,-7.57 -9.71,-9.12 0,-0.5 0.44,-0.5 0.94,-0.5 z"
             inkscape:connector-curvature="0"
             style="fill:#000000;stroke-width:0" /><path
             id="path5737"
             d="m 550.34,406.95 0.07,0 0.07,0 0.06,0 0.06,0 0.05,0 0.06,0 0.05,0.01 0.04,0 0.05,0.01 0.04,0 0.04,0.01 0.04,0.01 0.04,0.01 0.03,0.01 0.04,0.02 0.03,0.02 0.02,0.01 0.03,0.03 0.02,0.02 0.02,0.03 0.02,0.03 0.02,0.03 0.02,0.03 0,0.02 0.01,0.02 0.01,0.02 0,0.03 0.01,0.02 0,0.02 0.01,0.03 0,0.02 0,0.03 0.01,0.02 0,0.03 0,0.03 0.01,0.03 0,0.03 0,0.04 0,0.03 0,0.03 0,0.04 c 0,3.07 -1.71,6.83 -6.91,6.83 -4.56,0 -8.05,-3.62 -8.05,-7.91 0,-4.43 3.87,-7.99 8.51,-7.99 4.7,0 6.45,3.77 6.45,4.53 0,0.14 -0.07,0.49 -0.59,0.49 -0.46,0 -0.53,-0.21 -0.63,-0.56 -1.08,-2.82 -3.73,-3.34 -4.99,-3.34 -1.64,0 -3.21,0.73 -4.25,2.05 -1.29,1.64 -1.33,3.77 -1.33,5.13 l 0.04,0.91 c 0.38,4.91 3.52,5.71 4.84,5.71 4.29,0 4.43,-4.84 4.47,-5.71 l -9.31,0 -0.04,-0.91 z"
             inkscape:connector-curvature="0"
             style="fill:#000000;stroke-width:0" /><path
             id="path5739"
             d="m 564.82,406.81 0,0 0,0.01 -0.01,0 0,0 0,0 0,0.01 -0.01,0 0,0.01 -0.01,0 0,0 -0.01,0.01 -0.01,0.01 -0.01,0.02 -0.01,0.01 -0.01,0.01 -0.01,0.01 -0.01,0.02 -0.02,0.01 -0.01,0.02 -0.02,0.02 -0.03,0.03 -0.01,0.02 -0.01,0.01 -0.01,0.02 -0.01,0.01 -0.01,0.01 -0.01,0.02 -0.01,0.01 0,0.01 -0.01,0 0,0.01 0,0 -0.01,0.01 0,0 0,0 0,0.01 0,0 -0.01,0 0,0.01 0,0 0,0 c 0,0.11 2.3,2.58 2.62,2.89 1.22,1.36 2.44,2.69 5.19,2.72 l 0,1.26 -6.38,0 0,-1.26 c 0.59,-0.1 0.7,-0.48 0.7,-0.8 0,-0.07 0,-0.59 -0.52,-1.18 l -2.45,-2.76 -2.89,3.31 c -0.35,0.39 -0.38,0.56 -0.38,0.7 0,0.52 0.48,0.73 0.94,0.73 l 0,1.26 -7.29,0 0,-1.26 c 1.6,0 2.51,0 3.42,-1.04 l 4.35,-5.02 c 0.04,-0.04 0.29,-0.32 0.29,-0.35 0,-0.11 -2.62,-2.97 -2.97,-3.35 -1.29,-1.4 -2.47,-2.69 -5.26,-2.76 l 0,-1.25 6.38,0 0,1.25 c -0.42,0.07 -0.7,0.32 -0.7,0.81 0,0.66 0.38,1.11 0.94,1.71 l 2.44,2.68 3.04,-3.45 c 0.66,-0.73 0.66,-0.8 0.66,-1.01 0,-0.7 -0.8,-0.74 -0.94,-0.74 l 0,-1.25 7.29,0 0,1.25 c -2.34,0 -2.62,0.21 -3.42,1.12 z"
             inkscape:connector-curvature="0"
             style="fill:#000000;stroke-width:0" /><path
             id="path5741"
             d="m 580.01,412.77 5.44,0 0,1.26 -5.44,0 0,6.42 -1.19,0 c -0.03,-3.15 -1.46,-6.59 -4.81,-6.7 l 0,-0.98 3.24,0 0,-9.41 c 0,-3.91 2.93,-4.71 4.89,-4.71 2.33,0 3.93,1.99 3.93,4.74 l 0,1.92 -1.18,0 0,-1.88 c 0,-2.37 -1.12,-3.66 -2.48,-3.66 -2.4,0 -2.4,2.93 -2.4,3.55 z"
             inkscape:connector-curvature="0"
             style="fill:#000000;stroke-width:0" /><path
             id="path5743"
             d="m 596.64,400.99 -0.01,0.11 0,0.11 -0.02,0.11 -0.02,0.1 -0.02,0.11 -0.03,0.1 -0.03,0.09 -0.04,0.1 -0.04,0.09 -0.05,0.09 -0.05,0.08 -0.06,0.08 -0.05,0.08 -0.07,0.08 -0.06,0.07 -0.07,0.07 -0.07,0.06 -0.07,0.06 -0.08,0.06 -0.08,0.05 -0.08,0.05 -0.08,0.05 -0.09,0.04 -0.08,0.04 -0.09,0.03 -0.09,0.03 -0.09,0.02 -0.1,0.03 -0.09,0.01 -0.09,0.01 -0.1,0.01 -0.09,0 c -1.22,0 -2.03,-0.97 -2.03,-1.99 0,-1.22 0.98,-2.02 1.99,-2.02 1.23,0 2.03,0.98 2.03,1.99 z"
             inkscape:connector-curvature="0"
             style="fill:#000000;stroke-width:0" /></g></g><g
         transform="matrix(0.87033992,0,0,-0.87033992,-360.41118,713.24579)"
         id="g8808"><path
           d="m 513.18503,361.62922 29.75,0"
           style="fill:none;stroke:#0000ff;stroke-width:2.25;stroke-linecap:square;stroke-linejoin:round;stroke-miterlimit:10;stroke-dasharray:none;stroke-opacity:1"
           id="path262"
           inkscape:connector-curvature="0" /><path
           d="m 513.18503,393.40656 29.75,0"
           style="fill:none;stroke:#008000;stroke-width:2.25;stroke-linecap:square;stroke-linejoin:round;stroke-miterlimit:10;stroke-dasharray:none;stroke-opacity:1"
           id="path298"
           inkscape:connector-curvature="0" /><path
           d="m 513.18503,425.18391 29.75,0"
           style="fill:none;stroke:#ff0000;stroke-width:2.25;stroke-linecap:square;stroke-linejoin:round;stroke-miterlimit:10;stroke-dasharray:none;stroke-opacity:1"
           id="path326"
           inkscape:connector-curvature="0" /><path
           d="m 513.18503,456.96125 29.75,0"
           style="fill:none;stroke:#00bfbf;stroke-width:2.25;stroke-linecap:square;stroke-linejoin:round;stroke-miterlimit:10;stroke-dasharray:none;stroke-opacity:1"
           id="path362"
           inkscape:connector-curvature="0" /><path
           d="m 513.18503,488.7386 29.75,0"
           style="fill:none;stroke:#bf00bf;stroke-width:2.25;stroke-linecap:square;stroke-linejoin:round;stroke-miterlimit:10;stroke-dasharray:none;stroke-opacity:1"
           id="path390"
           inkscape:connector-curvature="0" /><path
           d="m 513.18503,520.51594 29.75,0"
           style="fill:none;stroke:#bfbf00;stroke-width:2.25;stroke-linecap:square;stroke-linejoin:round;stroke-miterlimit:10;stroke-dasharray:none;stroke-opacity:1"
           id="path426"
           inkscape:connector-curvature="0" /><path
           d="m 513.18503,552.29329 29.75,0"
           style="fill:none;stroke:#000000;stroke-width:2.25;stroke-linecap:square;stroke-linejoin:round;stroke-miterlimit:10;stroke-dasharray:none;stroke-opacity:1"
           id="path462"
           inkscape:connector-curvature="0" /><g
           transform="translate(560,-4)"
           id="g8740"><g
             id="g6410"
             transform="matrix(0.37547993,0,0,0.37547993,-112.51537,234.29851)"><g
               word-spacing="normal"
               letter-spacing="normal"
               font-size-adjust="none"
               font-stretch="normal"
               font-weight="normal"
               font-variant="normal"
               font-style="normal"
               stroke-miterlimit="10.433"
               xml:space="preserve"
               transform="matrix(1.0629921,0,0,-1.0629921,-186.02362,789.27165)"
               id="content-3"
               style="font-style:normal;font-variant:normal;font-weight:normal;font-stretch:normal;letter-spacing:normal;word-spacing:normal;text-anchor:start;fill:none;fill-opacity:1;fill-rule:evenodd;stroke:#000000;stroke-linecap:butt;stroke-linejoin:miter;stroke-miterlimit:10.43299961;stroke-dasharray:none;stroke-dashoffset:0;stroke-opacity:1"><path
                 id="path6413"
                 d="m 472.56,436.68 0,0.13 -0.01,0.13 -0.02,0.12 -0.02,0.12 -0.03,0.13 -0.03,0.12 -0.04,0.12 -0.05,0.11 -0.05,0.12 -0.06,0.11 -0.06,0.11 -0.07,0.11 -0.07,0.11 -0.08,0.1 -0.08,0.1 -0.09,0.09 -0.09,0.09 -0.09,0.09 -0.1,0.08 -0.1,0.07 -0.11,0.08 -0.11,0.06 -0.12,0.06 -0.11,0.06 -0.12,0.05 -0.13,0.05 -0.12,0.03 -0.13,0.04 -0.13,0.02 -0.14,0.02 -0.14,0.01 -0.13,0 c -1.7,0 -2.7,-1.39 -2.7,-2.64 0,-1.34 1.15,-2.64 2.65,-2.64 1.69,0 2.68,1.4 2.68,2.64 z"
                 inkscape:connector-curvature="0"
                 style="fill:#000000;stroke-width:0" /><path
                 id="path6415"
                 d="m 458.04,418.65 0.1,0.27 0.09,0.25 0.11,0.25 0.11,0.24 0.11,0.23 0.11,0.23 0.12,0.22 0.13,0.21 0.13,0.2 0.13,0.19 0.13,0.19 0.14,0.18 0.28,0.35 0.29,0.31 0.3,0.29 0.31,0.27 0.31,0.25 0.32,0.22 0.31,0.2 0.32,0.18 0.32,0.17 0.31,0.14 0.32,0.13 0.3,0.11 0.3,0.1 0.29,0.08 0.28,0.07 0.26,0.06 0.26,0.05 0.24,0.04 0.22,0.03 0.2,0.03 0.19,0.02 0.16,0.01 0.15,0 0.11,0.01 0.1,0 0.06,0 c 7.52,0 8.07,-8.72 8.07,-12.65 0,-3.04 -0.24,-3.89 -0.6,-4.88 -1.09,-3.64 -2.59,-9.42 -2.59,-10.71 0,-0.55 0.25,-0.9 0.65,-0.9 0.65,0 1.05,1.1 1.6,2.99 1.14,4.18 1.64,7.02 1.84,8.57 0.1,0.65 0.2,1.29 0.4,1.94 1.59,4.93 4.78,12.35 6.77,16.29 0.35,0.6 0.95,1.69 0.95,1.89 0,0.5 -0.5,0.5 -0.6,0.5 -0.15,0 -0.45,0 -0.6,-0.35 -2.59,-4.73 -4.58,-9.71 -6.57,-14.74 -0.05,1.54 -0.1,5.33 -2.05,10.16 -1.19,3.04 -3.18,5.48 -6.62,5.48 -6.23,0 -9.71,-7.57 -9.71,-9.12 0,-0.5 0.44,-0.5 0.94,-0.5 z"
                 inkscape:connector-curvature="0"
                 style="fill:#000000;stroke-width:0" /><path
                 id="path6417"
                 d="m 532.22,422.29 0.14,0 0.15,0 0.15,0.01 0.07,0 0.07,0 0.07,0.01 0.08,0.01 0.07,0.01 0.07,0.01 0.06,0.02 0.07,0.01 0.07,0.02 0.06,0.02 0.06,0.03 0.06,0.03 0.05,0.03 0.06,0.03 0.05,0.04 0.04,0.04 0.05,0.05 0.03,0.05 0.02,0.03 0.02,0.02 0.02,0.03 0.01,0.03 0.02,0.03 0.01,0.04 0.01,0.03 0.01,0.04 0.01,0.03 0.01,0.04 0.01,0.04 0,0.04 0.01,0.04 0,0.04 0,0.05 0,0.05 c 0,0.99 -0.94,0.99 -1.64,0.99 l -29.84,0 c -0.7,0 -1.64,0 -1.64,-0.99 0,-1 0.94,-1 1.69,-1 z"
                 inkscape:connector-curvature="0"
                 style="fill:#000000;stroke-width:0" /><path
                 id="path6419"
                 d="m 532.27,412.62 0.13,0.01 0.14,0 0.14,0 0.07,0.01 0.07,0 0.07,0.01 0.07,0.01 0.07,0.01 0.07,0.01 0.06,0.01 0.07,0.02 0.06,0.02 0.06,0.02 0.06,0.02 0.06,0.03 0.06,0.03 0.05,0.04 0.05,0.04 0.04,0.04 0.05,0.04 0.02,0.03 0.02,0.03 0.01,0.02 0.02,0.03 0.02,0.03 0.01,0.03 0.02,0.03 0.01,0.03 0.01,0.04 0.01,0.03 0.01,0.04 0.01,0.04 0.01,0.04 0,0.04 0.01,0.04 0,0.04 0,0.05 0,0.04 c 0,1 -0.94,1 -1.69,1 l -29.74,0 c -0.75,0 -1.69,0 -1.69,-1 0,-1 0.94,-1 1.64,-1 z"
                 inkscape:connector-curvature="0"
                 style="fill:#000000;stroke-width:0" /><path
                 id="path6421"
                 d="m 557.33,409.84 5.27,5.12 c 7.78,6.88 10.77,9.57 10.77,14.55 0,5.68 -4.49,9.67 -10.57,9.67 -5.62,0 -9.31,-4.59 -9.31,-9.02 0,-2.79 2.49,-2.79 2.64,-2.79 0.85,0 2.59,0.6 2.59,2.64 0,1.29 -0.9,2.59 -2.64,2.59 -0.4,0 -0.5,0 -0.65,-0.05 1.15,3.24 3.84,5.08 6.73,5.08 4.53,0 6.67,-4.03 6.67,-8.12 0,-3.98 -2.49,-7.92 -5.23,-11.01 l -9.56,-10.66 c -0.55,-0.54 -0.55,-0.64 -0.55,-1.84 l 18.48,0 1.4,8.67 -1.25,0 c -0.25,-1.5 -0.6,-3.69 -1.1,-4.44 -0.34,-0.39 -3.63,-0.39 -4.73,-0.39 z"
                 inkscape:connector-curvature="0"
                 style="fill:#000000;stroke-width:0" /><path
                 id="path6423"
                 d="m 585.56,408.64 0,0.14 -0.01,0.13 -0.02,0.13 -0.02,0.13 -0.03,0.13 -0.04,0.12 -0.04,0.12 -0.05,0.12 -0.05,0.12 -0.06,0.11 -0.06,0.11 -0.07,0.11 -0.08,0.1 -0.07,0.1 -0.09,0.1 -0.09,0.09 -0.09,0.09 -0.09,0.08 -0.1,0.08 -0.11,0.08 -0.1,0.07 -0.11,0.06 -0.12,0.06 -0.11,0.05 -0.12,0.05 -0.13,0.04 -0.12,0.04 -0.13,0.03 -0.13,0.02 -0.13,0.02 -0.13,0.01 -0.13,0 c -1.45,0 -2.65,-1.19 -2.65,-2.64 0,-1.44 1.2,-2.64 2.65,-2.64 1.44,0 2.63,1.2 2.63,2.64 z"
                 inkscape:connector-curvature="0"
                 style="fill:#000000;stroke-width:0" /><path
                 id="path6425"
                 d="m 611.37,416.01 -0.01,0.55 -0.04,0.55 -0.06,0.54 -0.08,0.53 -0.1,0.53 -0.13,0.51 -0.14,0.5 -0.17,0.5 -0.18,0.48 -0.2,0.47 -0.23,0.46 -0.24,0.44 -0.26,0.43 -0.28,0.41 -0.29,0.4 -0.31,0.38 -0.32,0.36 -0.34,0.35 -0.36,0.33 -0.37,0.3 -0.38,0.29 -0.4,0.27 -0.41,0.24 -0.42,0.22 -0.43,0.2 -0.45,0.17 -0.45,0.15 -0.47,0.13 -0.47,0.09 -0.49,0.07 -0.49,0.05 -0.5,0.01 c -2.39,0 -4.53,-0.8 -6.33,-2.54 l 0,9.71 c 1,-0.29 2.65,-0.64 4.24,-0.64 6.13,0 9.61,4.53 9.61,5.18 0,0.3 -0.15,0.55 -0.49,0.55 -0.05,0 -0.15,0 -0.4,-0.15 -1,-0.45 -3.44,-1.45 -6.78,-1.45 -1.99,0 -4.28,0.35 -6.62,1.4 -0.4,0.14 -0.5,0.14 -0.6,0.14 -0.5,0 -0.5,-0.39 -0.5,-1.19 l 0,-14.75 c 0,-0.89 0,-1.29 0.7,-1.29 0.35,0 0.45,0.15 0.65,0.45 0.55,0.8 2.39,3.48 6.42,3.48 2.59,0 3.84,-2.28 4.23,-3.18 0.8,-1.85 0.9,-3.79 0.9,-6.28 0,-1.74 0,-4.73 -1.19,-6.82 -1.2,-1.95 -3.04,-3.24 -5.33,-3.24 -3.64,0 -6.48,2.64 -7.32,5.58 0.14,-0.05 0.29,-0.1 0.84,-0.1 1.64,0 2.49,1.24 2.49,2.44 0,1.19 -0.85,2.44 -2.49,2.44 -0.7,0 -2.44,-0.35 -2.44,-2.64 0,-4.29 3.44,-9.12 9.02,-9.12 5.77,0 10.86,4.79 10.86,11.11 z"
                 inkscape:connector-curvature="0"
                 style="fill:#000000;stroke-width:0" /><path
                 id="path6427"
                 d="m 644.38,419.85 -9.97,9.91 c -0.59,0.6 -0.69,0.7 -1.09,0.7 -0.5,0 -1,-0.45 -1,-1 0,-0.35 0.1,-0.45 0.65,-1 l 9.96,-10.01 -9.96,-10.01 c -0.55,-0.55 -0.65,-0.65 -0.65,-0.99 0,-0.55 0.5,-1 1,-1 0.4,0 0.5,0.1 1.09,0.69 l 9.92,9.92 10.31,-10.31 c 0.1,-0.05 0.45,-0.3 0.75,-0.3 0.59,0 0.99,0.45 0.99,1 0,0.09 0,0.29 -0.15,0.54 -0.05,0.1 -7.97,7.92 -10.46,10.46 l 9.12,9.12 c 0.25,0.3 0.99,0.95 1.24,1.24 0.05,0.1 0.25,0.3 0.25,0.65 0,0.55 -0.4,1 -0.99,1 -0.4,0 -0.6,-0.2 -1.15,-0.75 z"
                 inkscape:connector-curvature="0"
                 style="fill:#000000;stroke-width:0" /><path
                 id="path6429"
                 d="m 689.65,437.88 0,0.05 -0.01,0.06 0,0.05 0,0.05 0,0.05 0,0.05 0,0.04 0,0.05 0,0.04 0,0.04 0,0.04 0,0.04 0,0.04 -0.01,0.04 0,0.03 0,0.04 -0.01,0.03 0,0.03 -0.01,0.06 -0.01,0.05 -0.02,0.05 -0.01,0.05 -0.02,0.04 -0.02,0.04 -0.03,0.04 -0.03,0.03 -0.03,0.02 -0.03,0.03 -0.04,0.02 -0.05,0.02 -0.02,0.01 -0.03,0.01 -0.02,0 -0.03,0.01 -0.03,0.01 -0.03,0 -0.03,0.01 -0.03,0 -0.03,0.01 -0.04,0 -0.04,0 -0.03,0 -0.04,0.01 -0.04,0 -0.04,0 -0.05,0 -0.04,0 -0.05,0 -0.05,0.01 -0.05,0 -0.05,0 -0.05,0 c -3.09,-3.19 -7.47,-3.19 -9.07,-3.19 l 0,-1.55 c 1,0 3.94,0 6.53,1.3 l 0,-25.81 c 0,-1.79 -0.15,-2.39 -4.63,-2.39 l -1.6,0 0,-1.54 16.14,0 0,1.54 -1.59,0 c -4.49,0 -4.63,0.55 -4.63,2.39 z"
                 inkscape:connector-curvature="0"
                 style="fill:#000000;stroke-width:0" /><path
                 id="path6431"
                 d="m 722.91,421.94 0,0.75 -0.01,0.74 -0.02,0.75 -0.03,0.74 -0.05,0.75 -0.06,0.74 -0.07,0.74 -0.1,0.73 -0.11,0.73 -0.14,0.73 -0.16,0.72 -0.19,0.72 -0.22,0.71 -0.24,0.71 -0.28,0.7 -0.15,0.35 -0.16,0.35 c -2.29,4.78 -6.37,5.58 -8.47,5.58 -2.98,0 -6.62,-1.3 -8.67,-5.93 -1.59,-3.44 -1.84,-7.32 -1.84,-11.31 0,-3.74 0.2,-8.22 2.24,-12.01 2.15,-4.03 5.78,-5.03 8.22,-5.03 l 0,1.1 c -1.94,0 -4.88,1.25 -5.78,6.03 -0.54,2.99 -0.54,7.57 -0.54,10.51 0,3.19 0,6.47 0.4,9.16 0.94,5.93 4.68,6.38 5.92,6.38 1.65,0 4.94,-0.9 5.88,-5.83 0.5,-2.79 0.5,-6.57 0.5,-9.71 0,-3.74 0,-7.13 -0.55,-10.31 -0.75,-4.73 -3.58,-6.23 -5.83,-6.23 l 0,0 0,-1.1 c 2.69,0 6.48,1.05 8.67,5.78 1.59,3.44 1.84,7.32 1.84,11.26 z"
                 inkscape:connector-curvature="0"
                 style="fill:#000000;stroke-width:0" /><path
                 id="path6433"
                 d="m 750.94,431.88 0.05,0 0.06,0 0.05,0 0.06,0 0.12,0 0.06,0.01 0.05,0 0.06,0.01 0.06,0 0.06,0.01 0.06,0.01 0.05,0.02 0.06,0.01 0.06,0.02 0.05,0.01 0.05,0.02 0.05,0.03 0.05,0.02 0.04,0.03 0.04,0.04 0.05,0.03 0.03,0.04 0.02,0.02 0.02,0.02 0.01,0.03 0.02,0.02 0.01,0.02 0.02,0.03 0.01,0.03 0.01,0.02 0.01,0.03 0.01,0.03 0.01,0.03 0,0.03 0.01,0.04 0.01,0.03 0,0.04 0,0.03 0.01,0.04 0,0.04 c 0,0.87 -0.81,0.87 -1.4,0.87 l -20.78,0 c -0.56,0 -1.39,0 -1.39,-0.84 0,-0.87 0.8,-0.87 1.39,-0.87 z"
                 inkscape:connector-curvature="0"
                 style="fill:#000000;stroke-width:0" /><path
                 id="path6435"
                 d="m 761.23,435.4 0,0.53 0.01,0.53 0.02,0.52 0.03,0.51 0.04,0.51 0.05,0.49 0.06,0.49 0.08,0.48 0.09,0.47 0.11,0.46 0.13,0.46 0.15,0.44 0.08,0.22 0.08,0.22 0.09,0.21 0.1,0.21 0.11,0.21 0.1,0.2 0.12,0.21 0.12,0.2 c 1.18,1.88 3.07,3.17 5.3,3.17 1.05,0 2.44,-0.28 3.14,-1.22 -0.87,-0.07 -1.61,-0.66 -1.61,-1.67 0,-0.87 0.6,-1.64 1.64,-1.64 1.05,0 1.68,0.69 1.68,1.71 0,2.02 -1.47,3.83 -4.92,3.83 -5.02,0 -10.15,-4.6 -10.15,-12.1 0,-9.03 4.26,-11.75 8.09,-11.75 4.26,0 7.95,3.25 7.95,7.81 0,4.43 -3.52,7.71 -7.6,7.71 l -0.17,-0.98 c 1.6,0 2.68,-0.63 3.55,-1.91 0.84,-1.33 0.87,-2.79 0.87,-4.82 0,-1.99 0,-3.45 -0.94,-4.81 -0.83,-1.22 -1.95,-1.88 -3.66,-1.88 l 0,0 c -1.74,0 -3.1,1.01 -3.83,2.54 -0.53,1.05 -0.8,2.79 -0.8,4.88 0,3.39 2.01,6 4.81,6 l 0.17,0.98 c -2.79,0 -4.32,-1.85 -5.09,-3.42 z"
                 inkscape:connector-curvature="0"
                 style="fill:#000000;stroke-width:0" /></g></g><g
             transform="matrix(0.37271138,0,0,0.37271138,-112.31569,270.90571)"
             id="g6725"><g
               style="font-style:normal;font-variant:normal;font-weight:normal;font-stretch:normal;letter-spacing:normal;word-spacing:normal;text-anchor:start;fill:none;fill-opacity:1;fill-rule:evenodd;stroke:#000000;stroke-linecap:butt;stroke-linejoin:miter;stroke-miterlimit:10.43299961;stroke-dasharray:none;stroke-dashoffset:0;stroke-opacity:1"
               id="g6727"
               transform="matrix(1.0629921,0,0,-1.0629921,-186.02362,789.27165)"
               xml:space="preserve"
               stroke-miterlimit="10.433"
               font-style="normal"
               font-variant="normal"
               font-weight="normal"
               font-stretch="normal"
               font-size-adjust="none"
               letter-spacing="normal"
               word-spacing="normal"><path
                 style="fill:#000000;stroke-width:0"
                 inkscape:connector-curvature="0"
                 d="m 478.37,416.01 -0.01,0.55 -0.04,0.55 -0.06,0.54 -0.08,0.53 -0.1,0.53 -0.13,0.51 -0.14,0.5 -0.17,0.5 -0.18,0.48 -0.2,0.47 -0.23,0.46 -0.24,0.44 -0.26,0.43 -0.28,0.41 -0.29,0.4 -0.31,0.38 -0.32,0.36 -0.34,0.35 -0.36,0.33 -0.37,0.3 -0.38,0.29 -0.4,0.27 -0.41,0.24 -0.42,0.22 -0.43,0.2 -0.45,0.17 -0.45,0.15 -0.47,0.13 -0.47,0.09 -0.49,0.07 -0.49,0.05 -0.5,0.01 c -2.39,0 -4.53,-0.8 -6.33,-2.54 l 0,9.71 c 1,-0.29 2.64,-0.64 4.24,-0.64 6.13,0 9.61,4.53 9.61,5.18 0,0.3 -0.15,0.55 -0.49,0.55 -0.05,0 -0.15,0 -0.4,-0.15 -1,-0.45 -3.44,-1.45 -6.78,-1.45 -1.99,0 -4.28,0.35 -6.62,1.4 -0.4,0.14 -0.5,0.14 -0.6,0.14 -0.5,0 -0.5,-0.39 -0.5,-1.19 l 0,-14.75 c 0,-0.89 0,-1.29 0.7,-1.29 0.35,0 0.45,0.15 0.65,0.45 0.55,0.8 2.39,3.48 6.42,3.48 2.59,0 3.84,-2.28 4.24,-3.18 0.79,-1.85 0.89,-3.79 0.89,-6.28 0,-1.74 0,-4.73 -1.19,-6.82 -1.2,-1.95 -3.04,-3.24 -5.33,-3.24 -3.64,0 -6.48,2.64 -7.32,5.58 0.14,-0.05 0.29,-0.1 0.84,-0.1 1.64,0 2.49,1.24 2.49,2.44 0,1.19 -0.85,2.44 -2.49,2.44 -0.7,0 -2.44,-0.35 -2.44,-2.64 0,-4.29 3.44,-9.12 9.02,-9.12 5.78,0 10.86,4.79 10.86,11.11 z"
                 id="path6729" /><path
                 style="fill:#000000;stroke-width:0"
                 inkscape:connector-curvature="0"
                 d="m 511.38,419.85 -9.97,9.91 c -0.59,0.6 -0.69,0.7 -1.09,0.7 -0.5,0 -1,-0.45 -1,-1 0,-0.35 0.1,-0.45 0.65,-1 l 9.96,-10.01 -9.96,-10.01 c -0.55,-0.55 -0.65,-0.65 -0.65,-0.99 0,-0.55 0.5,-1 1,-1 0.4,0 0.5,0.1 1.09,0.69 l 9.92,9.92 10.31,-10.31 c 0.1,-0.05 0.45,-0.3 0.75,-0.3 0.59,0 0.99,0.45 0.99,1 0,0.09 0,0.29 -0.15,0.54 -0.05,0.1 -7.97,7.92 -10.46,10.46 l 9.12,9.12 c 0.25,0.3 0.99,0.95 1.24,1.24 0.05,0.1 0.25,0.3 0.25,0.65 0,0.55 -0.4,1 -0.99,1 -0.4,0 -0.6,-0.2 -1.15,-0.75 z"
                 id="path6731" /><path
                 style="fill:#000000;stroke-width:0"
                 inkscape:connector-curvature="0"
                 d="m 555.65,437.88 0,0.05 -0.01,0.06 0,0.05 0,0.05 0,0.05 0,0.05 0,0.04 0,0.05 0,0.04 0,0.04 0,0.04 0,0.04 0,0.04 -0.01,0.04 0,0.03 0,0.04 -0.01,0.03 0,0.03 -0.01,0.06 -0.01,0.05 -0.02,0.05 -0.01,0.05 -0.02,0.04 -0.02,0.04 -0.03,0.04 -0.03,0.03 -0.03,0.02 -0.03,0.03 -0.04,0.02 -0.05,0.02 -0.02,0.01 -0.03,0.01 -0.02,0 -0.03,0.01 -0.03,0.01 -0.03,0 -0.03,0.01 -0.03,0 -0.03,0.01 -0.04,0 -0.04,0 -0.03,0 -0.04,0.01 -0.04,0 -0.04,0 -0.05,0 -0.04,0 -0.05,0 -0.05,0.01 -0.05,0 -0.05,0 -0.05,0 c -3.09,-3.19 -7.47,-3.19 -9.07,-3.19 l 0,-1.55 c 1,0 3.94,0 6.53,1.3 l 0,-25.81 c 0,-1.79 -0.15,-2.39 -4.63,-2.39 l -1.6,0 0,-1.54 16.14,0 0,1.54 -1.59,0 c -4.49,0 -4.63,0.55 -4.63,2.39 z"
                 id="path6733" /><path
                 style="fill:#000000;stroke-width:0"
                 inkscape:connector-curvature="0"
                 d="m 588.91,421.94 0,0.75 -0.01,0.74 -0.02,0.75 -0.03,0.74 -0.05,0.75 -0.06,0.74 -0.07,0.74 -0.1,0.73 -0.11,0.73 -0.14,0.73 -0.16,0.72 -0.19,0.72 -0.22,0.71 -0.24,0.71 -0.28,0.7 -0.15,0.35 -0.16,0.35 c -2.29,4.78 -6.37,5.58 -8.47,5.58 -2.98,0 -6.62,-1.3 -8.67,-5.93 -1.59,-3.44 -1.84,-7.32 -1.84,-11.31 0,-3.74 0.2,-8.22 2.24,-12.01 2.15,-4.03 5.78,-5.03 8.22,-5.03 l 0,1.1 c -1.94,0 -4.88,1.25 -5.78,6.03 -0.54,2.99 -0.54,7.57 -0.54,10.51 0,3.19 0,6.47 0.4,9.16 0.94,5.93 4.68,6.38 5.92,6.38 1.65,0 4.94,-0.9 5.88,-5.83 0.5,-2.79 0.5,-6.57 0.5,-9.71 0,-3.74 0,-7.13 -0.55,-10.31 -0.75,-4.73 -3.58,-6.23 -5.83,-6.23 l 0,0 0,-1.1 c 2.69,0 6.48,1.05 8.67,5.78 1.59,3.44 1.84,7.32 1.84,11.26 z"
                 id="path6735" /><path
                 style="fill:#000000;stroke-width:0"
                 inkscape:connector-curvature="0"
                 d="m 616.94,431.88 0.05,0 0.06,0 0.05,0 0.06,0 0.12,0 0.06,0.01 0.05,0 0.06,0.01 0.06,0 0.06,0.01 0.06,0.01 0.05,0.02 0.06,0.01 0.06,0.02 0.05,0.01 0.05,0.02 0.05,0.03 0.05,0.02 0.04,0.03 0.04,0.04 0.05,0.03 0.03,0.04 0.02,0.02 0.02,0.02 0.01,0.03 0.02,0.02 0.01,0.02 0.02,0.03 0.01,0.03 0.01,0.02 0.01,0.03 0.01,0.03 0.01,0.03 0,0.03 0.01,0.04 0.01,0.03 0,0.04 0,0.03 0.01,0.04 0,0.04 c 0,0.87 -0.81,0.87 -1.4,0.87 l -20.78,0 c -0.56,0 -1.39,0 -1.39,-0.84 0,-0.87 0.8,-0.87 1.39,-0.87 z"
                 id="path6737" /><path
                 style="fill:#000000;stroke-width:0"
                 inkscape:connector-curvature="0"
                 d="m 627.23,435.4 0,0.53 0.01,0.53 0.02,0.52 0.03,0.51 0.04,0.51 0.05,0.49 0.06,0.49 0.08,0.48 0.09,0.47 0.11,0.46 0.13,0.46 0.15,0.44 0.08,0.22 0.08,0.22 0.09,0.21 0.1,0.21 0.11,0.21 0.1,0.2 0.12,0.21 0.12,0.2 c 1.18,1.88 3.07,3.17 5.3,3.17 1.05,0 2.44,-0.28 3.14,-1.22 -0.87,-0.07 -1.61,-0.66 -1.61,-1.67 0,-0.87 0.6,-1.64 1.64,-1.64 1.05,0 1.68,0.69 1.68,1.71 0,2.02 -1.47,3.83 -4.92,3.83 -5.02,0 -10.15,-4.6 -10.15,-12.1 0,-9.03 4.26,-11.75 8.09,-11.75 4.26,0 7.95,3.25 7.95,7.81 0,4.43 -3.52,7.71 -7.6,7.71 l -0.17,-0.98 c 1.6,0 2.68,-0.63 3.55,-1.91 0.84,-1.33 0.87,-2.79 0.87,-4.82 0,-1.99 0,-3.45 -0.94,-4.81 -0.83,-1.22 -1.95,-1.88 -3.66,-1.88 l 0,0 c -1.74,0 -3.1,1.01 -3.83,2.54 -0.53,1.05 -0.8,2.79 -0.8,4.88 0,3.39 2.01,6 4.81,6 l 0.17,0.98 c -2.79,0 -4.32,-1.85 -5.09,-3.42 z"
                 id="path6739" /></g></g><g
             id="g7045"
             transform="matrix(0.37271138,0,0,0.37271138,-112.43454,302.6827)"
             style="fill:#000615;fill-opacity:1"><g
               word-spacing="normal"
               letter-spacing="normal"
               font-size-adjust="none"
               font-stretch="normal"
               font-weight="normal"
               font-variant="normal"
               font-style="normal"
               stroke-miterlimit="10.433"
               xml:space="preserve"
               transform="matrix(1.0629921,0,0,-1.0629921,-186.02362,789.27165)"
               id="g7047"
               style="font-style:normal;font-variant:normal;font-weight:normal;font-stretch:normal;letter-spacing:normal;word-spacing:normal;text-anchor:start;fill:#000615;fill-opacity:1;fill-rule:evenodd;stroke:#000000;stroke-linecap:butt;stroke-linejoin:miter;stroke-miterlimit:10.43299961;stroke-dasharray:none;stroke-dashoffset:0;stroke-opacity:1"><path
                 id="path7049"
                 d="m 479.71,436.34 0.04,0.05 0.04,0.05 0.04,0.05 0.03,0.05 0.03,0.05 0.03,0.04 0.03,0.04 0.02,0.04 0.02,0.04 0.02,0.04 0.02,0.04 0.02,0.04 0.02,0.05 0.01,0.04 0.01,0.04 0.01,0.04 0.01,0.04 0.01,0.05 0.01,0.05 0.01,0.05 0,0.05 0.01,0.05 0,0.06 0,0.06 0.01,0.06 0,0.07 0,0.07 0,0.08 0,0.08 0,0.08 0,0.09 0,0.05 0,0.05 -12.11,0 c -6.07,0 -6.17,0.65 -6.37,1.59 l -1.25,0 -1.64,-10.26 1.25,0 c 0.14,0.8 0.59,3.94 1.24,4.54 0.35,0.29 4.24,0.29 4.88,0.29 l 10.31,0 c -0.54,-0.79 -4.48,-6.22 -5.58,-7.86 -4.48,-6.73 -6.12,-13.65 -6.12,-18.74 0,-0.5 0,-2.74 2.29,-2.74 2.29,0 2.29,2.24 2.29,2.74 l 0,2.54 c 0,2.75 0.15,5.48 0.55,8.18 0.2,1.14 0.89,5.43 3.08,8.51 z"
                 inkscape:connector-curvature="0"
                 style="fill:#000615;fill-opacity:1;stroke-width:0" /><path
                 id="path7051"
                 d="m 489.56,408.64 0,0.14 -0.01,0.13 -0.02,0.13 -0.02,0.13 -0.03,0.13 -0.04,0.12 -0.04,0.12 -0.05,0.12 -0.05,0.12 -0.06,0.11 -0.06,0.11 -0.07,0.11 -0.08,0.1 -0.07,0.1 -0.09,0.1 -0.09,0.09 -0.09,0.09 -0.09,0.08 -0.1,0.08 -0.11,0.08 -0.1,0.07 -0.11,0.06 -0.12,0.06 -0.11,0.05 -0.12,0.05 -0.13,0.04 -0.12,0.04 -0.13,0.03 -0.13,0.02 -0.13,0.02 -0.13,0.01 -0.13,0 c -1.45,0 -2.64,-1.19 -2.64,-2.64 0,-1.44 1.19,-2.64 2.64,-2.64 1.44,0 2.63,1.2 2.63,2.64 z"
                 inkscape:connector-curvature="0"
                 style="fill:#000615;fill-opacity:1;stroke-width:0" /><path
                 id="path7053"
                 d="m 516.37,416.01 -0.01,0.55 -0.04,0.55 -0.06,0.54 -0.08,0.53 -0.1,0.53 -0.13,0.51 -0.14,0.5 -0.17,0.5 -0.18,0.48 -0.2,0.47 -0.23,0.46 -0.24,0.44 -0.26,0.43 -0.28,0.41 -0.29,0.4 -0.31,0.38 -0.32,0.36 -0.34,0.35 -0.36,0.33 -0.37,0.3 -0.38,0.29 -0.4,0.27 -0.41,0.24 -0.42,0.22 -0.43,0.2 -0.45,0.17 -0.45,0.15 -0.47,0.13 -0.47,0.09 -0.49,0.07 -0.49,0.05 -0.5,0.01 c -2.39,0 -4.53,-0.8 -6.33,-2.54 l 0,9.71 c 1,-0.29 2.64,-0.64 4.24,-0.64 6.13,0 9.61,4.53 9.61,5.18 0,0.3 -0.15,0.55 -0.49,0.55 -0.05,0 -0.15,0 -0.4,-0.15 -1,-0.45 -3.44,-1.45 -6.78,-1.45 -1.99,0 -4.28,0.35 -6.62,1.4 -0.4,0.14 -0.5,0.14 -0.6,0.14 -0.5,0 -0.5,-0.39 -0.5,-1.19 l 0,-14.75 c 0,-0.89 0,-1.29 0.7,-1.29 0.35,0 0.45,0.15 0.65,0.45 0.55,0.8 2.39,3.48 6.42,3.48 2.59,0 3.84,-2.28 4.24,-3.18 0.79,-1.85 0.89,-3.79 0.89,-6.28 0,-1.74 0,-4.73 -1.19,-6.82 -1.2,-1.95 -3.04,-3.24 -5.33,-3.24 -3.64,0 -6.48,2.64 -7.32,5.58 0.14,-0.05 0.29,-0.1 0.84,-0.1 1.64,0 2.49,1.24 2.49,2.44 0,1.19 -0.85,2.44 -2.49,2.44 -0.7,0 -2.44,-0.35 -2.44,-2.64 0,-4.29 3.44,-9.12 9.02,-9.12 5.78,0 10.86,4.79 10.86,11.11 z"
                 inkscape:connector-curvature="0"
                 style="fill:#000615;fill-opacity:1;stroke-width:0" /><path
                 id="path7055"
                 d="m 549.38,419.85 -9.97,9.91 c -0.59,0.6 -0.69,0.7 -1.09,0.7 -0.5,0 -1,-0.45 -1,-1 0,-0.35 0.1,-0.45 0.65,-1 l 9.96,-10.01 -9.96,-10.01 c -0.55,-0.55 -0.65,-0.65 -0.65,-0.99 0,-0.55 0.5,-1 1,-1 0.4,0 0.5,0.1 1.09,0.69 l 9.92,9.92 10.31,-10.31 c 0.1,-0.05 0.45,-0.3 0.75,-0.3 0.59,0 0.99,0.45 0.99,1 0,0.09 0,0.29 -0.15,0.54 -0.05,0.1 -7.97,7.92 -10.46,10.46 l 9.12,9.12 c 0.25,0.3 0.99,0.95 1.24,1.24 0.05,0.1 0.25,0.3 0.25,0.65 0,0.55 -0.4,1 -0.99,1 -0.4,0 -0.6,-0.2 -1.15,-0.75 z"
                 inkscape:connector-curvature="0"
                 style="fill:#000615;fill-opacity:1;stroke-width:0" /><path
                 id="path7057"
                 d="m 594.65,437.88 0,0.05 -0.01,0.06 0,0.05 0,0.05 0,0.05 0,0.05 0,0.04 0,0.05 0,0.04 0,0.04 0,0.04 0,0.04 0,0.04 -0.01,0.04 0,0.03 0,0.04 -0.01,0.03 0,0.03 -0.01,0.06 -0.01,0.05 -0.02,0.05 -0.01,0.05 -0.02,0.04 -0.02,0.04 -0.03,0.04 -0.03,0.03 -0.03,0.02 -0.03,0.03 -0.04,0.02 -0.05,0.02 -0.02,0.01 -0.03,0.01 -0.02,0 -0.03,0.01 -0.03,0.01 -0.03,0 -0.03,0.01 -0.03,0 -0.03,0.01 -0.04,0 -0.04,0 -0.03,0 -0.04,0.01 -0.04,0 -0.04,0 -0.05,0 -0.04,0 -0.05,0 -0.05,0.01 -0.05,0 -0.05,0 -0.05,0 c -3.09,-3.19 -7.47,-3.19 -9.07,-3.19 l 0,-1.55 c 1,0 3.94,0 6.53,1.3 l 0,-25.81 c 0,-1.79 -0.15,-2.39 -4.63,-2.39 l -1.6,0 0,-1.54 16.14,0 0,1.54 -1.59,0 c -4.49,0 -4.63,0.55 -4.63,2.39 z"
                 inkscape:connector-curvature="0"
                 style="fill:#000615;fill-opacity:1;stroke-width:0" /><path
                 id="path7059"
                 d="m 627.91,421.94 0,0.75 -0.01,0.74 -0.02,0.75 -0.03,0.74 -0.05,0.75 -0.06,0.74 -0.07,0.74 -0.1,0.73 -0.11,0.73 -0.14,0.73 -0.16,0.72 -0.19,0.72 -0.22,0.71 -0.24,0.71 -0.28,0.7 -0.15,0.35 -0.16,0.35 c -2.29,4.78 -6.37,5.58 -8.47,5.58 -2.98,0 -6.62,-1.3 -8.67,-5.93 -1.59,-3.44 -1.84,-7.32 -1.84,-11.31 0,-3.74 0.2,-8.22 2.24,-12.01 2.15,-4.03 5.78,-5.03 8.22,-5.03 l 0,1.1 c -1.94,0 -4.88,1.25 -5.78,6.03 -0.54,2.99 -0.54,7.57 -0.54,10.51 0,3.19 0,6.47 0.4,9.16 0.94,5.93 4.68,6.38 5.92,6.38 1.65,0 4.94,-0.9 5.88,-5.83 0.5,-2.79 0.5,-6.57 0.5,-9.71 0,-3.74 0,-7.13 -0.55,-10.31 -0.75,-4.73 -3.58,-6.23 -5.83,-6.23 l 0,0 0,-1.1 c 2.69,0 6.48,1.05 8.67,5.78 1.59,3.44 1.84,7.32 1.84,11.26 z"
                 inkscape:connector-curvature="0"
                 style="fill:#000615;fill-opacity:1;stroke-width:0" /><path
                 id="path7061"
                 d="m 655.94,431.88 0.05,0 0.06,0 0.05,0 0.06,0 0.12,0 0.06,0.01 0.05,0 0.06,0.01 0.06,0 0.06,0.01 0.06,0.01 0.05,0.02 0.06,0.01 0.06,0.02 0.05,0.01 0.05,0.02 0.05,0.03 0.05,0.02 0.04,0.03 0.04,0.04 0.05,0.03 0.03,0.04 0.02,0.02 0.02,0.02 0.01,0.03 0.02,0.02 0.01,0.02 0.02,0.03 0.01,0.03 0.01,0.02 0.01,0.03 0.01,0.03 0.01,0.03 0,0.03 0.01,0.04 0.01,0.03 0,0.04 0,0.03 0.01,0.04 0,0.04 c 0,0.87 -0.81,0.87 -1.4,0.87 l -20.78,0 c -0.56,0 -1.39,0 -1.39,-0.84 0,-0.87 0.8,-0.87 1.39,-0.87 z"
                 inkscape:connector-curvature="0"
                 style="fill:#000615;fill-opacity:1;stroke-width:0" /><path
                 id="path7063"
                 d="m 666.23,435.4 0,0.53 0.01,0.53 0.02,0.52 0.03,0.51 0.04,0.51 0.05,0.49 0.06,0.49 0.08,0.48 0.09,0.47 0.11,0.46 0.13,0.46 0.15,0.44 0.08,0.22 0.08,0.22 0.09,0.21 0.1,0.21 0.11,0.21 0.1,0.2 0.12,0.21 0.12,0.2 c 1.18,1.88 3.07,3.17 5.3,3.17 1.05,0 2.44,-0.28 3.14,-1.22 -0.87,-0.07 -1.61,-0.66 -1.61,-1.67 0,-0.87 0.6,-1.64 1.64,-1.64 1.05,0 1.68,0.69 1.68,1.71 0,2.02 -1.47,3.83 -4.92,3.83 -5.02,0 -10.15,-4.6 -10.15,-12.1 0,-9.03 4.26,-11.75 8.09,-11.75 4.26,0 7.95,3.25 7.95,7.81 0,4.43 -3.52,7.71 -7.6,7.71 l -0.17,-0.98 c 1.6,0 2.68,-0.63 3.55,-1.91 0.84,-1.33 0.87,-2.79 0.87,-4.82 0,-1.99 0,-3.45 -0.94,-4.81 -0.83,-1.22 -1.95,-1.88 -3.66,-1.88 l 0,0 c -1.74,0 -3.1,1.01 -3.83,2.54 -0.53,1.05 -0.8,2.79 -0.8,4.88 0,3.39 2.01,6 4.81,6 l 0.17,0.98 c -2.79,0 -4.32,-1.85 -5.09,-3.42 z"
                 inkscape:connector-curvature="0"
                 style="fill:#000615;fill-opacity:1;stroke-width:0" /></g></g><g
             transform="matrix(0.37271138,0,0,0.37271138,-113.0843,366.2377)"
             id="g7389"><g
               style="font-style:normal;font-variant:normal;font-weight:normal;font-stretch:normal;letter-spacing:normal;word-spacing:normal;text-anchor:start;fill:none;fill-opacity:1;fill-rule:evenodd;stroke:#000000;stroke-linecap:butt;stroke-linejoin:miter;stroke-miterlimit:10.43299961;stroke-dasharray:none;stroke-dashoffset:0;stroke-opacity:1"
               id="g7391"
               transform="matrix(1.0629921,0,0,-1.0629921,-186.02362,789.27165)"
               xml:space="preserve"
               stroke-miterlimit="10.433"
               font-style="normal"
               font-variant="normal"
               font-weight="normal"
               font-stretch="normal"
               font-size-adjust="none"
               letter-spacing="normal"
               word-spacing="normal"><path
                 style="fill:#000000;stroke-width:0"
                 inkscape:connector-curvature="0"
                 d="m 470.64,437.88 0,0.05 0,0.06 0,0.05 0,0.05 0,0.05 0,0.05 0,0.04 0,0.05 0,0.04 0,0.04 0,0.04 0,0.04 0,0.04 -0.01,0.04 0,0.03 0,0.04 -0.01,0.03 0,0.03 -0.01,0.06 -0.01,0.05 -0.02,0.05 -0.01,0.05 -0.02,0.04 -0.02,0.04 -0.03,0.04 -0.03,0.03 -0.03,0.02 -0.03,0.03 -0.04,0.02 -0.05,0.02 -0.02,0.01 -0.03,0.01 -0.02,0 -0.03,0.01 -0.03,0.01 -0.03,0 -0.03,0.01 -0.03,0 -0.03,0.01 -0.04,0 -0.04,0 -0.03,0 -0.04,0.01 -0.04,0 -0.04,0 -0.05,0 -0.04,0 -0.05,0 -0.05,0.01 -0.05,0 -0.05,0 -0.05,0 c -3.09,-3.19 -7.47,-3.19 -9.07,-3.19 l 0,-1.55 c 1,0 3.94,0 6.53,1.3 l 0,-25.81 c 0,-1.79 -0.15,-2.39 -4.63,-2.39 l -1.6,0 0,-1.54 16.14,0 0,1.54 -1.59,0 c -4.49,0 -4.64,0.55 -4.64,2.39 z"
                 id="path7393" /><path
                 style="fill:#000000;stroke-width:0"
                 inkscape:connector-curvature="0"
                 d="m 489.56,408.64 0,0.14 -0.01,0.13 -0.02,0.13 -0.02,0.13 -0.03,0.13 -0.04,0.12 -0.04,0.12 -0.05,0.12 -0.05,0.12 -0.06,0.11 -0.06,0.11 -0.07,0.11 -0.08,0.1 -0.07,0.1 -0.09,0.1 -0.09,0.09 -0.09,0.09 -0.09,0.08 -0.1,0.08 -0.11,0.08 -0.1,0.07 -0.11,0.06 -0.12,0.06 -0.11,0.05 -0.12,0.05 -0.13,0.04 -0.12,0.04 -0.13,0.03 -0.13,0.02 -0.13,0.02 -0.13,0.01 -0.13,0 c -1.45,0 -2.64,-1.19 -2.64,-2.64 0,-1.44 1.19,-2.64 2.64,-2.64 1.44,0 2.63,1.2 2.63,2.64 z"
                 id="path7395" /><path
                 style="fill:#000000;stroke-width:0"
                 inkscape:connector-curvature="0"
                 d="m 516.37,416.01 -0.01,0.55 -0.04,0.55 -0.06,0.54 -0.08,0.53 -0.1,0.53 -0.13,0.51 -0.14,0.5 -0.17,0.5 -0.18,0.48 -0.2,0.47 -0.23,0.46 -0.24,0.44 -0.26,0.43 -0.28,0.41 -0.29,0.4 -0.31,0.38 -0.32,0.36 -0.34,0.35 -0.36,0.33 -0.37,0.3 -0.38,0.29 -0.4,0.27 -0.41,0.24 -0.42,0.22 -0.43,0.2 -0.45,0.17 -0.45,0.15 -0.47,0.13 -0.47,0.09 -0.49,0.07 -0.49,0.05 -0.5,0.01 c -2.39,0 -4.53,-0.8 -6.33,-2.54 l 0,9.71 c 1,-0.29 2.64,-0.64 4.24,-0.64 6.13,0 9.61,4.53 9.61,5.18 0,0.3 -0.15,0.55 -0.49,0.55 -0.05,0 -0.15,0 -0.4,-0.15 -1,-0.45 -3.44,-1.45 -6.78,-1.45 -1.99,0 -4.28,0.35 -6.62,1.4 -0.4,0.14 -0.5,0.14 -0.6,0.14 -0.5,0 -0.5,-0.39 -0.5,-1.19 l 0,-14.75 c 0,-0.89 0,-1.29 0.7,-1.29 0.35,0 0.45,0.15 0.65,0.45 0.55,0.8 2.39,3.48 6.42,3.48 2.59,0 3.84,-2.28 4.24,-3.18 0.79,-1.85 0.89,-3.79 0.89,-6.28 0,-1.74 0,-4.73 -1.19,-6.82 -1.2,-1.95 -3.04,-3.24 -5.33,-3.24 -3.64,0 -6.48,2.64 -7.32,5.58 0.14,-0.05 0.29,-0.1 0.84,-0.1 1.64,0 2.49,1.24 2.49,2.44 0,1.19 -0.85,2.44 -2.49,2.44 -0.7,0 -2.44,-0.35 -2.44,-2.64 0,-4.29 3.44,-9.12 9.02,-9.12 5.78,0 10.86,4.79 10.86,11.11 z"
                 id="path7397" /><path
                 style="fill:#000000;stroke-width:0"
                 inkscape:connector-curvature="0"
                 d="m 549.38,419.85 -9.97,9.91 c -0.59,0.6 -0.69,0.7 -1.09,0.7 -0.5,0 -1,-0.45 -1,-1 0,-0.35 0.1,-0.45 0.65,-1 l 9.96,-10.01 -9.96,-10.01 c -0.55,-0.55 -0.65,-0.65 -0.65,-0.99 0,-0.55 0.5,-1 1,-1 0.4,0 0.5,0.1 1.09,0.69 l 9.92,9.92 10.31,-10.31 c 0.1,-0.05 0.45,-0.3 0.75,-0.3 0.59,0 0.99,0.45 0.99,1 0,0.09 0,0.29 -0.15,0.54 -0.05,0.1 -7.97,7.92 -10.46,10.46 l 9.12,9.12 c 0.25,0.3 0.99,0.95 1.24,1.24 0.05,0.1 0.25,0.3 0.25,0.65 0,0.55 -0.4,1 -0.99,1 -0.4,0 -0.6,-0.2 -1.15,-0.75 z"
                 id="path7399" /><path
                 style="fill:#000000;stroke-width:0"
                 inkscape:connector-curvature="0"
                 d="m 594.65,437.88 0,0.05 -0.01,0.06 0,0.05 0,0.05 0,0.05 0,0.05 0,0.04 0,0.05 0,0.04 0,0.04 0,0.04 0,0.04 0,0.04 -0.01,0.04 0,0.03 0,0.04 -0.01,0.03 0,0.03 -0.01,0.06 -0.01,0.05 -0.02,0.05 -0.01,0.05 -0.02,0.04 -0.02,0.04 -0.03,0.04 -0.03,0.03 -0.03,0.02 -0.03,0.03 -0.04,0.02 -0.05,0.02 -0.02,0.01 -0.03,0.01 -0.02,0 -0.03,0.01 -0.03,0.01 -0.03,0 -0.03,0.01 -0.03,0 -0.03,0.01 -0.04,0 -0.04,0 -0.03,0 -0.04,0.01 -0.04,0 -0.04,0 -0.05,0 -0.04,0 -0.05,0 -0.05,0.01 -0.05,0 -0.05,0 -0.05,0 c -3.09,-3.19 -7.47,-3.19 -9.07,-3.19 l 0,-1.55 c 1,0 3.94,0 6.53,1.3 l 0,-25.81 c 0,-1.79 -0.15,-2.39 -4.63,-2.39 l -1.6,0 0,-1.54 16.14,0 0,1.54 -1.59,0 c -4.49,0 -4.63,0.55 -4.63,2.39 z"
                 id="path7401" /><path
                 style="fill:#000000;stroke-width:0"
                 inkscape:connector-curvature="0"
                 d="m 627.91,421.94 0,0.75 -0.01,0.74 -0.02,0.75 -0.03,0.74 -0.05,0.75 -0.06,0.74 -0.07,0.74 -0.1,0.73 -0.11,0.73 -0.14,0.73 -0.16,0.72 -0.19,0.72 -0.22,0.71 -0.24,0.71 -0.28,0.7 -0.15,0.35 -0.16,0.35 c -2.29,4.78 -6.37,5.58 -8.47,5.58 -2.98,0 -6.62,-1.3 -8.67,-5.93 -1.59,-3.44 -1.84,-7.32 -1.84,-11.31 0,-3.74 0.2,-8.22 2.24,-12.01 2.15,-4.03 5.78,-5.03 8.22,-5.03 l 0,1.1 c -1.94,0 -4.88,1.25 -5.78,6.03 -0.54,2.99 -0.54,7.57 -0.54,10.51 0,3.19 0,6.47 0.4,9.16 0.94,5.93 4.68,6.38 5.92,6.38 1.65,0 4.94,-0.9 5.88,-5.83 0.5,-2.79 0.5,-6.57 0.5,-9.71 0,-3.74 0,-7.13 -0.55,-10.31 -0.75,-4.73 -3.58,-6.23 -5.83,-6.23 l 0,0 0,-1.1 c 2.69,0 6.48,1.05 8.67,5.78 1.59,3.44 1.84,7.32 1.84,11.26 z"
                 id="path7403" /><path
                 style="fill:#000000;stroke-width:0"
                 inkscape:connector-curvature="0"
                 d="m 655.94,431.88 0.05,0 0.06,0 0.05,0 0.06,0 0.12,0 0.06,0.01 0.05,0 0.06,0.01 0.06,0 0.06,0.01 0.06,0.01 0.05,0.02 0.06,0.01 0.06,0.02 0.05,0.01 0.05,0.02 0.05,0.03 0.05,0.02 0.04,0.03 0.04,0.04 0.05,0.03 0.03,0.04 0.02,0.02 0.02,0.02 0.01,0.03 0.02,0.02 0.01,0.02 0.02,0.03 0.01,0.03 0.01,0.02 0.01,0.03 0.01,0.03 0.01,0.03 0,0.03 0.01,0.04 0.01,0.03 0,0.04 0,0.03 0.01,0.04 0,0.04 c 0,0.87 -0.81,0.87 -1.4,0.87 l -20.78,0 c -0.56,0 -1.39,0 -1.39,-0.84 0,-0.87 0.8,-0.87 1.39,-0.87 z"
                 id="path7405" /><path
                 style="fill:#000000;stroke-width:0"
                 inkscape:connector-curvature="0"
                 d="m 666.41,443.46 0.16,-0.04 0.16,-0.04 0.16,-0.04 0.15,-0.03 0.15,-0.03 0.14,-0.03 0.14,-0.03 0.14,-0.02 0.13,-0.03 0.13,-0.02 0.12,-0.02 0.12,-0.02 0.12,-0.01 0.11,-0.02 0.11,-0.01 0.1,-0.01 0.11,-0.01 0.09,-0.01 0.1,-0.01 0.09,0 0.09,-0.01 0.08,0 0.08,-0.01 0.08,0 0.08,0 0.07,0 0.07,0 0.06,-0.01 0.07,0 0.06,0 0.05,0 0.05,0 c 4.61,0 7.33,3.14 7.33,3.66 0,0.39 -0.24,0.49 -0.42,0.49 -0.07,0 -0.14,0 -0.28,-0.1 -0.84,-0.32 -2.68,-1.01 -5.26,-1.01 -0.98,0 -2.83,0.07 -5.1,0.94 -0.34,0.17 -0.41,0.17 -0.45,0.17 -0.45,0 -0.45,-0.38 -0.45,-0.94 l 0,-10.28 c 0,-0.6 0,-1.02 0.56,-1.02 0.31,0 0.34,0.07 0.7,0.49 1.49,1.92 3.62,2.2 4.84,2.2 2.09,0 3.03,-1.67 3.21,-1.96 0.63,-1.14 0.84,-2.47 0.84,-4.49 0,-1.05 0,-3.11 -1.05,-4.64 -0.87,-1.26 -2.37,-2.09 -4.08,-2.09 -2.27,0 -4.6,1.25 -5.47,3.56 1.32,-0.11 1.98,0.76 1.98,1.7 0,1.5 -1.28,1.78 -1.74,1.78 -0.07,0 -1.74,0 -1.74,-1.88 0,-3.14 2.85,-6.28 7.04,-6.28 4.46,0 8.37,3.31 8.37,7.71 0,3.94 -3,7.56 -7.33,7.56 -1.53,0 -3.34,-0.38 -4.87,-1.7 z"
                 id="path7407" /></g></g><g
             id="g7753"
             transform="matrix(0.37271138,0,0,0.37271138,-112.31569,398.0147)"><g
               word-spacing="normal"
               letter-spacing="normal"
               font-size-adjust="none"
               font-stretch="normal"
               font-weight="normal"
               font-variant="normal"
               font-style="normal"
               stroke-miterlimit="10.433"
               xml:space="preserve"
               transform="matrix(1.0629921,0,0,-1.0629921,-186.02362,789.27165)"
               id="g7755"
               style="font-style:normal;font-variant:normal;font-weight:normal;font-stretch:normal;letter-spacing:normal;word-spacing:normal;text-anchor:start;fill:none;fill-opacity:1;fill-rule:evenodd;stroke:#000000;stroke-linecap:butt;stroke-linejoin:miter;stroke-miterlimit:10.43299961;stroke-dasharray:none;stroke-dashoffset:0;stroke-opacity:1"><path
                 id="path7757"
                 d="m 462.33,409.84 5.28,5.12 c 7.77,6.88 10.76,9.57 10.76,14.55 0,5.68 -4.49,9.67 -10.57,9.67 -5.62,0 -9.31,-4.59 -9.31,-9.02 0,-2.79 2.49,-2.79 2.64,-2.79 0.85,0 2.59,0.6 2.59,2.64 0,1.29 -0.9,2.59 -2.64,2.59 -0.4,0 -0.5,0 -0.65,-0.05 1.15,3.24 3.84,5.08 6.73,5.08 4.53,0 6.67,-4.03 6.67,-8.12 0,-3.98 -2.49,-7.92 -5.23,-11.01 l -9.56,-10.66 c -0.55,-0.54 -0.55,-0.64 -0.55,-1.84 l 18.48,0 1.4,8.67 -1.25,0 c -0.25,-1.5 -0.6,-3.69 -1.1,-4.44 -0.34,-0.39 -3.63,-0.39 -4.73,-0.39 z"
                 inkscape:connector-curvature="0"
                 style="fill:#000000;stroke-width:0" /><path
                 id="path7759"
                 d="m 489.56,408.64 0,0.14 -0.01,0.13 -0.02,0.13 -0.02,0.13 -0.03,0.13 -0.04,0.12 -0.04,0.12 -0.05,0.12 -0.05,0.12 -0.06,0.11 -0.06,0.11 -0.07,0.11 -0.08,0.1 -0.07,0.1 -0.09,0.1 -0.09,0.09 -0.09,0.09 -0.09,0.08 -0.1,0.08 -0.11,0.08 -0.1,0.07 -0.11,0.06 -0.12,0.06 -0.11,0.05 -0.12,0.05 -0.13,0.04 -0.12,0.04 -0.13,0.03 -0.13,0.02 -0.13,0.02 -0.13,0.01 -0.13,0 c -1.45,0 -2.64,-1.19 -2.64,-2.64 0,-1.44 1.19,-2.64 2.64,-2.64 1.44,0 2.63,1.2 2.63,2.64 z"
                 inkscape:connector-curvature="0"
                 style="fill:#000000;stroke-width:0" /><path
                 id="path7761"
                 d="m 516.37,416.01 -0.01,0.55 -0.04,0.55 -0.06,0.54 -0.08,0.53 -0.1,0.53 -0.13,0.51 -0.14,0.5 -0.17,0.5 -0.18,0.48 -0.2,0.47 -0.23,0.46 -0.24,0.44 -0.26,0.43 -0.28,0.41 -0.29,0.4 -0.31,0.38 -0.32,0.36 -0.34,0.35 -0.36,0.33 -0.37,0.3 -0.38,0.29 -0.4,0.27 -0.41,0.24 -0.42,0.22 -0.43,0.2 -0.45,0.17 -0.45,0.15 -0.47,0.13 -0.47,0.09 -0.49,0.07 -0.49,0.05 -0.5,0.01 c -2.39,0 -4.53,-0.8 -6.33,-2.54 l 0,9.71 c 1,-0.29 2.64,-0.64 4.24,-0.64 6.13,0 9.61,4.53 9.61,5.18 0,0.3 -0.15,0.55 -0.49,0.55 -0.05,0 -0.15,0 -0.4,-0.15 -1,-0.45 -3.44,-1.45 -6.78,-1.45 -1.99,0 -4.28,0.35 -6.62,1.4 -0.4,0.14 -0.5,0.14 -0.6,0.14 -0.5,0 -0.5,-0.39 -0.5,-1.19 l 0,-14.75 c 0,-0.89 0,-1.29 0.7,-1.29 0.35,0 0.45,0.15 0.65,0.45 0.55,0.8 2.39,3.48 6.42,3.48 2.59,0 3.84,-2.28 4.24,-3.18 0.79,-1.85 0.89,-3.79 0.89,-6.28 0,-1.74 0,-4.73 -1.19,-6.82 -1.2,-1.95 -3.04,-3.24 -5.33,-3.24 -3.64,0 -6.48,2.64 -7.32,5.58 0.14,-0.05 0.29,-0.1 0.84,-0.1 1.64,0 2.49,1.24 2.49,2.44 0,1.19 -0.85,2.44 -2.49,2.44 -0.7,0 -2.44,-0.35 -2.44,-2.64 0,-4.29 3.44,-9.12 9.02,-9.12 5.78,0 10.86,4.79 10.86,11.11 z"
                 inkscape:connector-curvature="0"
                 style="fill:#000000;stroke-width:0" /><path
                 id="path7763"
                 d="m 549.38,419.85 -9.97,9.91 c -0.59,0.6 -0.69,0.7 -1.09,0.7 -0.5,0 -1,-0.45 -1,-1 0,-0.35 0.1,-0.45 0.65,-1 l 9.96,-10.01 -9.96,-10.01 c -0.55,-0.55 -0.65,-0.65 -0.65,-0.99 0,-0.55 0.5,-1 1,-1 0.4,0 0.5,0.1 1.09,0.69 l 9.92,9.92 10.31,-10.31 c 0.1,-0.05 0.45,-0.3 0.75,-0.3 0.59,0 0.99,0.45 0.99,1 0,0.09 0,0.29 -0.15,0.54 -0.05,0.1 -7.97,7.92 -10.46,10.46 l 9.12,9.12 c 0.25,0.3 0.99,0.95 1.24,1.24 0.05,0.1 0.25,0.3 0.25,0.65 0,0.55 -0.4,1 -0.99,1 -0.4,0 -0.6,-0.2 -1.15,-0.75 z"
                 inkscape:connector-curvature="0"
                 style="fill:#000000;stroke-width:0" /><path
                 id="path7765"
                 d="m 594.65,437.88 0,0.05 -0.01,0.06 0,0.05 0,0.05 0,0.05 0,0.05 0,0.04 0,0.05 0,0.04 0,0.04 0,0.04 0,0.04 0,0.04 -0.01,0.04 0,0.03 0,0.04 -0.01,0.03 0,0.03 -0.01,0.06 -0.01,0.05 -0.02,0.05 -0.01,0.05 -0.02,0.04 -0.02,0.04 -0.03,0.04 -0.03,0.03 -0.03,0.02 -0.03,0.03 -0.04,0.02 -0.05,0.02 -0.02,0.01 -0.03,0.01 -0.02,0 -0.03,0.01 -0.03,0.01 -0.03,0 -0.03,0.01 -0.03,0 -0.03,0.01 -0.04,0 -0.04,0 -0.03,0 -0.04,0.01 -0.04,0 -0.04,0 -0.05,0 -0.04,0 -0.05,0 -0.05,0.01 -0.05,0 -0.05,0 -0.05,0 c -3.09,-3.19 -7.47,-3.19 -9.07,-3.19 l 0,-1.55 c 1,0 3.94,0 6.53,1.3 l 0,-25.81 c 0,-1.79 -0.15,-2.39 -4.63,-2.39 l -1.6,0 0,-1.54 16.14,0 0,1.54 -1.59,0 c -4.49,0 -4.63,0.55 -4.63,2.39 z"
                 inkscape:connector-curvature="0"
                 style="fill:#000000;stroke-width:0" /><path
                 id="path7767"
                 d="m 627.91,421.94 0,0.75 -0.01,0.74 -0.02,0.75 -0.03,0.74 -0.05,0.75 -0.06,0.74 -0.07,0.74 -0.1,0.73 -0.11,0.73 -0.14,0.73 -0.16,0.72 -0.19,0.72 -0.22,0.71 -0.24,0.71 -0.28,0.7 -0.15,0.35 -0.16,0.35 c -2.29,4.78 -6.37,5.58 -8.47,5.58 -2.98,0 -6.62,-1.3 -8.67,-5.93 -1.59,-3.44 -1.84,-7.32 -1.84,-11.31 0,-3.74 0.2,-8.22 2.24,-12.01 2.15,-4.03 5.78,-5.03 8.22,-5.03 l 0,1.1 c -1.94,0 -4.88,1.25 -5.78,6.03 -0.54,2.99 -0.54,7.57 -0.54,10.51 0,3.19 0,6.47 0.4,9.16 0.94,5.93 4.68,6.38 5.92,6.38 1.65,0 4.94,-0.9 5.88,-5.83 0.5,-2.79 0.5,-6.57 0.5,-9.71 0,-3.74 0,-7.13 -0.55,-10.31 -0.75,-4.73 -3.58,-6.23 -5.83,-6.23 l 0,0 0,-1.1 c 2.69,0 6.48,1.05 8.67,5.78 1.59,3.44 1.84,7.32 1.84,11.26 z"
                 inkscape:connector-curvature="0"
                 style="fill:#000000;stroke-width:0" /><path
                 id="path7769"
                 d="m 655.94,431.88 0.05,0 0.06,0 0.05,0 0.06,0 0.12,0 0.06,0.01 0.05,0 0.06,0.01 0.06,0 0.06,0.01 0.06,0.01 0.05,0.02 0.06,0.01 0.06,0.02 0.05,0.01 0.05,0.02 0.05,0.03 0.05,0.02 0.04,0.03 0.04,0.04 0.05,0.03 0.03,0.04 0.02,0.02 0.02,0.02 0.01,0.03 0.02,0.02 0.01,0.02 0.02,0.03 0.01,0.03 0.01,0.02 0.01,0.03 0.01,0.03 0.01,0.03 0,0.03 0.01,0.04 0.01,0.03 0,0.04 0,0.03 0.01,0.04 0,0.04 c 0,0.87 -0.81,0.87 -1.4,0.87 l -20.78,0 c -0.56,0 -1.39,0 -1.39,-0.84 0,-0.87 0.8,-0.87 1.39,-0.87 z"
                 inkscape:connector-curvature="0"
                 style="fill:#000000;stroke-width:0" /><path
                 id="path7771"
                 d="m 666.41,443.46 0.16,-0.04 0.16,-0.04 0.16,-0.04 0.15,-0.03 0.15,-0.03 0.14,-0.03 0.14,-0.03 0.14,-0.02 0.13,-0.03 0.13,-0.02 0.12,-0.02 0.12,-0.02 0.12,-0.01 0.11,-0.02 0.11,-0.01 0.1,-0.01 0.11,-0.01 0.09,-0.01 0.1,-0.01 0.09,0 0.09,-0.01 0.08,0 0.08,-0.01 0.08,0 0.08,0 0.07,0 0.07,0 0.06,-0.01 0.07,0 0.06,0 0.05,0 0.05,0 c 4.61,0 7.33,3.14 7.33,3.66 0,0.39 -0.24,0.49 -0.42,0.49 -0.07,0 -0.14,0 -0.28,-0.1 -0.84,-0.32 -2.68,-1.01 -5.26,-1.01 -0.98,0 -2.83,0.07 -5.1,0.94 -0.34,0.17 -0.41,0.17 -0.45,0.17 -0.45,0 -0.45,-0.38 -0.45,-0.94 l 0,-10.28 c 0,-0.6 0,-1.02 0.56,-1.02 0.31,0 0.34,0.07 0.7,0.49 1.49,1.92 3.62,2.2 4.84,2.2 2.09,0 3.03,-1.67 3.21,-1.96 0.63,-1.14 0.84,-2.47 0.84,-4.49 0,-1.05 0,-3.11 -1.05,-4.64 -0.87,-1.26 -2.37,-2.09 -4.08,-2.09 -2.27,0 -4.6,1.25 -5.47,3.56 1.32,-0.11 1.98,0.76 1.98,1.7 0,1.5 -1.28,1.78 -1.74,1.78 -0.07,0 -1.74,0 -1.74,-1.88 0,-3.14 2.85,-6.28 7.04,-6.28 4.46,0 8.37,3.31 8.37,7.71 0,3.94 -3,7.56 -7.33,7.56 -1.53,0 -3.34,-0.38 -4.87,-1.7 z"
                 inkscape:connector-curvature="0"
                 style="fill:#000000;stroke-width:0" /></g></g><g
             transform="matrix(0.37271138,0,0,0.37271138,-112.31569,429.7917)"
             id="g8137"><g
               style="font-style:normal;font-variant:normal;font-weight:normal;font-stretch:normal;letter-spacing:normal;word-spacing:normal;text-anchor:start;fill:none;fill-opacity:1;fill-rule:evenodd;stroke:#000000;stroke-linecap:butt;stroke-linejoin:miter;stroke-miterlimit:10.43299961;stroke-dasharray:none;stroke-dashoffset:0;stroke-opacity:1"
               id="g8139"
               transform="matrix(1.0629921,0,0,-1.0629921,-186.02362,789.27165)"
               xml:space="preserve"
               stroke-miterlimit="10.433"
               font-style="normal"
               font-variant="normal"
               font-weight="normal"
               font-stretch="normal"
               font-size-adjust="none"
               letter-spacing="normal"
               word-spacing="normal"><path
                 style="fill:#000000;stroke-width:0"
                 inkscape:connector-curvature="0"
                 d="m 478.37,416.01 -0.01,0.55 -0.04,0.55 -0.06,0.54 -0.08,0.53 -0.1,0.53 -0.13,0.51 -0.14,0.5 -0.17,0.5 -0.18,0.48 -0.2,0.47 -0.23,0.46 -0.24,0.44 -0.26,0.43 -0.28,0.41 -0.29,0.4 -0.31,0.38 -0.32,0.36 -0.34,0.35 -0.36,0.33 -0.37,0.3 -0.38,0.29 -0.4,0.27 -0.41,0.24 -0.42,0.22 -0.43,0.2 -0.45,0.17 -0.45,0.15 -0.47,0.13 -0.47,0.09 -0.49,0.07 -0.49,0.05 -0.5,0.01 c -2.39,0 -4.53,-0.8 -6.33,-2.54 l 0,9.71 c 1,-0.29 2.64,-0.64 4.24,-0.64 6.13,0 9.61,4.53 9.61,5.18 0,0.3 -0.15,0.55 -0.49,0.55 -0.05,0 -0.15,0 -0.4,-0.15 -1,-0.45 -3.44,-1.45 -6.78,-1.45 -1.99,0 -4.28,0.35 -6.62,1.4 -0.4,0.14 -0.5,0.14 -0.6,0.14 -0.5,0 -0.5,-0.39 -0.5,-1.19 l 0,-14.75 c 0,-0.89 0,-1.29 0.7,-1.29 0.35,0 0.45,0.15 0.65,0.45 0.55,0.8 2.39,3.48 6.42,3.48 2.59,0 3.84,-2.28 4.24,-3.18 0.79,-1.85 0.89,-3.79 0.89,-6.28 0,-1.74 0,-4.73 -1.19,-6.82 -1.2,-1.95 -3.04,-3.24 -5.33,-3.24 -3.64,0 -6.48,2.64 -7.32,5.58 0.14,-0.05 0.29,-0.1 0.84,-0.1 1.64,0 2.49,1.24 2.49,2.44 0,1.19 -0.85,2.44 -2.49,2.44 -0.7,0 -2.44,-0.35 -2.44,-2.64 0,-4.29 3.44,-9.12 9.02,-9.12 5.78,0 10.86,4.79 10.86,11.11 z"
                 id="path8141" /><path
                 style="fill:#000000;stroke-width:0"
                 inkscape:connector-curvature="0"
                 d="m 511.38,419.85 -9.97,9.91 c -0.59,0.6 -0.69,0.7 -1.09,0.7 -0.5,0 -1,-0.45 -1,-1 0,-0.35 0.1,-0.45 0.65,-1 l 9.96,-10.01 -9.96,-10.01 c -0.55,-0.55 -0.65,-0.65 -0.65,-0.99 0,-0.55 0.5,-1 1,-1 0.4,0 0.5,0.1 1.09,0.69 l 9.92,9.92 10.31,-10.31 c 0.1,-0.05 0.45,-0.3 0.75,-0.3 0.59,0 0.99,0.45 0.99,1 0,0.09 0,0.29 -0.15,0.54 -0.05,0.1 -7.97,7.92 -10.46,10.46 l 9.12,9.12 c 0.25,0.3 0.99,0.95 1.24,1.24 0.05,0.1 0.25,0.3 0.25,0.65 0,0.55 -0.4,1 -0.99,1 -0.4,0 -0.6,-0.2 -1.15,-0.75 z"
                 id="path8143" /><path
                 style="fill:#000000;stroke-width:0"
                 inkscape:connector-curvature="0"
                 d="m 555.65,437.88 0,0.05 -0.01,0.06 0,0.05 0,0.05 0,0.05 0,0.05 0,0.04 0,0.05 0,0.04 0,0.04 0,0.04 0,0.04 0,0.04 -0.01,0.04 0,0.03 0,0.04 -0.01,0.03 0,0.03 -0.01,0.06 -0.01,0.05 -0.02,0.05 -0.01,0.05 -0.02,0.04 -0.02,0.04 -0.03,0.04 -0.03,0.03 -0.03,0.02 -0.03,0.03 -0.04,0.02 -0.05,0.02 -0.02,0.01 -0.03,0.01 -0.02,0 -0.03,0.01 -0.03,0.01 -0.03,0 -0.03,0.01 -0.03,0 -0.03,0.01 -0.04,0 -0.04,0 -0.03,0 -0.04,0.01 -0.04,0 -0.04,0 -0.05,0 -0.04,0 -0.05,0 -0.05,0.01 -0.05,0 -0.05,0 -0.05,0 c -3.09,-3.19 -7.47,-3.19 -9.07,-3.19 l 0,-1.55 c 1,0 3.94,0 6.53,1.3 l 0,-25.81 c 0,-1.79 -0.15,-2.39 -4.63,-2.39 l -1.6,0 0,-1.54 16.14,0 0,1.54 -1.59,0 c -4.49,0 -4.63,0.55 -4.63,2.39 z"
                 id="path8145" /><path
                 style="fill:#000000;stroke-width:0"
                 inkscape:connector-curvature="0"
                 d="m 588.91,421.94 0,0.75 -0.01,0.74 -0.02,0.75 -0.03,0.74 -0.05,0.75 -0.06,0.74 -0.07,0.74 -0.1,0.73 -0.11,0.73 -0.14,0.73 -0.16,0.72 -0.19,0.72 -0.22,0.71 -0.24,0.71 -0.28,0.7 -0.15,0.35 -0.16,0.35 c -2.29,4.78 -6.37,5.58 -8.47,5.58 -2.98,0 -6.62,-1.3 -8.67,-5.93 -1.59,-3.44 -1.84,-7.32 -1.84,-11.31 0,-3.74 0.2,-8.22 2.24,-12.01 2.15,-4.03 5.78,-5.03 8.22,-5.03 l 0,1.1 c -1.94,0 -4.88,1.25 -5.78,6.03 -0.54,2.99 -0.54,7.57 -0.54,10.51 0,3.19 0,6.47 0.4,9.16 0.94,5.93 4.68,6.38 5.92,6.38 1.65,0 4.94,-0.9 5.88,-5.83 0.5,-2.79 0.5,-6.57 0.5,-9.71 0,-3.74 0,-7.13 -0.55,-10.31 -0.75,-4.73 -3.58,-6.23 -5.83,-6.23 l 0,0 0,-1.1 c 2.69,0 6.48,1.05 8.67,5.78 1.59,3.44 1.84,7.32 1.84,11.26 z"
                 id="path8147" /><path
                 style="fill:#000000;stroke-width:0"
                 inkscape:connector-curvature="0"
                 d="m 616.94,431.88 0.05,0 0.06,0 0.05,0 0.06,0 0.12,0 0.06,0.01 0.05,0 0.06,0.01 0.06,0 0.06,0.01 0.06,0.01 0.05,0.02 0.06,0.01 0.06,0.02 0.05,0.01 0.05,0.02 0.05,0.03 0.05,0.02 0.04,0.03 0.04,0.04 0.05,0.03 0.03,0.04 0.02,0.02 0.02,0.02 0.01,0.03 0.02,0.02 0.01,0.02 0.02,0.03 0.01,0.03 0.01,0.02 0.01,0.03 0.01,0.03 0.01,0.03 0,0.03 0.01,0.04 0.01,0.03 0,0.04 0,0.03 0.01,0.04 0,0.04 c 0,0.87 -0.81,0.87 -1.4,0.87 l -20.78,0 c -0.56,0 -1.39,0 -1.39,-0.84 0,-0.87 0.8,-0.87 1.39,-0.87 z"
                 id="path8149" /><path
                 style="fill:#000000;stroke-width:0"
                 inkscape:connector-curvature="0"
                 d="m 627.41,443.46 0.16,-0.04 0.16,-0.04 0.16,-0.04 0.15,-0.03 0.15,-0.03 0.14,-0.03 0.14,-0.03 0.14,-0.02 0.13,-0.03 0.13,-0.02 0.12,-0.02 0.12,-0.02 0.12,-0.01 0.11,-0.02 0.11,-0.01 0.1,-0.01 0.11,-0.01 0.09,-0.01 0.1,-0.01 0.09,0 0.09,-0.01 0.08,0 0.08,-0.01 0.08,0 0.08,0 0.07,0 0.07,0 0.06,-0.01 0.07,0 0.06,0 0.05,0 0.05,0 c 4.61,0 7.33,3.14 7.33,3.66 0,0.39 -0.24,0.49 -0.42,0.49 -0.07,0 -0.14,0 -0.28,-0.1 -0.84,-0.32 -2.68,-1.01 -5.26,-1.01 -0.98,0 -2.83,0.07 -5.1,0.94 -0.34,0.17 -0.41,0.17 -0.45,0.17 -0.45,0 -0.45,-0.38 -0.45,-0.94 l 0,-10.28 c 0,-0.6 0,-1.02 0.56,-1.02 0.31,0 0.34,0.07 0.7,0.49 1.49,1.92 3.62,2.2 4.84,2.2 2.09,0 3.03,-1.67 3.21,-1.96 0.63,-1.14 0.84,-2.47 0.84,-4.49 0,-1.05 0,-3.11 -1.05,-4.64 -0.87,-1.26 -2.37,-2.09 -4.08,-2.09 -2.27,0 -4.6,1.25 -5.47,3.56 1.32,-0.11 1.98,0.76 1.98,1.7 0,1.5 -1.28,1.78 -1.74,1.78 -0.07,0 -1.74,0 -1.74,-1.88 0,-3.14 2.85,-6.28 7.04,-6.28 4.46,0 8.37,3.31 8.37,7.71 0,3.94 -3,7.56 -7.33,7.56 -1.53,0 -3.34,-0.38 -4.87,-1.7 z"
                 id="path8151" /></g></g><g
             id="g8533"
             transform="matrix(0.37271138,0,0,0.37271138,-113.0843,334.4597)"><g
               word-spacing="normal"
               letter-spacing="normal"
               font-size-adjust="none"
               font-stretch="normal"
               font-weight="normal"
               font-variant="normal"
               font-style="normal"
               stroke-miterlimit="10.433"
               xml:space="preserve"
               transform="matrix(1.0629921,0,0,-1.0629921,-186.02362,789.27165)"
               id="g8535"
               style="font-style:normal;font-variant:normal;font-weight:normal;font-stretch:normal;letter-spacing:normal;word-spacing:normal;text-anchor:start;fill:none;fill-opacity:1;fill-rule:evenodd;stroke:#000000;stroke-linecap:butt;stroke-linejoin:miter;stroke-miterlimit:10.43299961;stroke-dasharray:none;stroke-dashoffset:0;stroke-opacity:1"><path
                 id="path8537"
                 d="m 470.64,437.88 0,0.05 0,0.06 0,0.05 0,0.05 0,0.05 0,0.05 0,0.04 0,0.05 0,0.04 0,0.04 0,0.04 0,0.04 0,0.04 -0.01,0.04 0,0.03 0,0.04 -0.01,0.03 0,0.03 -0.01,0.06 -0.01,0.05 -0.02,0.05 -0.01,0.05 -0.02,0.04 -0.02,0.04 -0.03,0.04 -0.03,0.03 -0.03,0.02 -0.03,0.03 -0.04,0.02 -0.05,0.02 -0.02,0.01 -0.03,0.01 -0.02,0 -0.03,0.01 -0.03,0.01 -0.03,0 -0.03,0.01 -0.03,0 -0.03,0.01 -0.04,0 -0.04,0 -0.03,0 -0.04,0.01 -0.04,0 -0.04,0 -0.05,0 -0.04,0 -0.05,0 -0.05,0.01 -0.05,0 -0.05,0 -0.05,0 c -3.09,-3.19 -7.47,-3.19 -9.07,-3.19 l 0,-1.55 c 1,0 3.94,0 6.53,1.3 l 0,-25.81 c 0,-1.79 -0.15,-2.39 -4.63,-2.39 l -1.6,0 0,-1.54 16.14,0 0,1.54 -1.59,0 c -4.49,0 -4.64,0.55 -4.64,2.39 z"
                 inkscape:connector-curvature="0"
                 style="fill:#000000;stroke-width:0" /><path
                 id="path8539"
                 d="m 502.91,421.94 0,0.75 -0.01,0.74 -0.02,0.75 -0.03,0.74 -0.05,0.75 -0.06,0.74 -0.07,0.74 -0.1,0.73 -0.11,0.73 -0.14,0.73 -0.16,0.72 -0.19,0.72 -0.22,0.71 -0.24,0.71 -0.28,0.7 -0.15,0.35 -0.16,0.35 c -2.29,4.78 -6.37,5.58 -8.47,5.58 -2.99,0 -6.62,-1.3 -8.66,-5.93 -1.6,-3.44 -1.85,-7.32 -1.85,-11.31 0,-3.74 0.2,-8.22 2.24,-12.01 2.15,-4.03 5.78,-5.03 8.22,-5.03 l 0,1.1 c -1.94,0 -4.88,1.25 -5.78,6.03 -0.54,2.99 -0.54,7.57 -0.54,10.51 0,3.19 0,6.47 0.4,9.16 0.94,5.93 4.68,6.38 5.92,6.38 1.65,0 4.94,-0.9 5.88,-5.83 0.5,-2.79 0.5,-6.57 0.5,-9.71 0,-3.74 0,-7.13 -0.55,-10.31 -0.75,-4.73 -3.59,-6.23 -5.83,-6.23 l 0,0 0,-1.1 c 2.69,0 6.48,1.05 8.67,5.78 1.59,3.44 1.84,7.32 1.84,11.26 z"
                 inkscape:connector-curvature="0"
                 style="fill:#000000;stroke-width:0" /><path
                 id="path8541"
                 d="m 530.94,431.88 0.05,0 0.06,0 0.05,0 0.06,0 0.12,0 0.06,0.01 0.05,0 0.06,0.01 0.06,0 0.06,0.01 0.06,0.01 0.05,0.02 0.06,0.01 0.06,0.02 0.05,0.01 0.05,0.02 0.05,0.03 0.05,0.02 0.04,0.03 0.04,0.04 0.05,0.03 0.03,0.04 0.02,0.02 0.02,0.02 0.01,0.03 0.02,0.02 0.01,0.02 0.02,0.03 0.01,0.03 0.01,0.02 0.01,0.03 0.01,0.03 0.01,0.03 0,0.03 0.01,0.04 0.01,0.03 0,0.04 0,0.03 0.01,0.04 0,0.04 c 0,0.87 -0.81,0.87 -1.4,0.87 l -20.78,0 c -0.56,0 -1.39,0 -1.39,-0.84 0,-0.87 0.8,-0.87 1.39,-0.87 z"
                 inkscape:connector-curvature="0"
                 style="fill:#000000;stroke-width:0" /><path
                 id="path8543"
                 d="m 542.41,443.46 0.16,-0.04 0.16,-0.04 0.16,-0.04 0.15,-0.03 0.15,-0.03 0.14,-0.03 0.14,-0.03 0.14,-0.02 0.13,-0.03 0.13,-0.02 0.12,-0.02 0.12,-0.02 0.12,-0.01 0.11,-0.02 0.11,-0.01 0.1,-0.01 0.11,-0.01 0.09,-0.01 0.1,-0.01 0.09,0 0.09,-0.01 0.08,0 0.08,-0.01 0.08,0 0.08,0 0.07,0 0.07,0 0.06,-0.01 0.07,0 0.06,0 0.05,0 0.05,0 c 4.61,0 7.33,3.14 7.33,3.66 0,0.39 -0.24,0.49 -0.42,0.49 -0.07,0 -0.14,0 -0.28,-0.1 -0.84,-0.32 -2.68,-1.01 -5.26,-1.01 -0.98,0 -2.83,0.07 -5.1,0.94 -0.34,0.17 -0.41,0.17 -0.45,0.17 -0.45,0 -0.45,-0.38 -0.45,-0.94 l 0,-10.28 c 0,-0.6 0,-1.02 0.56,-1.02 0.31,0 0.34,0.07 0.7,0.49 1.49,1.92 3.62,2.2 4.84,2.2 2.09,0 3.03,-1.67 3.21,-1.96 0.63,-1.14 0.84,-2.47 0.84,-4.49 0,-1.05 0,-3.11 -1.05,-4.64 -0.87,-1.26 -2.37,-2.09 -4.08,-2.09 -2.27,0 -4.6,1.25 -5.47,3.56 1.32,-0.11 1.98,0.76 1.98,1.7 0,1.5 -1.28,1.78 -1.74,1.78 -0.07,0 -1.74,0 -1.74,-1.88 0,-3.14 2.85,-6.28 7.04,-6.28 4.46,0 8.37,3.31 8.37,7.71 0,3.94 -3,7.56 -7.33,7.56 -1.53,0 -3.34,-0.38 -4.87,-1.7 z"
                 inkscape:connector-curvature="0"
                 style="fill:#000000;stroke-width:0" /></g></g></g></g></g><g
       transform="matrix(0.47909527,0,0,-0.47909527,151.84183,196.48894)"
       id="g5669"><g
         style="font-style:normal;font-variant:normal;font-weight:normal;font-stretch:normal;letter-spacing:normal;word-spacing:normal;text-anchor:start;fill:none;fill-opacity:1;fill-rule:evenodd;stroke:#000000;stroke-linecap:butt;stroke-linejoin:miter;stroke-miterlimit:10.43299961;stroke-dasharray:none;stroke-dashoffset:0;stroke-opacity:1"
         word-spacing="normal"
         letter-spacing="normal"
         font-size-adjust="none"
         font-stretch="normal"
         font-weight="normal"
         font-variant="normal"
         font-style="normal"
         stroke-miterlimit="10.433"
         xml:space="preserve"
         transform="matrix(1.0629921,0,0,-1.0629921,-186.02362,789.27165)"
         id="content"><path
           style="fill:#000000;stroke-width:0"
           inkscape:connector-curvature="0"
           id="path5672"
           d="m 480.21,424.98 0.01,0.03 0.01,0.03 0.01,0.03 0.01,0.03 0.01,0.06 0.02,0.05 0.01,0.06 0.01,0.04 0.02,0.05 0.01,0.04 0.01,0.04 0.01,0.04 0,0.04 0.01,0.04 0.01,0.03 0,0.03 0.01,0.03 0.01,0.03 0,0.03 0,0.03 0.01,0.03 0,0.02 0,0.06 0.01,0.05 0,0.05 0,0.05 0,0.03 0,0.03 0,0.03 0,0.03 c 0,0.9 -0.7,1.35 -1.45,1.35 -0.5,0 -1.29,-0.3 -1.74,-1.05 -0.1,-0.24 -0.5,-1.79 -0.7,-2.69 -0.34,-1.29 -0.7,-2.64 -0.99,-3.98 l -2.24,-8.97 c -0.2,-0.74 -2.34,-4.23 -5.63,-4.23 -2.54,0 -3.09,2.19 -3.09,4.03 0,2.3 0.84,5.38 2.54,9.77 0.8,2.04 1,2.59 1,3.58 0,2.25 -1.6,4.09 -4.09,4.09 -4.73,0 -6.57,-7.23 -6.57,-7.67 0,-0.5 0.49,-0.5 0.59,-0.5 0.5,0 0.55,0.1 0.8,0.9 1.34,4.68 3.34,6.17 5.03,6.17 0.4,0 1.25,0 1.25,-1.59 0,-1.25 -0.5,-2.54 -0.85,-3.49 -1.99,-5.28 -2.89,-8.12 -2.89,-10.46 0,-4.43 3.14,-5.93 6.08,-5.93 1.94,0 3.63,0.85 5.03,2.25 -0.65,-2.6 -1.25,-5.04 -3.24,-7.68 -1.29,-1.69 -3.19,-3.14 -5.48,-3.14 -0.7,0 -2.94,0.16 -3.79,2.1 0.8,0 1.45,0 2.15,0.59 0.49,0.45 0.99,1.1 0.99,2.05 0,1.54 -1.34,1.74 -1.84,1.74 -1.15,0 -2.79,-0.8 -2.79,-3.24 0,-2.49 2.19,-4.33 5.28,-4.33 5.13,0 10.26,4.53 11.66,10.16 z" /><path
           style="fill:#000000;stroke-width:0"
           inkscape:connector-curvature="0"
           id="path5674"
           d="m 503.87,441.47 0.01,0.03 0.01,0.03 0.01,0.03 0.01,0.02 0.01,0.03 0.01,0.03 0.02,0.05 0.02,0.05 0.01,0.05 0.02,0.04 0.01,0.04 0.01,0.04 0.02,0.04 0.01,0.04 0.01,0.03 0,0.03 0.01,0.03 0.01,0.03 0.01,0.03 0,0.02 0.01,0.03 0,0.02 0,0.02 0.01,0.02 0,0.01 0,0.02 0,0.01 0,0.02 0.01,0.01 0,0.01 0,0.01 0,0 0,0.01 0,0.01 0,0 c 0,0.55 -0.45,1 -1,1 -0.35,0 -0.7,-0.15 -0.85,-0.45 l -17.28,-47.47 c -0.25,-0.65 -0.25,-0.85 -0.25,-0.9 0,-0.54 0.45,-0.99 0.99,-0.99 0.65,0 0.8,0.34 1.1,1.19 z" /><path
           style="fill:#000000;stroke-width:0"
           inkscape:connector-curvature="0"
           id="path5676"
           d="m 525.63,436.14 0.04,0.16 0.04,0.16 0.04,0.15 0.04,0.14 0.05,0.14 0.04,0.13 0.05,0.12 0.06,0.12 0.05,0.11 0.07,0.1 0.07,0.1 0.08,0.1 0.09,0.08 0.1,0.08 0.11,0.08 0.12,0.07 0.14,0.06 0.14,0.06 0.16,0.06 0.18,0.05 0.09,0.02 0.1,0.02 0.1,0.03 0.11,0.02 0.11,0.01 0.12,0.02 0.12,0.02 0.12,0.01 0.13,0.02 0.14,0.01 0.14,0.01 0.14,0.01 0.15,0.01 0.16,0.01 0.16,0.01 0.17,0.01 0.17,0.01 0.18,0 0.18,0.01 0.19,0 0.2,0 0.2,0.01 0.21,0 0.22,0 c 1.5,0 1.89,0 1.89,0.95 0,0.59 -0.55,0.59 -0.79,0.59 l -14,0 c -0.35,0 -0.95,0 -0.95,-0.99 0,-0.55 0.45,-0.55 1.4,-0.55 0.1,0 1.04,0 1.89,-0.1 0.9,-0.1 1.35,-0.15 1.35,-0.8 0,-0.2 -0.05,-0.35 -0.2,-0.94 l -6.68,-26.75 c -0.5,-1.95 -0.6,-2.35 -4.53,-2.35 -0.85,0 -1.35,0 -1.35,-0.99 0,-0.55 0.45,-0.55 1.35,-0.55 l 23.06,0 c 1.2,0 1.25,0 1.55,0.85 l 3.93,10.76 c 0.2,0.55 0.2,0.64 0.2,0.69 0,0.2 -0.15,0.55 -0.6,0.55 -0.45,0 -0.5,-0.25 -0.84,-1.05 -1.7,-4.58 -3.89,-10.26 -12.51,-10.26 l -4.68,0 c -0.7,0 -0.8,0 -1.1,0.05 -0.5,0.05 -0.64,0.11 -0.64,0.5 0,0.15 0,0.25 0.25,1.15 z" /></g></g></g></svg>